<?xml version="1.0" encoding="utf-8"?>
<!-- Generator: Adobe Illustrator 17.0.0, SVG Export Plug-In . SVG Version: 6.00 Build 0)  -->
<!DOCTYPE svg PUBLIC "-//W3C//DTD SVG 1.1//EN" "http://www.w3.org/Graphics/SVG/1.1/DTD/svg11.dtd">
<svg version="1.1" id="Layer_1" xmlns="http://www.w3.org/2000/svg" xmlns:xlink="http://www.w3.org/1999/xlink" x="0px" y="0px"
	 width="800px" height="600px" viewBox="0 0 800 600" enable-background="new 0 0 800 600" xml:space="preserve">
<g>
	<path fill-rule="evenodd" clip-rule="evenodd" d="M341.292,183.775c2.58-0.332,3.44-4.384,1.231-6.115
		c-5.249-4.121-11.959-0.879-16.751,2.474c-3.392,2.373-6.115,5.556-8.013,9.147c-1.442-0.843-3.05-1.424-4.708-1.715
		c0.332-1.675,0.778-3.33,1.552-4.983c2.04-4.343,4.911-6.431,8.862-8.794c2.74-1.639,1.393-6.781-1.824-6.827
		c-6.322-0.094-10.59,5.23-12.941,10.579c-1.204,2.745-2.215,6.932-1.944,10.691c-2.693,1.09-5.074,3.064-7.061,5.093
		c-3.808,3.884-5.914,9.779-5.06,14.937c-34.863,17.031-47.783,75.725-26.136,103.426c1.018,1.306,3.613,0.598,2.912-1.259
		c-11.425-30.45-1.246-75.192,27.015-94.156c10.838,2.185,6.925,11.537,8.541,15.131c1.289,2.859,6.115,2.83,7.429,0.015
		c2.611-5.588,1.611-12.32-2.879-15.684c5.796-0.752,9.571-6.946,11.653-12.542c4.129-4.765,10.092-7.355,16.239-5.566
		c3.553,1.03,6.009-4.538,2.978-6.567c-7.16-4.783-14.564-1.36-19.357,4.906c-0.083-0.46-0.526-1.607-0.921-2.319
		c2.074-2.045,4.73-4.896,7.504-6.535C334.06,184.49,336.934,184.338,341.292,183.775z"/>
	<g>
		<path fill-rule="evenodd" clip-rule="evenodd" d="M377.918,216.217c0,0,6.205-5.483,7.564-5.52
			c2.602,0.381,8.363,3.75,11.615,6.829c10.435-2.109,26.595-3.868,32.72-3.638c18.059,0.658,31.885,4.395,42.362,7.392
			c44.168,12.601,60.345,48.577,67.534,63.311c12.433,25.475,9.163,52.729,8.95,57.421c-0.741,16.778-1.97,30.8-9.224,48.204
			c-3.738,8.95-6.909,16.533-12.622,23.268c-1.071,1.259-2.525,1.377-3.414,2.43c-0.89,1.044-0.216,2.063-1.545,3.73
			c-3.967,4.994-7.154,5.914-11.59,9.732c-0.797,0.68-2.102,3.694-2.951,4.432c-1.19,1.027-2.748,2.171-4.137,3.068
			c-1.387,0.898-1.276,2.364-2.8,3.361c-1.522,0.992-2.16,0.366-3.822,1.474c-1.668,1.113-1.669,2.443-2.691,3.124
			c-6.286,4.171-14.385,9.033-16.121,10.121c-1.734,1.088-3.738,0.796-6.954,2.358c-1.715,0.826-2.296,2.501-4.333,3.928
			c-2.03,1.435-4.008,2.364-7.473,3.934c-2.215,1-4.609,0.49-6.472,1.176c-1.486,0.545-1.164,2.077-2.934,3.085
			c-4.776,2.716-8.794,3.543-14.41,5.102c-1.797,0.493-4.316-0.193-6.389,0.317c-3.077,0.749-2.336,1.655-5.373,2.496
			c-2.481,0.691-2.916-0.479-4.682-0.008c-1.764,0.476-1.614,1.705-4.303,2.212c-4.378,0.832-8.867,1.187-13.371,1.438
			c-21.161,1.157-54.098-3.041-94.196-28.458c-40.105-25.431-50.997-69.268-50.946-94.817c0.021-13.013,1.011-31.031,9.004-51.578
			c4.136-10.622,8.259-20.299,13.696-28.771c1.828-2.836,5.019-5.475,6.949-8.388c1.061-1.576,1.3-3.289,2.461-4.815
			c1.309-1.711,3.099-2.059,4.588-3.815c1.23-1.439,1.916-3.377,3.198-4.756c1.187-1.263,2.847-1.505,4.108-2.625
			c1.361-1.216,2.372-2.946,3.738-4.212c3.518-3.286,8.162-6.685,11.933-10.061c1.428-1.27,3.964-2.01,5.892-2.653
			c1.558-3.957,5.351-3.029,8.026-4.79c0.753-0.485,1.35-1.387,2.033-1.88c1.793-1.318,4.184-3.058,6.469-4.091
			c5.854-2.641,12.294-2.719,17.547-5.766c2.585-1.508,4.749-3.818,7.194-4.609C369.072,212.868,377.918,216.217,377.918,216.217z"
			/>
		<path fill-rule="evenodd" clip-rule="evenodd" fill="#E3770D" d="M509.005,247.324c-18.85-18.609-38.269-24.02-65.153-28.086
			c-23.473-3.548-35.606,0.958-36.879,2.211c2.936,1.989,7.201,3.957,9.3,7.688c14.164,0.631,29.728,7.048,30.14,11.928
			c-13.382-7.275-28.027-8.385-30.345-8.502c-5.307,1.953-12.123,2.42-17.304,2.395c-2.862,2.92-10.154,11.499-13.286,10.53
			c-2.158-0.671-6.479-7.115-7.979-9.075c-1.182,2.854-6.066,3.256-8.096,7.595c-2.029,4.34,1.007,7.922-0.459,9.977
			c-1.731,2.424-6.019,0.985-9.096,5.261c-3.077,4.277-3.173,7.64-3.085,9.772c-0.591,0.208-2.837-1.979-1.655-5.801
			c1.173-3.827,2.474-7.041,5.527-8.874c1.549-0.931,4.303-1.186,5.062-2.982c0.741-1.735-0.41-3.961-0.081-6.296
			c0.967-6.874,6.858-6.19,9.893-10.4c-4.231-1.386-9.711-4.545-10.173-8.654c2.671-3.336,5.648-4.502,9.34-6.164
			c-3.425-2.399-8.549-2.253-11.897-0.679c-2.657,1.255-4.582,2.982-9.075,5.026c-4.496,2.045-7.243,1.41-13.038,3.795
			c-5.803,2.384-8.925,7.538-12.463,7.56c-3.542,0.015-2.705,3.162-3.252,3.54c-3.986,0.393-6.575,1.652-8.585,3.38
			c-2.212,1.905-10.098,7.108-14.024,13.885c-4.066,0.725-4.555,4.361-7.924,7.658c-2.193,2.153-3.864,2.821-5.368,5.735
			c-2.53,4.884-5.694,7.199-8.11,11.255c-2.745,4.578-5.749,9.304-9.552,19.427c-3.803,10.118-8.169,20.018-10.149,36.122
			c-2.404,19.539,1.573,44.735,7.406,58.115c5.84,13.382,16.752,35.08,42.917,52.501c26.166,17.415,61.725,25.346,71.793,26.219
			c10.06,0.868,24.883,0.193,28.521-0.975c3.65-1.168,2.942-2.757,5.876-3.369c2.932-0.614,2.897,1.116,5.255,0.774
			c2.355-0.347,1.814-1.782,5.013-2.791c3.2-1.002,2.702,0.518,5.494,0.063c2.793-0.452,9.486-2.49,12.473-4.225
			c2.989-1.738,1.888-2.854,4.471-4.113c2.58-1.251,4.026-0.003,5.917-0.38c2.395-0.493,6.179-2.537,7.192-3.81
			c1.509-1.876,1.626-3.091,4.135-4.339c2.505-1.245,4.781-0.43,6.717-1.333c1.936-0.906,11.919-7.443,14.874-9.548
			c1.602-1.138,2.317-2.774,3.734-3.774c2.028-1.438,3.246-1.005,3.959-1.482c1.555-1.022,1.542-2.771,3.135-3.587
			c1.592-0.81,1.342,0.022,4.122-1.548c2.775-1.573,1.328-3.388,2.873-4.779c1.537-1.391,2.279-0.675,3.921-2.074
			c1.64-1.408,5.535-5.038,6.775-6.603c1.238-1.568,0.545-2.876,1.7-4.237c1.157-1.361,2.37-0.777,3.651-1.859
			c1.276-1.083,2.46-3.289,3.246-4.625c0.784-1.331-1.309-3.248-0.051-5.137c1.263-1.89,2.427,0.548,3.413-1.099
			c0.982-1.647,2.183-3.504,3.963-7.104c5.373-10.878,10.436-35.439,9.612-51.316c-0.085-1.556-3.424-1.435-3.577-4.179
			c-0.151-2.744,3.709-2.223,3.936-4.719c0.23-2.496-0.81-19.007-3.235-28.576c-0.358-1.397-3.578-0.003-4.055-3.096
			c-0.477-3.091,2.183-3.38,1.874-5.292C537.986,292.338,527.858,265.913,509.005,247.324z"/>
		<path fill-rule="evenodd" clip-rule="evenodd" fill="#D95D1E" d="M460.148,395.538c12.748-10.853,55.685-45.928,70.26-42.297
			c14.56,3.639-1.259,51.581-31.382,73.659c-30.125,22.076-65.928,33.956-74.355,28.83
			C416.236,450.608,422.985,427.167,460.148,395.538z"/>
		<path fill-rule="evenodd" clip-rule="evenodd" fill="#A1BC30" d="M385.757,213.554c-3.129,1.133-5.319,4.771-7.584,7.06
			c-3.217,1.103-8.579,4.143-9.503,6.236c3.647,4.205,10.072,6.095,10.072,6.095s5.22,9.57,7.699,9.815
			c2.479,0.245,7.236-6.381,11.974-11.103c6.53-0.131,10.589,0.192,14.281-1.903c-1.622-1.815-4.595-4.639-8.476-5.892
			c-12.503,13.184-24.628,6.964-24.672,2.226c-0.058-4.735,10.203-8.494,12.763-8.564
			C391.66,216.755,386.625,213.015,385.757,213.554z"/>
		<path fill-rule="evenodd" clip-rule="evenodd" fill="#A1BC30" d="M382.479,226.496c2.532,5.569,16.123,1.222,16.678-3.263
			C399.712,218.738,380.282,221.67,382.479,226.496z"/>
		<path fill-rule="evenodd" clip-rule="evenodd" d="M446.974,242.181c2.098-1.187,2.971,2.585,5.208,1.547
			c1.142,0.946,1.997,2.218,1.47,3.235c-0.771,1.472-1.634,0.26-3.474-0.195C448.143,246.254,445.073,245.798,446.974,242.181z"/>
		<path fill-rule="evenodd" clip-rule="evenodd" d="M465.014,259.559c-4.037-0.076-6.939-3.279-6.542-6.987
			c2.778-2.158,2.814,1.471,4.212,3.363C463.853,257.503,466.08,257.901,465.014,259.559z"/>
		<path fill-rule="evenodd" clip-rule="evenodd" d="M473.381,267.662c-1.924,0.579-3.715-2.88-3.496-3.876
			C471.712,263.261,473.939,265.831,473.381,267.662z"/>
		<path fill-rule="evenodd" clip-rule="evenodd" d="M479.481,273.878c-0.479,0.686-1.07,1.055-1.744,1.172
			c-0.841-0.656-1.353-1.464-1.242-2.558C477.374,270.707,479.703,272.474,479.481,273.878z"/>
		<path fill-rule="evenodd" clip-rule="evenodd" d="M479.451,278.95c1.482-1.465,3.365,0.592,2.8,1.851
			C481.459,282.541,478.845,281.063,479.451,278.95z"/>
		<path fill-rule="evenodd" clip-rule="evenodd" d="M483.893,288.635c-1.909-0.64-1.985-2.099-2.121-3.522
			C483.772,282.162,487.278,287.528,483.893,288.635z"/>
		<path fill-rule="evenodd" clip-rule="evenodd" d="M535.827,315.097c-0.961,0.969-3.2-4.509-1.039-4.46
			C536.955,310.681,536.79,314.119,535.827,315.097z"/>
		<path fill-rule="evenodd" clip-rule="evenodd" d="M485.562,294.503c-0.927-0.749-1.281-1.76-1.047-3.033
			C486.736,289.372,488.677,294.699,485.562,294.503z"/>
		<path fill-rule="evenodd" clip-rule="evenodd" d="M536.658,329.112c-2.551-1.355-2.078-5.567,0.043-7.008
			C538.815,320.658,539.214,330.467,536.658,329.112z"/>
		<path fill-rule="evenodd" clip-rule="evenodd" d="M531.697,321.094c1.412,0.859,1.105,3.487-0.361,4.65
			C529.868,326.909,530.288,320.239,531.697,321.094z"/>
		<path fill-rule="evenodd" clip-rule="evenodd" d="M531.114,335.889c-1.255,0.931-3.443-3.953-1.619-4.402
			C531.321,331.038,532.369,334.958,531.114,335.889z"/>
		<path fill-rule="evenodd" clip-rule="evenodd" d="M530.896,344.938c-1.114-2.669-0.923-5.449,1.559-6.732
			C534.934,336.927,532.008,347.604,530.896,344.938z"/>
		<path fill-rule="evenodd" clip-rule="evenodd" d="M534.29,357.438c-2.727-3.468-0.172-6.809,1.292-8.043
			C537.045,348.158,537.02,360.906,534.29,357.438z"/>
		<path fill-rule="evenodd" clip-rule="evenodd" d="M525.044,348.367c2.14,0.377,1.587,3.622,0.587,4.151
			C524.634,353.047,522.904,347.987,525.044,348.367z"/>
		<path fill-rule="evenodd" clip-rule="evenodd" d="M351.728,276.609c-1.729-0.145-3.46,2.29-4.201,4.555
			c-2.106-0.61-1.147-2.551,0.179-4.524c1.191-1.764,2.593-0.773,3.383-1.752c0.795-0.978,0.263-3.097-0.326-3.715
			C353.812,267.732,354.883,276.869,351.728,276.609z"/>
		<path fill-rule="evenodd" clip-rule="evenodd" d="M526.451,362.512c-1.53-1.366-0.632-4.044,1.267-4.499
			C529.621,357.562,527.979,363.878,526.451,362.512z"/>
		<path fill-rule="evenodd" clip-rule="evenodd" d="M533.113,363.829c2.65-0.441,0.607,8.137-1.226,5.793
			C530.043,367.286,530.465,364.275,533.113,363.829z"/>
		<path fill-rule="evenodd" clip-rule="evenodd" d="M536.836,371.052c-1.377-1.38-1.187-3.551,0.613-4.369
			C539.239,365.862,538.213,372.429,536.836,371.052z"/>
		<path fill-rule="evenodd" clip-rule="evenodd" d="M519.377,365.33c-1.574,0.802-3.624-0.223-2.749-2.457
			C517.499,360.642,520.951,364.526,519.377,365.33z"/>
		<path fill-rule="evenodd" clip-rule="evenodd" d="M524.999,370.972c2.178-0.471,1.507,4.997-0.694,4.217
			C522.631,374.6,522.81,371.446,524.999,370.972z"/>
		<path fill-rule="evenodd" clip-rule="evenodd" d="M525.839,381.42c-0.898-2.76,1.409-6.165,4.267-5.537
			C532.958,376.511,526.733,384.177,525.839,381.42z"/>
		<path fill-rule="evenodd" clip-rule="evenodd" d="M518.149,369.451c2.45-0.124-0.616,5.198-1.766,3.87
			C515.231,372.005,515.701,369.581,518.149,369.451z"/>
		<path fill-rule="evenodd" clip-rule="evenodd" d="M340.904,296.225c-0.845-1.97-0.183-5,1.803-5.686
			C344.692,289.85,341.753,298.197,340.904,296.225z"/>
		<path fill-rule="evenodd" clip-rule="evenodd" d="M515.38,383.841c-0.467-3.014,0.599-4.52,3.19-5.628
			C521.162,377.109,515.849,386.855,515.38,383.841z"/>
		<path fill-rule="evenodd" clip-rule="evenodd" d="M519.872,395.494c-1.215-4.391,1.443-10.129,6.21-10.148
			C530.852,385.329,521.09,399.89,519.872,395.494z"/>
		<path fill-rule="evenodd" clip-rule="evenodd" d="M507.189,383.018c-0.392-2.052,2.241-3.504,3.654-2.325
			C511.677,381.39,507.654,385.458,507.189,383.018z"/>
		<path fill-rule="evenodd" clip-rule="evenodd" d="M338.283,302.078c1.906,1.934,0.443,2.27-0.793,4.449
			c-0.903,1.587,0.596,4.848-1.697,5.438C333.991,309.877,336.865,304.433,338.283,302.078z"/>
		<path fill-rule="evenodd" clip-rule="evenodd" d="M505.754,390.965c-0.455-3.763,2.752-4.165,4.584-3.837
			C512.173,387.455,506.211,394.725,505.754,390.965z"/>
		<path fill-rule="evenodd" clip-rule="evenodd" d="M509.219,397.761c-1.258-2.584,0.969-5.151,4.344-5.465
			C516.946,391.987,510.471,400.336,509.219,397.761z"/>
		<path fill-rule="evenodd" clip-rule="evenodd" d="M513.504,405.565c-0.5-3.421,1.485-4.906,4.653-5.206
			C521.326,400.047,514,408.988,513.504,405.565z"/>
		<path fill-rule="evenodd" clip-rule="evenodd" d="M495.22,396.276c-1.235-3.507,4.001-7.655,3.659-3.396
			C498.753,394.474,496.751,396.532,495.22,396.276z"/>
		<path fill-rule="evenodd" clip-rule="evenodd" d="M502.751,397.992c1.735,0.228-1.475,6.528-2.431,3.928
			C499.357,399.314,501.021,397.761,502.751,397.992z"/>
		<path fill-rule="evenodd" clip-rule="evenodd" d="M502.954,407.385c-0.452-2.443,2.544-4.104,4.949-2.959
			C510.303,405.57,503.397,409.826,502.954,407.385z"/>
		<path fill-rule="evenodd" clip-rule="evenodd" d="M492.933,410.942c-0.475-3.088,1.594-4.225,3.602-4.245
			C498.549,406.683,493.41,414.032,492.933,410.942z"/>
		<path fill-rule="evenodd" clip-rule="evenodd" d="M500.098,418.613c-0.507-2.848,1.14-6.341,4.92-5.68
			C508.799,413.594,500.613,421.467,500.098,418.613z"/>
		<path fill-rule="evenodd" clip-rule="evenodd" d="M483.506,411.347c-2.413-0.322,3.044-5.542,3.39-3.187
			C487.235,410.517,485.917,411.669,483.506,411.347z"/>
		<path fill-rule="evenodd" clip-rule="evenodd" d="M328.848,341.577c1.377,2.777,2.363,7.735-0.14,10.969
			C327.415,349.711,326.881,344.599,328.848,341.577z"/>
		<path fill-rule="evenodd" clip-rule="evenodd" d="M483.761,416.319c1.836,0.592-2.282,4.749-2.859,2.774
			C480.324,417.115,481.926,415.718,483.761,416.319z"/>
		<path fill-rule="evenodd" clip-rule="evenodd" d="M486.846,420.307c-2.442-0.689,4.139-5.517,4.244-3.697
			C491.262,419.646,489.289,421.001,486.846,420.307z"/>
		<path fill-rule="evenodd" clip-rule="evenodd" d="M483.324,431.249c0.61-4.664,3.618-7.068,8.021-6.093
			C495.746,426.142,482.708,435.913,483.324,431.249z"/>
		<path fill-rule="evenodd" clip-rule="evenodd" d="M471.975,425.45c-0.415-2.548-0.384-4.424,2.899-4.617
			C478.157,420.652,472.396,427.998,471.975,425.45z"/>
		<path fill-rule="evenodd" clip-rule="evenodd" d="M470.295,440.229c0.04-4.03,1.828-7.76,6.377-7.683
			C481.219,432.621,470.253,444.27,470.295,440.229z"/>
		<path fill-rule="evenodd" clip-rule="evenodd" d="M466.302,432.428c2.932,0.08-2.538,9.112-3.839,5.887
			C461.156,435.089,463.369,432.348,466.302,432.428z"/>
		<path fill-rule="evenodd" clip-rule="evenodd" d="M332.918,385.894c-3.737,0.444-2.804-3.821-3.476-6.41
			c-0.591-2.284-2.848-3.727-1.151-5.909c1.7-2.182,1.707,1.314,1.91,3.427C330.399,379.109,333.236,381.93,332.918,385.894z"/>
		<path fill-rule="evenodd" clip-rule="evenodd" fill="#D95D1E" d="M306.163,435.626c-5.304-5.799-3.492-14.578,8.402-15.266
			c11.895-0.689,39.923,7.933,57.254,18.398c17.331,10.465,33.481,26.555,27.172,29.825c-6.298,3.267-41.869-4.498-56.736-10.129
			C327.391,452.823,314.977,445.256,306.163,435.626z"/>
		<path fill-rule="evenodd" clip-rule="evenodd" d="M448.598,444.369c0.266-3.81,3.559-4.52,4.922-4.261
			C454.882,440.372,448.336,448.171,448.598,444.369z"/>
		<path fill-rule="evenodd" clip-rule="evenodd" d="M460.259,444.369c2.72,0.253-3.015,6.33-3.53,4.317
			C456.22,446.672,457.538,444.113,460.259,444.369z"/>
		<path fill-rule="evenodd" clip-rule="evenodd" d="M337.12,406.796c-2.158-1.088-3.431-7.154-3.748-8.63
			C334.809,395.697,338.542,404.22,337.12,406.796z"/>
		<path fill-rule="evenodd" clip-rule="evenodd" d="M445.326,454.793c-0.614,1.617-4.033,2.636-6.191,0.876
			C436.981,453.911,445.937,453.178,445.326,454.793z"/>
		<path fill-rule="evenodd" clip-rule="evenodd" d="M431.978,458.343c-1.167,1.215-4.235,1.914-6.11-0.022
			C423.996,456.39,433.148,457.129,431.978,458.343z"/>
		<path fill-rule="evenodd" clip-rule="evenodd" d="M402.142,467.051c1.173-2.647,6.972-2.215,8.382,0.43
			C408.848,468.885,403.408,469.056,402.142,467.051z"/>
		<path fill-rule="evenodd" clip-rule="evenodd" d="M390.676,469.695c-1.576,1.92-7.779,2.033-7.719-1.584
			C384.693,466.731,389.533,467.811,390.676,469.695z"/>
		<path fill-rule="evenodd" clip-rule="evenodd" fill="#FF9514" d="M436.549,306.048c5.367-14.322,5.399-32.162-0.208-46.578
			c-12.199-7.004-25.056-8.246-34.146-6.672c23.328,3.458,31.969,16.838,30.345,33.667c-2.289,23.69-25.596,38.692-44.957,38.89
			c-10.589,0.118-27.243-8.181-30.954-20.734c-0.373,1.364-0.722,2.738-1.044,4.124c2.829,12.228,18.179,21.74,27.533,25.032
			C403.616,340.979,427.99,328.859,436.549,306.048z"/>
		<path fill-rule="evenodd" clip-rule="evenodd" fill="#FF9514" d="M370.214,316.893c7.21,4.939,15.117,7.08,23.815,5.418
			c18.897-3.614,46.895-27.883,31.422-53.799c-5.657-9.476-16.427-13.043-27.756-14.609c-18.956,5.903-32.33,23.325-39.468,45.319
			C358.27,306.913,364.746,313.144,370.214,316.893z"/>
		<path fill-rule="evenodd" clip-rule="evenodd" fill="#FF9514" d="M449.468,271.175c-1.441-4.697-6.778-7.641-10.049-9.815
			c5.606,16.977,4.961,38.225-4.468,53.02c-12.39,19.456-34.374,29.962-54.614,21.018c-8.458-3.738-21.051-11.526-25.739-22.018
			c-0.11,0.592-1.818,3.476-0.58,7.426c3.774,11.985,18.723,26.577,36.858,26.775c9.268,0.107,19.127-1.688,27.842-5.611
			c9.717-4.385,16.655-12.759,22.443-22.208C451.26,303.243,452.603,281.41,449.468,271.175z"/>
		<path fill-rule="evenodd" clip-rule="evenodd" fill="#FF9514" d="M452.493,274.177c2.562,19.497-2.165,37.664-13.931,53.69
			c-12.284,16.721-32.132,23.982-51.068,22.081c-15.656-1.554-28.512-12.663-33.626-24.756
			c-0.409,29.444,33.316,51.889,68.31,34.981C458.787,342.483,469.413,292.145,452.493,274.177z"/>
		<path fill-rule="evenodd" clip-rule="evenodd" fill="#FF9514" d="M486.657,251.072c-0.877-8.943-4.814-14.909-8.65-17.762
			c-3.841-2.851-14.522-6.184-17.849-6.627c-15.316-2.008,9.487,15.663,24.58,36.225
			C486.366,259.428,487.085,255.428,486.657,251.072z"/>
		<path fill-rule="evenodd" clip-rule="evenodd" fill="#FF9514" d="M486.276,265.045c1.212,1.766,2.35,3.523,3.374,5.315
			c2.592,4.507,4.965,8.913,7.118,13.167c0.488-0.742,0.957-1.493,1.406-2.259c3.828-6.502,6.794-14.405,5.357-22.14
			c-1.029-5.518-3.573-10.404-7.02-14.412c-4.136-3.171-8.584-6.035-12.946-8.479c3.371,4.832,5.496,10.538,5.476,17.35
			C489.015,257.824,488.008,261.681,486.276,265.045z"/>
		<path fill-rule="evenodd" clip-rule="evenodd" fill="#FF9514" d="M502.266,278.643c-1.292,2.516-2.751,4.909-4.322,7.227
			c3.964,8.035,7.155,15.547,9.639,22.409c4.491-7.738,8.842-16.536,9.689-25.442c0.575-6.051-0.715-14.242-2.862-18.967
			c-2.154-4.723-6.674-9.095-11.736-13.904C506.817,258.452,507.346,268.695,502.266,278.643z"/>
		<path fill-rule="evenodd" clip-rule="evenodd" fill="#FF9514" d="M524.095,293.588c-0.284-11.604-3.448-16.783-5.352-21.366
			c2.554,17.167-4.381,29.129-9.78,38.307c-0.128,0.206-0.249,0.413-0.38,0.631c2.22,6.515,3.753,12.396,4.643,17.459
			C515.688,342.85,524.74,319.438,524.095,293.588z"/>
		<path fill-rule="evenodd" clip-rule="evenodd" fill="#FF9514" d="M291.078,297.572c0.476,5.259,2.066,10.534,5.388,14.5
			c5.651,6.771,11.242,7.779,22.804,3.306c2.547-8.655,5.822-18.429,9.782-27.573c-3.688,1.266-7.429,2.018-11.019,1.819
			c-8.052-0.45-14.803-7.366-13.58-16.631c0.337-2.508,1.074-4.796,2.069-6.94C293.616,275.917,290.536,291.55,291.078,297.572z"/>
		<path fill-rule="evenodd" clip-rule="evenodd" fill="#FF9514" d="M280.388,331.186c2.84,5.653,7.377,10.055,12.863,12.302
			c7.1,2.936,13.937,1.672,19.837-3.449c0.249-1.441,3.116-14.041,4.953-20.564c-1.89,0.862-3.876,1.468-5.982,1.744
			c-9.096,1.184-16.051-3.295-20.489-11.724c-3.654-6.944-3.16-13.456-1.377-20.066c-3.868,7.276-9.348,18.901-10.681,25.54
			C278.178,321.614,278.007,326.454,280.388,331.186z"/>
		<path fill-rule="evenodd" clip-rule="evenodd" fill="#FF9514" d="M312.513,382.949c-1.326-6.834-3.399-20.979-0.916-38.221
			c-0.746,0.504-1.516,0.967-2.317,1.375c-7.902,4.121-16.569,1.672-23.543-3.427c-6.367-4.677-8.79-10.368-9.309-17.043
			C266.12,374.784,313.959,390.392,312.513,382.949z"/>
		<path fill-rule="evenodd" clip-rule="evenodd" fill="#FF9514" d="M306.84,272.86c-0.698,14.86,14.069,15.391,23.2,11.383
			c9.116-18.784,20.464-41.729,16.75-41.634c-7.034,0.178-21.913,6.644-32.349,15.985
			C309.775,262.768,307.096,267.316,306.84,272.86z"/>
		<path fill-rule="evenodd" clip-rule="evenodd" fill="#80AD37" d="M389.705,224.596c1.63-0.318,8.315-1.558,7.414-0.059
			c-0.878,1.489-6.807,4.706-10.701,3.786C382.529,227.404,384.903,225.561,389.705,224.596z"/>
		<path fill-rule="evenodd" clip-rule="evenodd" fill="#80AD37" d="M397.164,231.778l-7.367,1.359c0,0-0.733,2.515-1.847,4.549
			c-1.102,2.021-1.778,2.818-1.778,2.818s0.292,0.855,1.081,0.493c0.777-0.346,3.354-2.482,5.544-4.726
			C394.98,234.025,397.164,231.778,397.164,231.778z"/>
		<path fill-rule="evenodd" clip-rule="evenodd" fill="#80AD37" d="M404.248,224.327c0,0,2.865,1.001,4.835,2.631
			c1.968,1.618,2.512,2.58,2.512,2.58s-5.03-0.572-7.264-1.208c-2.237-0.628-3.07-1.014-3.07-1.014s1.026-0.795,1.773-1.566
			C403.77,224.988,404.248,224.327,404.248,224.327z"/>
		<path fill-rule="evenodd" clip-rule="evenodd" fill="#80AD37" d="M380.742,222.683c0,0,1.32-1.844,3.919-3.182
			c2.61-1.344,6.432-2.351,6.432-2.351s-4.082-3.074-4.988-2.948C383.723,214.565,380.742,222.683,380.742,222.683z"/>
	</g>
	<g>
		<path d="M363.504,286.108c-9.595-3.917-21.648-1.628-28.193,8.191c-5.877,8.831-8.334,21.96-3.542,34.13
			c7.621,19.346,32.473,21.076,43.447,4.854C385.688,317.796,381.065,293.288,363.504,286.108z"/>
		<path fill="#FFFFFF" d="M374.797,321.961c-3.244,19.946-30.418,24.695-38.769,3.727c-2.519-6.333-2.588-14.671-0.929-21.285
			c1.894-7.515,7.348-15.59,17.238-16.604c8.797-0.9,15.694,3.472,19.636,11.075C375.916,306.469,376.192,313.413,374.797,321.961z"
			/>
		<path d="M430.654,287.173c-9.563-10.455-22.388-11.377-33.162-2.996c-6.76,5.272-10.342,13.634-11.655,25.242
			c-1.314,11.592,2.641,27.392,18.524,32.072c15.246,4.49,26.702-3.65,31.684-15.365
			C441.542,313.199,437.849,295.013,430.654,287.173z"/>
		<path fill="#FFFFFF" d="M390.641,307.436c1.416-13.148,8.936-26.639,22.613-25.306c16.666,1.607,19.948,17.995,20.062,28.785
			c0.16,14.991-8.763,29.238-26.681,25.486C394.184,333.798,389.261,320.309,390.641,307.436z"/>
		<path d="M376.566,316.702c-0.366,6.306-5.774,11.115-12.073,10.752c-6.296-0.372-11.097-5.777-10.739-12.065
			c0.365-6.305,5.764-11.112,12.069-10.74C372.122,305.006,376.929,310.408,376.566,316.702z"/>
		<path d="M434.279,313.747c-0.372,6.341-5.81,11.184-12.148,10.812c-6.337-0.372-11.185-5.807-10.822-12.156
			c0.373-6.33,5.808-11.173,12.152-10.804C429.801,301.968,434.64,307.4,434.279,313.747z"/>
		<path fill="#FFFFFF" d="M372.604,313.518c-0.116,1.95-1.792,3.449-3.741,3.339c-1.959-0.116-3.453-1.79-3.335-3.746
			c0.113-1.958,1.785-3.451,3.745-3.339C371.224,309.888,372.725,311.568,372.604,313.518z"/>
		<path fill="#FFFFFF" d="M431.068,310.254c-0.116,2.096-1.91,3.691-4.011,3.57c-2.092-0.118-3.695-1.914-3.571-4.005
			c0.117-2.11,1.917-3.697,4.012-3.576C429.591,306.359,431.194,308.155,431.068,310.254z"/>
	</g>
	<path fill-rule="evenodd" clip-rule="evenodd" d="M443.11,326.465c-13.19,1.672-21.965,11.702-32.735,18.475
		c-1.965,1.239-0.021,4.509,2.037,3.487c10.954-5.443,20.416-12.423,32.269-16.051C448.099,331.335,446.496,326.041,443.11,326.465z
		"/>
	<path fill-rule="evenodd" clip-rule="evenodd" d="M352.911,345.706c-6.597-5.705-14.405-10.325-23.165-11.47
		c-2.062-0.267-2.609,2.419-0.693,3.107c7.679,2.733,13.814,8.066,20.037,13.131C352.162,352.981,355.876,348.268,352.911,345.706z"
		/>
	<path fill-rule="evenodd" clip-rule="evenodd" d="M469.566,314.416c-6.284-0.017-12.039,3.361-17.261,6.407
		c-1.353,0.793-0.362,2.68,1.063,2.146c3.644-1.358,7.884-2.446,11.806-2.752c-5.903,36.491-37.492,56.55-72.55,61.456
		c-33.294,4.672-64.839-10.569-79.146-41.066c-0.1-0.209-0.26-0.344-0.448-0.43c2.881-1.364,6.073-1.548,9.137-2.598
		c2.234-0.766,2.688-4.639-0.073-5.041c-4.792-0.686-9.913,1.336-13.7,4.228c-4.255,3.259-5.643,7.259-5.83,12.388
		c-0.05,1.35,1.8,1.655,2.278,0.432c1.184-3.027,3.665-6.352,6.285-8.297c0.216-0.162,0.437-0.278,0.656-0.421
		c0.001,0.061-0.005,0.113,0.007,0.184c8.545,36.855,51.074,49.854,84.495,45.446c18.687-2.457,38.445-9.815,52.374-22.833
		c11.541-10.787,23.205-26.18,22.679-42.741c1.001,0.336,1.991,0.747,2.928,1.311c2.242,1.344,3.022,2.881,5.596,3.689
		c1.777,0.554,3.65-1.391,3.416-3.105C482.405,316.449,475.148,314.427,469.566,314.416z"/>
	<path fill-rule="evenodd" clip-rule="evenodd" d="M403.784,406.815c-8.028-8.727-17.42-8.919-28.491-8.773
		c-0.939,0.011-1.018,1.443-0.215,1.741c8.732,3.237,17.057,5.429,24.289,11.636C402.135,413.79,406.251,409.495,403.784,406.815z"
		/>
	<path fill-rule="evenodd" clip-rule="evenodd" d="M401.766,250.283c-6.125,1.788-4.563,14.542,1.069,14.283
		c13.916-0.631,28.005,4.14,34.702,15.97c0.789,1.391,3.301,0.789,3.38-0.807C441.898,260.271,419.645,245.063,401.766,250.283z"/>
	<path fill-rule="evenodd" clip-rule="evenodd" d="M375.148,261.688c-15.039-11.806-38.988,5.312-43.753,19.148
		c-0.565,1.639,1.423,3.789,2.965,2.332c10.919-10.27,22.371-16.354,37.375-12.78C375.335,271.245,377.828,263.79,375.148,261.688z"
		/>
	<path fill-rule="evenodd" clip-rule="evenodd" d="M537.122,249.281c-1.342-11.957-6.575-23.205-13.054-33.187
		c-11.262-17.372-31.64-32.579-52.226-36.836c-0.248-11.183-9.745-14.246-13.425-14.094c-1.026-3.428-2.392-6.652-4.501-9.69
		c-2.511-3.631-7.035-7.61-11.642-5.559c-1.839,0.819-1.753,3.215-0.679,4.551c0.884,1.088,1.995,1.61,3.202,2.246
		c1.947,1.034,5.965,4.475,9.177,9.16c-1.39,0.453-2.731,1.127-3.963,2.004c-2.706-3.57-7.363-5.997-11.238-7.707
		c-4.4-1.945-14.014-4.445-16.302,1.326c-0.379,0.969,0.035,2.081,0.67,2.818c1.283,1.488,2.548,1.715,4.442,1.617
		c3.057-0.156,5.993,0.369,8.921,1.166c3.716,1.025,6.498,2.97,9.532,4.875c-0.875,1.316-1.546,2.734-1.878,4.212
		c-2.424-2.078-5.354-3.332-8.866-4.434c-5.582-1.745-12.844-1.375-15.578,4.479c-1.383,2.953,2.1,5.486,4.724,4.413
		c3.543-1.449,6.635-1.892,10.47-1.716c2.66,0.125,7.32,1.067,9.673,2.941c0.285,0.723,1.282,2.702,2.488,3.588
		c-1.11,0.581-2.16,1.27-3.128,2.118c-4.37,3.848-5.745,11.211-1.608,15.739c2.157,2.351,6.339,0.766,6.396-2.42
		c0.03-1.928-1.14-4.211-0.405-6.078c0.702-1.788,3.969-4.785,8.14-5.935c1.647,0.525,7.851-0.095,11.417-3.208
		c16.444,9.628,32.393,17.097,44.894,32.172c17.546,21.145,16.413,46.022,14.401,71.976c-0.171,2.197,3.114,2.792,3.775,0.707
		C535.323,276.828,538.74,263.758,537.122,249.281z"/>
</g>
</svg>
