<?xml version="1.0" encoding="utf-8"?>
<!-- Generator: Adobe Illustrator 17.0.0, SVG Export Plug-In . SVG Version: 6.00 Build 0)  -->
<!DOCTYPE svg PUBLIC "-//W3C//DTD SVG 1.1//EN" "http://www.w3.org/Graphics/SVG/1.1/DTD/svg11.dtd">
<svg version="1.1" id="Layer_1" xmlns="http://www.w3.org/2000/svg" xmlns:xlink="http://www.w3.org/1999/xlink" x="0px" y="0px"
	 width="800px" height="600px" viewBox="0 0 800 600" enable-background="new 0 0 800 600" xml:space="preserve">
<path fill-rule="evenodd" clip-rule="evenodd" d="M398.856,187.703c6.051-0.265,12.347,0.264,15.77,5.502
	c4.198,18.379,4.992,37.551,14.446,54.361c9.719,6.315,18.378,14.975,24.41,25.223c0.53,33.354,14.976,71.946-3.933,103.73
	c-1.059,3.669-2.893,7.091-3.423,10.759c1.588,4.992,9.454,4.462,11.042,9.984c-1.834,12.347-2.099,25.205-7.091,36.512
	c-2.363-10.248,3.669-22.331,2.893-33.884c-28.116,25.469-74.592,25.469-105.64,4.992c-0.435,8.66,2.193,20.477-2.231,27.833
	c0.227-12.346-7.318-32.03,6.958-38.345c-12.725-18.644-31.198-36.758-27.246-61.451c-5.37-10.494-9.322-24.411-1.834-34.923
	c-0.53-11.023-0.132-22.33,8.339-29.931c1.267-7.62,4.368-14.711,10.645-19.967c10.948-4.463,23.522-3.669,35.378-5.522
	C378.114,223.402,373.652,191.371,398.856,187.703L398.856,187.703z"/>
<path fill-rule="evenodd" clip-rule="evenodd" fill="#FFFFFF" d="M399.121,189.272c3.687,0.53,7.62,0.794,11.043,2.629
	c0.51,1.305,2.099,2.098,2.363,3.403c2.099,17.603,3.668,35.207,12.082,50.958c-13.406-5.521-29.686-4.198-43.602-4.198
	c-1.57-5.786-0.53-12.347,0.265-18.132C378.644,210.014,383.635,191.901,399.121,189.272L399.121,189.272z"/>
<path fill-rule="evenodd" clip-rule="evenodd" d="M395.453,222.097c2.098,0,4.462,0,6.561,0c2.099,0.264,4.462,0.53,6.296,1.569
	c-6.825-0.775-13.651,0-20.477,1.059C389.403,222.627,393.089,222.891,395.453,222.097L395.453,222.097z"/>
<path fill-rule="evenodd" clip-rule="evenodd" d="M394.924,226.559c2.363,0,4.992,0,7.355,0c2.893,0.264,5.786,1.059,8.149,2.099
	c-7.885,0.265-16.299,1.324-23.9,1.853c-0.264-1.323,1.305-1.853,2.363-2.117C390.726,227.353,393.089,227.089,394.924,226.559
	L394.924,226.559z"/>
<path fill-rule="evenodd" clip-rule="evenodd" d="M246.022,243.633c2.779-0.529,5.313,0.794,7.034,2.893
	c8.017,30.991,24.297,59.864,34.015,90.079c8.868-3.952,16.28,8.13,22.066,14.181c7.715-3.422,8.792,8.13,7.79,13.916
	c1.872-2.099,1.021-7.62,3.158-10.248c3.177,29.156-12.347,59.618-33.619,80.095c-6.769-3.668-12.404-10.229-19.097-14.181
	c-1.229-2.099-0.075-4.992,1.192-6.826c-3.99-2.893-8.282-5.256-12.215-8.13c-0.662-2.363,0.605-4.992,0.132-7.62
	c-8.244-3.953-16.809-7.885-25.432-11.042c-12.498-1.04-25.469-2.875-34.186-13.122c-3.517-1.305-7.657-2.364-9.851-5.786
	c-2.723-6.032-0.227-12.593,3.347-17.585c-3.233-5.521-2.761-12.346,1.305-17.338c-3.649-7.091-0.491-15.221,5.256-20.213
	c-8.187-22.33,24.524-30.196,36.852-15.505c2.836,1.588,5.03-1.305,7.468-2.363C230.139,280.145,224.202,250.988,246.022,243.633
	L246.022,243.633z"/>
<path fill-rule="evenodd" clip-rule="evenodd" fill="#FFFFFF" d="M390.726,246.791c23.106-1.324,48.84,7.601,58.294,30.196
	c0.265,1.834-0.264,3.668-1.305,5.256c-12.082-13.406-29.951-17.074-47.799-15.505c-13.916,0.53-29.667-0.265-43.073-0.529
	c11.212,4.991,27.058,2.628,39.915,3.422c11.818-0.53,22.86,1.834,33.619,6.032c16.015,4.481,20.742,23.635,11.817,36.511
	c-21.271-27.568-61.716-7.884-90.079-10.513c3.782,2.628,9.114,1.059,13.652,1.324c11.307-0.53,22.331-1.57,33.883-1.324
	c13.141,0,27.323-0.246,37.022,9.454c3.158,5.256,5.256,12.877,1.324,18.133c-26.263-6.316-55.42,1.569-80.889,2.628
	c6.297,4.198,16.015,3.139,23.635,2.363c18.908-1.059,39.386-7.09,57.784,0c1.305,3.404,2.098,7.091,2.098,10.759
	c0.265,12.347-17.338,31.52-27.587,18.644c2.117-1.305,4.481-1.834,7.091-1.569c5.256,3.668,17.868-8.415,7.09-3.687
	c-21.782-1.569-42.543,7.355-61.092,16.809c15.146,1.323,29.856-9.965,45.607-11.023c-1.059,3.422,1.569,7.09,4.992,7.884
	c2.893,0.51,6.297,0.265,9.189-0.529c25.205-9.454,14.71-37.552,19.967-56.725c1.569-3.687,3.933-7.355,4.973-11.288
	c1.323,8.66,2.117,17.85,3.422,26.509c2.099,14.711-2.893,28.891-7.62,42.298c-3.404,9.453-5.502,19.154-6.561,29.137
	c-20.213,15.505-50.693,12.347-73.723,5.256c-6.486-6.032-9-15.24-14.049-22.331c-12.858-14.691-27.284-31.501-23.314-52.772
	c-7.355-10.248-7.147-24.429-1.305-35.188c-0.51-9.984,1.456-19.438,8.604-26.264c1.532-7.62,4.519-15.505,11.42-20.232
	C361.551,247.302,376.545,248.096,390.726,246.791L390.726,246.791z"/>
<path fill-rule="evenodd" clip-rule="evenodd" fill="#FFFFFF" d="M246.022,247.566c1.607-0.264,3.081,0.53,3.895,1.853
	c10.078,34.129,25.318,66.954,38.591,99.778c-4.273,17.604-13.368,35.453-28.57,47.006c-16.375-13.916-39.235-11.024-56.895-21.518
	c5.502-1.059,12.592,0.245,18.511-1.324c9.284,1.834,19.456-4.727,14.578-14.975c6.693-1.305,11.458-8.925,7.261-14.956
	c1.664-1.059,2.893-2.893,3.366-4.727c-0.019,2.892-0.152,5.767-0.473,8.395c0.757,5.521-1.305,12.612,3.366,16.545
	c-0.983-16.809,0.832-33.354,3.138-49.369c-4.764,6.297-3.989,14.976-5.899,22.331c-0.454-1.324-0.473-2.893-1.135-4.217
	c-3.876-3.932,2.704-4.973,2.364-9.699c0.113-6.051-5.276-10.248-9.984-12.877c2.326-3.933,6.145-7.091,7.564-11.553
	c-3.12,2.893-5.106,7.62-8.528,10.494c-7.753-0.511-12.914-8.924-19.702-12.328c-0.151,1.039,1.285,0.775,1.721,1.569
	c0.983,0.53,1.512,1.569,1.967,2.628c1.91,2.364-0.151,2.099-1.834,0.794c-2.629-0.794-5.408-3.686-7.885-2.628
	c9.114,11.023,33.486,8.66,34.527,25.734c-1.078-0.794,0.17-2.099-0.378-2.893c0.019-0.794-0.851-1.305-1.059-1.834
	c-2.024-3.423-6.127-4.462-9.795-4.992c-3.46,2.099-2.855,7.355-5.521,9.719c-11.969-4.462-39.537-8.149-26.963-27.058
	c10.494-9.983,23.843-0.529,33.789,4.462c3.158-2.363,5.843-5.237,7.885-8.395C235.282,281.185,227.454,254.657,246.022,247.566
	L246.022,247.566z"/>
<path fill-rule="evenodd" clip-rule="evenodd" d="M583.476,248.625c20.761,2.363,11.307,30.991-0.265,39.651
	c-0.775,2.099-1.834,4.197-2.874,6.051c10.229,1.834,21.272-3.687,30.991,1.569c6.296,4.992,8.395,17.339,1.04,22.066
	c7.355,6.032,2.893,17.055-4.462,21.272c5.786,7.091,1.569,17.055-5.786,21.271c-4.973,35.964-49.879,24.94-75.103,32.56
	c0.265,0.775,1.324,1.305,1.324,2.099c-11.307,4.992-21.272,13.122-31.255,19.173c-16.809-11.043-25.999-30.726-30.461-49.369
	c-0.265-1.059,0.53-1.588,1.04-2.098c2.363,4.973,5.786,13.651,9.719,15.485c-2.099-6.826-6.031-13.387-7.091-20.477
	c5.257-7.091,13.652-11.553,19.967-17.868c1.569-0.53,2.363,0.793,3.403,1.323c0.794-0.53,1.324-1.059,2.099-1.323
	c3.687-3.669,7.355-6.826,11.042-10.494c17.32-31.52,59.088-42.808,71.435-77.221C579.278,250.459,581.377,248.625,583.476,248.625
	L583.476,248.625z"/>
<path fill-rule="evenodd" clip-rule="evenodd" fill="#FFFFFF" d="M581.112,250.724c0.53,0,1.324-0.264,1.854,0.265
	c1.305,4.198-2.364,8.66-4.217,12.347c-1.04,0.265-1.834-0.794-2.628,0c-0.51-3.952,3.157-7.62,3.422-11.553
	C580.337,252.028,580.847,251.518,581.112,250.724L581.112,250.724z"/>
<path fill-rule="evenodd" clip-rule="evenodd" fill="#FFFFFF" d="M585.575,250.988c17.603,16.545-10.759,34.129-11.553,51.733
	c2.099-0.529,2.893-3.158,3.952-4.727c11.553,1.834,25.999-4.992,34.659,4.462c1.834,4.462,1.305,9.719-1.57,13.652
	c-16.034,2.099-33.883,12.876-49.369,4.216c-0.265-3.158,1.305-6.051,4.727-6.051c6.031-3.157,8.924,0.794,8.66,6.561
	c2.099-1.834,1.569-5.502,0.53-7.601c-4.217-5.257-12.612-0.794-15.505,3.933c2.363-12.876,19.702-7.091,28.097-11.817
	c1.059-0.53,2.363-1.059,3.423-1.569c10.759-5.521-11.818,1.569-4.462-1.588c2.892-1.305-0.265-2.363-1.834-1.305
	c-1.853,1.039-2.629,2.893-3.952,4.198c-9.984-1.834-30.726,6.561-20.213,18.114c-6.826,2.363-10.248,12.876-2.893,16.809
	c-5.521,3.686-4.727,12.346,1.305,14.975c-3.139,3.404-4.727,8.66-2.609,13.122c3.933,5.256,10.229,8.414,16.79,7.885
	c1.588,5.785,8.679,1.569,12.083,0c-1.569,0-2.874,0.264-4.198,0.529c-1.04-0.265-1.569,0.265-2.628,0.265
	c-9.719-0.794,8.924-1.059,1.834-3.687c-1.834,0-3.404,0.53-5.237,0.265c-4.463,1.324-18.133-3.158-7.355-3.158
	c2.628-0.775,2.099-3.933,2.892-6.031c1.04-6.562-3.686,0.265-2.363,3.668c-2.628,0.265-5.256,0.529-7.62-0.246
	c-2.099-1.324-3.687-7.355-0.53-9.984c11.553,0,24.694,1.57,36.512,3.404c4.727,7.355-4.481,14.71-10.248,18.398
	c-18.908,10.494-43.073,3.139-63.02,11.553c-11.818-14.181-22.331-29.156-29.422-45.966c3.158-2.099,6.032-4.198,8.925-6.826
	c17.338-30.726,53.831-44.377,72.229-73.269c2.099,0.529,4.727,1.834,6.031-0.794C584.005,260.178,583.476,254.921,585.575,250.988
	L585.575,250.988z"/>
<path fill-rule="evenodd" clip-rule="evenodd" d="M357.637,253.087c0.227,0,0.491,0,0.737,0c0.189,2.364-0.057,5.522-1.267,7.62
	C355.613,258.609,356.748,255.186,357.637,253.087L357.637,253.087z"/>
<path fill-rule="evenodd" clip-rule="evenodd" d="M246.022,269.102c0.416,0,0.983,0,1.059,0.53c-2.439,2.363-6.75,4.727-9.984,3.157
	C239.328,270.937,243.394,270.691,246.022,269.102L246.022,269.102z"/>
<path fill-rule="evenodd" clip-rule="evenodd" d="M248.121,270.426c0.245,0,0.775-0.264,0.794,0.265
	c-1.891,2.609-5.937,6.297-9.114,4.973C242.146,273.565,245.662,272.525,248.121,270.426L248.121,270.426z"/>
<path fill-rule="evenodd" clip-rule="evenodd" d="M360.265,286.177c0.303,0,0.548,0,0.737,0.264
	c-0.302,3.404,0.549,6.826,1.04,9.984C359.036,294.326,358.998,289.334,360.265,286.177L360.265,286.177z"/>
<path fill-rule="evenodd" clip-rule="evenodd" d="M203.478,301.927c0.246,0.265,0.719,0.265,0.794,0.53
	c-1.002,2.893-1.002,6.297-2.553,8.924C201.096,308.242,202.174,304.82,203.478,301.927L203.478,301.927z"/>
<path fill-rule="evenodd" clip-rule="evenodd" d="M533.332,310.076c1.569,1.57,2.609,3.669,3.933,5.768
	c-0.264,0-0.53,0.264-0.53,0.529C534.636,315.598,531.478,311.91,533.332,310.076L533.332,310.076z"/>
<path fill-rule="evenodd" clip-rule="evenodd" d="M529.379,312.969c2.629,0.51,2.364,4.198,4.992,5.502c0,0.264,0,0.53,0,0.794
	C531.214,319.53,529.379,315.598,529.379,312.969L529.379,312.969z"/>
<path fill-rule="evenodd" clip-rule="evenodd" fill="#FFFFFF" d="M198.752,315.068c8.66,7.355,20.913,7.091,30.726,12.083
	c4.255-0.265,8.433,1.569,12.026,3.403c1.266,1.323,2.912,2.892,2.893,4.727c-2.855-2.363-6.202-3.932-9.662-4.992
	c-2.306-0.265-3.441,1.853-3.158,3.952c0.548,1.834-1.172,3.933,0.473,5.238c1.475-4.198,4.122-9.19,9.189-4.727
	c1.324,1.588,3.082,2.893,3.158,4.992c-0.946,1.324-2.213,1.853-3.63,2.099c-15.146-1.834-30.291-3.404-44.038-9.965
	c-2.231-2.628-2.704-6.051-3.233-9.189C194.024,319.53,196.993,317.697,198.752,315.068L198.752,315.068z"/>
<path fill-rule="evenodd" clip-rule="evenodd" fill="#FFFFFF" d="M235.774,316.637c4.179,1.324,11.95,6.296,6.523,10.778
	c-3.763,1.305-7.034-1.324-10.116-2.893C232.994,321.629,234.809,319.266,235.774,316.637L235.774,316.637z"/>
<path fill-rule="evenodd" clip-rule="evenodd" d="M198.486,319.266c0.322,0,0.549,0,0.738,0.265
	c-0.435,2.629-0.549,5.522-2.043,7.62C196.066,324.787,197.409,321.629,198.486,319.266L198.486,319.266z"/>
<path fill-rule="evenodd" clip-rule="evenodd" d="M361.569,319.266c0.378,0,0.776,0,1.002,0.265
	c-0.132,2.893,2.382,5.767,1.305,8.131C361.835,325.562,361.002,322.159,361.569,319.266L361.569,319.266z"/>
<path fill-rule="evenodd" clip-rule="evenodd" fill="#FFFFFF" d="M608.964,319.266c2.364,1.305,3.933,4.462,4.463,7.091
	c0,2.099-0.794,3.668-1.588,5.521c-13.123,14.446-35.964,8.924-53.303,6.826c-1.569-1.059-2.099-2.893-2.628-4.463
	c1.305-1.059,2.099-3.158,3.933-3.687c2.628-1.305,5.256,0,8.149-0.265c0.265,2.099-1.059,10.513,1.305,6.58
	c3.687-6.05-1.039-11.307-7.355-8.943c-2.363,0-4.462,1.588-5.767,3.423c0.53-2.364,2.363-4.727,4.462-5.786
	c1.57-0.51,3.423-0.51,5.256-0.51C580.847,330.024,594.783,321.894,608.964,319.266L608.964,319.266z"/>
<path fill-rule="evenodd" clip-rule="evenodd" d="M527.81,329.514c0.53,0,1.04,0,1.04,0.51c-3.404,5.786-4.727,12.612-7.091,18.662
	C522.024,341.842,522.818,334.506,527.81,329.514L527.81,329.514z"/>
<path fill-rule="evenodd" clip-rule="evenodd" d="M580.847,331.348c0.264,0,0.794,0,1.059,0.264
	c-0.529,2.363,0.265,5.767-1.059,7.62C579.278,337.115,580.073,333.712,580.847,331.348L580.847,331.348z"/>
<path fill-rule="evenodd" clip-rule="evenodd" d="M578.749,331.613c0.265,0,0.794,0,1.059,0.265c-1.059,2.363,0,5.502-1.059,7.601
	C576.915,337.644,577.709,333.976,578.749,331.613L578.749,331.613z"/>
<path fill-rule="evenodd" clip-rule="evenodd" fill="#FFFFFF" d="M242.619,346.569c-3.366-2.875-8.093-1.04-12.007-1.04
	c-0.927,2.893-1.324,7.091,0.794,9.19c0.888,0.529,2.666,0.264,3.536,0c-0.946,0-2.496-0.265-2.307-1.57
	c-0.586-1.059-0.643-2.363-0.794-3.687c0.057-0.775-0.075-1.569,0.076-2.363c3.611,0.53,10.607-0.775,9.643,4.992
	c-12.649,8.414-31.992,7.091-44.831-0.794c0.341-2.609,0.132-5.502,0.454-8.13c-2.496-0.53-0.586,5.767-1.588,7.62
	c-6.051-3.422-4.217-11.307,0.095-15.505c13.746,5.256,28.513,7.62,43.716,8.15C240.69,344.205,242.353,344.999,242.619,346.569
	L242.619,346.569z"/>
<path fill-rule="evenodd" clip-rule="evenodd" d="M275.708,340.008c0.851-0.265,0.7,0.793,1.04,1.323
	c-0.7,11.817-3.403,24.146-9.379,34.129C270.035,363.643,274.328,352.09,275.708,340.008L275.708,340.008z"/>
<path fill-rule="evenodd" clip-rule="evenodd" fill="#FFFFFF" d="M604.748,340.537c2.893,6.032,0.264,14.446-5.767,17.604
	c-13.916-0.794-27.833-1.853-40.709-7.091c-0.53-0.529-0.53-1.059-0.794-1.588c-0.51-3.138,2.628-4.197,4.992-4.197
	c1.834,0,3.687-0.265,5.256,0.529c0.265,2.099-0.794,4.992,1.059,6.297c0.51,0,0.246-0.794,0.776-1.04c0-1.588,0-2.892,0-4.481
	c0.529-2.099-1.04-2.364-2.628-2.609c-3.668-0.794-8.13-0.53-10.494,2.609c-0.264-1.834,1.04-2.875,2.364-3.933
	c1.305-0.53,2.363-0.53,3.668-1.04C576.121,342.636,592.154,345.529,604.748,340.537L604.748,340.537z"/>
<path fill-rule="evenodd" clip-rule="evenodd" d="M254.171,341.842c1.21,9.984,2.722,21.026,4.141,30.726
	c-0.908,0.265-1.342-1.039-1.967-1.305C251.505,362.339,253.925,351.561,254.171,341.842L254.171,341.842z"/>
<path fill-rule="evenodd" clip-rule="evenodd" fill="#FFFFFF" d="M294.862,342.901c5.332,1.834,10.172,5.521,14.143,9.454
	c-3.611,23.636-17.528,45.172-34.886,61.717c-4.33-3.687-8.811-6.826-12.592-11.023c0.095-0.794,0.416-1.588,1.116-2.118
	C280.662,386.503,292.12,365.232,294.862,342.901L294.862,342.901z"/>
<path fill-rule="evenodd" clip-rule="evenodd" d="M279.111,344.205c0.511,0,0.87,0.53,1.059,0.794
	c-0.775,9.984-3.819,20.478-8.338,28.892C273.098,363.908,277.617,354.189,279.111,344.205L279.111,344.205z"/>
<path fill-rule="evenodd" clip-rule="evenodd" fill="#FFFFFF" d="M489.994,344.205c6.561,15.24,15.486,30.726,25.469,44.661
	c-12.612-11.042-21.272-26.528-25.734-42.033C489.729,346.059,489.465,344.999,489.994,344.205L489.994,344.205z"/>
<path fill-rule="evenodd" clip-rule="evenodd" d="M549.082,344.735c0.265,0,0.794,0.264,1.04,0.53
	c-0.51,1.059-1.04,2.363-1.834,3.422c-5.767,1.305-11.023,4.462-16.809,5.238C536.206,349.462,543.296,347.628,549.082,344.735
	L549.082,344.735z"/>
<path fill-rule="evenodd" clip-rule="evenodd" d="M576.385,345.529c0.53,0,0.53,0.265,1.059,0.265c-0.529,2.628,0,5.767-1.059,8.131
	C574.551,351.826,575.345,347.893,576.385,345.529L576.385,345.529z"/>
<path fill-rule="evenodd" clip-rule="evenodd" d="M578.484,346.569c0.264,0,0.53,0,0.794,0c-0.264,2.363,0,5.256-1.04,7.355
	C576.915,352.09,577.709,348.687,578.484,346.569L578.484,346.569z"/>
<path fill-rule="evenodd" clip-rule="evenodd" d="M352.381,346.834c0.378,0,0.756,0,1.002,0.265
	c0.946,4.992,1.967,9.984,2.363,15.24c-3.082-4.198-2.949-9.719-3.895-14.71C351.889,347.363,352.361,347.098,352.381,346.834
	L352.381,346.834z"/>
<path fill-rule="evenodd" clip-rule="evenodd" d="M363.158,350.256c0.303,0,0.68,0,0.983,0c1.059,2.893,1.531,6.032,2.099,8.925
	C363.328,358.141,363.026,353.149,363.158,350.256L363.158,350.256z"/>
<path fill-rule="evenodd" clip-rule="evenodd" fill="#FFFFFF" d="M192.191,353.149c11.193,4.727,23.56,9.19,36.247,6.561
	c1.324,0.53,2.78,0.53,4.141,1.04c0.965,0.53,1.437,1.588,1.626,2.629c-2.25-1.04-5.767-2.875-8.66-1.57
	c-3.101,1.305-0.756,5.256-1.116,7.62c-10.759,0.775-25.62,4.462-34.261-4.198C188.957,361.28,190.149,356.552,192.191,353.149
	L192.191,353.149z"/>
<path fill-rule="evenodd" clip-rule="evenodd" fill="#FFFFFF" d="M488.935,357.082c5.786,12.612,13.916,24.694,24.959,34.148
	c0.53,1.305,1.834,2.099,2.099,3.404C502.851,386.239,491.828,372.322,488.935,357.082L488.935,357.082z"/>
<path fill-rule="evenodd" clip-rule="evenodd" d="M379.949,363.643c0.265,0,1.059,0.265,0.794,0.794
	c-6.296,4.198-14.332,2.893-21.536,2.628c-0.341,0-0.605-0.529-0.53-0.794C365.465,364.437,373.652,367.065,379.949,363.643
	L379.949,363.643z"/>
<path fill-rule="evenodd" clip-rule="evenodd" fill="#FFFFFF" d="M227.114,363.908c3.29-0.529,9.492,1.834,6.258,5.786
	c-2.099,1.04-4.594,0.775-6.958,0.775C225.544,368.635,224.958,364.437,227.114,363.908L227.114,363.908z"/>
<path fill-rule="evenodd" clip-rule="evenodd" d="M522.554,366.271c0.264,0,0.53,0,0.794,0c2.099,5.257,4.992,9.984,7.091,14.976
	C526.241,377.824,523.348,371.528,522.554,366.271L522.554,366.271z"/>
<path fill-rule="evenodd" clip-rule="evenodd" d="M518.621,367.33c2.628,4.462,4.197,10.494,7.62,14.956
	c0.246,0.265-0.264,0.529-0.264,0.794C521.759,379.412,518.621,372.833,518.621,367.33L518.621,367.33z"/>
<path fill-rule="evenodd" clip-rule="evenodd" d="M528.604,368.105c2.363,2.893,3.668,7.355,5.238,11.042
	c-3.669-1.853-4.463-6.826-5.768-10.248C528.075,368.635,528.604,368.37,528.604,368.105L528.604,368.105z"/>
<path fill-rule="evenodd" clip-rule="evenodd" d="M396.247,374.686c0.245,0.245,0.775,0.245,0.775,0.51
	c-5.256,7.884-13.387,13.67-21.801,17.604c-0.775,0-1.569-0.53-2.099-1.059C380.478,386.239,389.403,380.982,396.247,374.686
	L396.247,374.686z"/>
<path fill-rule="evenodd" clip-rule="evenodd" d="M420.128,374.686c0.265,0,0.794-0.265,0.794,0.245
	c-10.248,10.248-23.106,17.869-37.022,20.232c-1.324,0-1.324-1.569-2.628-2.099C395.188,390.171,408.84,383.61,420.128,374.686
	L420.128,374.686z"/>
<path fill-rule="evenodd" clip-rule="evenodd" d="M426.973,382.551c0.51,0,0.51,0.529,0.51,1.059
	c-3.404,5.502-9.19,8.66-14.181,12.347c-0.775-0.265-1.569,0.51-2.363,0.246C414.626,390.436,422.246,387.808,426.973,382.551
	L426.973,382.551z"/>
<path fill-rule="evenodd" clip-rule="evenodd" d="M428.013,388.867c0.265,0,0.794,0.246,0.794,0.51
	c-2.628,4.462-7.62,8.944-12.347,10.248C418.824,395.163,424.609,392.8,428.013,388.867L428.013,388.867z"/>
<path fill-rule="evenodd" clip-rule="evenodd" d="M431.946,391.74c0.264,0,1.059-0.265,1.059,0.265
	c-2.099,4.198-6.561,7.09-10.248,9.719c-0.264-0.265-0.775-0.265-1.04-0.53C423.55,396.997,429.072,395.163,431.946,391.74
	L431.946,391.74z"/>
<path fill-rule="evenodd" clip-rule="evenodd" d="M444.028,411.708c0.265,0,0.794-0.265,0.794,0.264
	c-9.719,8.924-23.635,11.288-35.982,11.023C420.128,418.798,433.269,418.004,444.028,411.708L444.028,411.708z"/>
<path fill-rule="evenodd" clip-rule="evenodd" fill="#FFFFFF" d="M362.893,425.095c5.502,0.794,4.349,9.19-1.324,8.414
	c-4.462-0.794-4.594-8.678,0.53-7.884C362.345,425.359,362.817,425.359,362.893,425.095L362.893,425.095z"/>
</svg>
