<?xml version="1.0" encoding="UTF-8" ?>
<!DOCTYPE svg PUBLIC "-//W3C//DTD SVG 1.1//EN" "http://www.w3.org/Graphics/SVG/1.1/DTD/svg11.dtd">
<svg width="288pt" height="413pt" viewBox="0 0 288 413" version="1.1" xmlns="http://www.w3.org/2000/svg">
<g id="#000000ff">
<path fill="#000000" opacity="1.00" d=" M 189.71 0.00 L 192.34 0.00 C 197.25 4.44 203.83 0.30 209.40 2.56 C 213.91 4.05 217.12 7.98 218.66 12.36 C 220.12 17.46 226.73 18.89 227.49 24.40 C 230.02 31.95 223.80 38.89 226.17 46.47 C 230.71 47.75 235.15 49.56 238.80 52.64 C 238.69 47.65 237.74 42.05 240.65 37.64 C 245.06 32.17 253.32 30.51 259.68 33.29 C 263.35 35.12 265.32 39.17 265.85 43.08 C 266.62 48.68 266.35 54.35 266.23 59.98 C 265.89 69.86 265.92 79.75 266.02 89.64 C 267.76 90.77 269.49 91.93 271.19 93.13 C 271.51 101.07 271.23 109.01 270.48 116.91 C 270.20 119.95 267.05 121.88 267.04 124.99 C 266.83 133.02 267.04 141.06 266.98 149.10 C 266.50 154.34 273.01 157.35 271.90 162.78 C 270.32 170.23 260.80 173.62 254.22 170.76 C 250.71 169.44 248.82 165.62 248.76 162.03 C 249.02 157.95 253.41 155.21 252.75 150.98 C 252.16 143.69 251.35 136.42 250.62 129.14 C 247.44 129.70 244.23 130.18 241.09 130.94 C 236.22 131.89 234.02 137.61 228.92 138.13 C 221.69 139.09 214.38 137.17 207.15 138.45 C 206.34 143.83 204.36 150.23 207.93 155.03 C 212.70 159.11 219.75 159.28 224.30 163.72 C 227.04 166.39 226.24 170.75 228.37 173.70 C 236.30 181.77 243.57 190.67 253.09 196.99 C 259.30 191.43 265.95 184.41 275.00 184.77 C 282.63 184.61 287.41 192.44 288.00 199.26 L 288.00 201.59 C 286.59 207.57 284.73 213.49 281.83 218.92 C 277.24 227.42 273.07 236.32 266.51 243.53 C 263.07 247.26 258.77 250.00 254.83 253.15 C 258.00 271.65 255.95 290.45 254.84 309.04 C 254.43 314.38 253.43 319.65 252.77 324.97 C 251.30 336.74 250.07 348.70 245.96 359.91 C 241.13 373.14 236.95 386.70 230.17 399.10 C 229.16 401.07 227.83 403.10 225.47 403.52 C 206.65 409.29 186.90 410.91 167.42 413.00 L 162.49 413.00 C 150.20 412.77 137.92 411.70 125.84 409.38 C 118.02 408.14 110.19 405.88 103.55 401.46 C 99.82 399.04 97.84 394.92 96.30 390.91 C 91.27 391.97 86.20 393.09 81.04 392.98 C 76.68 393.09 72.05 391.79 67.98 393.95 C 57.04 398.99 44.61 399.68 32.82 398.10 C 29.28 397.62 25.41 396.55 23.22 393.51 C 21.60 391.17 22.50 388.07 23.79 385.80 C 26.30 381.34 30.89 378.73 34.99 375.94 C 34.02 373.69 32.59 371.51 32.51 369.00 C 32.86 365.67 36.31 364.26 38.73 362.60 C 36.94 360.85 34.76 359.30 33.78 356.91 C 34.47 353.09 37.91 350.21 37.70 346.10 C 38.41 333.86 42.93 322.14 49.53 311.89 C 46.51 307.83 43.62 303.49 42.58 298.46 C 40.07 287.33 42.85 275.99 45.35 265.13 C 46.16 262.22 45.56 259.23 44.97 256.35 C 42.30 256.60 39.61 256.59 36.93 256.77 C 34.55 257.00 32.29 259.11 29.90 258.20 C 28.83 256.62 28.23 254.79 27.50 253.05 C 24.89 253.56 21.20 255.72 19.24 252.84 C 15.50 247.44 18.95 240.93 21.98 236.09 C 19.88 235.94 17.78 235.77 15.69 235.55 C 15.20 233.88 14.71 232.21 14.24 230.54 C 9.66 228.66 4.71 225.99 3.14 220.93 C 1.39 214.91 0.70 208.63 0.00 202.43 L 0.00 193.67 C 0.60 189.54 1.25 185.41 2.40 181.40 C 3.82 176.24 6.80 171.52 6.98 166.06 C 8.17 150.96 19.75 139.04 20.94 123.95 C 21.64 115.81 18.59 108.08 16.74 100.30 C 19.84 101.22 22.03 103.62 23.83 106.17 C 41.08 128.94 59.80 150.63 75.43 174.59 C 76.74 176.40 77.82 178.49 79.65 179.84 C 81.59 180.23 83.59 180.09 85.54 180.43 C 87.24 181.48 88.14 183.39 89.34 184.92 C 92.41 182.30 95.50 178.58 99.95 178.89 C 102.29 178.83 105.50 180.08 105.03 182.95 C 104.33 186.03 101.54 188.00 99.58 190.30 C 102.88 190.99 106.13 191.85 109.36 192.78 C 114.31 178.41 115.49 163.17 118.60 148.37 C 115.04 150.68 111.57 153.98 107.01 153.73 C 102.11 154.00 98.21 150.69 94.96 147.46 C 90.78 147.86 86.62 148.49 82.46 149.08 C 80.73 146.59 78.91 144.16 76.80 141.97 C 75.12 144.78 74.17 148.74 70.75 149.93 C 68.62 150.68 66.63 149.00 65.52 147.34 C 64.31 144.03 65.85 140.54 66.45 137.26 C 63.71 137.91 61.00 139.07 58.14 138.93 C 55.14 138.60 52.33 134.44 54.76 131.90 C 57.61 129.29 61.57 128.46 64.87 126.55 C 61.23 125.96 57.46 126.15 53.90 125.13 C 50.16 123.82 50.92 117.55 54.68 116.69 C 58.71 115.68 62.93 116.50 67.04 116.15 C 64.11 114.23 60.74 113.10 57.89 111.08 C 56.15 109.95 55.88 107.58 56.59 105.78 C 61.42 102.69 67.17 105.19 72.26 106.10 C 73.25 103.90 73.89 101.42 75.58 99.62 C 77.50 98.03 80.25 97.36 82.67 98.00 C 85.85 100.29 83.16 105.04 85.13 107.93 C 87.81 110.30 91.98 110.70 95.22 109.27 C 98.70 107.85 102.80 106.47 106.34 108.53 C 112.58 111.66 118.51 115.82 125.64 116.65 C 125.65 115.81 125.65 114.13 125.66 113.29 C 112.91 109.61 99.98 104.15 91.06 93.96 C 85.90 87.98 82.52 80.10 83.26 72.09 C 83.96 61.84 88.29 50.95 97.42 45.44 C 108.69 38.54 122.60 38.67 135.29 40.22 C 135.06 35.62 134.23 30.31 137.46 26.49 C 143.02 20.64 149.66 16.02 155.78 10.81 C 158.49 8.98 162.01 9.25 164.86 7.73 C 167.82 6.13 170.18 3.51 173.39 2.35 C 176.72 1.59 180.11 2.86 183.45 2.35 C 185.62 1.80 187.64 0.81 189.71 0.00 M 187.13 5.10 C 182.01 7.72 179.65 13.22 177.19 18.08 C 177.59 14.10 179.00 10.36 180.74 6.79 C 175.64 4.52 169.57 7.45 167.34 12.34 C 165.04 17.44 165.02 23.48 166.96 28.71 C 173.61 23.89 180.89 19.86 188.90 17.79 C 185.32 12.49 194.96 9.87 193.23 4.42 C 191.17 4.22 188.91 3.73 187.13 5.10 M 200.44 6.60 C 195.76 7.96 192.69 12.08 189.72 15.66 C 189.79 15.99 189.92 16.66 189.99 17.00 C 192.27 17.88 194.73 16.87 197.09 17.03 C 200.28 16.79 203.34 17.70 206.24 18.91 C 209.37 18.89 212.12 17.11 215.00 16.09 C 214.32 13.88 214.39 11.13 212.40 9.57 C 209.12 6.92 204.61 5.29 200.44 6.60 M 158.11 14.11 C 153.64 18.96 155.45 26.10 154.84 32.05 C 152.49 28.57 152.88 24.40 152.34 20.47 C 149.02 19.17 147.29 22.86 146.57 25.43 C 144.91 32.46 148.66 39.35 153.26 44.41 C 156.15 39.05 160.30 34.55 164.82 30.52 C 163.08 24.83 163.78 18.95 163.91 13.10 C 161.98 13.14 159.47 12.23 158.11 14.11 M 191.64 19.49 C 198.73 26.72 201.19 37.08 201.69 46.90 C 205.22 46.50 208.71 45.88 212.15 44.99 C 211.73 37.24 210.66 29.16 206.55 22.42 C 202.98 18.04 196.58 19.36 191.64 19.49 M 210.28 20.42 C 212.15 22.00 214.36 23.16 216.04 24.97 C 218.84 27.88 220.38 31.67 222.29 35.16 C 224.50 30.74 225.18 24.52 221.07 20.97 C 218.15 18.06 213.54 18.14 210.28 20.42 M 179.89 23.19 C 182.23 25.85 184.78 28.41 186.28 31.67 C 188.35 35.37 189.81 39.97 187.57 43.95 C 185.62 36.92 184.21 28.20 177.04 24.55 C 175.42 25.30 172.98 25.96 173.09 28.17 C 172.30 35.46 177.93 41.09 180.37 47.48 C 174.19 43.34 171.34 35.93 170.63 28.78 C 168.14 30.68 163.95 32.12 164.30 35.89 C 163.99 41.11 167.26 45.92 171.14 49.11 C 180.52 50.49 189.99 48.40 199.25 47.05 C 199.95 38.25 197.44 29.11 191.78 22.28 C 188.30 19.16 183.50 21.63 179.89 23.19 M 209.22 22.39 C 211.53 29.83 214.20 37.27 214.10 45.18 C 216.45 45.52 218.82 45.67 221.19 45.71 C 220.61 36.87 218.24 26.30 209.22 22.39 M 139.34 38.71 C 139.98 43.91 146.61 43.19 150.30 44.85 C 146.50 39.17 143.45 32.78 143.43 25.80 C 139.90 29.05 137.80 33.93 139.34 38.71 M 245.70 38.69 C 242.61 42.77 243.62 48.24 243.85 52.99 C 249.51 50.59 255.81 50.32 261.86 50.95 C 261.87 46.11 262.56 39.07 257.19 36.80 C 253.47 35.09 248.79 36.17 245.70 38.69 M 154.68 46.98 C 158.91 47.79 163.15 48.65 167.45 48.89 C 164.94 45.06 162.32 41.19 161.52 36.58 C 158.67 39.58 155.24 42.64 154.68 46.98 M 106.34 47.16 C 96.15 51.91 88.54 62.58 88.73 74.01 C 89.00 79.61 90.25 85.59 94.16 89.84 C 102.31 99.30 114.10 106.13 126.74 106.66 C 127.73 102.85 123.38 103.11 120.98 102.10 C 110.04 98.49 99.37 90.91 95.66 79.56 C 94.30 73.22 95.50 66.37 98.74 60.76 C 102.22 54.39 109.26 50.71 116.24 49.64 C 133.72 47.58 149.63 57.69 166.93 58.00 C 174.66 57.99 183.13 59.04 189.94 54.53 C 181.31 54.74 172.58 55.79 164.01 54.19 C 151.84 52.61 140.87 46.40 128.77 44.52 C 121.23 43.26 113.44 44.47 106.34 47.16 M 205.53 52.11 C 206.35 53.61 207.09 55.16 207.73 56.75 C 214.69 55.54 222.06 55.60 228.70 58.23 C 233.54 60.14 233.29 66.34 232.36 70.57 C 230.09 81.92 221.78 92.00 210.78 95.83 C 210.72 96.87 210.61 98.96 210.56 100.00 C 216.24 98.19 221.77 95.25 225.28 90.28 C 233.10 81.62 239.47 69.01 234.81 57.34 C 227.16 49.68 215.36 50.69 205.53 52.11 M 187.50 59.12 C 188.49 60.94 189.01 63.38 190.83 64.53 C 195.74 61.82 204.48 61.03 204.55 53.90 C 198.40 53.56 192.85 56.48 187.50 59.12 M 246.22 56.14 C 244.18 56.84 245.03 59.23 244.81 60.84 C 250.19 57.64 256.58 58.01 262.56 58.65 C 262.53 56.90 261.65 55.47 259.91 55.05 C 255.48 53.36 250.39 54.05 246.22 56.14 M 141.58 66.72 C 139.58 69.06 139.62 72.72 138.36 75.54 C 136.57 73.98 135.15 71.72 132.61 71.34 C 128.87 70.41 125.80 73.81 124.77 77.05 C 124.02 81.53 125.11 86.54 128.79 89.48 C 130.99 89.29 133.18 89.05 135.39 88.87 C 135.77 93.54 134.61 98.79 136.96 103.02 C 142.69 109.41 152.15 109.42 160.09 109.63 C 161.01 114.03 163.67 118.45 168.21 119.80 C 170.81 120.17 174.20 120.31 175.72 117.70 C 176.83 115.40 176.94 112.79 177.40 110.32 C 183.69 110.11 191.11 110.85 195.93 105.93 C 202.12 99.99 201.91 90.31 198.92 82.84 C 203.72 81.53 207.19 76.32 205.60 71.40 C 204.75 67.25 199.98 65.68 196.24 66.08 C 194.19 66.94 192.55 68.48 190.81 69.81 C 188.91 66.22 187.50 60.85 182.98 59.93 C 168.95 59.75 154.71 61.64 141.58 66.72 M 202.72 62.90 C 204.31 64.47 206.02 65.92 207.91 67.14 C 208.13 66.19 208.31 65.23 208.46 64.27 C 207.37 62.23 204.58 63.19 202.72 62.90 M 126.71 64.65 C 127.17 65.92 127.64 67.18 128.12 68.45 C 131.17 68.22 134.32 68.12 136.95 69.94 C 137.23 68.98 137.51 68.02 137.79 67.06 C 134.56 64.90 130.59 62.61 126.71 64.65 M 241.64 65.58 C 239.90 75.72 236.09 85.70 229.15 93.43 C 230.80 94.23 232.40 95.14 233.95 96.13 C 237.68 94.17 241.53 92.34 244.91 89.77 C 243.89 81.70 243.02 73.60 241.64 65.58 M 248.15 70.23 C 246.10 71.05 246.84 73.57 246.51 75.27 C 251.64 73.71 257.11 72.96 262.35 74.48 C 262.42 73.49 262.55 71.52 262.61 70.53 C 258.27 67.80 252.64 67.97 248.15 70.23 M 115.45 72.89 C 117.48 74.24 120.08 75.68 122.54 74.70 C 123.87 73.16 124.99 71.46 126.17 69.81 C 122.37 69.11 117.54 68.93 115.45 72.89 M 247.21 79.78 C 247.48 82.48 247.81 85.18 248.25 87.86 C 249.81 87.73 251.37 87.42 252.95 87.52 C 255.75 88.82 258.31 90.84 261.52 91.04 C 261.75 87.98 262.19 84.96 262.51 81.92 C 262.41 80.61 263.17 78.34 261.40 77.86 C 256.86 75.88 251.35 77.40 247.21 79.78 M 111.79 83.19 C 110.48 85.50 112.60 88.34 115.08 88.29 C 117.89 88.57 120.56 87.59 123.11 86.53 C 122.77 83.57 122.33 80.63 121.86 77.69 C 118.02 78.30 113.89 79.68 111.79 83.19 M 202.58 84.76 C 202.89 86.41 203.21 88.05 203.55 89.69 C 206.70 90.95 210.25 92.15 213.28 89.87 C 212.91 87.82 213.11 85.16 211.03 83.96 C 208.28 82.19 204.86 82.30 202.58 84.76 M 122.28 89.22 C 119.62 90.13 115.99 94.47 119.55 96.41 C 122.97 97.52 125.70 93.70 126.97 90.99 C 125.50 90.17 124.12 87.96 122.28 89.22 M 244.05 95.21 C 243.41 99.78 246.49 103.85 247.00 108.34 C 249.19 107.19 251.41 105.61 251.80 102.97 C 252.52 101.53 252.37 98.49 254.71 99.12 C 255.91 101.64 256.22 104.68 258.61 106.47 C 261.52 102.25 260.87 96.30 257.38 92.63 C 253.60 88.66 246.20 90.45 244.05 95.21 M 128.79 92.55 C 127.42 95.51 128.17 98.95 131.39 100.28 C 131.91 97.81 132.26 95.31 132.59 92.81 C 131.64 92.74 129.74 92.61 128.79 92.55 M 204.22 92.50 C 203.72 95.18 203.22 97.85 202.67 100.51 C 204.73 100.30 207.93 100.58 208.37 97.86 C 209.17 95.07 206.11 93.71 204.22 92.50 M 261.03 93.53 C 261.56 94.84 262.06 96.18 262.76 97.42 C 265.36 98.46 268.21 96.78 268.51 93.95 C 266.51 91.63 263.44 92.60 261.03 93.53 M 217.08 104.08 C 215.75 104.99 213.74 105.57 213.48 107.41 C 211.49 116.62 209.58 125.86 207.66 135.08 C 213.44 134.58 219.24 134.18 225.02 134.91 C 229.29 135.58 232.24 131.93 234.89 129.21 C 232.01 129.78 229.07 130.72 226.11 130.27 C 224.34 129.78 221.55 127.50 223.80 125.85 C 227.39 123.02 232.43 124.23 236.64 124.62 C 238.48 123.85 238.11 121.61 238.42 120.01 C 239.07 113.19 234.96 106.96 229.57 103.16 C 229.89 101.77 230.16 100.38 230.38 98.97 C 229.41 97.70 227.58 97.51 226.19 98.11 C 222.69 99.33 220.36 102.45 217.08 104.08 M 232.25 102.30 C 237.54 106.93 240.97 113.57 241.18 120.65 C 242.53 120.85 243.89 121.06 245.24 121.29 C 245.28 122.44 245.31 123.59 245.32 124.74 C 243.19 125.60 240.90 126.33 239.48 128.27 C 242.38 127.73 245.84 127.68 248.24 125.92 C 247.62 118.25 243.90 111.37 242.01 104.01 C 241.40 101.63 240.67 99.29 239.79 97.00 C 237.03 98.40 234.56 100.26 232.25 102.30 M 76.01 103.29 C 75.26 106.45 77.76 108.97 78.25 111.92 C 77.45 114.12 75.86 115.97 75.25 118.25 C 74.78 121.84 76.31 125.80 79.52 127.66 C 80.51 128.69 82.60 128.69 82.60 126.87 C 83.42 121.11 86.65 114.51 82.90 109.17 C 81.09 106.28 81.87 102.82 82.32 99.67 C 79.77 99.75 77.00 100.70 76.01 103.29 M 263.32 100.75 C 263.14 102.57 262.99 104.39 262.89 106.22 C 264.84 105.97 266.77 105.58 268.67 105.08 C 268.78 103.61 268.86 102.15 268.90 100.69 C 267.04 100.56 265.17 100.61 263.32 100.75 M 199.12 108.88 C 196.16 122.14 196.51 136.73 202.82 149.00 C 203.54 144.14 203.56 139.20 204.25 134.34 C 205.25 124.63 208.18 115.18 208.45 105.40 C 205.34 106.58 202.28 107.86 199.12 108.88 M 59.12 109.06 C 61.55 110.84 64.52 111.51 67.17 112.86 C 69.25 113.72 69.26 116.24 69.63 118.12 C 65.02 120.09 59.66 116.17 55.47 119.49 C 55.14 120.64 54.91 121.81 54.77 123.01 C 59.29 124.48 65.13 121.93 68.42 126.32 C 66.24 131.27 59.28 130.07 56.95 134.89 C 60.07 138.13 63.82 135.15 67.11 133.92 C 68.77 132.93 71.27 135.18 70.23 136.88 C 68.80 140.18 66.81 143.85 68.94 147.35 C 73.82 146.13 73.26 140.54 75.09 136.86 C 76.97 138.16 78.80 139.57 80.95 140.41 C 81.42 137.61 81.80 134.79 82.13 131.96 C 77.16 131.89 72.77 128.46 71.34 123.74 C 70.56 118.91 75.40 115.00 74.34 110.16 C 72.59 108.47 70.29 107.41 67.87 107.17 C 64.84 106.96 61.17 106.16 59.12 109.06 M 250.90 110.07 C 253.11 124.67 255.37 139.28 256.55 154.00 C 255.75 156.81 251.96 157.95 251.81 161.06 C 251.16 164.64 254.19 168.60 258.01 168.00 C 262.38 167.82 268.18 165.86 268.70 160.79 C 269.55 157.41 265.99 155.61 263.76 153.95 C 263.93 143.82 263.82 133.69 263.53 123.57 C 261.20 123.12 258.32 123.30 256.79 121.13 C 254.84 119.39 256.76 116.93 257.37 115.03 C 256.01 112.44 255.63 109.52 254.73 106.77 C 253.42 107.83 252.15 108.94 250.90 110.07 M 261.29 109.40 C 260.88 109.57 260.05 109.92 259.64 110.09 C 258.59 113.07 263.02 113.12 265.00 112.97 C 266.92 113.08 270.44 111.79 268.98 109.37 C 266.44 109.10 263.79 108.69 261.29 109.40 M 22.23 109.77 C 24.77 118.29 27.99 126.82 27.71 135.87 C 30.50 133.12 33.60 130.71 37.02 128.78 C 32.06 122.47 27.30 115.99 22.23 109.77 M 130.86 110.00 C 130.30 112.33 130.08 114.73 129.93 117.12 C 130.95 115.41 131.99 113.70 133.19 112.11 C 134.21 113.19 135.33 114.35 135.13 115.98 C 135.41 132.52 134.06 149.26 137.28 165.61 C 139.29 174.32 142.16 182.80 144.88 191.31 C 149.19 204.60 154.19 217.79 161.56 229.71 C 167.48 213.98 179.42 201.72 190.41 189.41 C 200.01 181.57 210.27 173.42 222.74 170.97 C 221.39 167.35 219.62 162.24 215.01 162.07 C 205.84 165.59 197.34 170.71 189.27 176.29 C 181.60 181.89 175.16 188.95 169.61 196.61 C 166.04 200.06 164.95 205.06 162.13 209.01 C 157.79 202.03 155.38 194.02 152.74 186.28 C 147.41 170.04 144.11 153.08 143.65 135.97 C 143.06 127.99 143.74 120.01 143.81 112.04 C 139.64 110.61 135.21 110.38 130.86 110.00 M 97.84 115.11 C 97.43 117.56 99.92 118.80 101.33 120.32 C 97.55 125.89 94.78 132.57 96.31 139.42 C 101.68 136.60 108.60 133.59 114.35 137.07 C 114.48 138.51 113.91 139.94 112.47 140.46 C 108.00 143.12 102.57 142.96 97.56 142.64 C 100.20 145.69 103.83 148.16 108.01 148.09 C 111.97 148.57 114.60 144.81 118.37 144.46 C 122.71 143.94 127.10 144.70 131.44 144.05 C 132.05 135.84 132.43 127.62 132.54 119.39 C 123.42 120.80 115.01 115.87 107.40 111.54 C 103.93 109.44 98.96 111.13 97.84 115.11 M 181.06 114.08 C 179.68 117.32 179.21 121.99 175.36 123.26 C 167.76 125.92 159.27 120.38 156.85 113.08 C 153.31 112.71 149.78 112.28 146.24 111.92 C 145.58 123.29 145.05 134.72 146.13 146.09 C 148.28 166.03 153.84 185.53 162.22 203.74 C 166.61 194.54 173.87 187.10 181.25 180.24 C 190.21 172.40 200.54 166.34 211.19 161.11 C 207.85 159.51 204.78 157.30 202.92 154.03 C 194.48 141.23 194.70 125.17 195.74 110.47 C 191.06 112.40 186.21 114.24 181.06 114.08 M 88.76 113.97 C 87.15 124.03 83.65 133.87 84.13 144.19 C 87.05 144.02 89.96 143.76 92.86 143.49 C 92.88 143.27 92.90 142.83 92.91 142.61 C 90.28 142.93 87.74 142.30 86.08 140.09 C 87.12 137.56 89.21 136.19 91.96 136.41 C 92.54 131.13 93.62 125.83 96.53 121.29 C 94.55 119.38 92.93 117.12 92.41 114.37 C 91.20 114.24 89.98 114.10 88.76 113.97 M 264.33 116.14 C 262.45 116.64 259.37 116.39 259.46 119.11 C 259.73 121.12 262.55 120.63 263.99 120.41 C 266.17 120.07 269.36 118.63 268.43 115.89 C 267.05 115.84 265.69 115.92 264.33 116.14 M 225.36 127.85 C 228.47 128.61 231.65 128.06 234.41 126.47 C 231.32 126.10 227.94 125.73 225.36 127.85 M 10.76 164.43 C 9.36 178.66 11.26 193.71 18.43 206.28 C 20.16 201.73 25.42 201.00 29.67 201.15 C 25.25 192.13 21.14 182.85 19.01 172.99 C 16.01 158.00 27.50 144.16 23.65 129.14 C 20.36 141.27 13.04 152.00 10.76 164.43 M 28.21 138.22 C 25.26 144.27 29.85 150.52 30.46 156.61 C 34.50 150.44 39.04 144.21 45.84 140.88 C 43.51 137.34 41.14 133.74 37.94 130.92 C 34.17 132.45 30.70 135.01 28.21 138.22 M 99.82 140.22 C 104.00 141.10 108.37 140.46 112.13 138.45 C 108.04 137.08 103.29 137.53 99.82 140.22 M 31.35 160.25 C 32.42 167.22 34.48 174.05 36.10 180.92 C 40.94 171.00 48.91 163.07 57.80 156.70 C 54.53 151.83 50.97 147.16 47.10 142.75 C 39.65 146.05 34.26 152.79 31.35 160.25 M 22.11 166.09 C 23.34 178.08 28.97 189.01 34.61 199.46 C 32.10 182.17 29.67 164.82 25.19 147.90 C 22.63 153.58 21.46 159.87 22.11 166.09 M 122.66 148.97 C 119.67 163.49 116.83 178.04 114.53 192.68 C 117.27 192.14 120.01 191.58 122.74 190.98 C 124.25 176.98 126.41 163.02 126.88 148.93 C 125.47 148.93 124.07 148.94 122.66 148.97 M 38.17 181.08 C 37.55 182.63 36.30 184.20 36.91 185.96 C 38.52 192.39 39.67 198.96 42.03 205.18 C 43.40 203.83 44.67 202.36 45.71 200.74 C 52.34 190.53 61.03 181.67 71.14 174.89 C 67.42 169.37 63.39 164.07 59.17 158.92 C 50.25 164.09 42.46 171.61 38.17 181.08 M 134.47 168.35 C 133.77 179.59 135.04 191.15 139.47 201.58 C 140.79 204.15 142.67 207.50 146.11 206.27 C 141.09 193.99 138.34 180.99 134.47 168.35 M 207.61 179.76 C 208.63 180.51 209.61 181.30 210.58 182.13 C 208.14 182.57 205.66 182.46 203.22 182.79 C 201.83 183.58 200.56 184.54 199.27 185.46 C 202.32 186.01 205.46 186.37 208.33 187.63 C 213.73 193.74 215.94 202.06 221.81 207.86 C 223.80 206.88 225.75 205.84 227.72 204.80 C 227.13 203.21 226.52 201.62 226.05 200.00 C 227.71 200.59 228.89 201.89 230.07 203.15 C 233.24 202.74 236.56 202.20 239.68 203.25 C 242.29 204.15 244.13 206.30 246.12 208.10 C 247.27 206.16 248.48 204.26 249.61 202.31 C 242.15 195.44 235.80 187.51 228.94 180.07 C 226.37 177.80 223.76 174.72 220.03 174.79 C 215.42 175.00 211.60 177.79 207.61 179.76 M 50.18 197.52 C 58.82 193.58 67.84 189.97 77.46 189.57 C 77.59 187.83 78.18 186.07 77.83 184.33 C 76.78 181.40 74.34 179.32 72.43 176.96 C 63.70 182.16 55.93 189.12 50.18 197.52 M 4.87 187.03 C 3.62 197.21 2.33 207.94 5.92 217.82 C 8.42 213.52 11.71 209.45 16.60 207.83 C 15.35 205.25 13.86 202.79 12.66 200.19 C 10.56 192.92 9.54 185.40 7.87 178.03 C 6.25 180.78 5.13 183.83 4.87 187.03 M 196.35 188.30 C 192.88 190.91 190.30 194.52 187.09 197.43 C 187.94 198.06 188.77 198.71 189.59 199.38 C 187.91 199.80 186.18 199.99 184.53 200.53 C 182.91 202.30 181.65 204.37 180.35 206.38 C 182.37 206.29 184.40 206.17 186.43 206.14 C 187.91 212.94 188.94 219.91 191.59 226.39 C 194.18 233.53 198.28 240.03 203.13 245.83 C 204.01 240.95 205.78 236.28 206.75 231.44 C 205.78 229.27 204.39 227.24 204.29 224.78 C 205.92 225.62 206.92 227.12 207.86 228.63 C 210.25 222.57 214.09 217.27 217.64 211.85 C 213.40 205.36 210.88 197.91 206.52 191.49 C 204.52 187.89 199.88 188.23 196.35 188.30 M 267.06 193.07 C 262.42 195.90 257.58 198.99 254.61 203.67 C 255.50 204.87 256.42 206.05 257.37 207.21 C 262.74 201.94 267.54 195.47 275.05 193.15 C 277.60 192.34 280.24 193.14 282.80 193.46 C 279.07 187.93 271.81 190.54 267.06 193.07 M 43.23 208.25 C 37.57 215.29 36.37 224.91 37.67 233.61 C 38.84 238.29 42.06 242.43 46.28 244.76 C 54.58 248.99 64.62 248.82 73.03 244.96 C 74.11 246.93 75.00 249.00 76.01 251.00 C 78.97 250.01 83.27 249.08 83.45 245.27 C 85.91 232.92 89.92 220.97 94.02 209.09 C 94.64 206.87 95.87 204.73 95.87 202.39 C 91.42 197.52 86.16 192.08 79.07 192.02 C 65.68 192.21 51.86 197.84 43.23 208.25 M 125.39 194.29 C 126.05 197.02 127.06 199.65 128.36 202.15 C 130.21 201.86 132.06 201.50 133.89 201.09 C 133.19 198.62 132.50 196.15 131.82 193.68 C 129.68 193.85 127.53 194.05 125.39 194.29 M 112.88 196.74 C 114.32 199.19 115.65 201.72 117.34 204.01 C 120.29 205.42 123.44 203.33 126.33 202.67 C 125.23 199.97 124.10 197.28 122.94 194.60 C 119.54 195.09 116.18 195.81 112.88 196.74 M 272.57 196.52 C 264.21 201.06 258.62 209.25 254.37 217.53 C 262.81 217.51 271.24 217.19 279.68 216.91 C 281.97 210.53 284.35 203.46 282.29 196.70 C 279.86 193.93 275.46 195.09 272.57 196.52 M 102.65 200.64 C 106.41 202.05 110.33 202.94 114.31 203.44 C 113.28 201.33 112.02 199.37 110.70 197.44 C 107.98 198.41 105.31 199.51 102.65 200.64 M 23.11 207.17 C 20.96 208.30 21.93 211.05 21.66 213.00 C 18.18 212.76 14.00 212.56 11.56 215.55 C 7.74 218.56 8.75 226.38 14.09 226.91 C 17.44 226.72 20.07 224.38 22.85 222.78 C 21.09 221.30 18.10 219.45 19.76 216.78 C 22.19 213.00 27.21 212.45 31.02 210.67 C 30.22 209.02 29.42 207.38 28.64 205.72 C 26.78 206.12 24.80 206.24 23.11 207.17 M 214.07 225.06 C 215.07 227.08 216.58 228.76 218.31 230.20 C 222.46 224.17 225.98 217.36 231.99 212.94 C 234.90 210.69 238.60 210.16 242.06 209.33 C 238.17 208.62 234.07 207.94 230.23 209.29 C 222.72 211.67 217.47 218.24 214.07 225.06 M 234.86 213.74 C 225.43 218.85 220.83 229.27 217.06 238.78 C 225.75 237.45 234.39 235.85 243.02 234.17 C 244.29 227.92 245.79 221.52 245.29 215.11 C 243.58 210.72 238.10 211.90 234.86 213.74 M 249.47 211.48 C 247.83 216.02 247.82 220.90 247.84 225.67 C 249.82 222.16 251.56 218.53 253.28 214.89 C 252.24 213.52 250.76 212.58 249.47 211.48 M 88.39 238.94 C 90.99 239.58 93.59 240.22 96.20 240.84 C 97.92 232.44 101.60 224.63 103.52 216.28 C 100.95 215.32 98.39 214.36 95.83 213.39 C 93.13 221.84 89.85 230.16 88.39 238.94 M 105.56 217.03 C 103.00 225.06 99.73 232.88 98.09 241.16 C 102.00 242.31 106.03 242.99 110.11 243.10 C 112.05 235.43 113.79 227.71 115.47 219.98 C 112.21 218.86 108.90 217.88 105.56 217.03 M 253.24 219.85 C 252.92 220.43 252.28 221.57 251.96 222.14 C 260.27 221.81 268.61 223.41 276.88 222.12 C 277.37 221.47 278.36 220.17 278.85 219.51 C 270.32 219.18 261.77 219.62 253.24 219.85 M 117.24 220.44 C 116.12 228.35 112.60 235.74 111.89 243.71 C 117.19 244.31 122.51 244.73 127.82 245.17 C 129.33 237.72 129.91 230.12 131.46 222.69 C 126.74 221.82 121.99 221.13 117.24 220.44 M 181.65 222.89 C 182.38 230.49 182.85 238.12 183.81 245.69 C 187.88 245.38 191.90 244.63 195.84 243.58 C 192.24 236.68 189.27 229.51 186.87 222.12 C 185.13 222.37 183.39 222.62 181.65 222.89 M 133.66 223.23 C 132.02 230.55 130.31 237.93 130.00 245.45 C 134.45 245.82 138.91 246.04 143.38 246.24 C 143.68 238.86 144.04 231.48 144.17 224.10 C 140.66 223.83 137.16 223.51 133.66 223.23 M 146.29 224.29 C 146.32 231.71 144.09 239.06 145.46 246.47 C 151.94 246.72 158.43 246.66 164.91 246.32 C 165.03 242.86 165.05 239.39 164.99 235.92 C 164.02 237.44 163.09 238.98 162.12 240.50 C 158.51 236.04 157.84 230.00 154.72 225.23 C 152.13 223.90 149.09 224.48 146.29 224.29 M 169.61 224.71 C 164.35 230.72 167.73 239.33 166.68 246.49 C 171.79 246.12 176.96 246.76 182.02 245.69 C 181.31 238.24 180.41 230.80 179.57 223.35 C 176.24 223.72 172.87 223.89 169.61 224.71 M 250.51 225.05 C 250.28 225.71 249.83 227.04 249.60 227.70 C 257.79 228.47 266.01 227.70 274.21 227.45 C 274.51 226.69 275.13 225.18 275.44 224.42 C 267.14 225.14 258.74 223.65 250.51 225.05 M 247.12 233.13 C 254.70 232.77 262.30 234.04 269.86 233.14 C 270.83 232.29 271.49 231.16 272.28 230.15 C 264.90 229.87 257.51 229.76 250.14 230.04 C 248.35 229.89 247.85 231.94 247.12 233.13 M 209.18 235.12 C 207.74 241.17 205.94 247.43 207.34 253.67 C 208.54 257.01 210.14 260.20 211.90 263.27 C 210.75 255.42 211.28 247.17 214.84 239.97 C 213.03 238.26 211.09 236.72 209.18 235.12 M 246.89 235.48 C 246.28 240.15 247.10 246.64 252.05 248.57 C 259.55 247.96 263.57 240.79 267.99 235.66 C 260.95 236.00 253.92 234.80 246.89 235.48 M 216.31 241.48 C 216.03 241.99 215.49 243.02 215.22 243.53 C 223.23 242.54 231.12 240.72 239.07 239.36 C 240.69 239.35 241.64 238.04 242.50 236.85 C 233.67 237.68 224.88 239.22 216.31 241.48 M 245.92 246.57 C 245.44 244.25 244.77 241.98 244.08 239.72 C 243.04 242.24 244.19 244.68 245.92 246.57 M 218.18 245.27 C 216.38 245.31 214.93 246.42 213.52 247.41 C 215.12 247.90 216.79 247.94 218.44 247.63 C 225.37 246.54 232.35 245.71 239.27 244.50 C 239.49 243.77 239.92 242.30 240.14 241.57 C 232.73 242.24 225.58 244.47 218.18 245.27 M 216.29 250.18 C 214.36 250.05 213.84 251.96 213.06 253.31 C 220.60 252.58 228.02 251.01 235.44 249.55 C 236.85 249.45 237.58 248.19 238.43 247.25 C 231.00 247.71 223.67 249.19 216.29 250.18 M 239.88 247.87 C 239.88 251.78 240.94 255.57 241.52 259.42 C 245.31 258.53 248.70 256.58 251.93 254.48 C 247.49 253.09 243.13 251.31 239.88 247.87 M 66.19 253.18 C 68.76 252.92 70.91 251.52 72.38 249.43 C 70.15 250.18 65.50 249.71 66.19 253.18 M 69.88 265.72 C 67.63 271.60 70.51 278.52 75.82 281.65 C 76.06 280.74 76.55 278.93 76.79 278.02 C 81.18 278.92 85.18 284.19 89.73 281.06 C 88.40 275.81 82.91 274.21 79.46 270.76 C 83.66 270.87 86.95 273.58 90.13 275.98 C 91.29 274.94 92.87 273.86 92.01 272.09 C 90.97 267.11 84.40 267.03 82.50 262.80 C 87.42 263.75 91.24 267.11 95.22 269.88 C 95.91 267.92 96.57 265.62 95.19 263.78 C 92.81 259.87 87.93 259.08 84.71 256.15 C 90.57 254.58 94.27 262.41 100.09 260.07 C 101.87 254.02 95.48 249.52 90.04 249.94 C 80.57 249.45 72.27 256.89 69.88 265.72 M 53.27 251.38 C 49.24 259.43 46.51 268.11 45.43 277.07 C 44.03 286.81 43.95 297.75 49.88 306.13 C 51.94 309.35 55.92 311.74 59.80 310.95 C 64.95 309.50 67.46 304.40 70.19 300.28 C 63.20 296.07 58.23 289.15 55.75 281.43 C 54.28 282.84 53.04 284.69 51.02 285.35 C 49.71 284.91 48.45 284.32 47.35 283.49 C 46.12 282.04 47.57 280.59 48.49 279.47 C 50.51 277.07 54.17 277.52 56.24 275.21 C 59.15 272.40 62.68 270.36 65.68 267.67 C 66.60 264.82 67.54 261.97 68.73 259.21 C 66.77 256.80 65.30 253.94 62.95 251.90 C 59.72 251.85 56.49 251.78 53.27 251.38 M 69.02 257.06 C 71.71 256.75 73.10 254.28 74.08 252.05 C 71.38 252.24 68.48 253.96 69.02 257.06 M 213.35 255.76 C 213.30 260.38 214.77 265.00 218.23 268.19 C 227.03 267.38 231.47 258.80 235.33 251.97 C 227.98 253.08 220.62 254.21 213.35 255.76 M 232.39 262.33 C 234.87 261.64 237.30 260.79 239.71 259.87 C 239.38 257.48 238.89 255.12 238.18 252.83 C 236.13 255.92 234.17 259.08 232.39 262.33 M 102.92 254.39 C 103.31 256.16 104.16 257.96 103.66 259.80 C 103.20 261.84 101.43 263.19 100.09 264.67 C 102.21 265.00 104.32 265.42 106.43 265.81 C 106.88 262.22 107.28 258.64 107.66 255.05 C 106.09 254.80 104.51 254.58 102.92 254.39 M 185.55 256.49 C 185.98 260.95 186.38 265.41 186.77 269.87 C 192.25 269.39 197.72 268.77 203.17 268.00 C 203.06 263.68 202.58 259.39 201.81 255.15 C 196.42 255.87 190.99 256.33 185.55 256.49 M 108.53 266.32 C 114.01 266.79 119.49 267.19 124.97 267.61 C 125.40 263.84 125.86 260.07 126.27 256.30 C 120.78 255.98 115.30 255.60 109.81 255.25 C 108.61 258.82 108.18 262.56 108.53 266.32 M 128.13 256.48 C 127.34 260.39 126.94 264.37 127.08 268.36 C 132.10 268.91 137.14 269.29 142.20 269.28 C 142.37 265.24 142.36 261.19 142.20 257.14 C 137.51 256.94 132.82 256.63 128.13 256.48 M 166.02 257.56 C 165.79 261.86 165.71 266.16 165.73 270.46 C 172.05 270.68 178.38 270.61 184.69 270.15 C 184.55 265.66 183.87 261.21 183.38 256.75 C 177.59 256.87 171.81 257.34 166.02 257.56 M 144.07 257.46 C 143.96 261.52 143.88 265.60 144.32 269.65 C 150.87 269.94 157.43 270.09 163.99 270.29 C 164.20 266.06 164.41 261.83 164.57 257.60 C 157.74 257.62 150.90 257.27 144.07 257.46 M 204.70 261.53 C 204.78 263.57 204.93 265.60 205.18 267.63 C 206.44 267.46 207.70 267.28 208.96 267.08 C 207.54 265.23 206.13 263.37 204.70 261.53 M 242.53 271.56 C 242.49 282.00 243.84 292.51 242.28 302.90 C 241.89 310.32 242.42 317.81 241.08 325.16 C 243.95 324.74 246.73 323.93 249.40 322.79 C 252.11 304.81 253.49 286.63 253.30 268.44 C 249.58 268.99 246.02 270.21 242.53 271.56 M 228.01 276.62 C 228.54 284.09 229.44 291.58 228.84 299.08 C 228.05 309.17 226.81 319.23 225.91 329.32 C 230.30 328.35 234.60 327.04 238.83 325.52 C 240.04 319.39 240.06 313.12 240.48 306.91 C 241.32 295.37 241.55 283.78 240.52 272.25 C 236.28 273.52 232.33 275.60 228.01 276.62 M 57.86 281.65 C 60.85 279.14 66.22 277.59 66.23 273.08 C 62.55 274.66 57.48 276.82 57.86 281.65 M 58.64 283.30 C 58.92 284.09 59.49 285.67 59.77 286.47 C 62.82 284.71 65.74 282.62 67.99 279.89 C 67.77 278.93 67.49 277.99 67.16 277.06 C 64.18 278.93 61.40 281.12 58.64 283.30 M 93.27 279.02 C 92.67 282.70 91.05 286.16 90.92 289.94 C 89.97 303.28 91.94 316.58 92.27 329.91 C 96.79 330.83 101.35 331.52 105.93 332.05 C 103.50 314.31 103.84 296.40 104.68 278.57 C 100.86 278.39 96.71 276.50 93.27 279.02 M 206.37 279.49 C 206.64 297.05 207.25 314.63 206.20 332.17 C 212.19 331.86 218.13 331.02 224.00 329.81 C 225.29 312.58 228.88 295.14 225.77 277.90 L 225.09 277.27 C 218.81 277.62 212.58 278.46 206.37 279.49 M 106.82 278.92 C 106.37 286.31 105.61 293.67 105.14 301.05 C 105.82 311.55 106.48 322.06 107.48 332.53 C 112.98 333.75 118.59 334.34 124.22 334.47 C 124.09 327.96 122.96 321.51 122.97 314.99 C 122.48 303.38 123.29 291.77 123.41 280.16 C 117.89 279.64 112.37 279.13 106.82 278.92 M 125.40 280.40 C 124.89 293.56 123.64 306.76 124.86 319.92 C 125.39 324.97 125.18 330.10 126.18 335.11 C 131.75 335.44 137.33 335.65 142.90 335.95 C 142.56 317.68 142.25 299.41 142.00 281.14 C 136.46 281.06 130.92 280.84 125.40 280.40 M 187.80 281.63 C 189.21 299.46 187.36 317.29 187.22 335.13 C 193.09 334.87 198.77 333.34 204.54 332.38 C 205.05 314.87 205.95 297.29 204.19 279.81 C 198.74 280.49 193.28 281.15 187.80 281.63 M 61.18 288.15 C 61.55 289.39 62.16 290.54 62.71 291.72 C 65.91 289.45 68.93 286.90 71.43 283.88 C 71.11 283.23 70.46 281.94 70.13 281.29 C 66.89 283.19 63.65 285.27 61.18 288.15 M 143.95 281.40 C 143.82 286.91 143.24 292.43 143.66 297.94 C 144.97 310.68 143.39 323.50 144.53 336.25 C 151.01 336.41 157.49 336.24 163.98 336.24 C 163.23 318.08 163.11 299.90 163.39 281.72 C 156.91 281.66 150.43 281.52 143.95 281.40 M 165.10 281.78 C 164.05 299.93 165.12 318.09 166.01 336.22 C 172.51 336.16 179.00 335.74 185.48 335.17 C 185.98 317.42 187.32 299.65 186.10 281.91 C 179.10 281.67 172.10 281.63 165.10 281.78 M 80.65 283.28 C 79.27 297.39 80.70 311.52 81.64 325.61 C 84.33 326.90 87.12 327.97 90.02 328.72 C 89.62 314.37 88.54 300.03 89.19 285.67 C 86.16 285.66 83.34 284.56 80.65 283.28 M 71.23 286.28 C 68.90 288.64 66.48 290.92 64.01 293.14 C 64.89 293.97 65.77 294.81 66.66 295.64 C 69.59 292.02 73.90 289.39 75.52 284.84 C 73.94 284.73 72.23 284.87 71.23 286.28 M 68.04 297.11 C 69.35 297.29 71.11 298.60 72.12 297.09 C 73.93 294.43 75.21 291.41 76.11 288.33 C 73.14 290.98 70.52 294.00 68.04 297.11 M 70.43 306.64 C 72.67 308.07 74.96 309.43 77.32 310.67 C 77.12 305.55 76.88 300.42 76.49 295.31 C 74.33 299.01 72.36 302.82 70.43 306.64 M 64.79 313.35 C 69.13 316.13 73.45 318.95 77.82 321.70 C 77.78 319.29 78.19 316.79 77.46 314.46 C 75.76 311.51 72.37 310.24 69.72 308.33 C 68.02 309.94 66.38 311.62 64.79 313.35 M 49.67 317.68 C 44.63 328.12 40.87 339.76 41.73 351.47 C 49.89 352.38 56.47 357.60 63.11 361.95 C 70.24 366.58 79.10 369.72 87.64 367.84 C 86.37 362.67 84.66 357.63 83.41 352.46 C 81.06 343.75 80.54 334.64 77.99 325.97 C 74.96 321.70 70.16 319.03 65.80 316.26 C 62.21 313.62 57.50 315.91 53.53 314.32 C 51.15 313.04 50.58 316.21 49.67 317.68 M 239.41 339.17 C 237.29 341.59 237.97 345.21 237.20 348.17 C 240.05 347.50 242.94 346.87 245.64 345.72 C 247.48 343.37 246.95 340.10 247.50 337.33 C 244.84 338.13 242.09 338.48 239.41 339.17 M 84.36 340.71 C 84.84 343.24 85.37 345.78 85.93 348.31 C 88.26 348.82 90.59 349.36 92.92 349.88 C 92.66 347.53 92.39 345.19 92.10 342.86 C 89.56 342.01 86.97 341.29 84.36 340.71 M 223.73 343.44 C 223.32 346.05 222.94 348.67 222.76 351.31 C 226.79 350.29 230.85 349.40 234.98 348.87 C 235.52 346.02 235.92 343.15 236.17 340.26 C 232.00 341.25 227.86 342.35 223.73 343.44 M 94.26 343.17 C 94.35 345.67 94.56 348.17 94.96 350.65 C 99.46 352.24 104.08 353.46 108.80 354.19 C 108.32 351.27 107.83 348.35 107.36 345.43 C 103.00 344.64 98.64 343.82 94.26 343.17 M 205.60 345.32 C 205.31 348.29 205.00 351.26 204.71 354.23 C 210.07 353.43 215.47 352.81 220.79 351.78 C 221.26 349.03 221.57 346.25 221.86 343.48 C 216.44 344.11 211.03 344.74 205.60 345.32 M 109.54 346.13 C 109.98 348.96 110.47 351.78 111.09 354.57 C 115.85 355.29 120.62 355.90 125.43 356.14 C 125.40 353.27 125.04 350.42 124.29 347.65 C 119.38 347.11 114.46 346.57 109.54 346.13 M 186.78 347.83 C 186.57 350.87 186.52 353.92 186.63 356.97 C 191.98 355.80 197.53 355.82 202.80 354.26 C 203.03 351.55 203.27 348.85 203.52 346.15 C 197.93 346.68 192.35 347.19 186.78 347.83 M 126.62 347.96 C 126.70 350.81 126.78 353.66 127.16 356.50 C 132.85 357.35 138.57 358.05 144.32 358.33 C 144.03 355.29 143.66 352.25 143.27 349.22 C 137.72 348.82 132.17 348.38 126.62 347.96 M 166.05 349.31 C 165.85 352.28 165.87 355.26 166.14 358.23 C 172.45 357.96 178.77 357.66 185.08 357.27 C 185.13 354.27 185.13 351.26 185.13 348.26 C 178.78 348.78 172.41 349.06 166.05 349.31 M 145.50 349.43 C 145.56 352.36 145.75 355.28 146.03 358.20 C 152.10 358.37 158.21 358.93 164.26 358.09 C 164.17 355.19 164.05 352.29 163.96 349.40 C 157.81 349.49 151.65 349.49 145.50 349.43 M 38.65 355.16 C 38.93 360.49 44.98 362.08 47.49 366.07 C 44.14 366.71 39.62 365.23 37.27 368.44 C 35.56 370.83 37.79 373.17 39.52 374.70 C 39.86 373.10 40.22 371.50 40.60 369.92 C 46.01 371.44 50.87 374.33 55.41 377.58 C 60.10 381.07 65.33 383.70 70.40 386.57 C 77.96 390.06 86.75 389.04 94.31 386.10 C 93.13 383.17 91.72 380.35 90.32 377.52 C 79.26 380.93 67.60 377.35 57.68 372.27 C 55.63 371.20 54.11 369.36 53.14 367.29 C 57.95 369.17 62.22 372.21 67.15 373.83 C 74.22 377.00 82.34 377.58 89.78 375.36 C 89.40 373.63 89.00 371.91 88.61 370.19 C 82.64 370.74 76.49 370.38 70.84 368.24 C 63.10 365.54 57.59 358.97 50.09 355.78 C 46.56 354.21 42.18 352.69 38.65 355.16 M 234.18 362.13 C 232.23 372.34 228.81 382.18 226.25 392.25 C 228.37 391.25 231.45 390.79 232.14 388.17 C 235.54 378.53 239.40 369.04 242.21 359.21 C 239.57 360.27 236.84 361.11 234.18 362.13 M 89.87 362.00 C 91.83 371.34 95.48 380.19 98.99 389.03 C 99.71 391.17 102.13 391.81 103.87 392.91 C 102.35 383.64 100.17 374.48 97.75 365.41 C 95.86 363.35 92.40 363.22 89.87 362.00 M 219.70 365.60 C 218.80 375.67 215.68 385.31 213.36 395.09 C 216.48 394.19 220.38 394.56 223.01 392.75 C 226.93 383.09 230.35 373.09 231.66 362.69 C 227.61 363.39 223.62 364.39 219.70 365.60 M 99.80 365.04 C 102.33 374.69 103.52 384.67 106.64 394.17 C 110.36 394.88 114.08 395.55 117.81 396.21 C 115.81 386.35 113.51 376.55 110.96 366.83 C 107.22 366.33 103.57 365.26 99.80 365.04 M 203.18 368.46 C 201.97 378.00 200.38 387.49 198.84 396.99 C 202.98 396.81 207.06 396.04 211.15 395.45 C 214.12 385.83 216.59 376.00 217.62 365.97 C 212.88 367.20 208.00 367.68 203.18 368.46 M 113.00 366.97 C 113.41 369.70 113.98 372.43 114.86 375.06 C 117.15 382.29 117.43 390.13 120.87 396.99 C 124.91 398.39 129.42 398.35 133.68 398.72 C 131.61 389.03 129.63 379.31 127.74 369.57 C 122.81 368.78 117.90 367.91 113.00 366.97 M 185.97 370.02 C 184.91 379.61 183.87 389.20 183.95 398.87 C 188.32 398.35 192.68 397.83 197.05 397.32 C 197.64 387.56 200.48 378.11 201.00 368.35 C 196.00 369.00 190.99 369.56 185.97 370.02 M 129.55 369.62 C 131.42 379.57 133.53 389.47 135.74 399.34 C 140.84 399.87 145.96 400.02 151.08 399.79 C 147.56 390.58 146.13 380.75 145.51 370.97 C 140.19 370.47 134.87 370.02 129.55 369.62 M 147.13 371.03 C 147.56 381.03 149.92 390.74 153.06 400.20 C 156.93 400.46 160.81 400.51 164.69 400.26 C 164.70 390.50 164.50 380.75 164.13 370.99 C 158.46 371.01 152.79 370.99 147.13 371.03 M 166.20 371.07 C 166.35 380.75 166.69 390.44 166.90 400.12 C 171.73 400.23 176.61 400.19 181.34 399.15 C 182.98 397.55 182.61 395.09 182.62 393.03 C 182.37 385.43 183.31 377.87 183.95 370.32 C 178.03 370.51 172.12 370.91 166.20 371.07 M 46.19 375.81 C 49.11 378.57 50.51 383.08 54.30 384.72 C 53.63 380.54 50.97 375.86 46.19 375.81 M 40.67 376.86 C 45.95 381.50 49.40 388.04 49.53 395.16 C 55.58 394.07 61.83 393.16 67.15 389.85 C 64.43 387.79 61.70 385.75 58.96 383.73 C 56.47 384.90 53.99 386.12 51.47 387.23 C 49.68 382.60 46.78 375.67 40.67 376.86 M 35.36 378.92 C 40.29 382.96 43.43 388.92 43.21 395.38 C 44.57 395.36 45.93 395.33 47.29 395.28 C 46.93 391.07 46.25 386.72 43.82 383.16 C 41.94 380.41 39.00 376.90 35.36 378.92 M 32.39 381.08 C 29.83 383.45 25.94 386.49 27.49 390.47 C 30.51 394.48 35.81 395.41 40.53 395.37 C 40.95 392.37 41.51 389.02 39.61 386.37 C 37.85 384.00 35.79 380.73 32.39 381.08 M 56.02 381.36 C 54.48 384.27 59.35 381.61 56.02 381.36 Z" />
<path fill="#000000" opacity="1.00" d=" M 169.67 67.96 C 169.56 63.82 175.01 62.16 178.19 63.84 C 180.06 64.53 180.86 66.48 181.75 68.10 C 179.39 67.30 177.05 65.59 174.44 66.38 C 172.60 67.17 171.15 70.30 173.49 71.45 C 176.06 73.58 180.72 75.56 179.70 79.66 C 177.90 83.47 173.80 86.10 169.53 85.82 C 170.24 82.72 174.11 83.11 175.66 80.68 C 176.90 79.53 177.03 77.78 177.41 76.24 C 174.41 74.03 170.10 72.16 169.67 67.96 Z" />
<path fill="#000000" opacity="1.00" d=" M 156.40 74.63 C 152.08 69.76 160.06 61.73 164.72 66.24 C 166.14 67.14 165.85 69.02 166.20 70.43 C 164.76 69.43 163.38 68.34 161.96 67.30 C 158.52 68.31 157.69 71.75 156.40 74.63 Z" />
<path fill="#000000" opacity="1.00" d=" M 198.33 70.08 C 200.12 69.07 202.84 70.77 203.28 72.75 C 205.69 77.22 197.08 79.68 195.59 75.49 C 194.42 73.20 196.73 71.35 198.33 70.08 M 199.28 71.93 C 198.05 72.32 197.36 74.62 198.98 74.98 C 201.18 75.45 201.86 71.09 199.28 71.93 Z" />
<path fill="#000000" opacity="1.00" d=" M 127.00 82.69 C 125.56 79.27 129.69 76.82 132.13 75.24 C 133.64 76.42 135.49 77.82 134.99 80.03 C 135.51 84.27 129.10 86.57 127.00 82.69 M 130.06 82.25 C 132.50 82.03 133.49 80.00 133.49 77.76 C 131.02 78.07 130.20 80.01 130.06 82.25 Z" />
<path fill="#000000" opacity="1.00" d=" M 188.42 85.42 C 191.19 83.42 192.00 80.08 192.75 76.94 C 195.36 78.75 197.39 81.46 196.14 84.75 C 194.42 84.88 192.27 83.34 190.96 84.98 C 187.00 89.10 181.82 91.58 176.79 94.12 C 176.25 98.27 176.47 103.15 173.23 106.29 C 171.07 108.56 166.42 107.42 165.69 104.34 C 164.80 101.75 164.95 98.99 164.94 96.29 C 157.67 95.68 150.32 92.99 144.97 87.91 C 143.49 88.39 142.00 88.85 140.50 89.26 C 140.27 86.30 142.42 83.73 144.95 82.48 C 147.82 82.71 145.71 86.15 147.20 87.62 C 153.83 93.46 163.33 95.56 171.92 93.87 C 178.10 92.69 183.46 89.11 188.42 85.42 M 166.98 96.43 C 166.80 98.24 166.68 100.05 166.66 101.87 C 169.13 101.05 171.91 101.07 174.23 99.90 C 174.45 98.43 174.62 96.96 174.76 95.49 C 172.16 95.75 169.56 96.04 166.98 96.43 Z" />
<path fill="#000000" opacity="1.00" d=" M 183.34 82.46 C 184.81 81.71 186.33 81.08 187.97 80.81 C 184.13 84.75 179.36 88.74 173.52 88.61 C 175.05 84.32 179.87 84.28 183.34 82.46 Z" />
<path fill="#000000" opacity="1.00" d=" M 152.33 86.07 C 157.39 86.56 162.43 86.46 167.47 85.86 C 167.01 87.32 166.51 88.78 165.95 90.21 C 161.25 89.70 156.14 89.16 152.33 86.07 Z" />
<path fill="#000000" opacity="1.00" d=" M 166.24 110.70 C 168.68 110.20 171.18 110.24 173.65 110.48 C 173.02 113.59 172.16 117.00 169.11 118.61 C 167.78 116.12 166.85 113.45 166.24 110.70 Z" />
<path fill="#000000" opacity="1.00" d=" M 161.43 129.63 C 167.88 128.54 174.35 127.58 180.75 126.22 C 182.45 128.88 182.25 132.47 183.87 135.29 C 186.30 134.54 188.65 133.56 191.09 132.85 C 193.02 138.00 193.73 143.51 195.64 148.67 C 193.25 149.22 190.83 149.69 188.48 150.43 C 190.96 155.93 193.56 161.38 195.93 166.93 C 188.54 169.56 181.26 172.47 174.08 175.63 C 170.33 170.30 169.92 163.49 166.34 158.08 C 162.19 159.31 158.37 161.32 154.53 163.28 C 153.46 156.80 151.22 150.57 150.41 144.05 C 155.10 142.63 160.01 141.55 164.27 139.04 C 163.59 135.83 162.39 132.76 161.43 129.63 M 165.19 132.02 C 165.96 135.05 166.89 138.04 167.62 141.08 C 162.84 142.79 157.97 144.29 153.43 146.60 C 154.33 151.07 155.20 155.56 156.10 160.03 C 160.05 158.39 163.81 156.29 167.88 154.98 C 169.57 155.41 169.79 157.23 170.30 158.63 C 171.70 163.43 173.49 168.10 175.21 172.80 C 180.44 169.77 186.39 168.23 191.48 164.91 C 189.00 159.67 186.86 154.29 185.32 148.70 C 187.69 147.79 190.16 147.25 192.59 146.52 C 191.77 142.91 190.76 139.35 189.73 135.80 C 187.53 136.33 185.36 137.03 183.10 137.29 C 180.11 135.74 180.78 131.55 179.63 128.79 C 174.77 129.63 169.96 130.77 165.19 132.02 Z" />
<path fill="#000000" opacity="1.00" d=" M 212.20 182.18 C 213.25 181.24 215.33 181.82 215.69 183.20 C 215.39 185.27 211.18 184.14 212.20 182.18 Z" />
<path fill="#000000" opacity="1.00" d=" M 217.25 185.17 C 218.77 184.29 220.92 187.74 219.01 188.37 C 217.73 188.11 216.76 186.39 217.25 185.17 Z" />
<path fill="#000000" opacity="1.00" d=" M 220.35 190.91 C 221.73 190.13 223.49 192.45 222.71 193.71 C 221.28 194.53 219.64 192.17 220.35 190.91 Z" />
<path fill="#000000" opacity="1.00" d=" M 223.41 195.96 C 224.77 194.99 227.00 197.28 226.01 198.63 C 224.54 199.61 222.47 197.40 223.41 195.96 Z" />
<path fill="#000000" opacity="1.00" d=" M 66.69 201.16 C 68.61 195.92 76.61 197.62 78.22 202.29 C 75.48 201.80 72.25 199.49 69.74 201.78 C 68.76 203.67 69.91 206.28 71.74 207.28 C 74.04 208.37 76.61 208.65 79.03 209.42 C 78.92 214.80 73.84 219.42 68.38 218.16 C 71.38 216.33 74.53 214.26 75.50 210.65 C 71.47 209.16 66.05 206.19 66.69 201.16 Z" />
<path fill="#000000" opacity="1.00" d=" M 190.45 199.63 C 191.96 197.93 194.01 198.43 195.59 199.71 C 193.87 199.87 192.15 199.85 190.45 199.63 Z" />
<path fill="#000000" opacity="1.00" d=" M 195.45 200.57 C 197.33 201.41 197.57 203.34 197.63 205.17 C 195.78 204.32 195.54 202.38 195.45 200.57 Z" />
<path fill="#000000" opacity="1.00" d=" M 52.95 208.11 C 53.24 204.63 57.30 202.43 60.48 203.55 C 62.15 204.35 63.24 205.92 64.42 207.29 C 62.14 207.06 59.64 204.63 57.52 206.37 C 55.22 208.02 55.10 211.03 54.47 213.53 C 53.53 211.89 52.27 210.10 52.95 208.11 Z" />
<path fill="#000000" opacity="1.00" d=" M 84.83 203.07 C 88.00 204.68 90.93 207.33 91.93 210.83 C 90.87 212.55 88.85 211.44 87.29 211.35 C 84.81 216.19 81.66 220.70 77.51 224.26 C 79.87 228.67 83.61 233.87 81.05 239.00 C 79.71 242.37 75.40 241.64 72.89 240.15 C 68.45 237.81 67.86 232.37 65.68 228.34 C 60.38 228.23 55.06 228.05 49.92 226.60 C 48.60 227.62 47.25 228.60 45.83 229.49 C 44.29 226.06 46.19 222.18 49.34 220.47 C 49.69 221.98 50.02 223.49 50.33 225.02 C 58.27 226.91 66.86 226.87 74.39 223.44 C 79.32 221.19 82.51 216.47 85.11 211.93 C 86.85 209.13 84.87 206.02 84.83 203.07 M 68.27 228.13 C 68.99 230.85 69.95 233.54 71.66 235.83 C 74.04 233.95 76.36 232.00 78.68 230.06 C 78.11 228.60 77.62 227.10 76.83 225.74 C 73.78 225.35 71.10 227.33 68.27 228.13 Z" />
<path fill="#000000" opacity="1.00" d=" M 197.63 207.94 C 199.06 207.09 200.11 209.65 199.17 210.61 C 197.75 211.47 196.74 208.87 197.63 207.94 Z" />
<path fill="#000000" opacity="1.00" d=" M 199.83 213.20 C 201.70 212.30 202.99 216.50 200.94 216.78 C 199.57 216.38 198.94 214.30 199.83 213.20 Z" />
<path fill="#000000" opacity="1.00" d=" M 202.02 220.14 C 203.37 219.32 204.67 221.70 203.74 222.71 C 202.36 223.50 201.07 221.15 202.02 220.14 Z" />
</g>
<g id="#ffffffff">
<path fill="#ffffff" opacity="1.00" d=" M 187.13 5.10 C 188.91 3.73 191.17 4.22 193.23 4.42 C 194.96 9.87 185.32 12.49 188.90 17.79 C 180.89 19.86 173.61 23.89 166.96 28.71 C 165.02 23.48 165.04 17.44 167.34 12.34 C 169.57 7.45 175.64 4.52 180.74 6.79 C 179.00 10.36 177.59 14.10 177.19 18.08 C 179.65 13.22 182.01 7.72 187.13 5.10 Z" />
<path fill="#ffffff" opacity="1.00" d=" M 200.44 6.60 C 204.61 5.29 209.12 6.92 212.40 9.57 C 214.39 11.13 214.32 13.88 215.00 16.09 C 212.12 17.11 209.37 18.89 206.24 18.91 C 203.34 17.70 200.28 16.79 197.09 17.03 C 194.73 16.87 192.27 17.88 189.99 17.00 C 189.92 16.66 189.79 15.99 189.72 15.66 C 192.69 12.08 195.76 7.96 200.44 6.60 Z" />
<path fill="#ffffff" opacity="1.00" d=" M 158.11 14.11 C 159.47 12.23 161.98 13.14 163.91 13.10 C 163.78 18.95 163.08 24.83 164.82 30.52 C 160.30 34.55 156.15 39.05 153.26 44.41 C 148.66 39.35 144.91 32.46 146.57 25.43 C 147.29 22.86 149.02 19.17 152.34 20.47 C 152.88 24.40 152.49 28.57 154.84 32.05 C 155.45 26.10 153.64 18.96 158.11 14.11 Z" />
<path fill="#ffffff" opacity="1.00" d=" M 191.64 19.49 C 196.58 19.36 202.98 18.04 206.55 22.42 C 210.66 29.16 211.73 37.24 212.15 44.99 C 208.71 45.88 205.22 46.50 201.69 46.90 C 201.19 37.08 198.73 26.72 191.64 19.49 Z" />
<path fill="#ffffff" opacity="1.00" d=" M 210.28 20.42 C 213.54 18.14 218.15 18.06 221.07 20.97 C 225.18 24.52 224.50 30.74 222.29 35.16 C 220.38 31.67 218.84 27.88 216.04 24.97 C 214.36 23.16 212.15 22.00 210.28 20.42 Z" />
<path fill="#ffffff" opacity="1.00" d=" M 179.89 23.19 C 183.50 21.63 188.30 19.16 191.78 22.28 C 197.44 29.11 199.95 38.25 199.25 47.05 C 189.99 48.40 180.52 50.49 171.14 49.11 C 167.26 45.92 163.99 41.11 164.30 35.89 C 163.95 32.12 168.14 30.68 170.63 28.78 C 171.34 35.93 174.19 43.34 180.37 47.48 C 177.93 41.09 172.30 35.46 173.09 28.17 C 172.98 25.96 175.42 25.30 177.04 24.55 C 184.21 28.20 185.62 36.92 187.57 43.95 C 189.81 39.97 188.35 35.37 186.28 31.67 C 184.78 28.41 182.23 25.85 179.89 23.19 Z" />
<path fill="#ffffff" opacity="1.00" d=" M 209.22 22.39 C 218.24 26.30 220.61 36.87 221.19 45.71 C 218.82 45.67 216.45 45.52 214.10 45.18 C 214.20 37.27 211.53 29.83 209.22 22.39 Z" />
<path fill="#ffffff" opacity="1.00" d=" M 139.34 38.71 C 137.80 33.93 139.90 29.05 143.43 25.80 C 143.45 32.78 146.50 39.17 150.30 44.85 C 146.61 43.19 139.98 43.91 139.34 38.71 Z" />
<path fill="#ffffff" opacity="1.00" d=" M 245.70 38.69 C 248.79 36.17 253.47 35.09 257.19 36.80 C 262.56 39.07 261.87 46.11 261.86 50.95 C 255.81 50.32 249.51 50.59 243.85 52.99 C 243.62 48.24 242.61 42.77 245.70 38.69 Z" />
<path fill="#ffffff" opacity="1.00" d=" M 154.68 46.98 C 155.24 42.64 158.67 39.58 161.52 36.58 C 162.32 41.19 164.94 45.06 167.45 48.89 C 163.15 48.65 158.91 47.79 154.68 46.98 Z" />
<path fill="#ffffff" opacity="1.00" d=" M 106.34 47.16 C 113.44 44.47 121.23 43.26 128.77 44.52 C 140.87 46.40 151.84 52.61 164.01 54.19 C 172.58 55.79 181.31 54.74 189.94 54.53 C 183.13 59.04 174.66 57.99 166.93 58.00 C 149.63 57.69 133.72 47.58 116.24 49.64 C 109.26 50.71 102.22 54.39 98.74 60.76 C 95.50 66.37 94.30 73.22 95.66 79.56 C 99.37 90.91 110.04 98.49 120.98 102.10 C 123.38 103.11 127.73 102.85 126.74 106.66 C 114.10 106.13 102.31 99.30 94.16 89.84 C 90.25 85.59 89.00 79.61 88.73 74.01 C 88.54 62.58 96.15 51.91 106.34 47.16 Z" />
<path fill="#ffffff" opacity="1.00" d=" M 205.53 52.11 C 215.36 50.69 227.16 49.68 234.81 57.34 C 239.47 69.01 233.10 81.62 225.28 90.28 C 221.77 95.25 216.24 98.19 210.56 100.00 C 210.61 98.96 210.72 96.87 210.78 95.83 C 221.78 92.00 230.09 81.92 232.36 70.57 C 233.29 66.34 233.54 60.14 228.70 58.23 C 222.06 55.60 214.69 55.54 207.73 56.75 C 207.09 55.16 206.35 53.61 205.53 52.11 Z" />
<path fill="#ffffff" opacity="1.00" d=" M 187.50 59.12 C 192.85 56.48 198.40 53.56 204.55 53.90 C 204.48 61.03 195.74 61.82 190.83 64.53 C 189.01 63.38 188.49 60.94 187.50 59.12 Z" />
<path fill="#ffffff" opacity="1.00" d=" M 246.22 56.14 C 250.39 54.05 255.48 53.36 259.91 55.05 C 261.65 55.47 262.53 56.90 262.56 58.65 C 256.58 58.01 250.19 57.64 244.81 60.84 C 245.03 59.23 244.18 56.84 246.22 56.14 Z" />
<path fill="#ffffff" opacity="1.00" d=" M 141.58 66.72 C 154.71 61.64 168.95 59.75 182.98 59.93 C 187.50 60.85 188.91 66.22 190.81 69.81 C 192.55 68.48 194.19 66.94 196.24 66.08 C 199.98 65.68 204.75 67.25 205.60 71.40 C 207.19 76.32 203.72 81.53 198.92 82.84 C 201.91 90.31 202.12 99.99 195.93 105.93 C 191.11 110.85 183.69 110.11 177.40 110.32 C 176.94 112.79 176.83 115.40 175.72 117.70 C 174.20 120.31 170.81 120.17 168.21 119.80 C 163.67 118.45 161.01 114.03 160.09 109.63 C 152.15 109.42 142.69 109.41 136.96 103.02 C 134.61 98.79 135.77 93.54 135.39 88.87 C 133.18 89.05 130.99 89.29 128.79 89.48 C 125.11 86.54 124.02 81.53 124.77 77.05 C 125.80 73.81 128.87 70.41 132.61 71.34 C 135.15 71.72 136.57 73.98 138.36 75.54 C 139.62 72.72 139.58 69.06 141.58 66.72 M 169.67 67.96 C 170.10 72.16 174.41 74.03 177.41 76.24 C 177.03 77.78 176.90 79.53 175.66 80.68 C 174.11 83.11 170.24 82.72 169.53 85.82 C 173.80 86.10 177.90 83.47 179.70 79.66 C 180.72 75.56 176.06 73.58 173.49 71.45 C 171.15 70.30 172.60 67.17 174.44 66.38 C 177.05 65.59 179.39 67.30 181.75 68.10 C 180.86 66.48 180.06 64.53 178.19 63.84 C 175.01 62.16 169.56 63.82 169.67 67.96 M 156.40 74.63 C 157.69 71.75 158.52 68.31 161.96 67.30 C 163.38 68.34 164.76 69.43 166.20 70.43 C 165.85 69.02 166.14 67.14 164.72 66.24 C 160.06 61.73 152.08 69.76 156.40 74.63 M 198.33 70.08 C 196.73 71.35 194.42 73.20 195.59 75.49 C 197.08 79.68 205.69 77.22 203.28 72.75 C 202.84 70.77 200.12 69.07 198.33 70.08 M 127.00 82.69 C 129.10 86.57 135.51 84.27 134.99 80.03 C 135.49 77.82 133.64 76.42 132.13 75.24 C 129.69 76.82 125.56 79.27 127.00 82.69 M 188.42 85.42 C 183.46 89.11 178.10 92.69 171.92 93.87 C 163.33 95.56 153.83 93.46 147.20 87.62 C 145.71 86.15 147.82 82.71 144.95 82.48 C 142.42 83.73 140.27 86.30 140.50 89.26 C 142.00 88.85 143.49 88.39 144.97 87.91 C 150.32 92.99 157.67 95.68 164.94 96.29 C 164.95 98.99 164.80 101.75 165.69 104.34 C 166.42 107.42 171.07 108.56 173.23 106.29 C 176.47 103.15 176.25 98.27 176.79 94.12 C 181.82 91.58 187.00 89.10 190.96 84.98 C 192.27 83.34 194.42 84.88 196.14 84.75 C 197.39 81.46 195.36 78.75 192.75 76.94 C 192.00 80.08 191.19 83.42 188.42 85.42 M 183.34 82.46 C 179.87 84.28 175.05 84.32 173.52 88.61 C 179.36 88.74 184.13 84.75 187.97 80.81 C 186.33 81.08 184.81 81.71 183.34 82.46 M 152.33 86.07 C 156.14 89.16 161.25 89.70 165.95 90.21 C 166.51 88.78 167.01 87.32 167.47 85.86 C 162.43 86.46 157.39 86.56 152.33 86.07 M 166.24 110.70 C 166.85 113.45 167.78 116.12 169.11 118.61 C 172.16 117.00 173.02 113.59 173.65 110.48 C 171.18 110.24 168.68 110.20 166.24 110.70 Z" />
<path fill="#ffffff" opacity="1.00" d=" M 202.72 62.90 C 204.58 63.19 207.37 62.23 208.46 64.27 C 208.31 65.23 208.13 66.19 207.91 67.14 C 206.02 65.92 204.31 64.47 202.72 62.90 Z" />
<path fill="#ffffff" opacity="1.00" d=" M 126.71 64.65 C 130.59 62.61 134.56 64.90 137.79 67.06 C 137.51 68.02 137.23 68.98 136.95 69.94 C 134.32 68.12 131.17 68.22 128.12 68.45 C 127.64 67.18 127.17 65.92 126.71 64.65 Z" />
<path fill="#ffffff" opacity="1.00" d=" M 241.64 65.58 C 243.02 73.60 243.89 81.70 244.91 89.77 C 241.53 92.34 237.68 94.17 233.95 96.13 C 232.40 95.14 230.80 94.23 229.15 93.43 C 236.09 85.70 239.90 75.72 241.64 65.58 Z" />
<path fill="#ffffff" opacity="1.00" d=" M 248.15 70.23 C 252.64 67.97 258.27 67.80 262.61 70.53 C 262.55 71.52 262.42 73.49 262.35 74.48 C 257.11 72.96 251.64 73.71 246.51 75.27 C 246.84 73.57 246.10 71.05 248.15 70.23 Z" />
<path fill="#ffffff" opacity="1.00" d=" M 115.45 72.89 C 117.54 68.93 122.37 69.11 126.17 69.81 C 124.99 71.46 123.87 73.16 122.54 74.70 C 120.08 75.68 117.48 74.24 115.45 72.89 Z" />
<path fill="#ffffff" opacity="1.00" d=" M 199.28 71.93 C 201.86 71.09 201.18 75.45 198.98 74.98 C 197.36 74.62 198.05 72.32 199.28 71.93 Z" />
<path fill="#ffffff" opacity="1.00" d=" M 247.21 79.78 C 251.35 77.40 256.86 75.88 261.40 77.86 C 263.17 78.34 262.41 80.61 262.51 81.92 C 262.19 84.96 261.75 87.98 261.52 91.04 C 258.31 90.84 255.75 88.82 252.95 87.52 C 251.37 87.42 249.81 87.73 248.25 87.86 C 247.81 85.18 247.48 82.48 247.21 79.78 Z" />
<path fill="#ffffff" opacity="1.00" d=" M 111.79 83.19 C 113.89 79.68 118.02 78.30 121.86 77.69 C 122.33 80.63 122.77 83.57 123.11 86.53 C 120.56 87.59 117.89 88.57 115.08 88.29 C 112.60 88.34 110.48 85.50 111.79 83.19 Z" />
<path fill="#ffffff" opacity="1.00" d=" M 130.06 82.25 C 130.20 80.01 131.02 78.07 133.49 77.76 C 133.49 80.00 132.50 82.03 130.06 82.25 Z" />
<path fill="#ffffff" opacity="1.00" d=" M 202.58 84.76 C 204.86 82.30 208.28 82.19 211.03 83.96 C 213.11 85.16 212.91 87.82 213.28 89.87 C 210.25 92.15 206.70 90.95 203.55 89.69 C 203.21 88.05 202.89 86.41 202.58 84.76 Z" />
<path fill="#ffffff" opacity="1.00" d=" M 122.28 89.22 C 124.12 87.96 125.50 90.17 126.97 90.99 C 125.70 93.70 122.97 97.52 119.55 96.41 C 115.99 94.47 119.62 90.13 122.28 89.22 Z" />
<path fill="#ffffff" opacity="1.00" d=" M 244.05 95.21 C 246.20 90.45 253.60 88.66 257.38 92.63 C 260.87 96.30 261.52 102.25 258.61 106.47 C 256.22 104.68 255.91 101.64 254.71 99.12 C 252.37 98.49 252.52 101.53 251.80 102.97 C 251.41 105.61 249.19 107.19 247.00 108.34 C 246.49 103.85 243.41 99.78 244.05 95.21 Z" />
<path fill="#ffffff" opacity="1.00" d=" M 128.79 92.55 C 129.74 92.61 131.64 92.74 132.59 92.81 C 132.26 95.31 131.91 97.81 131.39 100.28 C 128.17 98.95 127.42 95.51 128.79 92.55 Z" />
<path fill="#ffffff" opacity="1.00" d=" M 204.22 92.50 C 206.11 93.71 209.17 95.07 208.37 97.86 C 207.93 100.58 204.73 100.30 202.67 100.51 C 203.22 97.85 203.72 95.18 204.22 92.50 Z" />
<path fill="#ffffff" opacity="1.00" d=" M 261.03 93.53 C 263.44 92.60 266.51 91.63 268.51 93.95 C 268.21 96.78 265.36 98.46 262.76 97.42 C 262.06 96.18 261.56 94.84 261.03 93.53 Z" />
<path fill="#ffffff" opacity="1.00" d=" M 166.98 96.43 C 169.56 96.04 172.16 95.75 174.76 95.49 C 174.62 96.96 174.45 98.43 174.23 99.90 C 171.91 101.07 169.13 101.05 166.66 101.87 C 166.68 100.05 166.80 98.24 166.98 96.43 Z" />
<path fill="#ffffff" opacity="1.00" d=" M 217.08 104.08 C 220.36 102.45 222.69 99.33 226.19 98.11 C 227.58 97.51 229.41 97.70 230.38 98.97 C 230.16 100.38 229.89 101.77 229.57 103.16 C 234.96 106.96 239.07 113.19 238.42 120.01 C 238.11 121.61 238.48 123.85 236.64 124.62 C 232.43 124.23 227.39 123.02 223.80 125.85 C 221.55 127.50 224.34 129.78 226.11 130.27 C 229.07 130.72 232.01 129.78 234.89 129.21 C 232.24 131.93 229.29 135.58 225.02 134.91 C 219.24 134.18 213.44 134.58 207.66 135.08 C 209.58 125.86 211.49 116.62 213.48 107.41 C 213.74 105.57 215.75 104.99 217.08 104.08 Z" />
<path fill="#ffffff" opacity="1.00" d=" M 232.25 102.30 C 234.56 100.26 237.03 98.40 239.79 97.00 C 240.67 99.29 241.40 101.63 242.01 104.01 C 243.90 111.37 247.62 118.25 248.24 125.92 C 245.84 127.68 242.38 127.73 239.48 128.27 C 240.90 126.33 243.19 125.60 245.32 124.74 C 245.31 123.59 245.28 122.44 245.24 121.29 C 243.89 121.06 242.53 120.85 241.18 120.65 C 240.97 113.57 237.54 106.93 232.25 102.30 Z" />
<path fill="#ffffff" opacity="1.00" d=" M 76.01 103.29 C 77.00 100.70 79.77 99.75 82.32 99.67 C 81.87 102.82 81.09 106.28 82.90 109.17 C 86.65 114.51 83.42 121.11 82.60 126.87 C 82.60 128.69 80.51 128.69 79.52 127.66 C 76.31 125.80 74.78 121.84 75.25 118.25 C 75.86 115.97 77.45 114.12 78.25 111.92 C 77.76 108.97 75.26 106.45 76.01 103.29 Z" />
<path fill="#ffffff" opacity="1.00" d=" M 263.32 100.75 C 265.17 100.61 267.04 100.56 268.90 100.69 C 268.86 102.15 268.78 103.61 268.67 105.08 C 266.77 105.58 264.84 105.97 262.89 106.22 C 262.99 104.39 263.14 102.57 263.32 100.75 Z" />
<path fill="#ffffff" opacity="1.00" d=" M 199.12 108.88 C 202.28 107.86 205.34 106.58 208.45 105.40 C 208.18 115.18 205.25 124.63 204.25 134.34 C 203.56 139.20 203.54 144.14 202.82 149.00 C 196.51 136.73 196.16 122.14 199.12 108.88 Z" />
<path fill="#ffffff" opacity="1.00" d=" M 59.12 109.06 C 61.17 106.16 64.84 106.96 67.87 107.17 C 70.29 107.41 72.59 108.47 74.34 110.16 C 75.40 115.00 70.56 118.91 71.34 123.74 C 72.77 128.46 77.16 131.89 82.13 131.96 C 81.80 134.79 81.42 137.61 80.95 140.41 C 78.80 139.57 76.97 138.16 75.09 136.86 C 73.26 140.54 73.82 146.13 68.94 147.35 C 66.81 143.85 68.80 140.18 70.23 136.88 C 71.27 135.18 68.77 132.93 67.11 133.92 C 63.82 135.15 60.07 138.13 56.95 134.89 C 59.28 130.07 66.24 131.27 68.42 126.32 C 65.13 121.93 59.29 124.48 54.77 123.01 C 54.91 121.81 55.14 120.64 55.47 119.49 C 59.66 116.17 65.02 120.09 69.63 118.12 C 69.26 116.24 69.25 113.72 67.17 112.86 C 64.52 111.51 61.55 110.84 59.12 109.06 Z" />
<path fill="#ffffff" opacity="1.00" d=" M 250.90 110.07 C 252.15 108.94 253.42 107.83 254.73 106.77 C 255.63 109.52 256.01 112.44 257.37 115.03 C 256.76 116.93 254.84 119.39 256.79 121.13 C 258.32 123.30 261.20 123.12 263.53 123.57 C 263.82 133.69 263.93 143.82 263.76 153.95 C 265.99 155.61 269.55 157.41 268.70 160.79 C 268.18 165.86 262.38 167.82 258.01 168.00 C 254.19 168.60 251.16 164.64 251.81 161.06 C 251.96 157.95 255.75 156.81 256.55 154.00 C 255.37 139.28 253.11 124.67 250.90 110.07 Z" />
<path fill="#ffffff" opacity="1.00" d=" M 261.29 109.40 C 263.79 108.69 266.44 109.10 268.98 109.37 C 270.44 111.79 266.92 113.08 265.00 112.97 C 263.02 113.12 258.59 113.07 259.64 110.09 C 260.05 109.92 260.88 109.57 261.29 109.40 Z" />
<path fill="#ffffff" opacity="1.00" d=" M 22.23 109.77 C 27.30 115.99 32.06 122.47 37.02 128.78 C 33.60 130.71 30.50 133.12 27.71 135.87 C 27.99 126.82 24.77 118.29 22.23 109.77 Z" />
<path fill="#ffffff" opacity="1.00" d=" M 130.86 110.00 C 135.21 110.38 139.64 110.61 143.81 112.04 C 143.74 120.01 143.06 127.99 143.65 135.97 C 144.11 153.08 147.41 170.04 152.74 186.28 C 155.38 194.02 157.79 202.03 162.13 209.01 C 164.95 205.06 166.04 200.06 169.61 196.61 C 175.16 188.95 181.60 181.89 189.27 176.29 C 197.34 170.71 205.84 165.59 215.01 162.07 C 219.62 162.24 221.39 167.35 222.74 170.97 C 210.27 173.42 200.01 181.57 190.41 189.41 C 179.42 201.72 167.48 213.98 161.56 229.71 C 154.19 217.79 149.19 204.60 144.88 191.31 C 142.16 182.80 139.29 174.32 137.28 165.61 C 134.06 149.26 135.41 132.52 135.13 115.98 C 135.33 114.35 134.21 113.19 133.19 112.11 C 131.99 113.70 130.95 115.41 129.93 117.12 C 130.08 114.73 130.30 112.33 130.86 110.00 Z" />
<path fill="#ffffff" opacity="1.00" d=" M 97.84 115.11 C 98.96 111.13 103.93 109.44 107.40 111.54 C 115.01 115.87 123.42 120.80 132.54 119.39 C 132.43 127.62 132.05 135.84 131.44 144.05 C 127.10 144.70 122.71 143.94 118.37 144.46 C 114.60 144.81 111.97 148.57 108.01 148.09 C 103.83 148.16 100.20 145.69 97.56 142.64 C 102.57 142.96 108.00 143.12 112.47 140.46 C 113.91 139.94 114.48 138.51 114.35 137.07 C 108.60 133.59 101.68 136.60 96.31 139.42 C 94.78 132.57 97.55 125.89 101.33 120.32 C 99.92 118.80 97.43 117.56 97.84 115.11 Z" />
<path fill="#ffffff" opacity="1.00" d=" M 181.06 114.08 C 186.21 114.24 191.06 112.40 195.74 110.47 C 194.70 125.17 194.48 141.23 202.92 154.03 C 204.78 157.30 207.85 159.51 211.19 161.11 C 200.54 166.34 190.21 172.40 181.25 180.24 C 173.87 187.10 166.61 194.54 162.22 203.74 C 153.84 185.53 148.28 166.03 146.13 146.09 C 145.05 134.72 145.58 123.29 146.24 111.92 C 149.78 112.28 153.31 112.71 156.85 113.08 C 159.27 120.38 167.76 125.92 175.36 123.26 C 179.21 121.99 179.68 117.32 181.06 114.08 M 161.43 129.63 C 162.39 132.76 163.59 135.83 164.27 139.04 C 160.01 141.55 155.10 142.63 150.41 144.05 C 151.22 150.57 153.46 156.80 154.53 163.28 C 158.37 161.32 162.19 159.31 166.34 158.08 C 169.92 163.49 170.33 170.30 174.08 175.63 C 181.26 172.47 188.54 169.56 195.93 166.93 C 193.56 161.38 190.96 155.93 188.48 150.43 C 190.83 149.69 193.25 149.22 195.64 148.67 C 193.73 143.51 193.02 138.00 191.09 132.85 C 188.65 133.56 186.30 134.54 183.87 135.29 C 182.25 132.47 182.45 128.88 180.75 126.22 C 174.35 127.58 167.88 128.54 161.43 129.63 Z" />
<path fill="#ffffff" opacity="1.00" d=" M 88.76 113.97 C 89.98 114.10 91.20 114.24 92.41 114.37 C 92.93 117.12 94.55 119.38 96.53 121.29 C 93.62 125.83 92.54 131.13 91.96 136.41 C 89.21 136.19 87.12 137.56 86.08 140.09 C 87.74 142.30 90.28 142.93 92.91 142.61 C 92.90 142.83 92.88 143.27 92.86 143.49 C 89.96 143.76 87.05 144.02 84.13 144.19 C 83.65 133.87 87.15 124.03 88.76 113.97 Z" />
<path fill="#ffffff" opacity="1.00" d=" M 264.33 116.14 C 265.69 115.92 267.05 115.84 268.43 115.89 C 269.36 118.63 266.17 120.07 263.99 120.41 C 262.55 120.63 259.73 121.12 259.46 119.11 C 259.37 116.39 262.45 116.64 264.33 116.14 Z" />
<path fill="#ffffff" opacity="1.00" d=" M 225.36 127.85 C 227.94 125.73 231.32 126.10 234.41 126.47 C 231.65 128.06 228.47 128.61 225.36 127.85 Z" />
<path fill="#ffffff" opacity="1.00" d=" M 165.19 132.02 C 169.96 130.77 174.77 129.63 179.63 128.79 C 180.78 131.55 180.11 135.74 183.10 137.29 C 185.36 137.03 187.53 136.33 189.73 135.80 C 190.76 139.35 191.77 142.91 192.59 146.52 C 190.16 147.25 187.69 147.79 185.32 148.70 C 186.86 154.29 189.00 159.67 191.48 164.91 C 186.39 168.23 180.44 169.77 175.21 172.80 C 173.49 168.10 171.70 163.43 170.30 158.63 C 169.79 157.23 169.57 155.41 167.88 154.98 C 163.81 156.29 160.05 158.39 156.10 160.03 C 155.20 155.56 154.33 151.07 153.43 146.60 C 157.97 144.29 162.84 142.79 167.62 141.08 C 166.89 138.04 165.96 135.05 165.19 132.02 Z" />
<path fill="#ffffff" opacity="1.00" d=" M 10.76 164.43 C 13.04 152.00 20.36 141.27 23.65 129.14 C 27.50 144.16 16.01 158.00 19.01 172.99 C 21.14 182.85 25.25 192.13 29.67 201.15 C 25.42 201.00 20.16 201.73 18.43 206.28 C 11.26 193.71 9.36 178.66 10.76 164.43 Z" />
<path fill="#ffffff" opacity="1.00" d=" M 28.21 138.22 C 30.70 135.01 34.17 132.45 37.94 130.92 C 41.14 133.74 43.51 137.34 45.84 140.88 C 39.04 144.21 34.50 150.44 30.46 156.61 C 29.85 150.52 25.26 144.27 28.21 138.22 Z" />
<path fill="#ffffff" opacity="1.00" d=" M 99.82 140.22 C 103.29 137.53 108.04 137.08 112.13 138.45 C 108.37 140.46 104.00 141.10 99.82 140.22 Z" />
<path fill="#ffffff" opacity="1.00" d=" M 31.35 160.25 C 34.26 152.79 39.65 146.05 47.10 142.75 C 50.97 147.16 54.53 151.83 57.80 156.70 C 48.91 163.07 40.94 171.00 36.10 180.92 C 34.48 174.05 32.42 167.22 31.35 160.25 Z" />
<path fill="#ffffff" opacity="1.00" d=" M 22.11 166.09 C 21.46 159.87 22.63 153.58 25.19 147.90 C 29.67 164.82 32.10 182.17 34.61 199.46 C 28.97 189.01 23.34 178.08 22.11 166.09 Z" />
<path fill="#ffffff" opacity="1.00" d=" M 122.66 148.97 C 124.07 148.94 125.47 148.93 126.88 148.93 C 126.41 163.02 124.25 176.98 122.74 190.98 C 120.01 191.58 117.27 192.14 114.53 192.68 C 116.83 178.04 119.67 163.49 122.66 148.97 Z" />
<path fill="#ffffff" opacity="1.00" d=" M 38.17 181.08 C 42.46 171.61 50.25 164.09 59.17 158.92 C 63.39 164.07 67.42 169.37 71.14 174.89 C 61.03 181.67 52.34 190.53 45.71 200.74 C 44.67 202.36 43.40 203.83 42.03 205.18 C 39.67 198.96 38.52 192.39 36.91 185.96 C 36.30 184.20 37.55 182.63 38.17 181.08 Z" />
<path fill="#ffffff" opacity="1.00" d=" M 134.47 168.35 C 138.34 180.99 141.09 193.99 146.11 206.27 C 142.67 207.50 140.79 204.15 139.47 201.58 C 135.04 191.15 133.77 179.59 134.47 168.35 Z" />
<path fill="#ffffff" opacity="1.00" d=" M 207.61 179.76 C 211.60 177.79 215.42 175.00 220.03 174.79 C 223.76 174.72 226.37 177.80 228.94 180.07 C 235.80 187.51 242.15 195.44 249.61 202.31 C 248.48 204.26 247.27 206.16 246.12 208.10 C 244.13 206.30 242.29 204.15 239.68 203.25 C 236.56 202.20 233.24 202.74 230.07 203.15 C 228.89 201.89 227.71 200.59 226.05 200.00 C 226.52 201.62 227.13 203.21 227.72 204.80 C 225.75 205.84 223.80 206.88 221.81 207.86 C 215.94 202.06 213.73 193.74 208.33 187.63 C 205.46 186.37 202.32 186.01 199.27 185.46 C 200.56 184.54 201.83 183.58 203.22 182.79 C 205.66 182.46 208.14 182.57 210.58 182.13 C 209.61 181.30 208.63 180.51 207.61 179.76 M 212.20 182.18 C 211.18 184.14 215.39 185.27 215.69 183.20 C 215.33 181.82 213.25 181.24 212.20 182.18 M 217.25 185.17 C 216.76 186.39 217.73 188.11 219.01 188.37 C 220.92 187.74 218.77 184.29 217.25 185.17 M 220.35 190.91 C 219.64 192.17 221.28 194.53 222.71 193.71 C 223.49 192.45 221.73 190.13 220.35 190.91 M 223.41 195.96 C 222.47 197.40 224.54 199.61 226.01 198.63 C 227.00 197.28 224.77 194.99 223.41 195.96 Z" />
<path fill="#ffffff" opacity="1.00" d=" M 50.18 197.52 C 55.93 189.12 63.70 182.16 72.43 176.96 C 74.34 179.32 76.78 181.40 77.83 184.33 C 78.18 186.07 77.59 187.83 77.46 189.57 C 67.84 189.97 58.82 193.58 50.18 197.52 Z" />
<path fill="#ffffff" opacity="1.00" d=" M 4.87 187.03 C 5.13 183.83 6.25 180.78 7.87 178.03 C 9.54 185.40 10.56 192.92 12.66 200.19 C 13.86 202.79 15.35 205.25 16.60 207.83 C 11.71 209.45 8.42 213.52 5.92 217.82 C 2.33 207.94 3.62 197.21 4.87 187.03 Z" />
<path fill="#ffffff" opacity="1.00" d=" M 196.35 188.30 C 199.88 188.23 204.52 187.89 206.52 191.49 C 210.88 197.91 213.40 205.36 217.64 211.85 C 214.09 217.27 210.25 222.57 207.86 228.63 C 206.92 227.12 205.92 225.62 204.29 224.78 C 204.39 227.24 205.78 229.27 206.75 231.44 C 205.78 236.28 204.01 240.95 203.13 245.83 C 198.28 240.03 194.18 233.53 191.59 226.39 C 188.94 219.91 187.91 212.94 186.43 206.14 C 184.40 206.17 182.37 206.29 180.35 206.38 C 181.65 204.37 182.91 202.30 184.53 200.53 C 186.18 199.99 187.91 199.80 189.59 199.38 C 188.77 198.71 187.94 198.06 187.09 197.43 C 190.30 194.52 192.88 190.91 196.35 188.30 M 190.45 199.63 C 192.15 199.85 193.87 199.87 195.59 199.71 C 194.01 198.43 191.96 197.93 190.45 199.63 M 195.45 200.57 C 195.54 202.38 195.78 204.32 197.63 205.17 C 197.57 203.34 197.33 201.41 195.45 200.57 M 197.63 207.94 C 196.74 208.87 197.75 211.47 199.17 210.61 C 200.11 209.65 199.06 207.09 197.63 207.94 M 199.83 213.20 C 198.94 214.30 199.57 216.38 200.94 216.78 C 202.99 216.50 201.70 212.30 199.83 213.20 M 202.02 220.14 C 201.07 221.15 202.36 223.50 203.74 222.71 C 204.67 221.70 203.37 219.32 202.02 220.14 Z" />
<path fill="#ffffff" opacity="1.00" d=" M 267.06 193.07 C 271.81 190.54 279.07 187.93 282.80 193.46 C 280.24 193.14 277.60 192.34 275.05 193.15 C 267.54 195.47 262.74 201.94 257.37 207.21 C 256.42 206.05 255.50 204.87 254.61 203.67 C 257.58 198.99 262.42 195.90 267.06 193.07 Z" />
<path fill="#ffffff" opacity="1.00" d=" M 43.23 208.25 C 51.86 197.84 65.68 192.21 79.07 192.02 C 86.16 192.08 91.42 197.52 95.87 202.39 C 95.87 204.73 94.64 206.87 94.02 209.09 C 89.92 220.97 85.91 232.92 83.45 245.27 C 83.27 249.08 78.97 250.01 76.01 251.00 C 75.00 249.00 74.11 246.93 73.03 244.96 C 64.62 248.82 54.58 248.99 46.28 244.76 C 42.06 242.43 38.84 238.29 37.67 233.61 C 36.37 224.91 37.57 215.29 43.23 208.25 M 66.69 201.16 C 66.05 206.19 71.47 209.16 75.50 210.65 C 74.53 214.26 71.38 216.33 68.38 218.16 C 73.84 219.42 78.92 214.80 79.03 209.42 C 76.61 208.65 74.04 208.37 71.74 207.28 C 69.91 206.28 68.76 203.67 69.74 201.78 C 72.25 199.49 75.48 201.80 78.22 202.29 C 76.61 197.62 68.61 195.92 66.69 201.16 M 52.95 208.11 C 52.27 210.10 53.53 211.89 54.47 213.53 C 55.10 211.03 55.22 208.02 57.52 206.37 C 59.64 204.63 62.14 207.06 64.42 207.29 C 63.24 205.92 62.15 204.35 60.48 203.55 C 57.30 202.43 53.24 204.63 52.95 208.11 M 84.83 203.07 C 84.87 206.02 86.85 209.13 85.11 211.93 C 82.51 216.47 79.32 221.19 74.39 223.44 C 66.86 226.87 58.27 226.91 50.33 225.02 C 50.02 223.49 49.69 221.98 49.34 220.47 C 46.19 222.18 44.29 226.06 45.83 229.49 C 47.25 228.60 48.60 227.62 49.92 226.60 C 55.06 228.05 60.38 228.23 65.68 228.34 C 67.86 232.37 68.45 237.81 72.89 240.15 C 75.40 241.64 79.71 242.37 81.05 239.00 C 83.61 233.87 79.87 228.67 77.51 224.26 C 81.66 220.70 84.81 216.19 87.29 211.35 C 88.85 211.44 90.87 212.55 91.93 210.83 C 90.93 207.33 88.00 204.68 84.83 203.07 Z" />
<path fill="#ffffff" opacity="1.00" d=" M 125.39 194.29 C 127.53 194.05 129.68 193.85 131.82 193.68 C 132.50 196.15 133.19 198.62 133.89 201.09 C 132.06 201.50 130.21 201.86 128.36 202.15 C 127.06 199.65 126.05 197.02 125.39 194.29 Z" />
<path fill="#ffffff" opacity="1.00" d=" M 112.88 196.74 C 116.18 195.81 119.54 195.09 122.94 194.60 C 124.10 197.28 125.23 199.97 126.33 202.67 C 123.44 203.33 120.29 205.42 117.34 204.01 C 115.65 201.72 114.32 199.19 112.88 196.74 Z" />
<path fill="#ffffff" opacity="1.00" d=" M 272.57 196.52 C 275.46 195.09 279.86 193.93 282.29 196.70 C 284.35 203.46 281.97 210.53 279.68 216.91 C 271.24 217.19 262.81 217.51 254.37 217.53 C 258.62 209.25 264.21 201.06 272.57 196.52 Z" />
<path fill="#ffffff" opacity="1.00" d=" M 102.65 200.64 C 105.31 199.51 107.98 198.41 110.70 197.44 C 112.02 199.37 113.28 201.33 114.31 203.44 C 110.33 202.94 106.41 202.05 102.65 200.64 Z" />
<path fill="#ffffff" opacity="1.00" d=" M 23.11 207.17 C 24.80 206.24 26.78 206.12 28.64 205.72 C 29.42 207.38 30.22 209.02 31.02 210.67 C 27.21 212.45 22.19 213.00 19.76 216.78 C 18.10 219.45 21.09 221.30 22.85 222.78 C 20.07 224.38 17.44 226.72 14.09 226.91 C 8.75 226.38 7.74 218.56 11.56 215.55 C 14.00 212.56 18.18 212.76 21.66 213.00 C 21.93 211.05 20.96 208.30 23.11 207.17 Z" />
<path fill="#ffffff" opacity="1.00" d=" M 214.07 225.06 C 217.47 218.24 222.72 211.67 230.23 209.29 C 234.07 207.94 238.17 208.62 242.06 209.33 C 238.60 210.16 234.90 210.69 231.99 212.94 C 225.98 217.36 222.46 224.17 218.31 230.20 C 216.58 228.76 215.07 227.08 214.07 225.06 Z" />
<path fill="#ffffff" opacity="1.00" d=" M 234.86 213.74 C 238.10 211.90 243.58 210.72 245.29 215.11 C 245.79 221.52 244.29 227.92 243.02 234.17 C 234.39 235.85 225.75 237.45 217.06 238.78 C 220.83 229.27 225.43 218.85 234.86 213.74 Z" />
<path fill="#ffffff" opacity="1.00" d=" M 249.47 211.48 C 250.76 212.58 252.24 213.52 253.28 214.89 C 251.56 218.53 249.82 222.16 247.84 225.67 C 247.82 220.90 247.83 216.02 249.47 211.48 Z" />
<path fill="#ffffff" opacity="1.00" d=" M 88.39 238.94 C 89.85 230.16 93.13 221.84 95.83 213.39 C 98.39 214.36 100.95 215.32 103.52 216.28 C 101.60 224.63 97.92 232.44 96.20 240.84 C 93.59 240.22 90.99 239.58 88.39 238.94 Z" />
<path fill="#ffffff" opacity="1.00" d=" M 105.56 217.03 C 108.90 217.88 112.21 218.86 115.47 219.98 C 113.79 227.71 112.05 235.43 110.11 243.10 C 106.03 242.99 102.00 242.31 98.09 241.16 C 99.73 232.88 103.00 225.06 105.56 217.03 Z" />
<path fill="#ffffff" opacity="1.00" d=" M 253.24 219.85 C 261.77 219.62 270.32 219.18 278.85 219.51 C 278.36 220.17 277.37 221.47 276.88 222.12 C 268.61 223.41 260.27 221.81 251.96 222.14 C 252.28 221.57 252.92 220.43 253.24 219.85 Z" />
<path fill="#ffffff" opacity="1.00" d=" M 117.24 220.44 C 121.99 221.13 126.74 221.82 131.46 222.69 C 129.91 230.12 129.33 237.72 127.82 245.17 C 122.51 244.73 117.19 244.31 111.89 243.71 C 112.60 235.74 116.12 228.35 117.24 220.44 Z" />
<path fill="#ffffff" opacity="1.00" d=" M 181.65 222.89 C 183.39 222.62 185.13 222.37 186.87 222.12 C 189.27 229.51 192.24 236.68 195.84 243.58 C 191.90 244.63 187.88 245.38 183.81 245.69 C 182.85 238.12 182.38 230.49 181.65 222.89 Z" />
<path fill="#ffffff" opacity="1.00" d=" M 133.66 223.23 C 137.16 223.51 140.66 223.83 144.17 224.10 C 144.04 231.48 143.68 238.86 143.38 246.24 C 138.91 246.04 134.45 245.82 130.00 245.45 C 130.31 237.93 132.02 230.55 133.66 223.23 Z" />
<path fill="#ffffff" opacity="1.00" d=" M 146.29 224.29 C 149.09 224.48 152.13 223.90 154.72 225.23 C 157.84 230.00 158.51 236.04 162.12 240.50 C 163.09 238.98 164.02 237.44 164.99 235.92 C 165.05 239.39 165.03 242.86 164.91 246.32 C 158.43 246.66 151.94 246.72 145.46 246.47 C 144.09 239.06 146.32 231.71 146.29 224.29 Z" />
<path fill="#ffffff" opacity="1.00" d=" M 169.61 224.71 C 172.87 223.89 176.24 223.72 179.57 223.35 C 180.41 230.80 181.31 238.24 182.02 245.69 C 176.96 246.76 171.79 246.12 166.68 246.49 C 167.73 239.33 164.35 230.72 169.61 224.71 Z" />
<path fill="#ffffff" opacity="1.00" d=" M 250.51 225.05 C 258.74 223.65 267.14 225.14 275.44 224.42 C 275.13 225.18 274.51 226.69 274.21 227.45 C 266.01 227.70 257.79 228.47 249.60 227.70 C 249.83 227.04 250.28 225.71 250.51 225.05 Z" />
<path fill="#ffffff" opacity="1.00" d=" M 68.27 228.13 C 71.10 227.33 73.78 225.35 76.83 225.74 C 77.62 227.10 78.11 228.60 78.68 230.06 C 76.36 232.00 74.04 233.95 71.66 235.83 C 69.95 233.54 68.99 230.85 68.27 228.13 Z" />
<path fill="#ffffff" opacity="1.00" d=" M 247.12 233.13 C 247.85 231.94 248.35 229.89 250.14 230.04 C 257.51 229.76 264.90 229.87 272.28 230.15 C 271.49 231.16 270.83 232.29 269.86 233.14 C 262.30 234.04 254.70 232.77 247.12 233.13 Z" />
<path fill="#ffffff" opacity="1.00" d=" M 209.18 235.12 C 211.09 236.72 213.03 238.26 214.84 239.97 C 211.28 247.17 210.75 255.42 211.90 263.27 C 210.14 260.20 208.54 257.01 207.34 253.67 C 205.94 247.43 207.74 241.17 209.18 235.12 Z" />
<path fill="#ffffff" opacity="1.00" d=" M 246.89 235.48 C 253.92 234.80 260.95 236.00 267.99 235.66 C 263.57 240.79 259.55 247.96 252.05 248.57 C 247.10 246.64 246.28 240.15 246.89 235.48 Z" />
<path fill="#ffffff" opacity="1.00" d=" M 216.31 241.48 C 224.88 239.22 233.67 237.68 242.50 236.85 C 241.64 238.04 240.69 239.35 239.07 239.36 C 231.12 240.72 223.23 242.54 215.22 243.53 C 215.49 243.02 216.03 241.99 216.31 241.48 Z" />
<path fill="#ffffff" opacity="1.00" d=" M 245.92 246.57 C 244.19 244.68 243.04 242.24 244.08 239.72 C 244.77 241.98 245.44 244.25 245.92 246.57 Z" />
<path fill="#ffffff" opacity="1.00" d=" M 218.18 245.27 C 225.58 244.47 232.73 242.24 240.14 241.57 C 239.92 242.30 239.49 243.77 239.27 244.50 C 232.35 245.71 225.37 246.54 218.44 247.63 C 216.79 247.94 215.12 247.90 213.52 247.41 C 214.93 246.42 216.38 245.31 218.18 245.27 Z" />
<path fill="#ffffff" opacity="1.00" d=" M 216.29 250.18 C 223.67 249.19 231.00 247.71 238.43 247.25 C 237.58 248.19 236.85 249.45 235.44 249.55 C 228.02 251.01 220.60 252.58 213.06 253.31 C 213.84 251.96 214.36 250.05 216.29 250.18 Z" />
<path fill="#ffffff" opacity="1.00" d=" M 239.88 247.87 C 243.13 251.31 247.49 253.09 251.93 254.48 C 248.70 256.58 245.31 258.53 241.52 259.42 C 240.94 255.57 239.88 251.78 239.88 247.87 Z" />
<path fill="#ffffff" opacity="1.00" d=" M 66.19 253.18 C 65.50 249.71 70.15 250.18 72.38 249.43 C 70.91 251.52 68.76 252.92 66.19 253.18 Z" />
<path fill="#ffffff" opacity="1.00" d=" M 69.88 265.72 C 72.27 256.89 80.57 249.45 90.04 249.94 C 95.48 249.52 101.87 254.02 100.09 260.07 C 94.27 262.41 90.57 254.58 84.71 256.15 C 87.93 259.08 92.81 259.87 95.19 263.78 C 96.57 265.62 95.91 267.92 95.22 269.88 C 91.24 267.11 87.42 263.75 82.50 262.80 C 84.40 267.03 90.97 267.11 92.01 272.09 C 92.87 273.86 91.29 274.94 90.13 275.98 C 86.95 273.58 83.66 270.87 79.46 270.76 C 82.91 274.21 88.40 275.81 89.73 281.06 C 85.18 284.19 81.18 278.92 76.79 278.02 C 76.55 278.93 76.06 280.74 75.82 281.65 C 70.51 278.52 67.63 271.60 69.88 265.72 Z" />
<path fill="#ffffff" opacity="1.00" d=" M 53.27 251.38 C 56.49 251.78 59.72 251.85 62.95 251.90 C 65.30 253.94 66.77 256.80 68.73 259.21 C 67.54 261.97 66.60 264.82 65.68 267.67 C 62.68 270.36 59.15 272.40 56.24 275.21 C 54.17 277.52 50.51 277.07 48.49 279.47 C 47.57 280.59 46.12 282.04 47.35 283.49 C 48.45 284.32 49.71 284.91 51.02 285.35 C 53.04 284.69 54.28 282.84 55.75 281.43 C 58.23 289.15 63.20 296.07 70.19 300.28 C 67.46 304.40 64.95 309.50 59.80 310.95 C 55.92 311.74 51.94 309.35 49.88 306.13 C 43.95 297.75 44.03 286.81 45.43 277.07 C 46.51 268.11 49.24 259.43 53.27 251.38 Z" />
<path fill="#ffffff" opacity="1.00" d=" M 69.02 257.06 C 68.48 253.96 71.38 252.24 74.08 252.05 C 73.10 254.28 71.71 256.75 69.02 257.06 Z" />
<path fill="#ffffff" opacity="1.00" d=" M 213.35 255.76 C 220.62 254.21 227.98 253.08 235.33 251.97 C 231.47 258.80 227.03 267.38 218.23 268.19 C 214.77 265.00 213.30 260.38 213.35 255.76 Z" />
<path fill="#ffffff" opacity="1.00" d=" M 232.39 262.33 C 234.17 259.08 236.13 255.92 238.18 252.83 C 238.89 255.12 239.38 257.48 239.71 259.87 C 237.30 260.79 234.87 261.64 232.39 262.33 Z" />
<path fill="#ffffff" opacity="1.00" d=" M 102.92 254.39 C 104.51 254.58 106.09 254.80 107.66 255.05 C 107.28 258.64 106.88 262.22 106.43 265.81 C 104.32 265.42 102.21 265.00 100.09 264.67 C 101.43 263.19 103.20 261.84 103.66 259.80 C 104.16 257.96 103.31 256.16 102.92 254.39 Z" />
<path fill="#ffffff" opacity="1.00" d=" M 185.55 256.49 C 190.99 256.33 196.42 255.87 201.81 255.15 C 202.58 259.39 203.06 263.68 203.17 268.00 C 197.72 268.77 192.25 269.39 186.77 269.87 C 186.38 265.41 185.98 260.95 185.55 256.49 Z" />
<path fill="#ffffff" opacity="1.00" d=" M 108.53 266.32 C 108.18 262.56 108.61 258.82 109.81 255.25 C 115.30 255.60 120.78 255.98 126.27 256.30 C 125.86 260.07 125.40 263.84 124.97 267.61 C 119.49 267.19 114.01 266.79 108.53 266.32 Z" />
<path fill="#ffffff" opacity="1.00" d=" M 128.13 256.48 C 132.82 256.63 137.51 256.94 142.20 257.14 C 142.36 261.19 142.37 265.24 142.20 269.28 C 137.14 269.29 132.10 268.91 127.08 268.36 C 126.94 264.37 127.34 260.39 128.13 256.48 Z" />
<path fill="#ffffff" opacity="1.00" d=" M 166.02 257.56 C 171.81 257.34 177.59 256.87 183.38 256.75 C 183.87 261.21 184.55 265.66 184.69 270.15 C 178.38 270.61 172.05 270.68 165.73 270.46 C 165.71 266.16 165.79 261.86 166.02 257.56 Z" />
<path fill="#ffffff" opacity="1.00" d=" M 144.07 257.46 C 150.90 257.27 157.74 257.62 164.57 257.60 C 164.41 261.83 164.20 266.06 163.99 270.29 C 157.43 270.09 150.87 269.94 144.32 269.65 C 143.88 265.60 143.96 261.52 144.07 257.46 Z" />
<path fill="#ffffff" opacity="1.00" d=" M 204.70 261.53 C 206.13 263.37 207.54 265.23 208.96 267.08 C 207.70 267.28 206.44 267.46 205.18 267.63 C 204.93 265.60 204.78 263.57 204.70 261.53 Z" />
<path fill="#ffffff" opacity="1.00" d=" M 242.53 271.56 C 246.02 270.21 249.58 268.99 253.30 268.44 C 253.49 286.63 252.11 304.81 249.40 322.79 C 246.73 323.93 243.95 324.74 241.08 325.16 C 242.42 317.81 241.89 310.32 242.28 302.90 C 243.84 292.51 242.49 282.00 242.53 271.56 Z" />
<path fill="#ffffff" opacity="1.00" d=" M 228.01 276.62 C 232.33 275.60 236.28 273.52 240.52 272.25 C 241.55 283.78 241.32 295.37 240.48 306.91 C 240.06 313.12 240.04 319.39 238.83 325.52 C 234.60 327.04 230.30 328.35 225.91 329.32 C 226.81 319.23 228.05 309.17 228.84 299.08 C 229.44 291.58 228.54 284.09 228.01 276.62 Z" />
<path fill="#ffffff" opacity="1.00" d=" M 57.86 281.65 C 57.48 276.82 62.55 274.66 66.23 273.08 C 66.22 277.59 60.85 279.14 57.86 281.65 Z" />
<path fill="#ffffff" opacity="1.00" d=" M 58.64 283.30 C 61.40 281.12 64.18 278.93 67.16 277.06 C 67.49 277.99 67.77 278.93 67.99 279.89 C 65.74 282.62 62.82 284.71 59.77 286.47 C 59.49 285.67 58.92 284.09 58.64 283.30 Z" />
<path fill="#ffffff" opacity="1.00" d=" M 93.27 279.02 C 96.71 276.50 100.86 278.39 104.68 278.57 C 103.84 296.40 103.50 314.31 105.93 332.05 C 101.35 331.52 96.79 330.83 92.27 329.91 C 91.94 316.58 89.97 303.28 90.92 289.94 C 91.05 286.16 92.67 282.70 93.27 279.02 Z" />
<path fill="#ffffff" opacity="1.00" d=" M 206.37 279.49 C 212.58 278.46 218.81 277.62 225.09 277.27 L 225.77 277.90 C 228.88 295.14 225.29 312.58 224.00 329.81 C 218.13 331.02 212.19 331.86 206.20 332.17 C 207.25 314.63 206.64 297.05 206.37 279.49 Z" />
<path fill="#ffffff" opacity="1.00" d=" M 106.82 278.92 C 112.37 279.13 117.89 279.64 123.41 280.16 C 123.29 291.77 122.48 303.38 122.97 314.99 C 122.96 321.51 124.09 327.96 124.22 334.47 C 118.59 334.34 112.98 333.75 107.48 332.53 C 106.48 322.06 105.82 311.55 105.14 301.05 C 105.61 293.67 106.37 286.31 106.82 278.92 Z" />
<path fill="#ffffff" opacity="1.00" d=" M 125.40 280.40 C 130.92 280.84 136.46 281.06 142.00 281.14 C 142.25 299.41 142.56 317.68 142.90 335.95 C 137.33 335.65 131.75 335.44 126.18 335.11 C 125.18 330.10 125.39 324.97 124.86 319.92 C 123.64 306.76 124.89 293.56 125.40 280.40 Z" />
<path fill="#ffffff" opacity="1.00" d=" M 187.80 281.63 C 193.28 281.15 198.74 280.49 204.19 279.81 C 205.95 297.29 205.05 314.87 204.54 332.38 C 198.77 333.34 193.09 334.87 187.22 335.13 C 187.36 317.29 189.21 299.46 187.80 281.63 Z" />
<path fill="#ffffff" opacity="1.00" d=" M 61.18 288.15 C 63.65 285.27 66.89 283.19 70.13 281.29 C 70.46 281.94 71.11 283.23 71.43 283.88 C 68.93 286.90 65.91 289.45 62.71 291.72 C 62.16 290.54 61.55 289.39 61.18 288.15 Z" />
<path fill="#ffffff" opacity="1.00" d=" M 143.95 281.40 C 150.43 281.52 156.91 281.66 163.39 281.72 C 163.11 299.90 163.23 318.08 163.98 336.24 C 157.49 336.24 151.01 336.41 144.53 336.25 C 143.39 323.50 144.97 310.68 143.66 297.94 C 143.24 292.43 143.82 286.91 143.95 281.40 Z" />
<path fill="#ffffff" opacity="1.00" d=" M 165.10 281.78 C 172.10 281.63 179.10 281.67 186.10 281.91 C 187.32 299.65 185.98 317.42 185.48 335.17 C 179.00 335.74 172.51 336.16 166.01 336.22 C 165.12 318.09 164.05 299.93 165.10 281.78 Z" />
<path fill="#ffffff" opacity="1.00" d=" M 80.65 283.28 C 83.34 284.56 86.16 285.66 89.19 285.67 C 88.54 300.03 89.62 314.37 90.02 328.72 C 87.12 327.97 84.33 326.90 81.64 325.61 C 80.70 311.52 79.27 297.39 80.65 283.28 Z" />
<path fill="#ffffff" opacity="1.00" d=" M 71.23 286.28 C 72.23 284.87 73.94 284.73 75.52 284.84 C 73.90 289.39 69.59 292.02 66.66 295.64 C 65.77 294.81 64.89 293.97 64.01 293.14 C 66.48 290.92 68.90 288.64 71.23 286.28 Z" />
<path fill="#ffffff" opacity="1.00" d=" M 68.04 297.11 C 70.52 294.00 73.14 290.98 76.11 288.33 C 75.21 291.41 73.93 294.43 72.12 297.09 C 71.11 298.60 69.35 297.29 68.04 297.11 Z" />
<path fill="#ffffff" opacity="1.00" d=" M 70.43 306.64 C 72.36 302.82 74.33 299.01 76.49 295.31 C 76.88 300.42 77.12 305.55 77.32 310.67 C 74.96 309.43 72.67 308.07 70.43 306.64 Z" />
<path fill="#ffffff" opacity="1.00" d=" M 64.79 313.35 C 66.38 311.62 68.02 309.94 69.72 308.33 C 72.37 310.24 75.76 311.51 77.46 314.46 C 78.19 316.79 77.78 319.29 77.82 321.70 C 73.45 318.95 69.13 316.13 64.79 313.35 Z" />
<path fill="#ffffff" opacity="1.00" d=" M 49.67 317.68 C 50.58 316.21 51.15 313.04 53.53 314.32 C 57.50 315.91 62.21 313.62 65.80 316.26 C 70.16 319.03 74.96 321.70 77.99 325.97 C 80.54 334.64 81.06 343.75 83.41 352.46 C 84.66 357.63 86.37 362.67 87.64 367.84 C 79.10 369.72 70.24 366.58 63.11 361.95 C 56.47 357.60 49.89 352.38 41.73 351.47 C 40.87 339.76 44.63 328.12 49.67 317.68 Z" />
<path fill="#ffffff" opacity="1.00" d=" M 239.41 339.17 C 242.09 338.48 244.84 338.13 247.50 337.33 C 246.95 340.10 247.48 343.37 245.64 345.72 C 242.94 346.87 240.05 347.50 237.20 348.17 C 237.97 345.21 237.29 341.59 239.41 339.17 Z" />
<path fill="#ffffff" opacity="1.00" d=" M 84.36 340.71 C 86.97 341.29 89.56 342.01 92.10 342.86 C 92.39 345.19 92.66 347.53 92.92 349.88 C 90.59 349.36 88.26 348.82 85.93 348.31 C 85.37 345.78 84.84 343.24 84.36 340.71 Z" />
<path fill="#ffffff" opacity="1.00" d=" M 223.73 343.44 C 227.86 342.35 232.00 341.25 236.17 340.26 C 235.92 343.15 235.52 346.02 234.98 348.87 C 230.85 349.40 226.79 350.29 222.76 351.31 C 222.94 348.67 223.32 346.05 223.73 343.44 Z" />
<path fill="#ffffff" opacity="1.00" d=" M 94.26 343.17 C 98.64 343.82 103.00 344.64 107.36 345.43 C 107.83 348.35 108.32 351.27 108.80 354.19 C 104.08 353.46 99.46 352.24 94.96 350.65 C 94.56 348.17 94.35 345.67 94.26 343.17 Z" />
<path fill="#ffffff" opacity="1.00" d=" M 205.60 345.32 C 211.03 344.74 216.44 344.11 221.86 343.48 C 221.57 346.25 221.26 349.03 220.79 351.78 C 215.47 352.81 210.07 353.43 204.71 354.23 C 205.00 351.26 205.31 348.29 205.60 345.32 Z" />
<path fill="#ffffff" opacity="1.00" d=" M 109.54 346.13 C 114.46 346.57 119.38 347.11 124.29 347.65 C 125.04 350.42 125.40 353.27 125.43 356.14 C 120.62 355.90 115.85 355.29 111.09 354.57 C 110.47 351.78 109.98 348.96 109.54 346.13 Z" />
<path fill="#ffffff" opacity="1.00" d=" M 186.78 347.83 C 192.35 347.19 197.93 346.68 203.52 346.15 C 203.27 348.85 203.03 351.55 202.80 354.26 C 197.53 355.82 191.98 355.80 186.63 356.97 C 186.52 353.92 186.57 350.87 186.78 347.83 Z" />
<path fill="#ffffff" opacity="1.00" d=" M 126.62 347.96 C 132.17 348.38 137.72 348.82 143.27 349.22 C 143.66 352.25 144.03 355.29 144.32 358.33 C 138.57 358.05 132.85 357.35 127.16 356.50 C 126.78 353.66 126.70 350.81 126.62 347.96 Z" />
<path fill="#ffffff" opacity="1.00" d=" M 166.05 349.31 C 172.41 349.06 178.78 348.78 185.13 348.26 C 185.13 351.26 185.13 354.27 185.08 357.27 C 178.77 357.66 172.45 357.96 166.14 358.23 C 165.87 355.26 165.85 352.28 166.05 349.31 Z" />
<path fill="#ffffff" opacity="1.00" d=" M 145.50 349.43 C 151.65 349.49 157.81 349.49 163.96 349.40 C 164.05 352.29 164.17 355.19 164.26 358.09 C 158.21 358.93 152.10 358.37 146.03 358.20 C 145.75 355.28 145.56 352.36 145.50 349.43 Z" />
<path fill="#ffffff" opacity="1.00" d=" M 38.65 355.16 C 42.18 352.69 46.56 354.21 50.09 355.78 C 57.59 358.97 63.10 365.54 70.84 368.24 C 76.49 370.38 82.64 370.74 88.61 370.19 C 89.00 371.91 89.40 373.63 89.78 375.36 C 82.34 377.58 74.22 377.00 67.15 373.83 C 62.22 372.21 57.95 369.17 53.14 367.29 C 54.11 369.36 55.63 371.20 57.68 372.27 C 67.60 377.35 79.26 380.93 90.32 377.52 C 91.72 380.35 93.13 383.17 94.31 386.10 C 86.75 389.04 77.96 390.06 70.40 386.57 C 65.33 383.70 60.10 381.07 55.41 377.58 C 50.87 374.33 46.01 371.44 40.60 369.92 C 40.22 371.50 39.86 373.10 39.52 374.70 C 37.79 373.17 35.56 370.83 37.27 368.44 C 39.62 365.23 44.14 366.71 47.49 366.07 C 44.98 362.08 38.93 360.49 38.65 355.16 Z" />
<path fill="#ffffff" opacity="1.00" d=" M 234.18 362.13 C 236.84 361.11 239.57 360.27 242.21 359.21 C 239.40 369.04 235.54 378.53 232.14 388.17 C 231.45 390.79 228.37 391.25 226.25 392.25 C 228.81 382.18 232.23 372.34 234.18 362.13 Z" />
<path fill="#ffffff" opacity="1.00" d=" M 89.87 362.00 C 92.40 363.22 95.86 363.35 97.75 365.41 C 100.17 374.48 102.35 383.64 103.87 392.91 C 102.13 391.81 99.71 391.17 98.99 389.03 C 95.48 380.19 91.83 371.34 89.87 362.00 Z" />
<path fill="#ffffff" opacity="1.00" d=" M 219.70 365.60 C 223.62 364.39 227.61 363.39 231.66 362.69 C 230.35 373.09 226.93 383.09 223.01 392.75 C 220.38 394.56 216.48 394.19 213.36 395.09 C 215.68 385.31 218.80 375.67 219.70 365.60 Z" />
<path fill="#ffffff" opacity="1.00" d=" M 99.80 365.04 C 103.57 365.26 107.22 366.33 110.96 366.83 C 113.51 376.55 115.81 386.35 117.81 396.21 C 114.08 395.55 110.36 394.88 106.64 394.17 C 103.52 384.67 102.33 374.69 99.80 365.04 Z" />
<path fill="#ffffff" opacity="1.00" d=" M 203.18 368.46 C 208.00 367.68 212.88 367.20 217.62 365.97 C 216.59 376.00 214.12 385.83 211.15 395.45 C 207.06 396.04 202.98 396.81 198.84 396.99 C 200.38 387.49 201.97 378.00 203.18 368.46 Z" />
<path fill="#ffffff" opacity="1.00" d=" M 113.00 366.97 C 117.90 367.91 122.81 368.78 127.74 369.57 C 129.63 379.31 131.61 389.03 133.68 398.72 C 129.42 398.35 124.91 398.39 120.87 396.99 C 117.43 390.13 117.15 382.29 114.86 375.06 C 113.98 372.43 113.41 369.70 113.00 366.97 Z" />
<path fill="#ffffff" opacity="1.00" d=" M 185.97 370.02 C 190.99 369.56 196.00 369.00 201.00 368.35 C 200.48 378.11 197.64 387.56 197.05 397.32 C 192.68 397.83 188.32 398.35 183.95 398.87 C 183.87 389.20 184.91 379.61 185.97 370.02 Z" />
<path fill="#ffffff" opacity="1.00" d=" M 129.55 369.62 C 134.87 370.02 140.19 370.47 145.51 370.97 C 146.13 380.75 147.56 390.58 151.08 399.79 C 145.96 400.02 140.84 399.87 135.74 399.34 C 133.53 389.47 131.42 379.57 129.55 369.62 Z" />
<path fill="#ffffff" opacity="1.00" d=" M 147.13 371.03 C 152.79 370.99 158.46 371.01 164.13 370.99 C 164.50 380.75 164.70 390.50 164.69 400.26 C 160.81 400.51 156.93 400.46 153.06 400.20 C 149.92 390.74 147.56 381.03 147.13 371.03 Z" />
<path fill="#ffffff" opacity="1.00" d=" M 166.20 371.07 C 172.12 370.91 178.03 370.51 183.95 370.32 C 183.31 377.87 182.37 385.43 182.62 393.03 C 182.61 395.09 182.98 397.55 181.34 399.15 C 176.61 400.19 171.73 400.23 166.90 400.12 C 166.69 390.44 166.35 380.75 166.20 371.07 Z" />
<path fill="#ffffff" opacity="1.00" d=" M 46.19 375.81 C 50.97 375.86 53.63 380.54 54.30 384.72 C 50.51 383.08 49.11 378.57 46.19 375.81 Z" />
<path fill="#ffffff" opacity="1.00" d=" M 40.67 376.86 C 46.78 375.67 49.68 382.60 51.47 387.23 C 53.99 386.12 56.47 384.90 58.96 383.73 C 61.70 385.75 64.43 387.79 67.15 389.85 C 61.83 393.16 55.58 394.07 49.53 395.16 C 49.40 388.04 45.95 381.50 40.67 376.86 Z" />
<path fill="#ffffff" opacity="1.00" d=" M 35.36 378.92 C 39.00 376.90 41.94 380.41 43.82 383.16 C 46.25 386.72 46.93 391.07 47.29 395.28 C 45.93 395.33 44.57 395.36 43.21 395.38 C 43.43 388.92 40.29 382.96 35.36 378.92 Z" />
<path fill="#ffffff" opacity="1.00" d=" M 32.39 381.08 C 35.79 380.73 37.85 384.00 39.61 386.37 C 41.51 389.02 40.95 392.37 40.53 395.37 C 35.81 395.41 30.51 394.48 27.49 390.47 C 25.94 386.49 29.83 383.45 32.39 381.08 Z" />
<path fill="#ffffff" opacity="1.00" d=" M 56.02 381.36 C 59.35 381.61 54.48 384.27 56.02 381.36 Z" />
</g>
</svg>
