<?xml version="1.0" encoding="UTF-8" ?>
<!DOCTYPE svg PUBLIC "-//W3C//DTD SVG 1.1//EN" "http://www.w3.org/Graphics/SVG/1.1/DTD/svg11.dtd">
<svg width="417pt" height="500pt" viewBox="0 0 417 500" version="1.1" xmlns="http://www.w3.org/2000/svg">
<g id="#010101ff">
<path fill="#010101" opacity="1.00" d=" M 123.92 0.00 L 129.26 0.00 C 133.85 2.05 138.18 4.72 141.91 8.11 C 151.49 16.75 160.94 25.54 170.61 34.09 C 178.51 25.21 186.13 16.01 195.02 8.07 C 197.18 5.97 200.68 4.70 203.44 6.41 C 206.34 8.11 208.73 10.58 210.74 13.24 C 212.84 15.50 209.23 19.08 211.89 21.09 C 215.27 24.35 218.70 27.60 222.43 30.45 C 226.00 32.54 230.97 31.71 233.88 35.09 C 237.03 38.09 237.51 42.86 235.96 46.77 C 232.31 56.70 225.06 64.65 219.06 73.17 C 216.93 75.77 217.92 79.20 218.18 82.22 C 221.90 80.51 226.31 78.61 230.29 80.71 C 236.45 84.44 239.41 91.99 239.27 98.97 C 239.19 106.83 236.62 115.24 230.43 120.43 C 227.96 122.64 224.53 122.67 221.42 122.89 C 221.62 125.09 221.84 127.30 222.07 129.50 C 224.46 130.73 227.36 131.72 228.63 134.31 C 230.78 138.77 230.80 143.84 231.51 148.65 C 232.26 151.26 234.04 153.41 235.32 155.77 C 241.60 152.59 248.37 150.27 255.41 149.65 C 265.77 148.74 276.17 149.56 286.52 150.01 C 282.16 142.78 278.41 134.66 278.98 125.99 C 278.89 122.52 282.38 119.27 285.87 120.06 C 293.46 121.12 297.95 128.03 302.74 133.24 C 306.58 137.96 311.94 140.96 317.20 143.82 C 322.41 135.77 328.18 127.65 336.44 122.47 C 339.42 120.62 343.69 120.12 346.54 122.49 C 350.05 125.12 351.88 129.26 353.83 133.05 C 357.55 140.64 361.78 148.12 363.66 156.43 C 364.23 158.55 363.62 160.76 362.65 162.66 C 358.44 170.53 350.61 175.68 346.29 183.46 C 349.24 184.04 353.45 182.65 355.30 185.74 C 358.37 190.26 357.93 195.99 357.21 201.14 C 363.53 200.83 369.81 199.98 376.05 198.89 C 375.91 193.88 375.63 188.55 372.80 184.23 C 371.70 182.25 369.55 179.88 371.68 177.79 C 374.91 176.47 378.50 176.70 381.92 176.40 C 388.59 176.15 395.23 175.36 401.91 175.26 C 404.90 175.10 408.60 177.42 407.95 180.79 C 407.09 182.87 405.41 184.45 404.03 186.18 C 407.08 197.54 410.48 209.12 409.79 221.01 C 409.58 226.06 405.61 230.10 401.41 232.41 C 393.08 236.77 383.23 236.11 374.62 239.68 C 372.06 240.66 369.36 242.07 366.53 241.42 C 363.08 240.55 360.67 237.78 357.72 236.00 C 353.93 235.49 350.14 236.51 346.44 237.20 C 347.63 243.08 353.45 245.72 356.84 250.13 C 367.14 262.11 371.75 277.80 373.44 293.25 C 374.44 301.15 374.64 309.12 375.17 317.05 C 375.38 322.68 378.70 327.49 379.97 332.88 C 380.95 337.04 381.93 341.45 381.07 345.72 C 379.75 348.00 377.86 349.88 376.15 351.88 C 379.11 358.06 379.07 365.42 376.79 371.81 C 375.54 375.03 377.51 378.29 378.23 381.41 C 385.14 381.85 392.08 381.19 398.98 381.89 C 403.62 382.49 409.08 385.04 410.10 390.07 C 410.72 394.76 409.48 399.43 409.23 404.11 C 411.83 404.50 414.43 404.92 417.00 405.48 L 417.00 409.31 C 415.40 423.50 414.88 437.78 413.10 451.94 C 393.22 455.35 373.31 458.69 353.20 460.44 C 353.93 463.46 354.40 466.55 355.47 469.47 C 357.09 472.74 360.25 475.38 360.51 479.23 C 360.62 482.82 360.07 486.40 360.03 489.99 C 352.52 494.47 343.74 495.61 335.28 497.07 C 325.41 498.74 315.41 499.54 305.42 500.00 L 293.54 500.00 C 283.89 499.14 274.12 500.07 264.55 498.22 C 259.94 497.27 254.06 497.38 251.75 492.42 C 237.81 493.24 223.85 492.70 209.93 491.74 C 207.76 491.55 205.65 491.02 203.55 490.47 C 198.21 489.00 192.62 488.92 187.22 487.74 C 178.58 485.96 169.96 484.09 161.28 482.48 C 155.96 481.51 150.58 479.85 145.13 480.87 C 116.35 485.37 87.12 487.51 58.01 486.00 C 52.39 485.74 46.53 486.03 41.24 483.81 C 36.92 482.05 35.94 476.92 35.14 472.85 C 34.36 469.83 37.07 467.75 39.23 466.24 C 45.14 462.19 52.01 459.88 58.40 456.70 C 53.25 413.74 45.92 371.08 40.61 328.15 C 36.97 301.00 33.70 273.80 29.85 246.69 C 23.86 245.67 20.61 251.50 15.87 253.85 C 13.07 255.50 8.87 256.30 6.45 253.56 C 4.27 251.24 5.10 247.80 6.22 245.19 C 8.09 241.05 11.03 237.53 13.59 233.82 C 10.45 231.60 6.11 229.83 5.29 225.63 C 4.47 222.55 6.08 219.63 7.47 216.99 C 5.10 214.92 2.02 213.07 1.24 209.80 C 0.03 203.72 2.16 196.93 7.16 193.11 C 10.72 190.00 15.70 190.07 20.11 189.32 C 17.96 160.42 12.93 131.84 10.14 103.00 C 9.88 100.89 9.78 98.73 9.13 96.69 C 6.67 94.20 2.99 92.77 1.63 89.32 C -0.38 84.87 3.83 80.65 3.09 76.11 C 2.10 66.51 1.05 56.91 0.00 47.32 L 0.00 34.62 C 1.34 31.35 3.09 28.13 5.89 25.88 C 10.03 22.18 16.02 23.18 21.09 22.16 C 25.39 21.20 30.60 22.39 34.07 19.11 C 36.04 17.39 38.19 15.42 41.01 15.61 C 45.53 15.21 48.49 20.02 52.99 19.65 C 68.96 18.23 84.99 17.03 101.03 16.77 C 103.64 16.44 105.00 19.18 105.68 21.26 C 107.75 28.85 107.39 36.95 105.53 44.54 C 101.38 45.32 97.17 45.69 92.96 45.97 C 80.94 46.77 68.93 47.94 56.94 49.13 C 53.26 49.28 50.38 51.89 46.89 52.68 C 42.98 51.64 39.32 49.40 35.08 50.13 C 34.95 56.42 35.79 62.68 36.08 68.96 C 36.04 72.98 41.04 74.89 40.80 79.03 C 41.56 85.26 38.52 91.14 33.78 95.02 C 35.69 123.46 40.07 151.63 44.24 179.80 C 49.79 179.24 56.28 177.27 61.21 180.80 C 67.43 187.06 67.92 196.62 67.29 204.93 C 69.76 204.03 73.06 204.12 74.51 201.54 C 76.43 198.69 78.32 195.76 79.58 192.55 C 80.52 188.95 80.46 185.16 81.61 181.61 C 82.91 176.71 85.77 172.47 88.03 168.00 C 88.95 166.38 88.31 164.50 88.29 162.77 C 87.78 159.28 89.30 155.96 90.95 152.99 C 96.76 143.11 105.43 135.40 114.17 128.17 C 117.09 124.16 118.19 119.07 120.68 114.76 C 117.25 114.44 112.94 116.33 110.07 113.95 C 106.99 107.36 110.69 100.18 113.92 94.38 C 99.59 90.92 85.04 87.73 71.67 81.31 C 67.34 79.35 62.55 76.93 60.69 72.24 C 59.24 68.49 61.94 64.90 64.05 62.02 C 70.08 54.26 79.96 51.08 89.30 49.55 C 98.47 48.17 107.72 46.83 117.02 47.13 C 122.49 47.30 127.96 47.39 133.43 47.08 C 126.60 35.27 119.51 22.88 118.57 8.97 C 118.44 5.17 121.49 2.48 123.92 0.00 M 122.35 10.06 C 123.55 23.00 129.52 34.89 136.13 45.85 C 139.44 48.56 144.11 47.19 148.03 47.51 C 146.74 37.14 146.28 26.58 143.48 16.46 C 142.02 13.47 139.59 11.06 137.36 8.62 C 134.37 5.76 130.54 2.81 126.14 3.51 C 124.15 5.10 121.94 7.26 122.35 10.06 M 189.25 18.25 C 183.87 24.26 177.88 29.84 173.75 36.84 C 173.08 38.20 171.69 39.12 170.48 37.75 C 163.47 31.99 156.95 25.63 149.96 19.84 C 156.02 31.31 162.33 42.69 169.38 53.58 C 175.90 62.04 187.61 62.44 197.35 61.95 C 191.82 57.05 186.94 51.49 181.53 46.46 C 179.34 44.32 175.96 42.98 175.50 39.58 C 178.60 40.37 180.82 42.81 183.20 44.77 C 189.02 50.13 194.49 55.85 200.19 61.34 C 204.41 56.48 208.39 51.43 212.46 46.45 C 215.05 43.05 218.60 39.61 218.28 34.96 C 217.86 29.68 213.18 26.38 209.72 22.95 C 208.99 28.95 212.95 33.63 215.77 38.42 C 211.07 38.15 209.19 33.25 207.59 29.55 C 205.49 24.64 206.11 19.18 207.94 14.32 C 206.15 11.88 204.12 9.18 200.99 8.48 C 196.02 10.21 192.83 14.66 189.25 18.25 M 38.58 19.36 C 36.42 26.89 37.44 34.94 39.91 42.26 C 41.48 45.65 44.00 49.92 48.40 49.22 C 46.52 39.83 44.90 30.16 46.47 20.59 C 44.11 19.02 41.31 18.68 38.58 19.36 M 99.24 20.01 C 97.80 27.60 99.20 35.62 102.23 42.63 C 102.12 38.02 100.36 33.60 100.53 28.96 C 100.37 25.94 101.43 23.07 102.17 20.19 C 101.43 20.14 99.97 20.05 99.24 20.01 M 50.11 23.49 C 49.77 31.00 49.99 38.62 51.98 45.92 C 67.76 44.80 83.53 43.48 99.29 42.02 C 97.21 34.98 95.98 27.58 97.04 20.25 C 81.37 20.94 65.67 21.40 50.11 23.49 M 13.19 26.25 C 8.32 27.55 3.98 31.66 3.91 36.96 C 3.28 50.62 5.78 64.14 6.88 77.71 C 15.76 72.68 26.70 72.83 36.23 75.86 C 34.89 74.43 33.52 73.02 32.12 71.64 C 32.94 64.14 31.08 56.70 31.11 49.23 C 32.91 46.61 36.69 47.32 39.40 46.46 C 36.13 39.41 34.98 31.54 36.02 23.84 C 28.38 24.47 20.81 25.62 13.19 26.25 M 219.87 32.10 C 220.01 34.25 221.20 36.65 219.86 38.63 C 214.96 47.31 208.07 54.58 201.78 62.23 C 206.23 65.42 210.53 69.38 215.72 71.15 C 220.47 64.40 225.52 57.82 229.64 50.66 C 231.49 46.88 234.29 42.75 232.68 38.38 C 231.56 35.76 228.62 34.90 226.00 35.20 C 223.45 35.61 221.72 33.43 219.87 32.10 M 78.71 54.73 C 72.82 57.66 66.38 61.35 63.77 67.73 C 61.96 71.37 65.30 75.00 68.40 76.52 C 85.62 85.57 104.91 89.48 123.87 92.98 C 128.14 93.99 132.74 93.26 136.80 95.18 C 140.33 96.86 144.04 98.39 147.00 101.00 C 150.15 103.87 151.24 108.14 152.24 112.11 C 157.09 108.49 162.35 105.11 165.51 99.76 C 163.86 98.42 162.05 97.11 161.62 94.88 C 164.68 96.28 167.57 98.01 170.72 99.19 C 172.10 99.62 172.91 100.83 173.74 101.92 C 171.55 101.72 169.43 101.14 167.33 100.49 C 164.11 106.15 158.43 109.55 153.54 113.59 C 150.67 115.82 149.92 119.84 146.85 121.87 C 144.67 123.46 141.81 122.43 139.62 121.43 C 134.68 118.77 129.78 115.85 126.00 111.63 C 124.20 116.72 120.92 121.13 119.28 126.27 C 116.33 134.73 115.54 144.18 118.35 152.78 C 118.66 154.26 120.16 154.88 121.25 155.69 C 129.61 160.78 135.64 168.83 140.51 177.16 C 144.47 174.24 148.15 170.90 152.42 168.42 C 172.97 155.33 197.11 149.67 218.25 137.74 C 218.88 130.60 217.18 123.52 215.48 116.64 C 218.16 117.16 220.45 118.73 223.04 119.51 C 226.34 119.66 228.80 117.01 230.67 114.63 C 233.48 109.90 234.97 104.45 235.44 99.00 C 235.69 93.37 234.11 87.08 229.42 83.55 C 226.05 81.47 221.39 83.38 219.74 86.79 C 219.04 88.76 216.74 88.81 215.00 88.61 C 210.83 88.12 206.72 89.20 202.56 89.17 C 202.82 88.74 203.35 87.89 203.62 87.46 C 207.18 86.46 211.00 86.72 214.67 86.23 C 214.58 85.69 214.41 84.61 214.32 84.07 C 210.46 84.27 206.35 85.52 202.66 83.84 C 206.55 81.90 211.15 83.21 215.01 81.29 C 211.13 80.26 206.02 82.28 203.04 78.98 C 206.67 78.64 210.32 78.74 213.97 78.78 C 213.95 78.38 213.92 77.57 213.90 77.16 C 210.24 77.15 206.57 77.16 202.91 77.13 C 202.88 76.59 202.80 75.51 202.77 74.98 C 205.73 74.88 208.69 74.84 211.65 74.71 C 207.41 71.59 202.98 68.54 197.97 66.82 C 193.76 66.48 189.51 66.79 185.34 65.99 C 185.80 70.74 184.31 75.55 181.18 79.16 C 175.41 86.70 162.48 86.93 156.62 79.37 C 149.84 71.82 153.23 57.92 163.14 54.96 C 164.94 55.08 165.51 52.67 163.57 52.42 C 154.17 50.42 144.52 50.32 134.97 49.78 C 116.16 49.22 96.77 48.56 78.71 54.73 M 156.82 62.89 C 152.03 70.87 158.48 82.77 168.04 82.31 C 168.13 79.27 169.99 76.52 173.22 76.33 C 175.49 75.45 176.69 77.83 177.94 79.23 C 181.78 75.89 184.28 70.56 182.62 65.48 C 177.65 63.80 172.70 61.87 168.91 58.10 C 164.52 54.21 159.06 58.91 156.82 62.89 M 14.70 76.88 C 10.97 77.89 6.82 79.51 5.34 83.42 C 3.39 86.39 4.96 90.00 7.27 92.23 C 7.27 90.33 7.15 88.45 7.08 86.56 C 15.46 82.60 25.14 81.18 34.06 84.22 C 33.51 86.24 33.06 88.28 32.90 90.37 C 36.55 87.62 37.31 82.89 37.41 78.61 C 30.17 76.15 22.21 75.01 14.70 76.88 M 12.36 96.60 C 16.50 129.44 20.53 162.29 25.00 195.08 C 28.47 194.28 32.55 193.96 34.75 190.74 C 37.51 187.82 37.29 183.53 39.32 180.25 C 40.55 178.63 39.67 176.59 39.57 174.77 C 35.54 146.14 32.23 117.41 29.15 88.65 C 22.99 89.94 17.67 93.41 12.36 96.60 M 282.43 125.40 C 280.92 134.48 284.98 143.44 290.26 150.63 C 292.47 151.00 294.69 151.38 296.90 151.79 C 296.78 145.09 296.71 138.30 295.17 131.75 C 293.34 128.69 290.99 125.92 288.38 123.49 C 286.52 121.67 282.75 122.75 282.43 125.40 M 336.45 125.48 C 329.25 130.74 323.90 138.18 320.22 146.24 C 326.01 151.32 333.04 155.60 336.96 162.38 C 329.80 158.41 324.56 151.69 317.53 147.52 C 312.32 145.25 307.88 141.69 303.26 138.46 C 305.55 143.48 307.73 148.61 310.68 153.28 C 315.09 159.33 323.03 160.11 329.60 162.37 C 336.66 165.53 341.23 172.03 346.71 177.19 C 350.47 170.30 358.40 166.07 359.98 157.95 C 358.97 151.00 355.49 144.69 352.56 138.39 C 349.97 133.42 348.14 127.72 343.71 124.02 C 341.23 123.12 338.52 124.06 336.45 125.48 M 90.47 161.41 C 95.70 158.21 101.17 155.42 106.62 152.62 C 108.90 151.41 111.48 151.08 114.02 151.30 C 112.14 144.71 113.30 137.86 113.91 131.18 C 104.75 139.96 93.33 148.29 90.47 161.41 M 166.30 163.87 C 170.93 163.65 175.70 163.45 180.13 165.08 C 189.64 168.29 196.88 175.81 202.76 183.67 C 210.30 171.33 219.18 159.84 226.16 147.17 C 228.23 143.91 225.90 140.05 225.81 136.54 C 207.75 149.18 185.63 153.67 166.30 163.87 M 247.14 152.98 C 240.79 154.85 234.91 158.78 231.35 164.44 C 230.51 166.41 232.04 168.32 233.32 169.68 C 243.75 174.05 254.85 176.67 266.04 178.19 C 270.15 178.82 274.51 178.50 278.34 180.37 C 276.02 184.09 271.48 186.98 271.78 191.86 C 274.13 197.90 280.93 200.73 286.98 201.31 C 296.13 202.21 304.73 196.84 309.77 189.48 C 309.20 189.12 308.08 188.41 307.52 188.06 C 307.91 186.64 308.31 185.23 308.74 183.83 C 312.73 184.91 314.81 188.76 318.12 190.92 C 317.06 192.54 316.00 194.15 314.93 195.76 C 313.54 194.50 312.38 193.03 311.25 191.55 C 309.38 193.88 307.32 196.06 304.98 197.93 C 301.32 200.34 305.83 206.63 301.37 208.48 C 297.78 209.69 293.60 210.86 290.01 208.99 C 288.94 207.40 288.93 205.42 288.56 203.62 C 281.18 203.26 274.00 199.73 269.95 193.43 C 267.62 198.84 267.91 204.87 268.67 210.59 C 270.18 221.77 275.67 232.36 283.99 240.00 C 286.93 242.83 290.45 244.96 293.46 247.72 C 303.79 249.99 314.83 247.26 323.75 241.84 C 328.23 229.29 333.75 217.12 338.14 204.54 C 341.88 203.18 341.96 209.38 345.20 209.99 C 347.57 210.67 350.19 209.22 350.93 206.88 C 353.03 201.65 354.97 195.89 353.69 190.22 C 353.18 188.88 352.85 186.65 350.91 186.96 C 346.56 187.09 343.53 191.04 342.95 195.10 C 338.59 194.03 334.64 191.76 330.26 190.74 C 331.30 186.42 332.31 182.06 333.80 177.87 C 335.47 176.65 338.71 176.73 338.56 174.00 C 334.79 168.70 328.73 165.65 322.58 164.00 C 324.10 169.72 321.34 175.39 317.57 179.55 C 312.81 181.28 307.34 181.47 302.65 179.44 C 296.73 176.52 294.42 168.73 296.62 162.74 C 297.83 159.52 300.65 157.39 303.17 155.25 C 294.70 153.52 286.25 151.12 277.54 151.10 C 267.40 150.88 257.00 150.08 247.14 152.98 M 207.09 185.07 C 206.14 186.77 204.67 188.05 203.15 189.23 C 196.48 182.12 190.64 173.75 181.73 169.23 C 177.07 166.51 171.38 166.11 166.22 167.43 C 155.81 170.32 146.70 176.36 137.21 181.22 C 128.54 189.04 121.16 198.26 115.38 208.41 C 107.60 222.70 104.06 238.87 102.21 254.93 C 100.35 273.95 101.73 293.34 106.16 311.92 C 131.29 318.98 159.22 319.91 183.55 309.44 C 189.15 306.65 195.17 304.22 199.67 299.74 C 200.83 298.85 200.72 297.33 200.93 296.04 C 201.34 291.80 201.75 287.45 201.10 283.22 C 198.66 280.06 195.01 277.74 193.50 273.94 C 192.87 271.84 195.05 270.49 196.03 268.94 C 199.19 265.34 198.50 260.20 198.91 255.78 C 183.22 258.04 167.56 260.61 151.85 262.79 C 144.43 261.16 137.28 254.16 138.81 245.99 C 140.41 239.85 144.74 232.99 151.67 232.49 C 161.08 231.20 170.50 230.07 179.88 228.61 C 165.87 223.94 151.33 220.57 138.13 213.72 C 139.87 208.25 142.04 202.92 144.62 197.79 C 161.09 202.90 177.43 208.43 193.84 213.73 C 192.42 218.28 190.95 222.83 189.57 227.40 C 193.12 226.96 196.67 226.49 200.22 226.03 C 200.83 220.26 198.52 214.92 196.76 209.59 C 197.51 209.65 199.02 209.77 199.78 209.84 C 203.52 213.93 203.87 219.78 203.99 225.04 C 210.07 224.06 216.16 223.10 222.25 222.17 C 222.93 216.96 226.24 211.86 231.16 209.79 C 233.57 208.82 235.89 209.99 237.98 211.13 C 240.08 208.83 242.96 207.68 245.97 207.13 C 245.06 196.92 244.83 186.45 241.19 176.73 C 236.98 174.12 230.74 173.55 228.60 168.35 C 226.64 164.23 230.26 160.59 232.77 157.74 C 231.51 155.71 230.25 153.67 228.97 151.65 C 222.02 163.02 214.04 173.71 207.09 185.07 M 95.75 162.77 C 89.44 169.92 84.90 178.72 83.23 188.15 C 86.95 184.11 90.07 179.05 95.46 177.05 C 91.69 184.09 85.33 189.35 80.94 196.00 C 66.39 219.45 57.38 246.44 55.72 274.04 C 58.54 283.17 65.06 290.74 72.70 296.30 C 81.81 303.22 92.62 307.28 103.25 311.21 C 97.67 281.22 97.32 249.45 107.65 220.42 C 113.58 204.39 123.72 190.02 136.70 178.92 C 131.37 168.12 123.07 157.43 110.85 154.36 C 105.38 156.13 100.31 159.28 95.75 162.77 M 298.55 171.44 C 299.66 174.89 302.86 176.90 305.87 178.52 C 307.42 177.17 308.81 175.62 310.51 174.44 C 312.76 173.82 314.41 175.70 315.90 177.06 C 319.06 174.10 321.77 169.60 320.11 165.18 C 319.27 162.62 316.39 161.95 314.37 160.63 C 312.19 159.55 310.41 157.42 307.85 157.34 C 300.80 156.59 296.00 165.38 298.55 171.44 M 245.99 177.75 C 247.50 184.41 248.82 191.13 249.64 197.92 C 250.15 202.55 248.76 207.79 252.03 211.71 C 253.77 210.45 255.36 208.76 257.58 208.36 C 260.15 207.48 262.39 209.50 264.45 210.72 C 262.73 200.77 265.41 190.43 271.35 182.32 C 262.81 181.32 254.22 180.35 245.99 177.75 M 377.95 180.17 C 376.30 180.26 374.80 180.94 373.43 181.83 C 375.18 182.56 377.00 183.41 378.96 183.06 C 386.67 182.38 394.40 181.86 402.11 181.13 C 403.62 181.16 404.45 179.79 405.47 178.90 C 396.29 178.78 387.07 178.99 377.95 180.17 M 42.32 183.16 C 40.59 185.89 38.95 188.66 37.52 191.56 C 35.52 195.38 31.02 196.41 27.28 197.72 C 27.44 200.35 28.00 203.21 30.07 205.02 C 34.41 208.22 40.90 207.46 44.55 203.54 C 47.90 200.82 48.90 196.45 51.25 193.03 C 51.71 192.97 52.61 192.86 53.06 192.80 C 54.54 196.24 52.35 199.58 51.04 202.67 C 52.77 203.41 54.93 203.96 55.24 206.16 C 52.90 206.45 50.56 206.24 48.24 205.94 C 49.55 210.45 49.57 215.18 50.07 219.82 C 50.94 228.50 51.55 237.20 52.60 245.87 C 54.48 244.72 57.01 243.88 57.46 241.43 C 60.20 232.81 62.74 224.08 66.76 215.94 C 65.25 213.04 64.16 209.95 62.71 207.02 C 63.74 200.98 64.36 194.60 62.32 188.68 C 61.31 185.99 59.94 182.85 56.81 182.16 C 51.93 181.34 47.21 183.66 42.32 183.16 M 378.03 185.59 C 378.46 190.08 379.45 194.53 379.46 199.05 C 379.78 201.19 377.54 202.34 375.75 202.63 C 373.09 203.09 370.38 203.34 367.75 203.98 C 370.88 207.12 373.54 210.83 374.68 215.17 C 376.80 221.95 375.68 229.11 373.95 235.83 C 382.44 233.06 391.47 232.24 399.76 228.82 C 403.94 226.90 406.41 222.37 406.73 217.90 C 407.00 211.72 405.19 205.70 404.23 199.65 C 403.49 194.23 400.69 189.28 400.70 183.74 C 393.13 184.15 385.57 184.79 378.03 185.59 M 8.89 195.87 C 4.82 199.15 3.72 204.95 4.82 209.86 C 5.89 213.02 9.34 214.12 12.18 215.09 C 18.52 216.68 25.62 214.57 29.80 209.47 C 27.00 206.93 24.96 203.70 23.92 200.06 C 20.35 200.56 16.56 201.39 13.17 199.64 C 15.77 198.51 18.60 198.13 21.40 197.85 C 21.05 195.79 20.72 193.73 20.44 191.66 C 16.36 192.18 11.95 192.83 8.89 195.87 M 140.85 212.55 C 155.70 219.36 171.36 224.23 187.32 227.62 C 188.72 223.56 190.10 219.49 191.40 215.40 C 176.19 210.31 160.96 205.33 145.65 200.54 C 143.85 204.46 142.24 208.46 140.85 212.55 M 291.07 203.67 C 291.26 204.98 291.45 206.29 291.65 207.61 C 294.46 207.30 297.82 208.00 300.18 206.13 C 301.86 204.93 301.10 202.77 301.14 201.06 C 297.81 202.05 294.50 203.11 291.07 203.67 M 354.56 206.19 C 357.24 206.79 360.45 206.37 362.59 208.45 C 369.22 214.17 371.54 223.95 369.23 232.26 C 367.89 234.85 364.19 233.80 362.19 235.67 C 364.44 237.53 368.28 239.12 370.67 236.62 C 373.39 230.89 373.99 224.29 372.88 218.07 C 372.09 214.14 370.73 210.10 367.69 207.31 C 364.42 203.66 358.48 203.61 354.56 206.19 M 68.38 208.02 C 66.89 208.86 68.19 211.74 69.72 210.37 C 71.28 209.44 70.02 206.71 68.38 208.02 M 37.86 211.23 C 39.88 214.51 42.86 218.20 41.26 222.29 C 40.06 227.06 35.35 229.32 31.57 231.76 C 32.21 239.00 33.13 246.22 34.32 253.40 C 38.28 283.04 42.08 312.71 45.95 342.37 C 51.38 379.94 57.06 417.47 62.27 455.07 C 65.12 454.26 68.90 454.50 70.60 451.62 C 72.06 449.19 74.09 447.15 76.90 446.39 C 71.34 413.07 67.48 379.49 63.35 345.96 C 61.82 334.49 56.62 323.94 54.64 312.57 C 52.01 300.92 51.46 288.89 51.93 276.98 C 49.53 256.68 47.60 236.31 45.94 215.93 C 45.77 213.63 45.50 211.34 45.05 209.07 C 42.69 209.91 40.29 210.63 37.86 211.23 M 348.55 213.51 C 345.44 214.12 342.57 212.36 340.07 210.77 C 338.54 214.81 337.13 218.89 335.84 223.01 C 340.03 225.38 342.76 229.33 345.22 233.33 C 352.05 233.01 358.79 231.20 365.59 230.34 C 367.43 223.77 366.02 216.43 361.59 211.20 C 359.09 210.40 356.41 210.52 353.86 210.00 C 352.32 211.46 350.76 213.17 348.55 213.51 M 240.03 214.11 C 242.64 219.71 242.19 226.07 241.75 232.06 C 241.20 236.07 248.41 237.26 249.50 233.38 C 251.85 227.05 251.55 220.00 249.64 213.60 C 247.98 212.78 246.45 211.75 244.82 210.90 C 242.78 211.02 241.51 212.93 240.03 214.11 M 9.97 218.02 C 8.59 220.89 7.38 224.52 9.63 227.32 C 13.36 232.26 20.67 231.67 25.97 230.03 C 30.37 228.25 35.21 225.91 37.46 221.48 C 38.94 217.64 35.68 214.33 33.68 211.43 C 28.28 218.73 18.29 220.12 9.97 218.02 M 232.40 212.37 C 228.17 213.68 226.50 218.07 224.72 221.68 C 226.21 222.04 227.72 222.32 229.14 222.92 C 230.73 227.24 231.06 232.13 234.17 235.79 C 240.14 231.60 238.59 223.47 237.72 217.30 C 236.76 215.12 235.34 211.78 232.40 212.37 M 256.56 212.61 C 255.43 213.10 254.58 214.07 254.05 215.16 C 253.98 219.38 255.37 223.57 254.63 227.79 C 254.53 229.37 253.74 231.00 254.27 232.55 C 255.73 233.77 257.79 235.12 259.71 234.00 C 263.32 231.27 263.66 226.20 263.48 222.03 C 263.15 218.99 263.17 215.81 262.08 212.93 C 260.66 211.20 258.29 211.84 256.56 212.61 M 267.83 223.42 C 266.87 228.00 266.90 233.64 262.83 236.77 C 259.65 239.22 255.48 237.58 252.67 235.39 C 251.51 236.77 250.62 238.60 248.86 239.33 C 245.59 239.35 242.48 238.09 240.08 235.90 C 238.35 237.37 236.22 239.79 233.75 238.32 C 228.85 236.15 228.29 230.34 227.29 225.76 C 214.70 226.67 202.30 229.04 189.86 231.07 C 178.91 232.53 167.88 233.36 156.97 235.11 C 158.67 237.39 160.66 239.54 161.65 242.25 C 163.31 247.54 162.19 253.39 159.18 257.99 C 166.71 256.73 174.29 255.76 181.84 254.63 C 193.81 252.85 205.60 249.92 217.67 248.84 C 234.15 247.04 250.42 243.66 266.95 242.18 C 271.03 242.36 272.77 237.96 275.49 235.67 C 272.67 231.75 270.38 227.50 267.83 223.42 M 332.91 226.41 C 334.68 229.38 337.44 232.10 337.25 235.85 C 333.38 244.88 323.04 247.82 316.10 253.90 C 323.27 254.65 330.17 257.58 335.10 262.96 C 343.07 256.60 346.68 244.40 341.97 235.02 C 340.12 231.21 337.24 227.42 332.91 226.41 M 16.91 234.66 C 14.08 240.44 8.34 245.25 8.86 252.21 C 15.14 251.59 19.25 246.44 24.16 243.15 C 25.81 243.04 27.46 243.15 29.11 243.17 C 28.66 239.95 28.15 236.74 27.69 233.52 C 24.16 234.39 20.54 234.81 16.91 234.66 M 151.43 236.34 C 144.88 239.15 140.66 248.04 144.44 254.59 C 146.64 259.94 154.67 260.67 157.95 255.97 C 160.82 250.74 160.72 243.73 157.24 238.79 C 155.88 237.18 153.66 235.29 151.43 236.34 M 264.69 254.01 C 272.10 252.39 280.35 249.34 287.61 253.07 C 287.95 251.38 288.30 249.69 288.65 248.01 C 284.49 244.92 280.70 241.37 277.18 237.57 C 272.48 242.60 267.22 247.44 264.69 254.01 M 234.88 250.50 C 237.43 254.15 241.33 256.76 245.81 257.29 C 249.68 257.52 250.49 261.79 251.84 264.63 C 255.65 262.81 259.32 260.75 263.01 258.70 C 262.45 257.84 261.90 256.97 261.36 256.11 C 262.63 252.47 264.33 249.00 266.42 245.75 C 255.89 247.22 245.38 248.85 234.88 250.50 M 289.91 249.33 C 289.65 250.95 289.40 252.57 289.16 254.19 C 293.76 256.29 298.93 256.46 303.89 256.74 C 310.23 255.90 314.24 250.25 319.37 247.01 C 310.00 250.23 299.61 252.54 289.91 249.33 M 347.92 246.29 C 347.67 252.53 344.83 258.24 341.10 263.12 C 339.59 265.00 337.81 267.36 335.14 267.29 C 331.70 264.96 328.98 261.66 325.24 259.75 C 319.74 256.42 312.31 257.36 307.44 261.41 C 302.22 265.20 299.93 271.43 296.82 276.82 C 281.13 301.67 271.81 330.95 272.61 360.49 C 283.60 361.80 294.77 362.44 305.78 360.92 C 316.68 360.02 327.41 356.53 336.49 350.38 C 335.18 342.89 335.20 335.02 337.64 327.75 C 338.09 326.22 338.78 324.62 338.28 323.01 C 337.20 317.77 336.09 312.54 334.95 307.32 C 333.40 306.40 331.86 305.47 330.32 304.55 C 329.61 306.74 329.67 309.46 327.98 311.18 C 321.10 310.93 314.36 309.49 307.63 308.18 C 303.04 307.23 298.38 306.57 293.94 305.05 C 294.79 300.72 295.90 296.46 297.03 292.20 C 306.22 293.68 315.38 295.40 324.58 296.90 C 325.05 295.70 324.82 293.18 326.77 294.29 C 329.36 297.31 330.67 301.43 334.17 303.62 C 333.73 300.03 332.70 296.54 332.27 292.95 C 332.68 292.64 333.49 292.03 333.90 291.73 C 338.44 302.53 339.80 314.39 342.08 325.80 C 338.38 334.52 338.12 344.40 341.27 353.33 C 343.86 353.04 346.46 353.21 349.04 353.52 C 350.73 353.35 351.96 354.44 352.50 355.99 C 350.54 356.42 348.56 356.77 346.59 357.10 C 346.47 360.70 346.29 364.31 346.13 367.92 C 355.73 368.15 365.33 367.99 374.92 367.43 C 374.71 363.76 374.45 360.09 374.29 356.43 C 371.84 356.23 369.07 355.20 369.73 352.18 C 372.39 349.26 375.28 346.55 377.82 343.50 C 377.50 335.46 375.13 327.70 371.71 320.46 C 370.59 308.53 370.92 296.42 368.62 284.59 C 366.29 270.04 359.85 255.44 347.92 246.29 M 202.80 255.04 C 202.99 261.66 202.85 269.19 197.69 274.10 C 200.05 276.75 202.03 280.01 205.40 281.49 C 209.56 281.27 213.98 280.10 217.88 282.31 C 214.21 284.65 209.64 283.62 205.64 284.96 C 205.36 290.60 204.95 296.23 204.69 301.88 C 213.76 300.80 222.87 299.03 232.03 300.12 C 234.85 300.53 237.66 299.93 240.47 299.71 C 240.04 294.68 239.86 289.63 239.79 284.58 C 236.43 284.34 231.82 285.07 230.62 280.95 C 234.33 280.37 238.06 281.48 241.75 280.85 C 243.14 279.56 244.63 277.89 244.89 275.96 C 244.26 273.75 243.19 271.69 242.58 269.48 C 244.31 268.11 247.19 267.37 247.74 264.98 C 247.13 263.01 246.00 260.78 243.75 260.40 C 239.25 259.13 234.87 256.84 232.04 253.01 C 231.20 252.15 230.49 250.46 228.99 250.94 C 220.22 251.98 211.39 252.88 202.80 255.04 M 279.53 255.46 C 276.64 258.63 274.74 262.68 274.08 266.91 C 273.31 270.99 273.54 275.47 270.90 278.95 C 258.17 299.58 247.81 322.63 247.36 347.28 C 252.98 354.35 261.74 357.47 270.18 359.70 C 269.94 331.26 278.80 303.40 293.17 279.05 C 290.09 271.94 288.70 264.24 285.93 257.02 C 284.96 254.67 281.40 253.44 279.53 255.46 M 269.13 257.07 C 264.81 260.29 260.02 262.74 255.33 265.35 C 252.24 266.94 249.99 269.66 247.33 271.83 C 248.50 273.39 249.01 275.77 250.85 276.65 C 254.00 274.97 257.00 272.97 260.44 271.92 C 260.24 272.34 259.86 273.19 259.66 273.62 C 256.25 276.44 251.84 277.92 248.78 281.23 C 249.32 288.61 251.42 295.79 253.85 302.76 C 258.41 294.63 261.95 285.93 267.25 278.22 C 268.38 276.30 270.31 274.48 269.87 272.04 C 269.27 265.88 272.20 260.26 274.75 254.88 C 272.83 255.47 270.76 255.81 269.13 257.07 M 289.18 257.03 C 291.24 262.43 292.98 267.94 294.62 273.49 C 297.01 267.81 301.04 263.18 305.17 258.71 C 299.80 258.63 294.37 258.56 289.18 257.03 M 55.35 278.74 C 56.36 286.44 52.19 296.78 59.95 302.05 C 73.55 314.19 90.54 321.63 107.85 326.80 C 106.54 322.29 105.17 317.81 103.76 313.33 C 95.81 310.47 87.67 307.93 80.34 303.63 C 69.88 297.91 60.74 289.47 55.35 278.74 M 244.36 284.45 C 243.04 291.09 244.96 297.76 244.45 304.42 C 242.75 304.10 241.05 303.76 239.37 303.40 C 243.48 310.75 244.34 319.20 245.96 327.30 C 247.95 320.41 249.82 313.47 252.59 306.84 C 247.17 300.64 247.19 291.84 244.36 284.45 M 298.58 294.90 C 297.95 297.80 297.22 300.67 296.63 303.58 C 306.78 305.43 316.82 308.21 327.18 308.57 C 327.52 305.55 329.19 301.06 325.61 299.31 C 316.63 297.68 307.59 296.36 298.58 294.90 M 56.23 300.45 C 56.59 311.66 60.81 322.14 64.13 332.70 C 69.80 349.03 77.81 364.74 89.06 377.96 C 90.92 380.14 93.04 382.11 94.72 384.45 C 94.90 387.22 93.36 389.98 94.26 392.76 C 97.56 403.13 101.19 413.39 104.49 423.76 C 100.09 430.82 95.17 437.80 93.36 446.06 C 107.78 442.49 122.72 446.47 135.84 452.59 C 136.43 449.56 138.37 446.97 138.95 443.98 C 139.33 427.96 139.74 411.94 140.45 395.94 C 140.96 392.59 138.09 390.19 136.83 387.37 C 131.26 389.99 125.19 391.87 118.96 391.57 C 116.00 391.54 112.34 390.84 111.23 387.66 C 112.71 387.75 114.18 387.98 115.62 388.37 C 123.09 390.38 131.19 388.38 137.49 384.08 C 124.24 382.33 110.35 379.88 99.47 371.53 C 96.39 369.32 93.25 366.64 92.82 362.61 C 97.41 362.03 98.30 367.43 101.51 369.48 C 112.04 377.27 125.44 379.92 138.30 380.35 C 124.64 366.09 116.72 347.69 109.10 329.78 C 103.95 327.34 98.17 326.42 92.94 324.12 C 87.22 321.55 81.30 319.37 75.93 316.08 C 68.64 311.87 62.11 306.47 56.23 300.45 M 205.73 305.59 C 203.77 306.12 201.29 306.28 200.20 308.27 C 197.45 314.59 197.99 322.10 193.84 327.85 C 191.30 329.66 188.29 330.68 185.71 332.45 C 186.69 334.54 187.98 336.84 190.41 337.45 C 193.18 338.06 196.05 337.63 198.85 337.55 C 199.83 335.08 200.31 332.46 201.25 329.98 C 201.80 330.44 202.92 331.37 203.47 331.83 C 203.00 342.61 200.89 353.23 200.45 364.01 C 200.16 365.75 200.70 367.42 201.69 368.86 C 205.32 366.92 208.53 364.09 210.31 360.32 C 212.75 355.20 213.56 349.51 214.95 344.05 C 215.10 341.81 217.12 343.40 218.21 343.86 C 217.60 349.66 216.28 355.32 214.21 360.77 C 221.47 357.11 226.41 350.41 232.90 345.73 C 233.74 348.95 231.30 351.26 229.56 353.60 C 231.98 353.26 234.69 353.20 236.64 351.53 C 239.21 349.42 240.37 346.09 241.10 342.95 C 242.46 329.63 241.33 315.52 234.93 303.54 C 225.16 303.07 215.27 303.28 205.73 305.59 M 170.14 316.10 C 149.26 321.30 127.26 319.48 106.55 314.42 C 107.87 318.92 108.75 323.75 111.17 327.80 C 138.04 335.09 168.65 333.92 192.69 318.80 C 193.04 314.79 193.26 310.77 193.71 306.76 C 186.23 310.74 178.38 314.07 170.14 316.10 M 175.24 329.35 C 154.72 335.74 132.59 335.05 111.75 330.54 C 119.05 348.58 127.61 366.85 142.00 380.39 C 145.60 380.06 149.30 380.06 152.76 378.87 C 161.99 375.99 171.16 372.55 179.29 367.24 C 180.95 366.18 182.73 365.33 184.58 364.66 C 184.47 368.42 181.09 370.47 178.28 372.29 C 167.03 378.55 154.75 383.42 141.76 384.10 C 139.46 390.83 147.68 394.06 148.45 399.94 C 147.04 399.39 145.67 398.77 144.31 398.12 C 144.10 412.77 143.42 427.42 143.32 442.07 C 143.79 446.25 140.63 449.50 140.07 453.51 C 142.01 454.66 144.12 457.24 146.55 455.65 C 154.48 451.84 162.21 447.50 170.66 444.91 C 182.58 440.87 196.04 440.42 207.61 445.85 C 208.20 441.56 205.19 437.11 200.98 436.09 C 190.75 432.86 179.68 434.02 169.41 436.52 C 164.20 437.56 160.14 441.64 154.77 442.16 C 167.23 432.19 184.36 430.44 199.63 433.22 C 198.86 423.69 198.57 414.07 196.37 404.72 C 195.48 402.32 198.17 400.97 199.28 399.24 C 205.74 390.00 207.49 378.59 209.95 367.84 C 208.10 369.23 206.48 371.37 203.98 371.51 C 200.78 371.92 196.67 369.63 196.86 366.05 C 196.27 357.49 198.27 349.05 199.10 340.57 C 196.02 341.01 192.82 342.19 189.72 341.24 C 185.82 339.97 181.99 336.52 182.57 332.04 C 182.74 328.45 187.11 328.10 189.62 326.72 C 191.83 326.10 191.71 323.45 192.26 321.67 C 186.74 324.57 181.23 327.51 175.24 329.35 M 237.55 355.66 C 233.86 357.02 229.87 356.63 226.02 356.62 C 222.75 359.98 218.74 362.42 215.05 365.23 C 211.21 378.47 210.69 393.66 200.66 404.19 C 200.43 407.79 201.73 411.36 202.14 414.94 C 203.34 420.78 202.96 426.86 204.21 432.68 C 207.06 435.86 210.66 438.84 211.51 443.26 C 211.62 447.11 216.63 446.82 218.21 449.81 C 221.92 455.21 228.28 457.66 232.96 462.02 C 234.16 462.95 235.29 464.50 237.03 464.08 C 242.61 463.20 246.98 458.34 252.93 458.87 C 255.12 453.86 260.67 452.32 265.68 452.08 C 267.24 449.50 269.47 447.40 270.99 444.81 C 270.39 434.19 268.23 423.65 268.60 412.97 C 269.08 410.54 267.16 408.91 265.77 407.23 C 252.20 391.33 243.62 370.84 243.67 349.78 C 241.94 352.00 240.46 354.86 237.55 355.66 M 247.43 351.18 C 247.56 354.08 247.57 357.00 247.92 359.89 C 253.81 366.61 262.87 369.00 271.12 371.49 C 270.83 368.37 270.57 365.27 270.47 362.15 C 262.19 359.94 254.25 356.43 247.43 351.18 M 67.95 352.66 C 69.15 362.80 70.94 372.86 72.02 383.02 C 74.43 404.29 77.10 425.55 81.26 446.56 C 83.63 447.21 86.00 447.92 88.45 448.22 C 90.09 438.63 95.14 430.24 99.71 421.82 C 96.57 412.75 93.32 403.71 90.11 394.66 C 88.84 391.51 90.22 388.14 90.40 384.92 C 81.70 375.07 74.18 364.22 67.95 352.66 M 272.39 362.64 C 272.78 365.75 273.19 368.87 273.57 371.99 C 280.56 373.70 287.80 373.95 294.94 373.26 C 311.03 372.68 328.17 368.94 340.05 357.32 C 339.05 355.91 338.08 354.48 337.15 353.03 C 317.76 364.62 294.21 364.94 272.39 362.64 M 333.02 366.02 C 314.70 374.52 293.82 378.16 273.82 374.45 C 276.47 385.42 280.16 396.57 287.82 405.14 C 288.89 404.43 289.78 403.25 291.15 403.15 C 296.55 402.39 302.03 402.75 307.47 402.52 C 308.08 398.17 306.29 392.39 310.20 389.26 C 317.33 387.00 324.91 386.46 332.33 385.75 C 331.82 381.12 333.56 376.75 335.81 372.81 C 337.36 370.65 340.18 370.47 342.55 369.92 C 342.58 366.07 342.68 362.23 342.68 358.38 C 339.40 360.85 336.55 363.90 333.02 366.02 M 248.94 364.63 C 251.01 379.64 258.58 393.33 268.19 404.83 C 270.03 407.30 273.06 409.50 272.46 412.97 C 272.27 424.32 275.16 435.47 274.90 446.82 C 273.16 449.37 271.06 451.66 269.37 454.25 C 272.88 456.85 277.39 456.49 281.41 457.65 C 285.65 458.58 289.55 460.61 293.09 463.09 C 293.13 459.45 294.61 456.12 296.34 452.99 C 293.88 451.74 290.86 451.11 289.15 448.78 C 288.39 435.72 288.78 422.60 288.38 409.54 C 279.48 399.58 274.73 386.78 271.72 373.95 C 263.90 371.43 255.82 369.29 248.94 364.63 M 338.26 374.30 C 336.17 377.55 336.16 381.58 335.08 385.22 C 336.91 385.55 338.73 385.93 340.55 386.38 C 341.51 392.76 341.59 399.24 342.46 405.62 C 344.43 408.15 348.68 408.78 351.34 407.27 C 354.95 402.50 353.24 395.76 356.03 390.61 C 357.88 395.24 356.98 400.23 356.52 405.02 C 361.31 403.42 363.39 397.81 368.29 396.73 C 368.13 399.91 365.60 401.96 363.74 404.24 C 367.27 404.74 371.76 404.01 373.28 400.32 C 376.06 390.95 374.97 380.71 371.32 371.72 C 361.62 371.93 351.92 372.17 342.23 372.65 C 340.78 372.72 339.05 372.89 338.26 374.30 M 378.98 385.94 C 379.01 386.70 379.05 388.23 379.08 389.00 C 386.50 388.54 394.25 386.99 401.48 389.39 C 406.35 392.31 402.83 398.71 403.20 403.18 C 403.87 403.18 405.22 403.20 405.89 403.21 C 406.36 397.93 408.14 392.30 405.97 387.20 C 397.21 384.61 387.96 385.54 378.98 385.94 M 318.10 390.96 C 315.32 391.26 313.68 394.34 313.97 396.93 C 314.32 407.54 314.42 418.16 314.14 428.77 C 315.24 428.08 315.81 427.12 315.85 425.89 C 316.28 416.27 316.20 406.65 316.33 397.04 C 315.98 394.51 318.85 393.14 321.00 393.25 C 326.89 393.02 332.78 392.66 338.65 392.10 C 338.55 390.91 338.45 389.71 338.36 388.52 C 331.60 389.27 324.82 389.88 318.10 390.96 M 311.36 393.29 C 311.34 404.74 310.49 416.24 311.18 427.67 C 311.73 426.48 312.07 425.23 312.22 423.94 C 313.12 413.24 311.39 402.42 312.60 391.76 C 312.29 392.14 311.67 392.90 311.36 393.29 M 379.07 393.06 C 378.64 395.85 378.09 398.63 377.39 401.37 C 383.28 401.62 389.18 401.98 395.08 402.20 C 395.46 398.98 395.78 395.73 395.46 392.49 C 390.07 391.15 384.55 393.49 379.07 393.06 M 397.71 392.59 C 397.66 396.05 397.54 399.51 397.45 402.98 C 397.99 402.96 399.07 402.90 399.61 402.88 C 399.95 399.40 400.17 395.91 399.95 392.43 C 399.39 392.47 398.27 392.55 397.71 392.59 M 320.41 396.71 C 320.34 398.31 320.28 399.92 320.22 401.53 C 326.44 401.55 332.66 401.50 338.89 401.56 C 338.80 399.62 338.72 397.68 338.66 395.76 C 332.57 396.00 326.49 396.39 320.41 396.71 M 295.87 405.31 C 299.75 405.81 303.62 406.43 307.49 407.01 C 307.44 406.41 307.36 405.21 307.32 404.60 C 303.49 404.68 299.66 404.76 295.87 405.31 M 320.26 403.74 C 320.29 404.73 320.34 406.70 320.37 407.69 C 327.26 407.56 334.13 408.37 340.98 409.01 C 340.02 407.12 339.19 405.18 338.45 403.21 C 332.40 403.69 326.33 403.85 320.26 403.74 M 371.97 406.90 C 381.44 406.09 390.94 406.04 400.42 405.54 C 393.04 404.13 385.45 404.13 377.97 403.56 C 375.45 403.25 373.97 405.80 371.97 406.90 M 343.03 413.13 C 341.26 413.27 339.47 413.15 337.70 413.07 C 337.64 420.76 337.47 428.44 337.44 436.13 C 361.80 430.42 387.03 430.92 411.67 426.94 C 411.87 420.62 412.28 414.32 412.83 408.03 C 389.56 409.71 366.24 410.67 343.03 413.13 M 292.58 408.18 C 292.38 414.43 292.42 420.69 292.79 426.94 C 298.72 428.30 304.72 429.34 310.59 430.94 C 308.92 429.29 307.07 427.45 306.98 424.94 C 306.74 420.16 308.18 415.44 307.57 410.65 C 302.54 410.00 297.44 409.70 292.58 408.18 M 320.40 411.34 C 319.91 418.54 320.48 425.85 319.20 432.96 C 324.56 433.67 329.70 435.42 334.99 436.46 C 335.88 435.16 335.37 433.48 335.53 432.02 C 335.47 425.46 335.50 418.90 335.51 412.35 C 330.48 411.87 325.44 411.55 320.40 411.34 M 292.80 429.37 C 292.84 435.48 292.93 441.60 293.05 447.71 C 298.61 449.63 303.99 452.11 309.76 453.36 C 318.54 455.34 327.05 458.30 335.80 460.34 C 335.45 453.28 335.49 446.21 335.43 439.14 C 321.25 435.76 307.02 432.60 292.80 429.37 M 337.41 438.76 C 337.52 445.88 337.59 453.01 337.74 460.13 C 343.91 459.00 350.04 457.60 356.23 456.56 C 374.23 454.08 392.35 452.52 410.20 449.07 C 409.91 442.58 410.87 436.13 411.42 429.68 C 386.78 432.91 361.56 432.34 337.41 438.76 M 144.85 460.64 C 144.79 464.48 147.93 467.25 150.97 469.06 C 157.12 472.72 164.37 473.44 171.23 474.92 C 182.28 477.31 193.54 479.09 204.86 478.93 C 213.03 473.20 222.21 469.26 231.35 465.37 C 225.93 461.03 220.60 455.67 213.36 454.82 C 205.86 452.59 200.11 459.26 193.80 461.94 C 190.68 463.31 187.34 460.29 188.13 457.06 C 188.43 452.59 192.86 450.45 196.07 448.15 C 188.86 449.46 183.20 454.37 177.22 458.22 C 175.27 459.79 172.69 458.77 170.56 458.21 C 169.65 454.23 171.45 450.54 174.11 447.70 C 163.78 450.59 154.46 456.04 144.85 460.64 M 108.22 448.41 C 110.42 450.71 112.97 452.96 113.99 456.09 C 114.10 459.12 111.04 461.56 108.10 460.38 C 103.17 458.14 100.21 453.18 95.55 450.54 C 94.10 449.73 92.58 450.65 91.16 450.99 C 94.76 454.21 98.75 458.64 97.11 463.89 C 89.45 465.56 86.61 456.03 79.99 454.67 C 65.03 457.95 49.66 462.85 37.92 473.09 C 38.96 474.36 39.84 476.08 41.66 476.30 C 49.58 478.36 57.88 477.55 65.98 477.36 C 79.99 476.75 94.02 476.43 108.02 475.64 C 120.23 473.65 132.87 473.48 144.53 468.96 C 142.10 465.78 141.02 461.93 141.18 457.95 C 138.75 457.46 136.23 457.17 134.06 455.86 C 126.11 451.59 117.40 448.11 108.22 448.41 M 295.44 462.80 C 300.97 462.09 306.49 463.45 312.03 462.91 C 325.44 461.31 337.73 470.83 351.18 467.79 C 350.88 465.65 350.46 463.53 349.96 461.44 C 345.25 462.18 340.70 463.73 335.97 464.33 C 323.62 460.63 311.15 457.24 298.75 453.66 C 296.92 456.40 295.29 459.38 295.44 462.80 M 255.65 458.34 C 258.88 457.87 264.17 459.66 265.02 455.16 C 261.57 454.81 257.93 455.53 255.65 458.34 M 268.72 461.06 C 271.21 463.21 273.92 465.35 277.36 465.55 C 277.22 461.21 272.33 458.52 268.72 461.06 M 277.93 460.25 C 278.51 462.34 279.84 464.54 278.99 466.75 C 277.77 468.44 275.35 468.08 273.71 467.29 C 270.19 465.45 267.33 462.42 263.42 461.31 C 264.93 463.66 266.58 466.00 267.29 468.75 C 265.71 470.04 264.23 472.15 261.94 471.94 C 256.56 471.13 253.44 465.40 247.98 464.76 C 244.79 465.11 241.70 466.09 238.53 466.61 C 238.05 467.71 237.58 468.82 237.10 469.94 C 235.84 469.35 234.60 468.75 233.35 468.15 C 224.41 471.90 215.55 475.92 207.46 481.33 C 223.14 481.92 238.99 482.94 254.56 480.44 C 260.84 476.44 267.89 474.00 275.04 472.03 C 278.50 471.26 280.62 467.78 284.18 467.27 C 286.63 466.96 289.15 467.03 291.45 466.00 C 287.55 462.84 282.69 461.50 277.93 460.25 M 251.32 463.14 C 255.67 465.33 259.56 470.74 264.97 468.70 C 264.28 466.96 263.88 464.95 262.35 463.73 C 259.46 460.64 254.86 462.61 251.32 463.14 M 296.55 465.03 C 295.43 466.30 297.90 467.18 298.63 466.13 C 299.81 464.79 297.31 464.06 296.55 465.03 M 302.56 468.69 C 306.31 470.99 310.55 475.04 315.21 472.52 C 314.43 470.58 313.93 468.01 311.65 467.30 C 308.59 466.27 305.43 467.65 302.56 468.69 M 314.35 466.54 C 315.77 468.79 318.95 472.54 315.79 474.74 C 311.37 477.73 306.62 473.75 302.76 471.70 C 303.77 473.89 305.60 476.06 304.90 478.65 C 303.49 480.17 301.37 481.34 299.25 480.76 C 294.90 479.53 292.23 475.27 287.90 473.97 C 275.58 473.66 263.59 478.61 253.86 485.96 C 259.24 489.42 265.83 489.41 271.98 490.12 C 297.49 490.41 323.26 489.69 348.23 483.98 C 351.47 483.20 355.60 483.29 357.35 479.87 C 356.75 477.42 355.91 474.77 353.90 473.12 C 351.56 471.55 348.62 472.73 346.02 472.54 C 335.17 472.19 325.33 465.87 314.35 466.54 M 289.56 472.07 C 293.97 474.45 297.74 479.30 303.32 478.10 C 302.88 474.51 299.95 472.13 296.86 470.72 C 294.35 470.28 291.93 471.42 289.56 472.07 M 131.74 476.51 C 113.65 479.45 95.32 480.03 77.05 481.00 C 64.51 481.36 51.78 482.62 39.41 479.85 C 40.69 480.90 42.05 481.92 43.69 482.32 C 52.27 484.65 61.24 483.86 70.02 484.35 C 89.04 484.42 108.07 483.34 126.99 481.45 C 131.93 480.93 136.92 480.74 141.76 479.57 C 145.56 478.74 149.53 477.68 153.41 478.70 C 170.16 482.37 186.94 486.17 204.05 487.73 C 204.12 486.75 204.27 484.78 204.34 483.80 C 198.43 482.83 192.45 482.53 186.53 481.67 C 177.05 479.85 167.48 478.42 158.16 475.87 C 154.75 474.93 151.61 473.18 148.18 472.35 C 142.82 474.17 137.42 475.99 131.74 476.51 M 206.36 485.35 C 206.35 486.61 206.33 487.88 206.32 489.16 C 221.76 490.33 237.29 491.70 252.73 489.80 C 252.05 488.18 251.52 486.51 250.92 484.89 C 248.56 484.42 246.24 485.62 243.87 485.58 C 231.37 485.81 218.86 485.68 206.36 485.35 M 339.26 490.08 C 333.62 491.57 327.75 491.58 321.99 492.15 C 299.64 493.87 276.86 496.15 254.76 491.08 C 254.81 491.80 254.90 493.23 254.95 493.95 C 273.14 499.03 292.30 497.83 310.97 497.41 C 319.72 497.45 328.34 495.90 336.99 494.82 C 344.17 493.71 351.39 492.24 357.93 488.96 C 357.91 488.12 357.89 486.45 357.87 485.61 C 351.88 487.94 345.52 488.85 339.26 490.08 Z" />
<path fill="#010101" opacity="1.00" d=" M 201.82 54.07 C 201.19 50.25 204.49 46.90 208.19 46.70 C 208.83 50.34 205.75 54.91 201.82 54.07 M 205.29 49.25 C 204.16 49.30 202.98 51.74 204.70 51.73 C 205.81 51.65 207.03 49.23 205.29 49.25 Z" />
<path fill="#010101" opacity="1.00" d=" M 210.81 58.28 C 209.56 54.83 212.30 51.94 215.40 50.95 C 217.82 54.37 214.77 58.67 210.81 58.28 M 212.94 54.17 C 212.42 55.62 212.86 56.06 214.26 55.47 C 214.76 54.01 214.32 53.58 212.94 54.17 Z" />
<path fill="#010101" opacity="1.00" d=" M 215.75 100.52 C 217.93 95.00 222.07 89.81 228.15 88.52 C 230.32 94.55 229.78 101.89 226.17 107.27 C 226.54 103.39 227.52 99.60 227.74 95.71 C 224.53 96.59 221.95 98.69 219.66 101.02 C 220.57 103.32 221.21 105.72 221.61 108.17 C 218.66 109.48 215.33 109.20 212.59 107.54 C 215.18 107.40 217.79 107.68 220.38 107.27 C 219.77 104.45 217.93 102.29 215.75 100.52 Z" />
<path fill="#010101" opacity="1.00" d=" M 338.99 158.11 C 339.37 155.96 340.32 154.02 341.82 152.44 C 342.71 152.69 344.51 153.19 345.40 153.44 C 344.90 156.48 342.39 160.33 338.99 158.11 M 342.29 154.38 C 341.13 154.40 340.11 156.83 341.78 156.83 C 342.96 156.79 343.98 154.41 342.29 154.38 Z" />
<path fill="#010101" opacity="1.00" d=" M 343.33 162.04 C 343.94 159.78 345.85 158.32 347.93 157.47 C 348.85 159.36 349.46 162.07 347.36 163.44 C 346.09 165.14 343.52 163.94 343.33 162.04 Z" />
<path fill="#010101" opacity="1.00" d=" M 342.21 196.93 C 344.08 194.24 346.30 191.17 349.88 190.89 C 352.36 193.67 351.23 198.06 350.49 201.37 C 349.29 199.29 349.66 196.89 349.60 194.61 C 348.26 195.67 346.99 196.81 345.74 197.96 C 345.87 199.37 346.00 200.79 346.14 202.20 C 343.83 202.41 341.41 202.40 339.55 200.80 C 341.33 200.66 343.11 200.52 344.90 200.37 C 344.01 199.21 343.11 198.06 342.21 196.93 Z" />
<path fill="#010101" opacity="1.00" d=" M 150.34 240.09 C 152.46 239.09 154.98 241.17 156.06 243.00 C 157.26 246.92 156.50 251.70 153.53 254.66 C 151.87 255.48 149.24 255.60 148.13 253.83 C 145.22 249.67 146.01 242.98 150.34 240.09 M 148.22 249.87 C 149.11 251.01 149.35 253.17 151.05 253.38 C 153.32 252.79 153.85 250.25 154.64 248.38 C 152.48 248.77 150.34 249.29 148.22 249.87 Z" />
<path fill="#010101" opacity="1.00" d=" M 354.85 342.64 C 357.78 343.09 359.51 345.59 361.58 347.41 C 363.74 349.45 366.59 350.71 368.25 353.26 C 367.48 353.24 365.95 353.18 365.19 353.15 C 360.95 350.58 356.80 347.36 354.85 342.64 Z" />
<path fill="#010101" opacity="1.00" d=" M 188.63 405.69 C 190.05 404.53 191.80 403.93 193.62 403.78 C 191.36 406.83 187.23 407.93 185.33 411.38 C 183.67 413.20 183.81 416.52 181.25 417.40 C 181.09 412.37 184.87 408.47 188.63 405.69 Z" />
<path fill="#010101" opacity="1.00" d=" M 106.36 421.61 C 115.23 425.21 121.46 433.53 124.41 442.42 C 123.84 442.39 122.72 442.33 122.15 442.30 C 119.55 435.71 115.79 429.27 109.71 425.34 C 108.40 424.31 105.92 423.79 106.36 421.61 Z" />
</g>
<g id="#ffffffff">
<path fill="#ffffff" opacity="1.00" d=" M 122.35 10.06 C 121.94 7.26 124.15 5.10 126.14 3.51 C 130.54 2.81 134.37 5.76 137.36 8.62 C 139.59 11.06 142.02 13.47 143.48 16.46 C 146.28 26.58 146.74 37.14 148.03 47.51 C 144.11 47.19 139.44 48.56 136.13 45.85 C 129.52 34.89 123.55 23.00 122.35 10.06 Z" />
<path fill="#ffffff" opacity="1.00" d=" M 189.25 18.25 C 192.83 14.66 196.02 10.21 200.99 8.48 C 204.12 9.18 206.15 11.88 207.94 14.32 C 206.11 19.18 205.49 24.64 207.59 29.55 C 209.19 33.25 211.07 38.15 215.77 38.42 C 212.95 33.63 208.99 28.95 209.72 22.95 C 213.18 26.38 217.86 29.68 218.28 34.96 C 218.60 39.61 215.05 43.05 212.46 46.45 C 208.39 51.43 204.41 56.48 200.19 61.34 C 194.49 55.85 189.02 50.13 183.20 44.77 C 180.82 42.81 178.60 40.37 175.50 39.58 C 175.96 42.98 179.34 44.32 181.53 46.46 C 186.94 51.49 191.82 57.05 197.35 61.95 C 187.61 62.44 175.90 62.04 169.38 53.58 C 162.33 42.69 156.02 31.31 149.96 19.84 C 156.95 25.63 163.47 31.99 170.48 37.75 C 171.69 39.12 173.08 38.20 173.75 36.84 C 177.88 29.84 183.87 24.26 189.25 18.25 M 201.82 54.07 C 205.75 54.91 208.83 50.34 208.19 46.70 C 204.49 46.90 201.19 50.25 201.82 54.07 Z" />
<path fill="#ffffff" opacity="1.00" d=" M 38.58 19.36 C 41.31 18.68 44.11 19.02 46.47 20.59 C 44.90 30.16 46.52 39.83 48.40 49.22 C 44.00 49.92 41.48 45.65 39.91 42.26 C 37.44 34.94 36.42 26.89 38.58 19.36 Z" />
<path fill="#ffffff" opacity="1.00" d=" M 99.24 20.01 C 99.97 20.05 101.43 20.14 102.17 20.19 C 101.43 23.07 100.37 25.94 100.53 28.96 C 100.36 33.60 102.12 38.02 102.23 42.63 C 99.20 35.62 97.80 27.60 99.24 20.01 Z" />
<path fill="#ffffff" opacity="1.00" d=" M 50.11 23.49 C 65.67 21.40 81.37 20.94 97.04 20.25 C 95.98 27.58 97.21 34.98 99.29 42.02 C 83.53 43.48 67.76 44.80 51.98 45.92 C 49.99 38.62 49.77 31.00 50.11 23.49 Z" />
<path fill="#ffffff" opacity="1.00" d=" M 13.19 26.25 C 20.81 25.62 28.38 24.47 36.02 23.84 C 34.98 31.54 36.13 39.41 39.40 46.46 C 36.69 47.32 32.91 46.61 31.11 49.23 C 31.08 56.70 32.94 64.14 32.12 71.64 C 33.52 73.02 34.89 74.43 36.23 75.86 C 26.70 72.83 15.76 72.68 6.88 77.71 C 5.78 64.14 3.28 50.62 3.91 36.96 C 3.98 31.66 8.32 27.55 13.19 26.25 Z" />
<path fill="#ffffff" opacity="1.00" d=" M 219.87 32.10 C 221.72 33.43 223.45 35.61 226.00 35.20 C 228.62 34.90 231.56 35.76 232.68 38.38 C 234.29 42.75 231.49 46.88 229.64 50.66 C 225.52 57.82 220.47 64.40 215.72 71.15 C 210.53 69.38 206.23 65.42 201.78 62.23 C 208.07 54.58 214.96 47.31 219.86 38.63 C 221.20 36.65 220.01 34.25 219.87 32.10 M 210.81 58.28 C 214.77 58.67 217.82 54.37 215.40 50.95 C 212.30 51.94 209.56 54.83 210.81 58.28 Z" />
<path fill="#ffffff" opacity="1.00" d=" M 205.29 49.25 C 207.03 49.23 205.81 51.65 204.70 51.73 C 202.98 51.74 204.16 49.30 205.29 49.25 Z" />
<path fill="#ffffff" opacity="1.00" d=" M 78.71 54.73 C 96.77 48.56 116.16 49.22 134.97 49.78 C 144.52 50.32 154.17 50.42 163.57 52.42 C 165.51 52.67 164.94 55.08 163.14 54.96 C 153.23 57.92 149.84 71.82 156.62 79.37 C 162.48 86.93 175.41 86.70 181.18 79.16 C 184.31 75.55 185.80 70.74 185.34 65.99 C 189.51 66.79 193.76 66.48 197.97 66.82 C 202.98 68.54 207.41 71.59 211.65 74.71 C 208.69 74.84 205.73 74.88 202.77 74.98 C 202.80 75.51 202.88 76.59 202.91 77.13 C 206.57 77.16 210.24 77.15 213.90 77.16 C 213.92 77.57 213.95 78.38 213.97 78.78 C 210.32 78.74 206.67 78.64 203.04 78.98 C 206.02 82.28 211.13 80.26 215.01 81.29 C 211.15 83.21 206.55 81.90 202.66 83.84 C 206.35 85.52 210.46 84.27 214.32 84.07 C 214.41 84.61 214.58 85.69 214.67 86.23 C 211.00 86.72 207.18 86.46 203.62 87.46 C 203.35 87.89 202.82 88.74 202.56 89.17 C 206.72 89.20 210.83 88.12 215.00 88.61 C 216.74 88.81 219.04 88.76 219.74 86.79 C 221.39 83.38 226.05 81.47 229.42 83.55 C 234.11 87.08 235.69 93.37 235.44 99.00 C 234.97 104.45 233.48 109.90 230.67 114.63 C 228.80 117.01 226.34 119.66 223.04 119.51 C 220.45 118.73 218.16 117.16 215.48 116.64 C 217.18 123.52 218.88 130.60 218.25 137.74 C 197.11 149.67 172.97 155.33 152.42 168.42 C 148.15 170.90 144.47 174.24 140.51 177.16 C 135.64 168.83 129.61 160.78 121.25 155.69 C 120.16 154.88 118.66 154.26 118.35 152.78 C 115.54 144.18 116.33 134.73 119.28 126.27 C 120.92 121.13 124.20 116.72 126.00 111.63 C 129.78 115.85 134.68 118.77 139.62 121.43 C 141.81 122.43 144.67 123.46 146.85 121.87 C 149.92 119.84 150.67 115.82 153.54 113.59 C 158.43 109.55 164.11 106.15 167.33 100.49 C 169.43 101.14 171.55 101.72 173.74 101.92 C 172.91 100.83 172.10 99.62 170.72 99.19 C 167.57 98.01 164.68 96.28 161.62 94.88 C 162.05 97.11 163.86 98.42 165.51 99.76 C 162.35 105.11 157.09 108.49 152.24 112.11 C 151.24 108.14 150.15 103.87 147.00 101.00 C 144.04 98.39 140.33 96.86 136.80 95.18 C 132.74 93.26 128.14 93.99 123.87 92.98 C 104.91 89.48 85.62 85.57 68.40 76.52 C 65.30 75.00 61.96 71.37 63.77 67.73 C 66.38 61.35 72.82 57.66 78.71 54.73 M 215.75 100.52 C 217.93 102.29 219.77 104.45 220.38 107.27 C 217.79 107.68 215.18 107.40 212.59 107.54 C 215.33 109.20 218.66 109.48 221.61 108.17 C 221.21 105.72 220.57 103.32 219.66 101.02 C 221.95 98.69 224.53 96.59 227.74 95.71 C 227.52 99.60 226.54 103.39 226.17 107.27 C 229.78 101.89 230.32 94.55 228.15 88.52 C 222.07 89.81 217.93 95.00 215.75 100.52 Z" />
<path fill="#ffffff" opacity="1.00" d=" M 212.94 54.17 C 214.32 53.58 214.76 54.01 214.26 55.47 C 212.86 56.06 212.42 55.62 212.94 54.17 Z" />
<path fill="#ffffff" opacity="1.00" d=" M 156.82 62.89 C 159.06 58.91 164.52 54.21 168.91 58.10 C 172.70 61.87 177.65 63.80 182.62 65.48 C 184.28 70.56 181.78 75.89 177.94 79.23 C 176.69 77.83 175.49 75.45 173.22 76.33 C 169.99 76.52 168.13 79.27 168.04 82.31 C 158.48 82.77 152.03 70.87 156.82 62.89 Z" />
<path fill="#ffffff" opacity="1.00" d=" M 14.70 76.88 C 22.21 75.01 30.17 76.15 37.41 78.61 C 37.31 82.89 36.55 87.62 32.90 90.37 C 33.06 88.28 33.51 86.24 34.06 84.22 C 25.14 81.18 15.46 82.60 7.08 86.56 C 7.15 88.45 7.27 90.33 7.27 92.23 C 4.96 90.00 3.39 86.39 5.34 83.42 C 6.82 79.51 10.97 77.89 14.70 76.88 Z" />
<path fill="#ffffff" opacity="1.00" d=" M 12.36 96.60 C 17.67 93.41 22.99 89.94 29.15 88.65 C 32.23 117.41 35.54 146.14 39.57 174.77 C 39.67 176.59 40.55 178.63 39.32 180.25 C 37.29 183.53 37.51 187.82 34.75 190.74 C 32.55 193.96 28.47 194.28 25.00 195.08 C 20.53 162.29 16.50 129.44 12.36 96.60 Z" />
<path fill="#ffffff" opacity="1.00" d=" M 282.43 125.40 C 282.75 122.75 286.52 121.67 288.38 123.49 C 290.99 125.92 293.34 128.69 295.17 131.75 C 296.71 138.30 296.78 145.09 296.90 151.79 C 294.69 151.38 292.47 151.00 290.26 150.63 C 284.98 143.44 280.92 134.48 282.43 125.40 Z" />
<path fill="#ffffff" opacity="1.00" d=" M 336.45 125.48 C 338.52 124.06 341.23 123.12 343.71 124.02 C 348.14 127.72 349.97 133.42 352.56 138.39 C 355.49 144.69 358.97 151.00 359.98 157.95 C 358.40 166.07 350.47 170.30 346.71 177.19 C 341.23 172.03 336.66 165.53 329.60 162.37 C 323.03 160.11 315.09 159.33 310.68 153.28 C 307.73 148.61 305.55 143.48 303.26 138.46 C 307.88 141.69 312.32 145.25 317.53 147.52 C 324.56 151.69 329.80 158.41 336.96 162.38 C 333.04 155.60 326.01 151.32 320.22 146.24 C 323.90 138.18 329.25 130.74 336.45 125.48 M 338.99 158.11 C 342.39 160.33 344.90 156.48 345.40 153.44 C 344.51 153.19 342.71 152.69 341.82 152.44 C 340.32 154.02 339.37 155.96 338.99 158.11 M 343.33 162.04 C 343.52 163.94 346.09 165.14 347.36 163.44 C 349.46 162.07 348.85 159.36 347.93 157.47 C 345.85 158.32 343.94 159.78 343.33 162.04 Z" />
<path fill="#ffffff" opacity="1.00" d=" M 90.47 161.41 C 93.33 148.29 104.75 139.96 113.91 131.18 C 113.30 137.86 112.14 144.71 114.02 151.30 C 111.48 151.08 108.90 151.41 106.62 152.62 C 101.17 155.42 95.70 158.21 90.47 161.41 Z" />
<path fill="#ffffff" opacity="1.00" d=" M 166.30 163.87 C 185.63 153.67 207.75 149.18 225.81 136.54 C 225.90 140.05 228.23 143.91 226.16 147.17 C 219.18 159.84 210.30 171.33 202.76 183.67 C 196.88 175.81 189.64 168.29 180.13 165.08 C 175.70 163.45 170.93 163.65 166.30 163.87 Z" />
<path fill="#ffffff" opacity="1.00" d=" M 247.14 152.98 C 257.00 150.08 267.40 150.88 277.54 151.10 C 286.25 151.12 294.70 153.52 303.17 155.25 C 300.65 157.39 297.83 159.52 296.62 162.74 C 294.42 168.73 296.73 176.52 302.65 179.44 C 307.34 181.47 312.81 181.28 317.57 179.55 C 321.34 175.39 324.10 169.72 322.58 164.00 C 328.73 165.65 334.79 168.70 338.56 174.00 C 338.71 176.73 335.47 176.65 333.80 177.87 C 332.31 182.06 331.30 186.42 330.26 190.74 C 334.64 191.76 338.59 194.03 342.95 195.10 C 343.53 191.04 346.56 187.09 350.91 186.96 C 352.85 186.65 353.18 188.88 353.69 190.22 C 354.97 195.89 353.03 201.65 350.93 206.88 C 350.19 209.22 347.57 210.67 345.20 209.99 C 341.96 209.38 341.88 203.18 338.14 204.54 C 333.75 217.12 328.23 229.29 323.75 241.84 C 314.83 247.26 303.79 249.99 293.46 247.72 C 290.45 244.96 286.93 242.83 283.99 240.00 C 275.67 232.36 270.18 221.77 268.67 210.59 C 267.91 204.87 267.62 198.84 269.95 193.43 C 274.00 199.73 281.18 203.26 288.56 203.62 C 288.93 205.42 288.94 207.40 290.01 208.99 C 293.60 210.86 297.78 209.69 301.37 208.48 C 305.83 206.63 301.32 200.34 304.98 197.93 C 307.32 196.06 309.38 193.88 311.25 191.55 C 312.38 193.03 313.54 194.50 314.93 195.76 C 316.00 194.15 317.06 192.54 318.12 190.92 C 314.81 188.76 312.73 184.91 308.74 183.83 C 308.31 185.23 307.91 186.64 307.52 188.06 C 308.08 188.41 309.20 189.12 309.77 189.48 C 304.73 196.84 296.13 202.21 286.98 201.31 C 280.93 200.73 274.13 197.90 271.78 191.86 C 271.48 186.98 276.02 184.09 278.34 180.37 C 274.51 178.50 270.15 178.82 266.04 178.19 C 254.85 176.67 243.75 174.05 233.32 169.68 C 232.04 168.32 230.51 166.41 231.35 164.44 C 234.91 158.78 240.79 154.85 247.14 152.98 M 342.21 196.93 C 343.11 198.06 344.01 199.21 344.90 200.37 C 343.11 200.52 341.33 200.66 339.55 200.80 C 341.41 202.40 343.83 202.41 346.14 202.20 C 346.00 200.79 345.87 199.37 345.74 197.96 C 346.99 196.81 348.26 195.67 349.60 194.61 C 349.66 196.89 349.29 199.29 350.49 201.37 C 351.23 198.06 352.36 193.67 349.88 190.89 C 346.30 191.17 344.08 194.24 342.21 196.93 Z" />
<path fill="#ffffff" opacity="1.00" d=" M 207.09 185.07 C 214.04 173.71 222.02 163.02 228.97 151.65 C 230.25 153.67 231.51 155.71 232.77 157.74 C 230.26 160.59 226.64 164.23 228.60 168.35 C 230.74 173.55 236.98 174.12 241.19 176.73 C 244.83 186.45 245.06 196.92 245.97 207.13 C 242.96 207.68 240.08 208.83 237.98 211.13 C 235.89 209.99 233.57 208.82 231.16 209.79 C 226.24 211.86 222.93 216.96 222.25 222.17 C 216.16 223.10 210.07 224.06 203.99 225.04 C 203.87 219.78 203.52 213.93 199.78 209.84 C 199.02 209.77 197.51 209.65 196.76 209.59 C 198.52 214.92 200.83 220.26 200.22 226.03 C 196.67 226.49 193.12 226.96 189.57 227.40 C 190.95 222.83 192.42 218.28 193.84 213.73 C 177.43 208.43 161.09 202.90 144.62 197.79 C 142.04 202.92 139.87 208.25 138.13 213.72 C 151.33 220.57 165.87 223.94 179.88 228.61 C 170.50 230.07 161.08 231.20 151.67 232.49 C 144.74 232.99 140.41 239.85 138.81 245.99 C 137.28 254.16 144.43 261.16 151.85 262.79 C 167.56 260.61 183.22 258.04 198.91 255.78 C 198.50 260.20 199.19 265.34 196.03 268.94 C 195.05 270.49 192.87 271.84 193.50 273.94 C 195.01 277.74 198.66 280.06 201.10 283.22 C 201.75 287.45 201.34 291.80 200.93 296.04 C 200.72 297.33 200.83 298.85 199.67 299.74 C 195.17 304.22 189.15 306.65 183.55 309.44 C 159.22 319.91 131.29 318.98 106.16 311.92 C 101.73 293.34 100.35 273.95 102.21 254.93 C 104.06 238.87 107.60 222.70 115.38 208.41 C 121.16 198.26 128.54 189.04 137.21 181.22 C 146.70 176.36 155.81 170.32 166.22 167.43 C 171.38 166.11 177.07 166.51 181.73 169.23 C 190.64 173.75 196.48 182.12 203.15 189.23 C 204.67 188.05 206.14 186.77 207.09 185.07 Z" />
<path fill="#ffffff" opacity="1.00" d=" M 95.75 162.77 C 100.31 159.28 105.38 156.13 110.85 154.36 C 123.07 157.43 131.37 168.12 136.70 178.92 C 123.72 190.02 113.58 204.39 107.65 220.42 C 97.32 249.45 97.67 281.22 103.25 311.21 C 92.62 307.28 81.81 303.22 72.70 296.30 C 65.06 290.74 58.54 283.17 55.72 274.04 C 57.38 246.44 66.39 219.45 80.94 196.00 C 85.33 189.35 91.69 184.09 95.46 177.05 C 90.07 179.05 86.95 184.11 83.23 188.15 C 84.90 178.72 89.44 169.92 95.75 162.77 Z" />
<path fill="#ffffff" opacity="1.00" d=" M 342.29 154.38 C 343.98 154.41 342.96 156.79 341.78 156.83 C 340.11 156.83 341.13 154.40 342.29 154.38 Z" />
<path fill="#ffffff" opacity="1.00" d=" M 298.55 171.44 C 296.00 165.38 300.80 156.59 307.85 157.34 C 310.41 157.42 312.19 159.55 314.37 160.63 C 316.39 161.95 319.27 162.62 320.11 165.18 C 321.77 169.60 319.06 174.10 315.90 177.06 C 314.41 175.70 312.76 173.82 310.51 174.44 C 308.81 175.62 307.42 177.17 305.87 178.52 C 302.86 176.90 299.66 174.89 298.55 171.44 Z" />
<path fill="#ffffff" opacity="1.00" d=" M 245.99 177.75 C 254.22 180.35 262.81 181.32 271.35 182.32 C 265.41 190.43 262.73 200.77 264.45 210.72 C 262.39 209.50 260.15 207.48 257.58 208.36 C 255.36 208.76 253.77 210.45 252.03 211.71 C 248.76 207.79 250.15 202.55 249.64 197.92 C 248.82 191.13 247.50 184.41 245.99 177.75 Z" />
<path fill="#ffffff" opacity="1.00" d=" M 377.95 180.17 C 387.07 178.99 396.29 178.78 405.47 178.90 C 404.45 179.79 403.62 181.16 402.11 181.13 C 394.40 181.86 386.67 182.38 378.96 183.06 C 377.00 183.41 375.18 182.56 373.43 181.83 C 374.80 180.94 376.30 180.26 377.95 180.17 Z" />
<path fill="#ffffff" opacity="1.00" d=" M 42.32 183.16 C 47.21 183.66 51.93 181.34 56.81 182.16 C 59.94 182.85 61.31 185.99 62.32 188.68 C 64.36 194.60 63.74 200.98 62.71 207.02 C 64.16 209.95 65.25 213.04 66.76 215.94 C 62.74 224.08 60.20 232.81 57.46 241.43 C 57.01 243.88 54.48 244.72 52.60 245.87 C 51.55 237.20 50.94 228.50 50.07 219.82 C 49.57 215.18 49.55 210.45 48.24 205.94 C 50.56 206.24 52.90 206.45 55.24 206.16 C 54.93 203.96 52.77 203.41 51.04 202.67 C 52.35 199.58 54.54 196.24 53.06 192.80 C 52.61 192.86 51.71 192.97 51.25 193.03 C 48.90 196.45 47.90 200.82 44.55 203.54 C 40.90 207.46 34.41 208.22 30.07 205.02 C 28.00 203.21 27.44 200.35 27.28 197.72 C 31.02 196.41 35.52 195.38 37.52 191.56 C 38.95 188.66 40.59 185.89 42.32 183.16 Z" />
<path fill="#ffffff" opacity="1.00" d=" M 378.03 185.59 C 385.57 184.79 393.13 184.15 400.70 183.74 C 400.69 189.28 403.49 194.23 404.23 199.65 C 405.19 205.70 407.00 211.72 406.73 217.90 C 406.41 222.37 403.94 226.90 399.76 228.82 C 391.47 232.24 382.44 233.06 373.95 235.83 C 375.68 229.11 376.80 221.95 374.68 215.17 C 373.54 210.83 370.88 207.12 367.75 203.98 C 370.38 203.34 373.09 203.09 375.75 202.63 C 377.54 202.34 379.78 201.19 379.46 199.05 C 379.45 194.53 378.46 190.08 378.03 185.59 Z" />
<path fill="#ffffff" opacity="1.00" d=" M 8.89 195.87 C 11.95 192.83 16.36 192.18 20.44 191.66 C 20.72 193.73 21.05 195.79 21.40 197.85 C 18.60 198.13 15.77 198.51 13.17 199.64 C 16.56 201.39 20.35 200.56 23.92 200.06 C 24.96 203.70 27.00 206.93 29.80 209.47 C 25.62 214.57 18.52 216.68 12.18 215.09 C 9.34 214.12 5.89 213.02 4.82 209.86 C 3.72 204.95 4.82 199.15 8.89 195.87 Z" />
<path fill="#ffffff" opacity="1.00" d=" M 140.85 212.55 C 142.24 208.46 143.85 204.46 145.65 200.54 C 160.96 205.33 176.19 210.31 191.40 215.40 C 190.10 219.49 188.72 223.56 187.32 227.62 C 171.36 224.23 155.70 219.36 140.85 212.55 Z" />
<path fill="#ffffff" opacity="1.00" d=" M 291.07 203.67 C 294.50 203.11 297.81 202.05 301.14 201.06 C 301.10 202.77 301.86 204.93 300.18 206.13 C 297.82 208.00 294.46 207.30 291.65 207.61 C 291.45 206.29 291.26 204.98 291.07 203.67 Z" />
<path fill="#ffffff" opacity="1.00" d=" M 354.56 206.19 C 358.48 203.61 364.42 203.66 367.69 207.31 C 370.73 210.10 372.09 214.14 372.88 218.07 C 373.99 224.29 373.39 230.89 370.67 236.62 C 368.28 239.12 364.44 237.53 362.19 235.67 C 364.19 233.80 367.89 234.85 369.23 232.26 C 371.54 223.95 369.22 214.17 362.59 208.45 C 360.45 206.37 357.24 206.79 354.56 206.19 Z" />
<path fill="#ffffff" opacity="1.00" d=" M 68.38 208.02 C 70.02 206.71 71.28 209.44 69.72 210.37 C 68.19 211.74 66.89 208.86 68.38 208.02 Z" />
<path fill="#ffffff" opacity="1.00" d=" M 37.86 211.23 C 40.29 210.63 42.69 209.91 45.05 209.07 C 45.50 211.34 45.77 213.63 45.94 215.93 C 47.60 236.31 49.53 256.68 51.93 276.98 C 51.46 288.89 52.01 300.92 54.64 312.57 C 56.62 323.94 61.82 334.49 63.35 345.96 C 67.48 379.49 71.34 413.07 76.90 446.39 C 74.09 447.15 72.06 449.19 70.60 451.62 C 68.90 454.50 65.12 454.26 62.27 455.07 C 57.06 417.47 51.38 379.94 45.95 342.37 C 42.08 312.71 38.28 283.04 34.32 253.40 C 33.13 246.22 32.21 239.00 31.57 231.76 C 35.35 229.32 40.06 227.06 41.26 222.29 C 42.86 218.20 39.88 214.51 37.86 211.23 Z" />
<path fill="#ffffff" opacity="1.00" d=" M 348.55 213.51 C 350.76 213.17 352.32 211.46 353.86 210.00 C 356.41 210.52 359.09 210.40 361.59 211.20 C 366.02 216.43 367.43 223.77 365.59 230.34 C 358.79 231.20 352.05 233.01 345.22 233.33 C 342.76 229.33 340.03 225.38 335.84 223.01 C 337.13 218.89 338.54 214.81 340.07 210.77 C 342.57 212.36 345.44 214.12 348.55 213.51 Z" />
<path fill="#ffffff" opacity="1.00" d=" M 240.03 214.11 C 241.51 212.93 242.78 211.02 244.82 210.90 C 246.45 211.75 247.98 212.78 249.64 213.60 C 251.55 220.00 251.85 227.05 249.50 233.38 C 248.41 237.26 241.20 236.07 241.75 232.06 C 242.19 226.07 242.64 219.71 240.03 214.11 Z" />
<path fill="#ffffff" opacity="1.00" d=" M 9.97 218.02 C 18.29 220.12 28.28 218.73 33.68 211.43 C 35.68 214.33 38.94 217.64 37.46 221.48 C 35.21 225.91 30.37 228.25 25.97 230.03 C 20.67 231.67 13.36 232.26 9.63 227.32 C 7.38 224.52 8.59 220.89 9.97 218.02 Z" />
<path fill="#ffffff" opacity="1.00" d=" M 232.40 212.37 C 235.34 211.78 236.76 215.12 237.72 217.30 C 238.59 223.47 240.14 231.60 234.17 235.79 C 231.06 232.13 230.73 227.24 229.14 222.92 C 227.72 222.32 226.21 222.04 224.72 221.68 C 226.50 218.07 228.17 213.68 232.40 212.37 Z" />
<path fill="#ffffff" opacity="1.00" d=" M 256.56 212.61 C 258.29 211.84 260.66 211.20 262.08 212.93 C 263.17 215.81 263.15 218.99 263.48 222.03 C 263.66 226.20 263.32 231.27 259.71 234.00 C 257.79 235.12 255.73 233.77 254.27 232.55 C 253.74 231.00 254.53 229.37 254.63 227.79 C 255.37 223.57 253.98 219.38 254.05 215.16 C 254.58 214.07 255.43 213.10 256.56 212.61 Z" />
<path fill="#ffffff" opacity="1.00" d=" M 267.83 223.42 C 270.38 227.50 272.67 231.75 275.49 235.67 C 272.77 237.96 271.03 242.36 266.95 242.18 C 250.42 243.66 234.15 247.04 217.67 248.84 C 205.60 249.92 193.81 252.85 181.84 254.63 C 174.29 255.76 166.71 256.73 159.18 257.99 C 162.19 253.39 163.31 247.54 161.65 242.25 C 160.66 239.54 158.67 237.39 156.97 235.11 C 167.88 233.36 178.91 232.53 189.86 231.07 C 202.30 229.04 214.70 226.67 227.29 225.76 C 228.29 230.34 228.85 236.15 233.75 238.32 C 236.22 239.79 238.35 237.37 240.08 235.90 C 242.48 238.09 245.59 239.35 248.86 239.33 C 250.62 238.60 251.51 236.77 252.67 235.39 C 255.48 237.58 259.65 239.22 262.83 236.77 C 266.90 233.64 266.87 228.00 267.83 223.42 Z" />
<path fill="#ffffff" opacity="1.00" d=" M 332.91 226.41 C 337.24 227.42 340.12 231.21 341.97 235.02 C 346.68 244.40 343.07 256.60 335.10 262.96 C 330.17 257.58 323.27 254.65 316.10 253.90 C 323.04 247.82 333.38 244.88 337.25 235.85 C 337.44 232.10 334.68 229.38 332.91 226.41 Z" />
<path fill="#ffffff" opacity="1.00" d=" M 16.91 234.66 C 20.54 234.81 24.16 234.39 27.69 233.52 C 28.15 236.74 28.66 239.95 29.11 243.17 C 27.46 243.15 25.81 243.04 24.16 243.15 C 19.25 246.44 15.14 251.59 8.86 252.21 C 8.34 245.25 14.08 240.44 16.91 234.66 Z" />
<path fill="#ffffff" opacity="1.00" d=" M 151.43 236.34 C 153.66 235.29 155.88 237.18 157.24 238.79 C 160.72 243.73 160.82 250.74 157.95 255.97 C 154.67 260.67 146.64 259.94 144.44 254.59 C 140.66 248.04 144.88 239.15 151.43 236.34 M 150.34 240.09 C 146.01 242.98 145.22 249.67 148.13 253.83 C 149.24 255.60 151.87 255.48 153.53 254.66 C 156.50 251.70 157.26 246.92 156.06 243.00 C 154.98 241.17 152.46 239.09 150.34 240.09 Z" />
<path fill="#ffffff" opacity="1.00" d=" M 264.69 254.01 C 267.22 247.44 272.48 242.60 277.18 237.57 C 280.70 241.37 284.49 244.92 288.65 248.01 C 288.30 249.69 287.95 251.38 287.61 253.07 C 280.35 249.34 272.10 252.39 264.69 254.01 Z" />
<path fill="#ffffff" opacity="1.00" d=" M 234.88 250.50 C 245.38 248.85 255.89 247.22 266.42 245.75 C 264.33 249.00 262.63 252.47 261.36 256.11 C 261.90 256.97 262.45 257.84 263.01 258.70 C 259.32 260.75 255.65 262.81 251.84 264.63 C 250.49 261.79 249.68 257.52 245.81 257.29 C 241.33 256.76 237.43 254.15 234.88 250.50 Z" />
<path fill="#ffffff" opacity="1.00" d=" M 289.91 249.33 C 299.61 252.54 310.00 250.23 319.37 247.01 C 314.24 250.25 310.23 255.90 303.89 256.74 C 298.93 256.46 293.76 256.29 289.16 254.19 C 289.40 252.57 289.65 250.95 289.91 249.33 Z" />
<path fill="#ffffff" opacity="1.00" d=" M 347.92 246.29 C 359.85 255.44 366.29 270.04 368.62 284.59 C 370.92 296.42 370.59 308.53 371.71 320.46 C 375.13 327.70 377.50 335.46 377.82 343.50 C 375.28 346.55 372.39 349.26 369.73 352.18 C 369.07 355.20 371.84 356.23 374.29 356.43 C 374.45 360.09 374.71 363.76 374.92 367.43 C 365.33 367.99 355.73 368.15 346.13 367.92 C 346.29 364.31 346.47 360.70 346.59 357.10 C 348.56 356.77 350.54 356.42 352.50 355.99 C 351.96 354.44 350.73 353.35 349.04 353.52 C 346.46 353.21 343.86 353.04 341.27 353.33 C 338.12 344.40 338.38 334.52 342.08 325.80 C 339.80 314.39 338.44 302.53 333.90 291.73 C 333.49 292.03 332.68 292.64 332.27 292.95 C 332.70 296.54 333.73 300.03 334.17 303.62 C 330.67 301.43 329.36 297.31 326.77 294.29 C 324.82 293.18 325.05 295.70 324.58 296.90 C 315.38 295.40 306.22 293.68 297.03 292.20 C 295.90 296.46 294.79 300.72 293.94 305.05 C 298.38 306.57 303.04 307.23 307.63 308.18 C 314.36 309.49 321.10 310.93 327.98 311.18 C 329.67 309.46 329.61 306.74 330.32 304.55 C 331.86 305.47 333.40 306.40 334.95 307.32 C 336.09 312.54 337.20 317.77 338.28 323.01 C 338.78 324.62 338.09 326.22 337.64 327.75 C 335.20 335.02 335.18 342.89 336.49 350.38 C 327.41 356.53 316.68 360.02 305.78 360.92 C 294.77 362.44 283.60 361.80 272.61 360.49 C 271.81 330.95 281.13 301.67 296.82 276.82 C 299.93 271.43 302.22 265.20 307.44 261.41 C 312.31 257.36 319.74 256.42 325.24 259.75 C 328.98 261.66 331.70 264.96 335.14 267.29 C 337.81 267.36 339.59 265.00 341.10 263.12 C 344.83 258.24 347.67 252.53 347.92 246.29 M 354.85 342.64 C 356.80 347.36 360.95 350.58 365.19 353.15 C 365.95 353.18 367.48 353.24 368.25 353.26 C 366.59 350.71 363.74 349.45 361.58 347.41 C 359.51 345.59 357.78 343.09 354.85 342.64 Z" />
<path fill="#ffffff" opacity="1.00" d=" M 148.22 249.87 C 150.34 249.29 152.48 248.77 154.64 248.38 C 153.85 250.25 153.32 252.79 151.05 253.38 C 149.35 253.17 149.11 251.01 148.22 249.87 Z" />
<path fill="#ffffff" opacity="1.00" d=" M 202.80 255.04 C 211.39 252.88 220.22 251.98 228.99 250.94 C 230.49 250.46 231.20 252.15 232.04 253.01 C 234.87 256.84 239.25 259.13 243.75 260.40 C 246.00 260.78 247.13 263.01 247.74 264.98 C 247.19 267.37 244.31 268.11 242.58 269.48 C 243.19 271.69 244.26 273.75 244.89 275.96 C 244.63 277.89 243.14 279.56 241.75 280.85 C 238.06 281.48 234.33 280.37 230.62 280.95 C 231.82 285.07 236.43 284.34 239.79 284.58 C 239.86 289.63 240.04 294.68 240.47 299.71 C 237.66 299.93 234.85 300.53 232.03 300.12 C 222.87 299.03 213.76 300.80 204.69 301.88 C 204.95 296.23 205.36 290.60 205.64 284.96 C 209.64 283.62 214.21 284.65 217.88 282.31 C 213.98 280.10 209.56 281.27 205.40 281.49 C 202.03 280.01 200.05 276.75 197.69 274.10 C 202.85 269.19 202.99 261.66 202.80 255.04 Z" />
<path fill="#ffffff" opacity="1.00" d=" M 279.53 255.46 C 281.40 253.44 284.96 254.67 285.93 257.02 C 288.70 264.24 290.09 271.94 293.17 279.05 C 278.80 303.40 269.94 331.26 270.18 359.70 C 261.74 357.47 252.98 354.35 247.36 347.28 C 247.81 322.63 258.17 299.58 270.90 278.95 C 273.54 275.47 273.31 270.99 274.08 266.91 C 274.74 262.68 276.64 258.63 279.53 255.46 Z" />
<path fill="#ffffff" opacity="1.00" d=" M 269.13 257.07 C 270.76 255.81 272.83 255.47 274.75 254.88 C 272.20 260.26 269.27 265.88 269.87 272.04 C 270.31 274.48 268.38 276.30 267.25 278.22 C 261.95 285.93 258.41 294.63 253.85 302.76 C 251.42 295.79 249.32 288.61 248.78 281.23 C 251.84 277.92 256.25 276.44 259.66 273.62 C 259.86 273.19 260.24 272.34 260.44 271.92 C 257.00 272.97 254.00 274.97 250.85 276.65 C 249.01 275.77 248.50 273.39 247.33 271.83 C 249.99 269.66 252.24 266.94 255.33 265.35 C 260.02 262.74 264.81 260.29 269.13 257.07 Z" />
<path fill="#ffffff" opacity="1.00" d=" M 289.18 257.03 C 294.37 258.56 299.80 258.63 305.17 258.71 C 301.04 263.18 297.01 267.81 294.62 273.49 C 292.98 267.94 291.24 262.43 289.18 257.03 Z" />
<path fill="#ffffff" opacity="1.00" d=" M 55.35 278.74 C 60.74 289.47 69.88 297.91 80.34 303.63 C 87.67 307.93 95.81 310.47 103.76 313.33 C 105.17 317.81 106.54 322.29 107.85 326.80 C 90.54 321.63 73.55 314.19 59.95 302.05 C 52.19 296.78 56.36 286.44 55.35 278.74 Z" />
<path fill="#ffffff" opacity="1.00" d=" M 244.36 284.45 C 247.19 291.84 247.17 300.64 252.59 306.84 C 249.82 313.47 247.95 320.41 245.96 327.30 C 244.34 319.20 243.48 310.75 239.37 303.40 C 241.05 303.76 242.75 304.10 244.45 304.42 C 244.96 297.76 243.04 291.09 244.36 284.45 Z" />
<path fill="#ffffff" opacity="1.00" d=" M 298.58 294.90 C 307.59 296.36 316.63 297.68 325.61 299.31 C 329.19 301.06 327.52 305.55 327.18 308.57 C 316.82 308.21 306.78 305.43 296.63 303.58 C 297.22 300.67 297.95 297.80 298.58 294.90 Z" />
<path fill="#ffffff" opacity="1.00" d=" M 56.23 300.45 C 62.11 306.47 68.64 311.87 75.93 316.08 C 81.30 319.37 87.22 321.55 92.94 324.12 C 98.17 326.42 103.95 327.34 109.10 329.78 C 116.72 347.69 124.64 366.09 138.30 380.35 C 125.44 379.92 112.04 377.27 101.51 369.48 C 98.30 367.43 97.41 362.03 92.82 362.61 C 93.25 366.64 96.39 369.32 99.47 371.53 C 110.35 379.88 124.24 382.33 137.49 384.08 C 131.19 388.38 123.09 390.38 115.62 388.37 C 114.18 387.98 112.71 387.75 111.23 387.66 C 112.34 390.84 116.00 391.54 118.96 391.57 C 125.19 391.87 131.26 389.99 136.83 387.37 C 138.09 390.19 140.96 392.59 140.45 395.94 C 139.74 411.94 139.33 427.96 138.95 443.98 C 138.37 446.97 136.43 449.56 135.84 452.59 C 122.72 446.47 107.78 442.49 93.36 446.06 C 95.17 437.80 100.09 430.82 104.49 423.76 C 101.19 413.39 97.56 403.13 94.26 392.76 C 93.36 389.98 94.90 387.22 94.72 384.45 C 93.04 382.11 90.92 380.14 89.06 377.96 C 77.81 364.74 69.80 349.03 64.13 332.70 C 60.81 322.14 56.59 311.66 56.23 300.45 M 106.36 421.61 C 105.92 423.79 108.40 424.31 109.71 425.34 C 115.79 429.27 119.55 435.71 122.15 442.30 C 122.72 442.33 123.84 442.39 124.41 442.42 C 121.46 433.53 115.23 425.21 106.36 421.61 Z" />
<path fill="#ffffff" opacity="1.00" d=" M 205.73 305.59 C 215.27 303.28 225.16 303.07 234.93 303.54 C 241.33 315.52 242.46 329.63 241.10 342.95 C 240.37 346.09 239.21 349.42 236.64 351.53 C 234.69 353.20 231.98 353.26 229.56 353.60 C 231.30 351.26 233.74 348.95 232.90 345.73 C 226.41 350.41 221.47 357.11 214.21 360.77 C 216.28 355.32 217.60 349.66 218.21 343.86 C 217.12 343.40 215.10 341.81 214.95 344.05 C 213.56 349.51 212.75 355.20 210.31 360.32 C 208.53 364.09 205.32 366.92 201.69 368.86 C 200.70 367.42 200.16 365.75 200.45 364.01 C 200.89 353.23 203.00 342.61 203.47 331.83 C 202.92 331.37 201.80 330.44 201.25 329.98 C 200.31 332.46 199.83 335.08 198.85 337.55 C 196.05 337.63 193.18 338.06 190.41 337.45 C 187.98 336.84 186.69 334.54 185.71 332.45 C 188.29 330.68 191.30 329.66 193.84 327.85 C 197.99 322.10 197.45 314.59 200.20 308.27 C 201.29 306.28 203.77 306.12 205.73 305.59 Z" />
<path fill="#ffffff" opacity="1.00" d=" M 170.14 316.10 C 178.38 314.07 186.23 310.74 193.71 306.76 C 193.26 310.77 193.04 314.79 192.69 318.80 C 168.65 333.92 138.04 335.09 111.17 327.80 C 108.75 323.75 107.87 318.92 106.55 314.42 C 127.26 319.48 149.26 321.30 170.14 316.10 Z" />
<path fill="#ffffff" opacity="1.00" d=" M 175.24 329.35 C 181.23 327.51 186.74 324.57 192.26 321.67 C 191.71 323.45 191.83 326.10 189.62 326.72 C 187.11 328.10 182.74 328.45 182.57 332.04 C 181.99 336.52 185.82 339.97 189.72 341.24 C 192.82 342.19 196.02 341.01 199.10 340.57 C 198.27 349.05 196.27 357.49 196.86 366.05 C 196.67 369.63 200.78 371.92 203.98 371.51 C 206.48 371.37 208.10 369.23 209.95 367.84 C 207.49 378.59 205.74 390.00 199.28 399.24 C 198.17 400.97 195.48 402.32 196.37 404.72 C 198.57 414.07 198.86 423.69 199.63 433.22 C 184.36 430.44 167.23 432.19 154.77 442.16 C 160.14 441.64 164.20 437.56 169.41 436.52 C 179.68 434.02 190.75 432.86 200.98 436.09 C 205.19 437.11 208.20 441.56 207.61 445.85 C 196.04 440.42 182.58 440.87 170.66 444.91 C 162.21 447.50 154.48 451.84 146.55 455.65 C 144.12 457.24 142.01 454.66 140.07 453.51 C 140.63 449.50 143.79 446.25 143.32 442.07 C 143.42 427.42 144.10 412.77 144.31 398.12 C 145.67 398.77 147.04 399.39 148.45 399.94 C 147.68 394.06 139.46 390.83 141.76 384.10 C 154.75 383.42 167.03 378.55 178.28 372.29 C 181.09 370.47 184.47 368.42 184.58 364.66 C 182.73 365.33 180.95 366.18 179.29 367.24 C 171.16 372.55 161.99 375.99 152.76 378.87 C 149.30 380.06 145.60 380.06 142.00 380.39 C 127.61 366.85 119.05 348.58 111.75 330.54 C 132.59 335.05 154.72 335.74 175.24 329.35 M 188.63 405.69 C 184.87 408.47 181.09 412.37 181.25 417.40 C 183.81 416.52 183.67 413.20 185.33 411.38 C 187.23 407.93 191.36 406.83 193.62 403.78 C 191.80 403.93 190.05 404.53 188.63 405.69 Z" />
<path fill="#ffffff" opacity="1.00" d=" M 237.55 355.66 C 240.46 354.86 241.94 352.00 243.67 349.78 C 243.62 370.84 252.20 391.33 265.77 407.23 C 267.16 408.91 269.08 410.54 268.60 412.97 C 268.23 423.65 270.39 434.19 270.99 444.81 C 269.47 447.40 267.24 449.50 265.68 452.08 C 260.67 452.32 255.12 453.86 252.93 458.87 C 246.98 458.34 242.61 463.20 237.03 464.08 C 235.29 464.50 234.16 462.95 232.96 462.02 C 228.28 457.66 221.92 455.21 218.21 449.81 C 216.63 446.82 211.62 447.11 211.51 443.26 C 210.66 438.84 207.06 435.86 204.21 432.68 C 202.96 426.86 203.34 420.78 202.14 414.94 C 201.73 411.36 200.43 407.79 200.66 404.19 C 210.69 393.66 211.21 378.47 215.05 365.23 C 218.74 362.42 222.75 359.98 226.02 356.62 C 229.87 356.63 233.86 357.02 237.55 355.66 Z" />
<path fill="#ffffff" opacity="1.00" d=" M 247.43 351.18 C 254.25 356.43 262.19 359.94 270.47 362.15 C 270.57 365.27 270.83 368.37 271.12 371.49 C 262.87 369.00 253.81 366.61 247.92 359.89 C 247.57 357.00 247.56 354.08 247.43 351.18 Z" />
<path fill="#ffffff" opacity="1.00" d=" M 67.95 352.66 C 74.18 364.22 81.70 375.07 90.40 384.92 C 90.22 388.14 88.84 391.51 90.11 394.66 C 93.32 403.71 96.57 412.75 99.71 421.82 C 95.14 430.24 90.09 438.63 88.45 448.22 C 86.00 447.92 83.63 447.21 81.26 446.56 C 77.10 425.55 74.43 404.29 72.02 383.02 C 70.94 372.86 69.15 362.80 67.95 352.66 Z" />
<path fill="#ffffff" opacity="1.00" d=" M 272.39 362.64 C 294.21 364.94 317.76 364.62 337.15 353.03 C 338.08 354.48 339.05 355.91 340.05 357.32 C 328.17 368.94 311.03 372.68 294.94 373.26 C 287.80 373.95 280.56 373.70 273.57 371.99 C 273.19 368.87 272.78 365.75 272.39 362.64 Z" />
<path fill="#ffffff" opacity="1.00" d=" M 333.02 366.02 C 336.55 363.90 339.40 360.85 342.68 358.38 C 342.68 362.23 342.58 366.07 342.55 369.92 C 340.18 370.47 337.36 370.65 335.81 372.81 C 333.56 376.75 331.82 381.12 332.33 385.75 C 324.91 386.46 317.33 387.00 310.20 389.26 C 306.29 392.39 308.08 398.17 307.47 402.52 C 302.03 402.75 296.55 402.39 291.15 403.15 C 289.78 403.25 288.89 404.43 287.82 405.14 C 280.16 396.57 276.47 385.42 273.82 374.45 C 293.82 378.16 314.70 374.52 333.02 366.02 Z" />
<path fill="#ffffff" opacity="1.00" d=" M 248.94 364.63 C 255.82 369.29 263.90 371.43 271.72 373.95 C 274.73 386.78 279.48 399.58 288.38 409.54 C 288.78 422.60 288.39 435.72 289.15 448.78 C 290.86 451.11 293.88 451.74 296.34 452.99 C 294.61 456.12 293.13 459.45 293.09 463.09 C 289.55 460.61 285.65 458.58 281.41 457.65 C 277.39 456.49 272.88 456.85 269.37 454.25 C 271.06 451.66 273.16 449.37 274.90 446.82 C 275.16 435.47 272.27 424.32 272.46 412.97 C 273.06 409.50 270.03 407.30 268.19 404.83 C 258.58 393.33 251.01 379.64 248.94 364.63 Z" />
<path fill="#ffffff" opacity="1.00" d=" M 338.26 374.30 C 339.05 372.89 340.78 372.72 342.23 372.65 C 351.92 372.17 361.62 371.93 371.32 371.72 C 374.97 380.71 376.06 390.95 373.28 400.32 C 371.76 404.01 367.27 404.74 363.74 404.24 C 365.60 401.96 368.13 399.91 368.29 396.73 C 363.39 397.81 361.31 403.42 356.52 405.02 C 356.98 400.23 357.88 395.24 356.03 390.61 C 353.24 395.76 354.95 402.50 351.34 407.27 C 348.68 408.78 344.43 408.15 342.46 405.62 C 341.59 399.24 341.51 392.76 340.55 386.38 C 338.73 385.93 336.91 385.55 335.08 385.22 C 336.16 381.58 336.17 377.55 338.26 374.30 Z" />
<path fill="#ffffff" opacity="1.00" d=" M 378.98 385.94 C 387.96 385.54 397.21 384.61 405.97 387.20 C 408.14 392.30 406.36 397.93 405.89 403.21 C 405.22 403.20 403.87 403.18 403.20 403.18 C 402.83 398.71 406.35 392.31 401.48 389.39 C 394.25 386.99 386.50 388.54 379.08 389.00 C 379.05 388.23 379.01 386.70 378.98 385.94 Z" />
<path fill="#ffffff" opacity="1.00" d=" M 318.10 390.96 C 324.82 389.88 331.60 389.27 338.36 388.52 C 338.45 389.71 338.55 390.91 338.65 392.10 C 332.78 392.66 326.89 393.02 321.00 393.25 C 318.85 393.14 315.98 394.51 316.33 397.04 C 316.20 406.65 316.28 416.27 315.85 425.89 C 315.81 427.12 315.24 428.08 314.14 428.77 C 314.42 418.16 314.32 407.54 313.97 396.93 C 313.68 394.34 315.32 391.26 318.10 390.96 Z" />
<path fill="#ffffff" opacity="1.00" d=" M 311.36 393.29 C 311.67 392.90 312.29 392.14 312.60 391.76 C 311.39 402.42 313.12 413.24 312.22 423.94 C 312.07 425.23 311.73 426.48 311.18 427.67 C 310.49 416.24 311.34 404.74 311.36 393.29 Z" />
<path fill="#ffffff" opacity="1.00" d=" M 379.07 393.06 C 384.55 393.49 390.07 391.15 395.46 392.49 C 395.78 395.73 395.46 398.98 395.08 402.20 C 389.18 401.98 383.28 401.62 377.39 401.37 C 378.09 398.63 378.64 395.85 379.07 393.06 Z" />
<path fill="#ffffff" opacity="1.00" d=" M 397.71 392.59 C 398.27 392.55 399.39 392.47 399.95 392.43 C 400.17 395.91 399.95 399.40 399.61 402.88 C 399.07 402.90 397.99 402.96 397.45 402.98 C 397.54 399.51 397.66 396.05 397.71 392.59 Z" />
<path fill="#ffffff" opacity="1.00" d=" M 320.41 396.71 C 326.49 396.39 332.57 396.00 338.66 395.76 C 338.72 397.68 338.80 399.62 338.89 401.56 C 332.66 401.50 326.44 401.55 320.22 401.53 C 320.28 399.92 320.34 398.31 320.41 396.71 Z" />
<path fill="#ffffff" opacity="1.00" d=" M 295.87 405.31 C 299.66 404.76 303.49 404.68 307.32 404.60 C 307.36 405.21 307.44 406.41 307.49 407.01 C 303.62 406.43 299.75 405.81 295.87 405.31 Z" />
<path fill="#ffffff" opacity="1.00" d=" M 320.26 403.74 C 326.33 403.85 332.40 403.69 338.45 403.21 C 339.19 405.18 340.02 407.12 340.98 409.01 C 334.13 408.37 327.26 407.56 320.37 407.69 C 320.34 406.70 320.29 404.73 320.26 403.74 Z" />
<path fill="#ffffff" opacity="1.00" d=" M 371.97 406.90 C 373.97 405.80 375.45 403.25 377.97 403.56 C 385.45 404.13 393.04 404.13 400.42 405.54 C 390.94 406.04 381.44 406.09 371.97 406.90 Z" />
<path fill="#ffffff" opacity="1.00" d=" M 343.03 413.13 C 366.24 410.67 389.56 409.71 412.83 408.03 C 412.28 414.32 411.87 420.62 411.67 426.94 C 387.03 430.92 361.80 430.42 337.44 436.13 C 337.47 428.44 337.64 420.76 337.70 413.07 C 339.47 413.15 341.26 413.27 343.03 413.13 Z" />
<path fill="#ffffff" opacity="1.00" d=" M 292.58 408.18 C 297.44 409.70 302.54 410.00 307.57 410.65 C 308.18 415.44 306.74 420.16 306.98 424.94 C 307.07 427.45 308.92 429.29 310.59 430.94 C 304.72 429.34 298.72 428.30 292.79 426.94 C 292.42 420.69 292.38 414.43 292.58 408.18 Z" />
<path fill="#ffffff" opacity="1.00" d=" M 320.40 411.34 C 325.44 411.55 330.48 411.87 335.51 412.35 C 335.50 418.90 335.47 425.46 335.53 432.02 C 335.37 433.48 335.88 435.16 334.99 436.46 C 329.70 435.42 324.56 433.67 319.20 432.96 C 320.48 425.85 319.91 418.54 320.40 411.34 Z" />
<path fill="#ffffff" opacity="1.00" d=" M 292.80 429.37 C 307.02 432.60 321.25 435.76 335.43 439.14 C 335.49 446.21 335.45 453.28 335.80 460.34 C 327.05 458.30 318.54 455.34 309.76 453.36 C 303.99 452.11 298.61 449.63 293.05 447.71 C 292.93 441.60 292.84 435.48 292.80 429.37 Z" />
<path fill="#ffffff" opacity="1.00" d=" M 337.41 438.76 C 361.56 432.34 386.78 432.91 411.42 429.68 C 410.87 436.13 409.91 442.58 410.20 449.07 C 392.35 452.52 374.23 454.08 356.23 456.56 C 350.04 457.60 343.91 459.00 337.74 460.13 C 337.59 453.01 337.52 445.88 337.41 438.76 Z" />
<path fill="#ffffff" opacity="1.00" d=" M 144.85 460.64 C 154.46 456.04 163.78 450.59 174.11 447.70 C 171.45 450.54 169.65 454.23 170.56 458.21 C 172.69 458.77 175.27 459.79 177.22 458.22 C 183.20 454.37 188.86 449.46 196.07 448.15 C 192.86 450.45 188.43 452.59 188.13 457.06 C 187.34 460.29 190.68 463.31 193.80 461.94 C 200.11 459.26 205.86 452.59 213.36 454.82 C 220.60 455.67 225.93 461.03 231.35 465.37 C 222.21 469.26 213.03 473.20 204.86 478.93 C 193.54 479.09 182.28 477.31 171.23 474.92 C 164.37 473.44 157.12 472.72 150.97 469.06 C 147.93 467.25 144.79 464.48 144.85 460.64 Z" />
<path fill="#ffffff" opacity="1.00" d=" M 108.22 448.41 C 117.40 448.11 126.11 451.59 134.06 455.86 C 136.23 457.17 138.75 457.46 141.18 457.95 C 141.02 461.93 142.10 465.78 144.53 468.96 C 132.87 473.48 120.23 473.65 108.02 475.64 C 94.02 476.43 79.99 476.75 65.98 477.36 C 57.88 477.55 49.58 478.36 41.66 476.30 C 39.84 476.08 38.96 474.36 37.92 473.09 C 49.66 462.85 65.03 457.95 79.99 454.67 C 86.61 456.03 89.45 465.56 97.11 463.89 C 98.75 458.64 94.76 454.21 91.16 450.99 C 92.58 450.65 94.10 449.73 95.55 450.54 C 100.21 453.18 103.17 458.14 108.10 460.38 C 111.04 461.56 114.10 459.12 113.99 456.09 C 112.97 452.96 110.42 450.71 108.22 448.41 Z" />
<path fill="#ffffff" opacity="1.00" d=" M 295.44 462.80 C 295.29 459.38 296.92 456.40 298.75 453.66 C 311.15 457.24 323.62 460.63 335.97 464.33 C 340.70 463.73 345.25 462.18 349.96 461.44 C 350.46 463.53 350.88 465.65 351.18 467.79 C 337.73 470.83 325.44 461.31 312.03 462.91 C 306.49 463.45 300.97 462.09 295.44 462.80 Z" />
<path fill="#ffffff" opacity="1.00" d=" M 255.65 458.34 C 257.93 455.53 261.57 454.81 265.02 455.16 C 264.17 459.66 258.88 457.87 255.65 458.34 Z" />
<path fill="#ffffff" opacity="1.00" d=" M 268.72 461.06 C 272.33 458.52 277.22 461.21 277.36 465.55 C 273.92 465.35 271.21 463.21 268.72 461.06 Z" />
<path fill="#ffffff" opacity="1.00" d=" M 277.93 460.25 C 282.69 461.50 287.55 462.84 291.45 466.00 C 289.15 467.03 286.63 466.96 284.18 467.27 C 280.62 467.78 278.50 471.26 275.04 472.03 C 267.89 474.00 260.84 476.44 254.56 480.44 C 238.99 482.94 223.14 481.92 207.46 481.33 C 215.55 475.92 224.41 471.90 233.35 468.15 C 234.60 468.75 235.84 469.35 237.10 469.94 C 237.58 468.82 238.05 467.71 238.53 466.61 C 241.70 466.09 244.79 465.11 247.98 464.76 C 253.44 465.40 256.56 471.13 261.94 471.94 C 264.23 472.15 265.71 470.04 267.29 468.75 C 266.58 466.00 264.93 463.66 263.42 461.31 C 267.33 462.42 270.19 465.45 273.71 467.29 C 275.35 468.08 277.77 468.44 278.99 466.75 C 279.84 464.54 278.51 462.34 277.93 460.25 Z" />
<path fill="#ffffff" opacity="1.00" d=" M 251.32 463.14 C 254.86 462.61 259.46 460.64 262.35 463.73 C 263.88 464.95 264.28 466.96 264.97 468.70 C 259.56 470.74 255.67 465.33 251.32 463.14 Z" />
<path fill="#ffffff" opacity="1.00" d=" M 296.55 465.03 C 297.31 464.06 299.81 464.79 298.63 466.13 C 297.90 467.18 295.43 466.30 296.55 465.03 Z" />
<path fill="#ffffff" opacity="1.00" d=" M 302.56 468.69 C 305.43 467.65 308.59 466.27 311.65 467.30 C 313.93 468.01 314.43 470.58 315.21 472.52 C 310.55 475.04 306.31 470.99 302.56 468.69 Z" />
<path fill="#ffffff" opacity="1.00" d=" M 314.35 466.54 C 325.33 465.87 335.17 472.19 346.02 472.54 C 348.62 472.73 351.56 471.55 353.90 473.12 C 355.91 474.77 356.75 477.42 357.35 479.87 C 355.60 483.29 351.47 483.20 348.23 483.98 C 323.26 489.69 297.49 490.41 271.98 490.12 C 265.83 489.41 259.24 489.42 253.86 485.96 C 263.59 478.61 275.58 473.66 287.90 473.97 C 292.23 475.27 294.90 479.53 299.25 480.76 C 301.37 481.34 303.49 480.17 304.90 478.65 C 305.60 476.06 303.77 473.89 302.76 471.70 C 306.62 473.75 311.37 477.73 315.79 474.74 C 318.95 472.54 315.77 468.79 314.35 466.54 Z" />
<path fill="#ffffff" opacity="1.00" d=" M 289.56 472.07 C 291.93 471.42 294.35 470.28 296.86 470.72 C 299.95 472.13 302.88 474.51 303.32 478.10 C 297.74 479.30 293.97 474.45 289.56 472.07 Z" />
<path fill="#ffffff" opacity="1.00" d=" M 131.74 476.51 C 137.42 475.99 142.82 474.17 148.18 472.35 C 151.61 473.18 154.75 474.93 158.16 475.87 C 167.48 478.42 177.05 479.85 186.53 481.67 C 192.45 482.53 198.43 482.83 204.34 483.80 C 204.27 484.78 204.12 486.75 204.05 487.73 C 186.94 486.17 170.16 482.37 153.41 478.70 C 149.53 477.68 145.56 478.74 141.76 479.57 C 136.92 480.74 131.93 480.93 126.99 481.45 C 108.07 483.34 89.04 484.42 70.02 484.35 C 61.24 483.86 52.27 484.65 43.69 482.32 C 42.05 481.92 40.69 480.90 39.41 479.85 C 51.78 482.62 64.51 481.36 77.05 481.00 C 95.32 480.03 113.65 479.45 131.74 476.51 Z" />
<path fill="#ffffff" opacity="1.00" d=" M 206.36 485.35 C 218.86 485.68 231.37 485.81 243.87 485.58 C 246.24 485.62 248.56 484.42 250.92 484.89 C 251.52 486.51 252.05 488.18 252.73 489.80 C 237.29 491.70 221.76 490.33 206.32 489.16 C 206.33 487.88 206.35 486.61 206.36 485.35 Z" />
<path fill="#ffffff" opacity="1.00" d=" M 339.26 490.08 C 345.52 488.85 351.88 487.94 357.87 485.61 C 357.89 486.45 357.91 488.12 357.93 488.96 C 351.39 492.24 344.17 493.71 336.99 494.82 C 328.34 495.90 319.72 497.45 310.97 497.41 C 292.30 497.83 273.14 499.03 254.95 493.95 C 254.90 493.23 254.81 491.80 254.76 491.08 C 276.86 496.15 299.64 493.87 321.99 492.15 C 327.75 491.58 333.62 491.57 339.26 490.08 Z" />
</g>
</svg>
