<?xml version="1.0" encoding="UTF-8" ?>
<!DOCTYPE svg PUBLIC "-//W3C//DTD SVG 1.1//EN" "http://www.w3.org/Graphics/SVG/1.1/DTD/svg11.dtd">
<svg width="628pt" height="301pt" viewBox="0 0 628 301" version="1.1" xmlns="http://www.w3.org/2000/svg">
<g id="#000000ff">
<path fill="#000000" opacity="1.00" d=" M 88.37 0.00 L 94.50 0.00 C 97.72 1.36 101.08 2.88 103.24 5.76 C 105.87 8.58 107.66 12.43 111.12 14.33 C 120.48 15.75 128.03 8.14 137.11 7.38 C 141.72 6.88 148.00 6.94 150.48 11.65 C 152.14 14.99 148.71 17.63 146.96 20.05 C 149.41 23.60 151.97 27.49 151.76 32.00 C 151.77 39.97 145.27 46.52 137.91 48.59 C 138.41 50.16 138.48 52.01 139.70 53.24 C 145.67 58.29 154.69 57.16 160.41 62.59 C 162.57 64.43 164.60 66.95 164.31 69.97 C 164.31 74.23 160.95 77.58 157.39 79.42 C 153.88 81.13 150.14 82.29 146.57 83.87 C 146.45 88.08 146.41 92.28 146.65 96.49 C 153.58 95.32 158.65 90.10 165.28 88.23 C 165.64 75.15 166.57 62.10 166.62 49.01 C 166.82 41.82 166.43 34.61 167.30 27.45 C 175.52 26.52 183.80 26.38 192.05 25.83 C 221.02 24.25 249.95 21.57 278.98 21.09 C 321.95 19.66 364.97 19.31 407.94 20.96 C 425.02 21.29 442.02 22.99 459.07 24.00 C 463.63 24.13 467.63 26.49 471.69 28.28 C 481.43 32.78 491.31 37.03 500.69 42.27 C 500.77 59.53 500.81 76.80 501.20 94.06 C 501.38 95.24 501.04 97.01 502.45 97.58 C 507.43 100.14 512.66 102.19 517.83 104.33 C 519.20 100.44 521.11 96.62 521.47 92.46 C 516.60 89.50 509.68 90.01 506.09 84.99 C 503.26 79.56 504.97 71.54 510.94 68.97 C 515.54 67.33 520.61 68.42 525.28 67.07 C 529.01 65.66 531.50 62.33 533.92 59.33 C 528.82 57.57 523.17 55.13 521.12 49.68 C 519.25 43.74 522.53 37.70 526.90 33.80 C 526.07 30.29 524.44 26.21 527.03 23.01 C 529.72 18.56 535.78 19.78 539.94 21.06 C 546.65 22.91 551.72 28.07 558.00 30.73 C 562.33 30.24 564.31 25.73 566.74 22.70 C 570.53 17.07 577.05 12.90 584.04 13.65 C 589.33 13.85 592.81 18.46 595.52 22.46 C 598.00 26.02 598.81 30.81 602.46 33.47 C 608.18 37.30 615.73 35.89 621.59 39.38 C 625.38 41.74 627.10 46.17 628.00 50.35 L 628.00 53.59 C 627.07 61.77 620.91 67.52 615.19 72.76 C 616.31 75.11 617.69 77.42 618.05 80.04 C 618.26 82.93 617.19 85.69 616.46 88.44 C 619.10 91.06 622.95 94.40 621.54 98.55 C 619.88 103.75 614.22 105.38 609.77 107.39 C 609.32 110.45 608.94 113.66 607.28 116.34 C 605.47 119.25 602.78 121.45 600.32 123.78 C 604.57 128.84 608.46 135.02 607.92 141.91 C 607.03 148.03 605.74 154.34 606.72 160.51 C 609.73 167.82 610.54 175.72 611.14 183.54 C 613.40 185.15 616.08 186.98 616.08 190.10 C 616.92 193.61 613.41 195.58 611.14 197.46 C 611.50 203.95 612.09 210.91 608.85 216.84 C 605.58 223.01 599.80 227.21 594.68 231.73 C 599.77 239.22 603.54 248.47 601.54 257.63 C 599.84 263.61 593.76 266.41 588.40 268.35 C 588.53 271.91 591.78 273.75 594.11 275.92 C 597.40 279.06 602.76 278.68 605.71 282.31 C 607.07 283.66 607.26 286.37 605.52 287.49 C 601.12 290.23 595.88 291.20 590.81 291.86 C 585.08 292.40 579.30 293.12 573.56 292.38 C 569.16 291.25 567.91 297.24 563.93 297.90 C 555.26 299.90 546.27 300.32 537.41 301.00 L 518.81 301.00 C 510.70 299.16 502.08 299.14 494.46 295.50 C 491.92 294.33 489.79 291.85 489.72 288.96 C 489.87 286.86 490.83 284.94 491.57 283.00 C 485.72 282.61 478.87 283.92 473.98 279.94 C 470.98 277.92 473.06 273.97 475.23 272.17 C 481.06 267.72 488.64 267.18 495.53 265.53 C 499.44 261.80 502.47 257.08 507.22 254.27 C 513.08 250.14 520.27 248.73 527.32 248.58 C 527.65 241.22 532.70 235.60 536.85 230.00 C 535.28 227.46 532.60 224.56 534.13 221.39 C 535.74 218.66 539.15 218.04 541.82 216.78 C 543.15 211.53 545.40 206.59 548.15 201.95 C 546.72 199.96 545.00 198.11 544.15 195.78 C 543.92 193.86 544.77 192.04 545.19 190.21 C 546.17 187.47 544.35 184.82 543.75 182.21 C 540.89 182.18 538.00 182.36 535.18 181.82 C 531.71 181.03 529.07 178.51 526.44 176.29 C 522.82 178.85 521.03 182.96 519.56 186.99 C 521.06 189.79 522.71 192.51 524.17 195.34 C 517.10 195.69 510.01 197.23 502.97 195.78 C 473.36 193.83 443.65 193.72 413.99 194.35 C 364.99 195.06 316.00 196.65 267.00 197.33 C 255.00 197.50 242.99 197.15 231.02 197.96 C 222.96 198.39 214.91 198.87 206.85 199.12 C 204.75 190.62 205.58 181.69 203.97 173.09 C 197.70 178.44 191.58 184.03 186.39 190.46 C 185.43 191.38 184.59 192.80 183.13 192.90 C 178.08 190.12 174.39 185.39 169.21 182.79 C 166.18 181.23 162.69 180.86 159.70 179.23 C 156.39 177.44 153.34 175.22 150.04 173.42 C 149.89 177.49 150.98 181.67 149.96 185.67 C 148.01 189.69 141.80 188.56 139.12 185.87 C 134.43 180.09 136.03 171.30 130.42 166.01 C 127.84 167.81 125.23 169.96 121.95 170.21 C 119.63 170.78 116.64 169.85 114.97 171.99 C 112.48 174.98 109.02 177.88 108.57 181.95 C 109.78 186.95 111.34 191.86 112.10 196.97 C 115.49 198.71 118.78 200.77 121.08 203.89 C 119.65 205.66 118.20 207.44 116.71 209.17 C 118.48 215.31 120.62 221.46 120.87 227.91 C 121.11 231.90 120.71 235.89 120.55 239.87 C 129.92 244.70 140.98 247.67 147.69 256.37 C 149.87 258.86 149.86 262.31 150.86 265.31 C 152.21 267.75 155.34 269.64 154.82 272.78 C 154.50 275.26 151.88 276.19 149.84 276.86 C 141.54 279.34 132.78 278.52 124.25 278.70 C 125.21 280.77 125.99 282.92 126.83 285.05 C 116.69 292.39 103.59 289.39 91.96 290.89 C 76.33 292.76 60.59 291.69 44.99 290.06 C 39.26 289.31 32.41 290.08 27.96 285.68 C 26.75 282.59 29.11 279.49 29.97 276.56 C 22.43 275.61 14.47 275.77 7.46 272.49 C 5.42 272.01 4.88 268.93 6.50 267.69 C 10.94 263.58 17.42 264.16 23.00 263.48 C 22.16 259.73 22.38 255.27 19.63 252.30 C 15.56 251.89 11.28 253.37 7.39 251.59 C 4.12 250.29 2.05 247.31 0.00 244.61 L 0.00 239.40 C 2.10 234.05 7.04 230.93 11.07 227.21 C 12.49 224.51 11.82 221.05 13.35 218.30 C 16.95 211.65 23.44 206.83 30.64 204.71 C 37.89 202.25 46.51 200.57 50.99 193.70 C 52.63 189.61 50.00 185.34 48.40 181.63 C 43.31 172.18 42.18 160.37 46.46 150.41 C 48.00 146.54 51.20 143.78 53.67 140.55 C 53.71 132.87 53.77 125.08 55.60 117.55 C 56.77 113.57 59.39 110.27 62.06 107.18 C 59.92 104.84 57.60 102.50 56.46 99.47 C 55.13 96.26 55.48 92.73 55.65 89.35 C 51.38 88.32 46.08 87.55 43.88 83.20 C 42.10 78.68 43.58 73.37 47.05 70.08 C 49.28 68.37 48.51 65.43 48.77 63.00 C 48.77 59.36 50.63 56.14 52.43 53.11 C 49.24 48.50 45.94 43.60 45.29 37.89 C 44.66 32.67 46.13 26.77 50.53 23.53 C 57.01 18.71 66.32 20.86 72.52 15.54 C 77.78 10.34 81.04 2.79 88.37 0.00 M 85.97 4.92 C 80.96 8.63 78.28 14.60 73.60 18.64 C 67.94 22.57 60.44 21.43 54.42 24.50 C 50.51 26.48 48.54 30.83 48.00 35.00 C 47.50 41.21 50.65 47.05 54.85 51.41 C 57.61 50.41 60.51 49.93 63.43 49.74 C 64.35 45.29 67.19 41.51 70.61 38.63 C 74.36 35.52 79.64 35.16 84.21 36.27 C 87.43 29.65 94.56 25.00 102.05 26.11 C 106.91 26.06 111.22 29.26 115.72 29.85 C 120.59 24.13 126.29 18.15 134.04 16.84 C 137.61 16.05 141.02 18.36 144.56 17.68 C 146.28 16.43 148.56 13.53 146.57 11.63 C 143.89 10.57 140.97 10.13 138.11 10.42 C 129.29 11.36 121.91 17.51 113.02 18.06 C 107.09 17.73 104.56 11.67 101.36 7.62 C 98.19 2.65 90.66 1.43 85.97 4.92 M 576.31 18.33 C 570.44 22.15 567.38 28.84 561.93 33.11 C 558.31 35.16 554.28 32.90 551.42 30.60 C 547.38 27.31 542.70 24.90 537.80 23.20 C 535.04 22.29 531.52 22.06 529.41 24.40 C 527.77 26.43 528.38 29.15 528.52 31.53 C 532.01 31.95 535.55 31.06 539.00 31.96 C 546.52 33.18 552.38 38.57 557.01 44.27 C 561.62 43.19 566.46 43.02 571.10 44.03 C 576.45 45.31 580.67 49.42 583.29 54.12 C 587.05 53.76 590.88 53.70 594.58 54.57 C 600.05 56.54 603.48 61.93 604.63 67.42 C 607.43 68.36 610.14 69.54 612.77 70.91 C 617.93 66.55 623.23 61.39 624.34 54.40 C 625.35 50.35 624.34 45.71 621.05 42.97 C 614.80 38.03 605.50 40.84 599.43 35.55 C 594.90 30.80 593.70 23.70 588.71 19.29 C 585.39 16.22 580.06 15.88 576.31 18.33 M 246.00 25.00 C 223.25 26.55 200.50 28.01 177.76 29.70 C 187.64 33.78 197.94 36.77 208.10 40.09 C 211.30 41.29 214.68 39.90 217.94 39.64 C 229.15 38.26 240.47 38.21 251.68 36.86 C 277.78 36.12 303.90 35.25 330.01 35.46 C 358.00 36.06 386.00 36.47 413.99 36.98 C 439.46 37.04 464.79 40.39 490.26 40.57 C 481.21 35.77 471.80 31.62 462.26 27.90 C 426.01 23.85 389.46 22.86 352.99 22.88 C 317.31 22.17 281.65 23.82 246.00 25.00 M 170.38 31.05 C 169.76 51.12 169.52 71.21 168.70 91.27 C 167.82 102.15 167.14 113.05 166.85 123.97 C 170.73 123.68 175.49 122.32 178.57 125.52 C 180.81 127.80 179.24 131.45 177.53 133.56 C 173.50 137.58 167.38 138.08 162.91 141.48 C 168.44 143.58 174.84 144.52 179.22 148.80 C 181.14 150.38 180.97 153.06 182.06 155.08 C 189.56 158.53 196.81 162.48 204.20 166.14 C 205.53 139.10 207.43 112.07 207.70 84.99 C 206.76 71.16 209.51 57.28 207.85 43.47 C 195.23 39.73 183.02 34.68 170.38 31.05 M 211.63 44.06 C 210.82 85.67 210.28 127.31 207.08 168.82 C 213.73 168.64 220.40 168.60 227.04 168.05 C 249.67 166.33 272.34 165.33 295.02 164.62 C 331.67 162.98 368.34 162.41 405.01 161.96 C 429.74 161.33 454.47 162.23 479.19 162.97 C 477.65 160.91 475.48 158.46 476.70 155.69 C 479.95 149.90 486.85 148.05 492.91 146.83 C 490.21 143.97 487.12 141.25 485.56 137.54 C 484.93 135.32 484.47 132.11 486.93 130.82 C 491.44 128.08 496.84 130.25 501.43 131.65 C 496.27 103.02 497.78 73.83 497.37 44.89 C 495.27 44.48 493.16 44.12 491.02 44.01 C 466.04 42.45 441.06 40.54 416.02 40.15 C 384.03 39.08 352.02 38.95 320.01 38.79 C 283.85 39.49 247.51 38.85 211.63 44.06 M 106.84 53.99 C 105.83 60.47 111.50 65.26 112.93 71.20 C 113.10 75.88 109.16 81.28 104.06 80.38 C 98.37 78.68 99.37 70.02 93.61 68.49 C 85.38 65.18 77.38 78.17 84.02 84.04 C 86.67 87.01 90.85 89.03 91.84 93.17 C 92.76 98.49 88.80 102.76 85.48 106.34 C 93.35 110.98 100.03 117.32 105.70 124.44 C 109.04 126.62 113.48 125.92 117.26 125.43 C 128.88 123.35 138.15 113.75 141.70 102.75 C 135.83 102.94 128.88 101.95 125.43 96.58 C 122.92 92.13 121.26 86.83 121.80 81.70 C 123.27 81.63 124.74 81.59 126.21 81.57 C 125.01 86.30 125.78 91.42 128.51 95.48 C 132.23 99.29 137.97 99.66 142.96 99.00 C 143.63 93.37 143.61 87.71 143.15 82.07 C 147.91 79.14 154.08 79.18 158.33 75.31 C 161.07 73.28 162.12 68.99 159.66 66.32 C 155.82 61.10 148.82 60.97 143.22 58.88 C 138.43 57.53 135.23 52.93 134.71 48.10 C 128.91 46.02 123.29 42.61 116.95 42.74 C 111.03 42.93 108.21 49.08 106.84 53.99 M 536.24 59.32 C 534.01 63.21 531.00 66.80 527.12 69.09 C 522.79 70.59 518.04 69.65 513.60 70.64 C 508.50 71.95 505.45 78.39 507.80 83.12 C 511.77 88.75 520.91 87.03 524.45 93.02 C 523.29 97.24 521.29 101.24 520.68 105.61 C 519.18 113.97 520.26 123.40 526.03 130.01 C 530.60 134.90 536.74 139.39 543.79 138.82 C 555.25 137.28 566.32 132.27 574.61 124.14 C 569.64 119.54 568.97 109.96 574.67 105.68 C 577.48 103.34 581.57 104.57 584.51 102.51 C 587.57 100.43 590.14 96.94 589.92 93.09 C 589.38 88.88 584.76 86.86 580.96 87.00 C 575.37 87.27 570.91 91.12 565.71 92.71 C 561.86 94.19 556.77 94.51 553.71 91.28 C 550.33 87.58 550.08 81.98 551.62 77.41 C 553.00 71.14 560.09 68.25 561.51 62.02 C 560.63 58.40 556.56 56.34 553.01 56.59 C 547.33 56.95 541.96 59.24 536.24 59.32 M 155.19 104.34 C 154.78 110.58 156.52 118.56 162.95 121.20 C 163.90 111.31 164.39 101.38 164.98 91.46 C 158.35 91.42 155.70 98.83 155.19 104.34 M 145.48 102.42 C 144.13 106.21 142.35 109.83 140.20 113.23 C 134.31 122.32 123.73 128.10 112.92 128.30 C 111.15 128.54 109.07 128.11 107.63 129.40 C 110.52 129.71 113.32 130.44 116.14 131.10 C 119.40 130.75 122.64 129.50 125.94 130.27 C 129.59 130.78 132.57 133.12 135.12 135.61 C 137.47 134.67 139.92 133.54 141.31 131.31 C 144.28 126.77 144.74 121.12 147.31 116.39 C 148.64 114.48 151.28 115.04 153.27 114.65 C 151.58 109.03 151.60 103.03 153.38 97.45 C 150.61 98.69 146.24 98.83 145.48 102.42 M 501.51 100.40 C 501.23 107.67 502.63 114.84 503.40 122.04 C 506.66 122.18 510.37 122.61 512.50 125.43 C 515.14 129.13 513.14 133.74 512.60 137.77 C 517.95 139.61 523.27 141.68 528.87 142.67 C 532.00 142.58 535.23 141.67 538.28 142.85 C 540.16 143.74 541.91 145.00 544.06 145.23 C 543.55 144.01 543.03 142.82 542.50 141.62 C 535.23 141.45 528.92 136.98 524.32 131.68 C 518.81 125.17 516.10 116.49 517.21 108.00 C 512.62 104.47 506.88 102.55 501.51 100.40 M 59.63 116.06 C 62.80 114.02 66.06 111.74 69.98 111.61 C 78.39 110.90 85.81 115.91 92.03 120.97 C 95.43 123.70 96.57 128.47 100.29 130.85 C 102.07 131.98 104.07 130.97 105.82 130.34 C 101.07 121.78 93.87 114.51 85.30 109.75 C 80.55 106.93 75.03 109.84 69.93 108.93 C 65.27 108.02 61.58 112.33 59.63 116.06 M 59.68 121.67 C 56.00 126.64 56.09 133.29 57.26 139.09 C 58.15 133.85 58.44 128.43 60.28 123.40 C 61.87 120.49 65.16 119.07 68.13 117.98 C 75.50 116.57 82.99 119.61 88.54 124.38 C 91.69 126.97 93.83 130.54 96.90 133.23 C 92.20 124.49 83.94 117.18 74.06 115.08 C 68.39 113.85 62.83 117.11 59.68 121.67 M 145.00 130.70 C 148.12 129.40 151.55 129.02 154.64 127.64 C 158.81 125.06 155.24 117.96 151.06 117.69 C 146.91 120.61 147.72 126.70 145.00 130.70 M 62.22 127.26 C 59.86 134.82 60.98 143.04 63.34 150.47 C 65.29 157.18 71.31 163.34 78.73 162.91 C 79.12 165.39 78.76 168.10 80.07 170.35 C 82.46 171.10 83.03 168.31 84.16 166.87 C 88.98 168.62 93.73 171.20 99.00 171.02 C 102.87 171.21 107.40 169.89 109.05 166.02 C 113.55 156.08 116.96 144.69 113.93 133.82 C 108.17 132.84 101.99 133.74 96.99 136.86 C 95.20 140.05 95.56 144.19 93.30 147.24 C 92.25 149.00 89.15 150.69 88.02 148.08 C 85.89 143.74 89.12 139.06 91.96 135.84 C 88.42 134.91 84.63 139.15 81.86 135.91 C 84.69 133.43 88.45 132.89 92.03 132.40 C 87.52 126.78 81.36 121.75 74.02 120.76 C 69.45 120.56 63.42 122.17 62.22 127.26 M 159.37 123.14 C 159.37 123.76 159.38 125.00 159.39 125.62 C 160.58 125.28 161.78 124.95 162.98 124.61 C 161.79 124.09 160.58 123.60 159.37 123.14 M 504.03 125.46 C 504.42 128.24 504.69 131.03 504.89 133.84 C 506.30 134.54 507.73 135.22 509.17 135.90 C 509.93 132.87 511.20 129.47 509.41 126.54 C 507.85 125.37 505.85 125.50 504.03 125.46 M 577.31 126.29 C 573.07 129.45 568.87 132.66 564.22 135.20 C 562.81 139.44 560.66 143.42 556.80 145.92 C 557.61 146.03 559.24 146.24 560.06 146.34 C 562.47 142.69 564.18 138.49 567.55 135.55 C 574.16 129.29 583.99 127.64 592.70 129.32 C 598.04 131.33 602.10 135.59 605.13 140.31 C 604.87 134.52 601.91 128.85 596.84 125.90 C 592.36 127.21 587.64 128.17 582.99 127.21 C 581.08 127.06 579.21 125.98 577.31 126.29 M 136.19 138.24 C 137.86 146.72 136.02 155.47 132.26 163.15 C 137.11 168.91 136.31 177.26 140.84 183.13 C 142.18 185.26 144.82 185.11 147.02 184.96 C 148.37 179.69 143.95 173.23 149.09 169.13 C 153.86 171.48 157.83 175.30 162.90 177.04 C 164.55 177.32 166.60 178.55 167.98 177.01 C 169.86 175.76 169.17 173.34 168.25 171.72 C 165.24 166.82 159.71 164.27 156.35 159.68 C 156.42 158.74 156.61 157.82 156.91 156.92 C 164.01 155.52 171.50 157.77 178.37 155.06 C 178.18 153.38 177.97 151.55 176.44 150.52 C 170.92 145.91 163.25 145.88 157.00 142.70 C 157.21 142.22 157.64 141.26 157.85 140.78 C 163.11 137.22 169.53 135.56 174.54 131.58 C 176.06 130.62 176.26 128.84 175.95 127.21 C 174.32 126.87 172.66 126.29 170.99 126.75 C 158.92 128.92 147.28 133.06 136.19 138.24 M 488.53 132.99 C 488.46 139.52 494.59 143.40 499.00 147.17 C 499.00 147.83 499.00 149.15 499.00 149.81 C 493.53 150.99 487.55 150.55 482.65 153.67 C 480.93 154.41 480.26 156.17 479.65 157.79 C 484.27 163.12 491.89 162.06 498.20 162.24 C 497.32 167.90 490.62 170.25 488.48 175.44 C 486.56 178.27 488.66 182.64 492.07 182.82 C 496.65 183.25 500.73 180.70 504.09 177.87 C 507.66 177.73 505.72 181.99 505.64 184.04 C 504.57 187.99 506.46 194.55 511.71 192.98 C 517.89 187.42 518.16 177.45 525.64 172.97 C 524.85 165.03 523.19 157.07 524.14 149.06 C 514.65 144.39 506.50 137.32 496.65 133.33 C 494.05 132.22 491.21 132.29 488.53 132.99 M 576.02 133.90 C 569.87 136.74 565.32 142.39 563.15 148.74 C 568.39 147.89 576.24 147.92 578.18 154.09 C 574.67 152.19 571.12 149.75 566.90 150.43 C 568.23 153.28 571.85 155.10 571.65 158.56 C 570.14 161.01 566.57 159.75 564.84 158.16 C 562.20 156.25 562.18 152.35 559.33 150.64 C 554.72 147.58 548.94 147.59 543.64 148.15 C 545.66 155.90 545.92 163.88 546.46 171.82 C 547.53 176.00 549.46 180.51 553.59 182.52 C 558.86 185.78 565.72 185.62 570.82 182.10 C 572.74 183.08 574.67 184.54 576.96 184.20 C 579.95 184.09 581.43 181.22 583.52 179.54 C 589.35 174.39 597.38 171.42 601.27 164.30 C 604.90 155.93 605.42 145.15 599.16 137.84 C 593.57 131.19 583.60 130.95 576.02 133.90 M 117.46 134.71 C 119.80 145.29 117.05 156.03 112.99 165.81 C 116.44 167.72 120.92 168.60 124.48 166.49 C 130.68 161.68 132.66 153.53 133.01 146.06 C 132.96 143.15 133.67 139.79 131.54 137.40 C 128.67 132.73 121.90 131.92 117.46 134.71 M 545.93 141.72 C 550.89 145.11 557.90 142.55 560.31 137.25 C 555.57 138.93 550.91 140.86 545.93 141.72 M 91.44 141.29 C 90.33 142.20 89.44 144.21 90.16 145.58 C 91.90 145.91 93.27 141.80 91.44 141.29 M 46.84 164.98 C 46.10 175.05 54.27 182.95 54.79 192.78 C 53.48 196.44 50.86 199.59 47.48 201.53 C 39.95 205.86 30.71 206.12 23.52 211.21 C 33.46 224.77 46.21 237.01 62.03 243.32 C 64.00 241.51 65.93 239.65 67.61 237.57 C 70.56 233.86 74.26 230.69 76.29 226.32 C 78.20 222.84 79.04 218.71 81.70 215.68 C 84.10 214.39 86.88 214.00 89.36 212.87 C 89.05 211.25 88.68 209.63 88.24 208.04 C 90.19 205.01 92.69 202.19 93.51 198.59 C 93.99 196.86 94.06 194.79 95.73 193.71 C 99.98 190.21 104.34 186.23 105.55 180.60 C 106.65 175.81 110.74 172.82 113.26 168.86 C 110.29 168.38 109.45 172.02 107.01 172.97 C 102.44 175.36 96.96 173.12 92.35 174.25 C 87.57 179.86 81.99 184.78 75.83 188.83 C 74.07 189.98 72.01 190.44 70.01 190.95 C 68.17 188.51 66.61 185.86 65.42 183.03 C 70.84 180.50 76.56 178.45 81.31 174.71 C 78.60 172.51 75.56 170.08 75.34 166.29 C 71.19 164.57 67.13 162.27 64.19 158.79 C 60.47 153.88 59.70 147.59 57.88 141.86 C 49.32 146.09 47.23 156.30 46.84 164.98 M 527.58 148.44 C 525.33 155.50 527.47 162.92 528.22 170.06 C 528.61 172.35 528.27 175.11 530.16 176.83 C 534.12 180.18 539.94 180.21 544.45 177.95 C 542.30 167.94 543.47 157.44 540.33 147.62 C 536.82 144.34 530.13 143.72 527.58 148.44 M 564.00 152.28 C 564.59 154.94 566.36 157.22 569.26 157.44 C 568.24 155.07 566.44 153.19 564.00 152.28 M 176.23 159.05 C 171.35 160.32 166.29 159.45 161.33 159.66 C 164.56 164.10 170.34 166.62 171.93 172.19 C 173.03 174.93 171.91 177.78 170.62 180.22 C 174.66 183.45 178.77 186.59 182.90 189.71 C 188.83 182.07 196.61 176.24 203.29 169.33 C 196.02 165.16 188.68 161.07 180.83 158.07 C 179.24 158.04 177.76 158.73 176.23 159.05 M 604.68 163.06 C 601.55 170.69 594.47 175.60 587.57 179.58 C 583.94 181.52 582.44 186.17 578.33 187.34 C 575.46 188.47 572.72 186.60 570.12 185.63 C 567.08 187.56 563.51 188.08 559.98 188.02 C 562.18 189.89 564.45 192.64 563.72 195.73 C 562.65 198.49 560.25 200.38 558.00 202.16 C 559.18 206.22 562.20 209.16 564.88 212.25 C 563.75 217.02 561.70 221.69 560.90 226.63 C 557.83 226.04 554.08 224.53 552.14 227.98 C 553.06 229.71 553.96 231.47 554.98 233.16 C 552.10 237.92 548.72 242.46 546.90 247.79 C 562.96 256.04 581.85 252.36 598.03 246.44 C 597.87 239.97 591.81 236.08 589.89 230.32 C 594.30 226.96 599.27 224.16 602.72 219.70 C 607.33 214.36 609.58 207.04 608.20 200.05 C 607.97 196.86 603.77 195.99 603.31 192.89 C 603.53 189.59 604.89 186.29 607.90 184.62 C 608.31 177.28 606.73 170.05 604.68 163.06 M 339.02 165.83 C 295.01 167.52 250.87 167.40 207.04 172.22 C 207.55 180.30 208.15 188.37 208.96 196.43 C 218.64 195.73 228.31 195.02 238.02 194.90 C 274.01 194.37 309.99 193.70 345.98 193.13 C 373.29 191.77 400.64 192.08 427.97 191.35 C 452.98 190.44 477.97 192.23 502.97 192.85 C 502.33 189.87 501.81 186.87 501.52 183.84 C 497.89 185.21 494.08 187.09 490.11 186.03 C 487.16 185.05 484.45 182.30 484.61 179.01 C 484.22 173.84 487.86 169.69 491.03 166.05 C 463.03 165.59 435.02 163.98 407.02 164.97 C 384.35 165.38 361.69 165.46 339.02 165.83 M 70.27 184.51 C 70.53 185.33 70.80 186.15 71.07 186.97 C 75.27 185.07 79.19 182.45 82.21 178.94 C 78.28 180.91 74.35 182.86 70.27 184.51 M 546.77 181.52 C 546.89 183.27 547.06 185.02 547.29 186.77 C 549.56 186.90 551.84 186.75 554.11 186.58 C 551.70 184.85 549.26 183.14 546.77 181.52 M 97.50 196.61 C 96.32 200.74 94.83 204.80 92.03 208.17 C 92.47 210.51 93.19 213.25 91.23 215.15 C 89.44 217.75 85.57 216.32 83.62 218.66 C 81.78 220.70 81.14 223.45 80.10 225.93 C 78.33 230.52 74.81 234.11 72.41 238.35 C 72.56 241.69 74.66 245.12 78.17 245.70 C 87.49 245.88 96.78 244.70 105.95 243.06 C 109.64 242.06 114.30 241.98 116.86 238.77 C 119.52 228.36 116.66 217.55 112.40 207.98 C 114.05 206.42 115.78 204.95 117.29 203.26 C 114.92 201.61 112.19 200.69 109.48 199.79 C 108.76 195.43 108.04 191.06 106.77 186.82 C 103.84 190.24 100.84 193.58 97.50 196.61 M 608.47 188.44 C 607.25 189.59 607.16 191.40 606.64 192.90 C 608.92 193.21 611.27 193.29 613.32 192.06 C 613.22 190.60 613.12 189.14 613.02 187.68 C 611.49 187.88 609.93 187.96 608.47 188.44 M 550.27 190.24 C 548.68 190.92 547.08 192.16 546.89 194.00 C 546.82 196.09 548.50 197.86 550.50 198.25 C 553.69 199.08 557.87 198.87 559.93 195.89 C 560.69 195.06 561.13 193.65 560.36 192.69 C 558.04 189.65 553.68 189.68 550.27 190.24 M 518.24 191.08 C 516.87 191.76 516.83 192.42 518.13 193.05 C 519.52 192.41 519.55 191.75 518.24 191.08 M 553.13 201.98 C 553.79 204.54 555.56 206.51 557.53 208.17 C 556.37 205.92 555.70 203.04 553.13 201.98 M 550.30 204.84 C 547.42 209.74 544.52 214.89 544.72 220.77 C 542.08 221.02 538.64 220.51 537.26 223.39 C 536.39 226.43 540.01 227.41 541.85 228.88 C 540.25 232.85 536.73 235.48 534.46 239.01 C 537.47 241.34 540.82 243.15 544.31 244.66 C 546.58 240.80 548.69 236.84 551.13 233.07 C 549.96 230.65 548.39 227.71 550.17 225.16 C 551.72 222.04 555.69 222.48 558.59 221.91 C 559.19 218.85 560.15 215.88 561.24 212.97 C 557.01 211.10 553.62 207.96 550.30 204.84 M 15.69 227.26 C 19.10 237.79 28.26 245.39 37.87 250.20 C 40.13 251.20 42.36 253.11 44.98 252.34 C 50.11 251.70 54.46 248.70 58.73 246.04 C 48.68 241.98 40.19 235.01 32.72 227.28 C 28.30 223.10 25.11 217.84 20.87 213.50 C 17.24 216.93 13.74 222.07 15.69 227.26 M 3.35 242.88 C 3.05 246.21 6.49 247.84 9.16 248.63 C 13.15 250.13 17.57 247.44 21.38 249.63 C 26.65 253.15 23.86 261.38 28.98 265.02 C 39.64 270.46 52.13 273.41 64.01 270.92 C 66.20 270.48 69.62 268.93 68.79 266.17 C 66.41 259.95 61.27 255.30 55.82 251.72 C 50.78 253.25 45.60 256.27 40.19 254.84 C 28.81 249.89 18.79 241.40 12.77 230.48 C 8.59 233.49 2.88 236.95 3.35 242.88 M 59.01 249.76 C 63.40 252.92 66.72 257.21 70.00 261.44 C 71.70 261.45 73.39 261.45 75.09 261.42 C 74.33 256.95 73.67 252.38 74.72 247.89 C 72.53 245.76 70.87 243.18 69.19 240.65 C 65.96 243.86 62.54 246.87 59.01 249.76 M 533.00 241.17 C 531.41 244.20 529.97 247.96 531.93 251.19 C 534.26 254.51 538.54 255.28 542.13 256.54 C 542.30 253.36 542.74 250.21 543.37 247.09 C 539.56 245.79 536.24 243.49 533.00 241.17 M 113.88 244.02 C 102.12 247.95 89.64 248.80 77.33 248.90 C 76.73 253.14 75.84 258.35 79.32 261.65 C 82.44 264.12 86.59 266.31 90.60 264.71 C 91.51 260.05 94.00 255.02 99.21 254.25 C 103.67 253.76 105.19 258.86 107.10 261.88 C 108.25 264.31 111.16 264.60 113.43 265.38 C 121.49 267.21 129.73 268.34 138.00 268.55 C 140.96 268.70 143.71 267.55 146.36 266.37 C 146.87 263.96 147.87 261.04 146.05 258.93 C 140.23 250.23 129.80 246.83 120.49 243.29 C 118.31 242.11 116.02 243.48 113.88 244.02 M 567.04 255.53 C 559.76 255.05 552.68 253.35 545.67 251.45 C 545.49 254.48 545.11 258.14 547.72 260.33 C 551.37 264.14 556.89 264.37 561.73 265.42 C 572.80 266.96 584.87 267.50 594.98 261.95 C 598.77 259.23 599.23 254.09 598.69 249.82 C 588.51 253.34 577.85 255.57 567.04 255.53 M 508.26 257.28 C 503.39 260.37 498.68 264.93 498.25 271.03 C 500.17 274.83 504.99 275.21 508.76 275.27 C 512.75 264.90 523.57 258.96 534.17 257.69 C 532.17 256.01 530.27 254.22 528.62 252.20 C 521.54 251.28 514.07 253.06 508.26 257.28 M 535.53 260.34 C 527.17 261.63 518.52 265.40 513.63 272.60 C 512.14 274.58 510.97 277.28 512.16 279.70 C 513.35 282.90 516.90 284.25 520.03 284.65 C 531.68 285.76 543.41 285.37 555.06 286.38 C 559.36 286.94 560.01 281.66 561.95 279.02 C 563.74 275.75 568.54 277.06 570.43 279.54 C 572.20 281.65 571.05 285.97 574.47 286.51 C 577.99 286.90 581.81 286.48 585.04 284.99 C 588.75 280.42 586.31 274.25 585.87 269.04 C 578.91 270.04 571.89 269.47 564.93 268.87 C 557.91 268.44 550.53 266.75 545.30 261.75 C 542.84 258.80 538.80 260.01 535.53 260.34 Z" />
<path fill="#000000" opacity="1.00" d=" M 122.56 55.36 C 123.11 51.99 126.39 50.25 129.18 48.92 C 130.68 48.24 131.83 49.87 133.01 50.52 C 131.57 50.93 130.10 51.23 128.71 51.76 C 126.60 52.93 125.31 55.60 122.56 55.36 Z" />
<path fill="#000000" opacity="1.00" d=" M 129.28 55.09 C 131.47 55.01 134.24 54.32 135.94 56.14 C 139.87 61.47 138.84 71.18 131.95 73.46 C 127.94 74.67 126.09 70.23 125.95 67.02 C 125.40 62.75 127.16 58.68 129.28 55.09 M 128.39 62.28 C 131.15 62.78 133.76 63.83 135.94 65.63 C 135.77 62.69 136.17 59.24 133.75 57.05 C 130.56 55.96 129.44 60.15 128.39 62.28 Z" />
<path fill="#000000" opacity="1.00" d=" M 540.65 62.52 C 544.67 62.88 547.04 66.59 547.83 70.21 C 543.83 70.15 542.92 65.05 540.65 62.52 Z" />
<path fill="#000000" opacity="1.00" d=" M 532.49 71.38 C 535.21 69.26 539.17 71.17 540.42 74.05 C 540.82 77.63 539.80 81.58 536.95 83.95 C 534.44 86.29 529.94 87.59 527.52 84.44 C 525.59 79.66 528.02 73.81 532.49 71.38 M 528.80 81.38 C 531.69 79.64 534.38 77.07 538.04 77.35 C 538.20 75.39 537.92 73.47 536.80 71.81 C 532.32 72.55 528.80 76.85 528.80 81.38 Z" />
<path fill="#000000" opacity="1.00" d=" M 534.04 97.98 C 538.62 97.36 542.09 94.14 545.89 91.83 C 545.89 92.56 545.88 94.01 545.87 94.74 C 544.02 96.29 542.11 97.77 540.27 99.33 C 540.28 105.90 537.79 113.46 531.64 116.70 C 528.93 118.20 525.38 116.44 524.44 113.61 C 521.89 108.50 523.92 102.86 524.98 97.66 C 527.98 98.02 531.03 98.73 534.04 97.98 M 527.53 101.58 C 526.98 102.50 526.55 103.48 526.09 104.45 C 529.82 104.66 533.66 105.48 537.33 104.39 C 537.57 103.30 537.84 102.22 538.15 101.14 C 534.62 101.44 530.99 100.73 527.53 101.58 M 526.70 111.13 C 526.19 112.58 527.80 113.69 528.28 114.96 C 531.82 113.93 534.67 111.18 535.58 107.56 C 532.20 107.34 529.14 108.91 526.70 111.13 Z" />
<path fill="#000000" opacity="1.00" d=" M 572.34 94.82 C 574.93 90.37 583.05 92.23 582.92 97.62 C 580.79 99.68 578.39 101.76 575.21 101.48 C 575.33 98.82 574.44 96.49 572.34 94.82 M 577.24 95.12 C 576.08 96.35 578.27 98.80 579.55 97.46 C 580.99 96.06 578.65 93.91 577.24 95.12 Z" />
<path fill="#000000" opacity="1.00" d=" M 590.29 189.15 C 593.77 188.71 599.03 187.14 601.15 190.90 C 602.62 192.79 601.34 195.40 600.08 197.05 C 597.11 199.83 592.78 200.08 588.94 200.42 C 586.27 200.45 583.20 197.93 583.94 195.06 C 584.32 191.86 587.41 189.89 590.29 189.15 M 586.58 196.03 C 589.99 197.58 593.93 196.70 597.16 195.12 C 598.65 194.39 598.53 192.60 598.80 191.21 C 594.58 192.10 588.51 191.11 586.58 196.03 Z" />
<path fill="#000000" opacity="1.00" d=" M 570.38 190.17 C 573.10 188.85 576.56 189.52 579.28 190.72 C 581.60 191.62 581.49 194.73 580.90 196.73 C 578.96 200.20 574.70 201.23 571.02 201.07 C 568.76 201.18 566.25 199.43 566.31 197.02 C 566.04 194.16 568.17 191.71 570.38 190.17 M 568.84 196.90 C 572.44 197.90 577.17 197.80 578.91 193.84 C 575.54 190.83 570.10 192.74 568.84 196.90 Z" />
<path fill="#000000" opacity="1.00" d=" M 548.56 194.94 C 549.42 190.16 555.40 190.32 558.27 193.15 C 557.38 197.79 551.39 197.67 548.56 194.94 Z" />
</g>
<g id="#ffffffff">
<path fill="#ffffff" opacity="1.00" d=" M 85.97 4.92 C 90.66 1.43 98.19 2.65 101.36 7.62 C 104.56 11.67 107.09 17.73 113.02 18.06 C 121.91 17.51 129.29 11.36 138.11 10.42 C 140.97 10.13 143.89 10.57 146.57 11.63 C 148.56 13.53 146.28 16.43 144.56 17.68 C 141.02 18.36 137.61 16.05 134.04 16.84 C 126.29 18.15 120.59 24.13 115.72 29.85 C 111.22 29.26 106.91 26.06 102.05 26.11 C 94.56 25.00 87.43 29.65 84.21 36.27 C 79.64 35.16 74.36 35.52 70.61 38.63 C 67.19 41.51 64.35 45.29 63.43 49.74 C 60.51 49.93 57.61 50.41 54.85 51.41 C 50.65 47.05 47.50 41.21 48.00 35.00 C 48.54 30.83 50.51 26.48 54.42 24.50 C 60.44 21.43 67.94 22.57 73.60 18.64 C 78.28 14.60 80.96 8.63 85.97 4.92 Z" />
<path fill="#ffffff" opacity="1.00" d=" M 576.31 18.33 C 580.06 15.88 585.39 16.22 588.71 19.29 C 593.70 23.70 594.90 30.80 599.43 35.55 C 605.50 40.84 614.80 38.03 621.05 42.97 C 624.34 45.71 625.35 50.35 624.34 54.40 C 623.23 61.39 617.93 66.55 612.77 70.91 C 610.14 69.54 607.43 68.36 604.63 67.42 C 603.48 61.93 600.05 56.54 594.58 54.57 C 590.88 53.70 587.05 53.76 583.29 54.12 C 580.67 49.42 576.45 45.31 571.10 44.03 C 566.46 43.02 561.62 43.19 557.01 44.27 C 552.38 38.57 546.52 33.18 539.00 31.96 C 535.55 31.06 532.01 31.95 528.52 31.53 C 528.38 29.15 527.77 26.43 529.41 24.40 C 531.52 22.06 535.04 22.29 537.80 23.20 C 542.70 24.90 547.38 27.31 551.42 30.60 C 554.28 32.90 558.31 35.16 561.93 33.11 C 567.38 28.84 570.44 22.15 576.31 18.33 Z" />
<path fill="#ffffff" opacity="1.00" d=" M 246.00 25.00 C 281.65 23.82 317.31 22.17 352.99 22.88 C 389.46 22.86 426.01 23.85 462.26 27.90 C 471.80 31.62 481.21 35.77 490.26 40.57 C 464.79 40.39 439.46 37.04 413.99 36.98 C 386.00 36.47 358.00 36.06 330.01 35.46 C 303.90 35.25 277.78 36.12 251.68 36.86 C 240.47 38.21 229.15 38.26 217.94 39.64 C 214.68 39.90 211.30 41.29 208.10 40.09 C 197.94 36.77 187.64 33.78 177.76 29.70 C 200.50 28.01 223.25 26.55 246.00 25.00 Z" />
<path fill="#ffffff" opacity="1.00" d=" M 170.38 31.05 C 183.02 34.68 195.23 39.73 207.85 43.47 C 209.51 57.28 206.76 71.16 207.70 84.99 C 207.43 112.07 205.53 139.10 204.20 166.14 C 196.81 162.48 189.56 158.53 182.06 155.08 C 180.97 153.06 181.14 150.38 179.22 148.80 C 174.84 144.52 168.44 143.58 162.91 141.48 C 167.38 138.08 173.50 137.58 177.53 133.56 C 179.24 131.45 180.81 127.80 178.57 125.52 C 175.49 122.32 170.73 123.68 166.85 123.97 C 167.14 113.05 167.82 102.15 168.70 91.27 C 169.52 71.21 169.76 51.12 170.38 31.05 Z" />
<path fill="#ffffff" opacity="1.00" d=" M 211.63 44.06 C 247.51 38.85 283.85 39.49 320.01 38.79 C 352.02 38.95 384.03 39.08 416.02 40.15 C 441.06 40.54 466.04 42.45 491.02 44.01 C 493.16 44.12 495.27 44.48 497.37 44.89 C 497.78 73.83 496.27 103.02 501.43 131.65 C 496.84 130.25 491.44 128.08 486.93 130.82 C 484.47 132.11 484.93 135.32 485.56 137.54 C 487.12 141.25 490.21 143.97 492.91 146.83 C 486.85 148.05 479.95 149.90 476.70 155.69 C 475.48 158.46 477.65 160.91 479.19 162.97 C 454.47 162.23 429.74 161.33 405.01 161.96 C 368.34 162.41 331.67 162.98 295.02 164.62 C 272.34 165.33 249.67 166.33 227.04 168.05 C 220.40 168.60 213.73 168.64 207.08 168.82 C 210.28 127.31 210.82 85.67 211.63 44.06 Z" />
<path fill="#ffffff" opacity="1.00" d=" M 106.84 53.99 C 108.21 49.08 111.03 42.93 116.95 42.74 C 123.29 42.61 128.91 46.02 134.71 48.10 C 135.23 52.93 138.43 57.53 143.22 58.88 C 148.82 60.97 155.82 61.10 159.66 66.32 C 162.12 68.99 161.07 73.28 158.33 75.31 C 154.08 79.18 147.91 79.14 143.15 82.07 C 143.61 87.71 143.63 93.37 142.96 99.00 C 137.97 99.66 132.23 99.29 128.51 95.48 C 125.78 91.42 125.01 86.30 126.21 81.57 C 124.74 81.59 123.27 81.63 121.80 81.70 C 121.26 86.83 122.92 92.13 125.43 96.58 C 128.88 101.95 135.83 102.94 141.70 102.75 C 138.15 113.75 128.88 123.35 117.26 125.43 C 113.48 125.92 109.04 126.62 105.70 124.44 C 100.03 117.32 93.35 110.98 85.48 106.34 C 88.80 102.76 92.76 98.49 91.84 93.17 C 90.85 89.03 86.67 87.01 84.02 84.04 C 77.38 78.17 85.38 65.18 93.61 68.49 C 99.37 70.02 98.37 78.68 104.06 80.38 C 109.16 81.28 113.10 75.88 112.93 71.20 C 111.50 65.26 105.83 60.47 106.84 53.99 M 122.56 55.36 C 125.31 55.60 126.60 52.93 128.71 51.76 C 130.10 51.23 131.57 50.93 133.01 50.52 C 131.83 49.87 130.68 48.24 129.18 48.92 C 126.39 50.25 123.11 51.99 122.56 55.36 M 129.28 55.09 C 127.16 58.68 125.40 62.75 125.95 67.02 C 126.09 70.23 127.94 74.67 131.95 73.46 C 138.84 71.18 139.87 61.47 135.94 56.14 C 134.24 54.32 131.47 55.01 129.28 55.09 Z" />
<path fill="#ffffff" opacity="1.00" d=" M 128.39 62.28 C 129.44 60.15 130.56 55.96 133.75 57.05 C 136.17 59.24 135.77 62.69 135.94 65.63 C 133.76 63.83 131.15 62.78 128.39 62.28 Z" />
<path fill="#ffffff" opacity="1.00" d=" M 536.24 59.32 C 541.96 59.24 547.33 56.95 553.01 56.59 C 556.56 56.34 560.63 58.40 561.51 62.02 C 560.09 68.25 553.00 71.14 551.62 77.41 C 550.08 81.98 550.33 87.58 553.71 91.28 C 556.77 94.51 561.86 94.19 565.71 92.71 C 570.91 91.12 575.37 87.27 580.96 87.00 C 584.76 86.86 589.38 88.88 589.92 93.09 C 590.14 96.94 587.57 100.43 584.51 102.51 C 581.57 104.57 577.48 103.34 574.67 105.68 C 568.97 109.96 569.64 119.54 574.61 124.14 C 566.32 132.27 555.25 137.28 543.79 138.82 C 536.74 139.39 530.60 134.90 526.03 130.01 C 520.26 123.40 519.18 113.97 520.68 105.61 C 521.29 101.24 523.29 97.24 524.45 93.02 C 520.91 87.03 511.77 88.75 507.80 83.12 C 505.45 78.39 508.50 71.95 513.60 70.64 C 518.04 69.65 522.79 70.59 527.12 69.09 C 531.00 66.80 534.01 63.21 536.24 59.32 M 540.65 62.52 C 542.92 65.05 543.83 70.15 547.83 70.21 C 547.04 66.59 544.67 62.88 540.65 62.52 M 532.49 71.38 C 528.02 73.81 525.59 79.66 527.52 84.44 C 529.94 87.59 534.44 86.29 536.95 83.95 C 539.80 81.58 540.82 77.63 540.42 74.05 C 539.17 71.17 535.21 69.26 532.49 71.38 M 534.04 97.98 C 531.03 98.73 527.98 98.02 524.98 97.66 C 523.92 102.86 521.89 108.50 524.44 113.61 C 525.38 116.44 528.93 118.20 531.64 116.70 C 537.79 113.46 540.28 105.90 540.27 99.33 C 542.11 97.77 544.02 96.29 545.87 94.74 C 545.88 94.01 545.89 92.56 545.89 91.83 C 542.09 94.14 538.62 97.36 534.04 97.98 M 572.34 94.82 C 574.44 96.49 575.33 98.82 575.21 101.48 C 578.39 101.76 580.79 99.68 582.92 97.62 C 583.05 92.23 574.93 90.37 572.34 94.82 Z" />
<path fill="#ffffff" opacity="1.00" d=" M 528.80 81.38 C 528.80 76.85 532.32 72.55 536.80 71.81 C 537.92 73.47 538.20 75.39 538.04 77.35 C 534.38 77.07 531.69 79.64 528.80 81.38 Z" />
<path fill="#ffffff" opacity="1.00" d=" M 155.19 104.34 C 155.70 98.83 158.35 91.42 164.98 91.46 C 164.39 101.38 163.90 111.31 162.95 121.20 C 156.52 118.56 154.78 110.58 155.19 104.34 Z" />
<path fill="#ffffff" opacity="1.00" d=" M 577.24 95.12 C 578.65 93.91 580.99 96.06 579.55 97.46 C 578.27 98.80 576.08 96.35 577.24 95.12 Z" />
<path fill="#ffffff" opacity="1.00" d=" M 145.48 102.42 C 146.24 98.83 150.61 98.69 153.38 97.45 C 151.60 103.03 151.58 109.03 153.27 114.65 C 151.28 115.04 148.64 114.48 147.31 116.39 C 144.74 121.12 144.28 126.77 141.31 131.31 C 139.92 133.54 137.47 134.67 135.12 135.61 C 132.57 133.12 129.59 130.78 125.94 130.27 C 122.64 129.50 119.40 130.75 116.14 131.10 C 113.32 130.44 110.52 129.71 107.63 129.40 C 109.07 128.11 111.15 128.54 112.92 128.30 C 123.73 128.10 134.31 122.32 140.20 113.23 C 142.35 109.83 144.13 106.21 145.48 102.42 Z" />
<path fill="#ffffff" opacity="1.00" d=" M 501.51 100.40 C 506.88 102.55 512.62 104.47 517.21 108.00 C 516.10 116.49 518.81 125.17 524.32 131.68 C 528.92 136.98 535.23 141.45 542.50 141.62 C 543.03 142.82 543.55 144.01 544.06 145.23 C 541.91 145.00 540.16 143.74 538.28 142.85 C 535.23 141.67 532.00 142.58 528.87 142.67 C 523.27 141.68 517.95 139.61 512.60 137.77 C 513.14 133.74 515.14 129.13 512.50 125.43 C 510.37 122.61 506.66 122.18 503.40 122.04 C 502.63 114.84 501.23 107.67 501.51 100.40 Z" />
<path fill="#ffffff" opacity="1.00" d=" M 527.53 101.58 C 530.99 100.73 534.62 101.44 538.15 101.14 C 537.84 102.22 537.57 103.30 537.33 104.39 C 533.66 105.48 529.82 104.66 526.09 104.45 C 526.55 103.48 526.98 102.50 527.53 101.58 Z" />
<path fill="#ffffff" opacity="1.00" d=" M 526.70 111.13 C 529.14 108.91 532.20 107.34 535.58 107.56 C 534.67 111.18 531.82 113.93 528.28 114.96 C 527.80 113.69 526.19 112.58 526.70 111.13 Z" />
<path fill="#ffffff" opacity="1.00" d=" M 59.63 116.06 C 61.58 112.33 65.27 108.02 69.93 108.93 C 75.03 109.84 80.55 106.93 85.30 109.75 C 93.87 114.51 101.07 121.78 105.82 130.34 C 104.07 130.97 102.07 131.98 100.29 130.85 C 96.57 128.47 95.43 123.70 92.03 120.97 C 85.81 115.91 78.39 110.90 69.98 111.61 C 66.06 111.74 62.80 114.02 59.63 116.06 Z" />
<path fill="#ffffff" opacity="1.00" d=" M 59.68 121.67 C 62.83 117.11 68.39 113.85 74.06 115.08 C 83.94 117.18 92.20 124.49 96.90 133.23 C 93.83 130.54 91.69 126.97 88.54 124.38 C 82.99 119.61 75.50 116.57 68.13 117.98 C 65.16 119.07 61.87 120.49 60.28 123.40 C 58.44 128.43 58.15 133.85 57.26 139.09 C 56.09 133.29 56.00 126.64 59.68 121.67 Z" />
<path fill="#ffffff" opacity="1.00" d=" M 145.00 130.70 C 147.72 126.70 146.91 120.61 151.06 117.69 C 155.24 117.96 158.81 125.06 154.64 127.64 C 151.55 129.02 148.12 129.40 145.00 130.70 Z" />
<path fill="#ffffff" opacity="1.00" d=" M 62.22 127.26 C 63.42 122.17 69.45 120.56 74.02 120.76 C 81.36 121.75 87.52 126.78 92.03 132.40 C 88.45 132.89 84.69 133.43 81.86 135.91 C 84.63 139.15 88.42 134.91 91.96 135.84 C 89.12 139.06 85.89 143.74 88.02 148.08 C 89.15 150.69 92.25 149.00 93.30 147.24 C 95.56 144.19 95.20 140.05 96.99 136.86 C 101.99 133.74 108.17 132.84 113.93 133.82 C 116.96 144.69 113.55 156.08 109.05 166.02 C 107.40 169.89 102.87 171.21 99.00 171.02 C 93.73 171.20 88.98 168.62 84.16 166.87 C 83.03 168.31 82.46 171.10 80.07 170.35 C 78.76 168.10 79.12 165.39 78.73 162.91 C 71.31 163.34 65.29 157.18 63.34 150.47 C 60.98 143.04 59.86 134.82 62.22 127.26 Z" />
<path fill="#ffffff" opacity="1.00" d=" M 159.37 123.14 C 160.58 123.60 161.79 124.09 162.98 124.61 C 161.78 124.95 160.58 125.28 159.39 125.62 C 159.38 125.00 159.37 123.76 159.37 123.14 Z" />
<path fill="#ffffff" opacity="1.00" d=" M 504.03 125.46 C 505.85 125.50 507.85 125.37 509.41 126.54 C 511.20 129.47 509.93 132.87 509.17 135.90 C 507.73 135.22 506.30 134.54 504.89 133.84 C 504.69 131.03 504.42 128.24 504.03 125.46 Z" />
<path fill="#ffffff" opacity="1.00" d=" M 577.31 126.29 C 579.21 125.98 581.08 127.06 582.99 127.21 C 587.64 128.17 592.36 127.21 596.84 125.90 C 601.91 128.85 604.87 134.52 605.13 140.31 C 602.10 135.59 598.04 131.33 592.70 129.32 C 583.99 127.64 574.16 129.29 567.55 135.55 C 564.18 138.49 562.47 142.69 560.06 146.34 C 559.24 146.24 557.61 146.03 556.80 145.92 C 560.66 143.42 562.81 139.44 564.22 135.20 C 568.87 132.66 573.07 129.45 577.31 126.29 Z" />
<path fill="#ffffff" opacity="1.00" d=" M 136.19 138.24 C 147.28 133.06 158.92 128.92 170.99 126.75 C 172.66 126.29 174.32 126.87 175.95 127.21 C 176.26 128.84 176.06 130.62 174.54 131.58 C 169.53 135.56 163.11 137.22 157.85 140.78 C 157.64 141.26 157.21 142.22 157.00 142.70 C 163.25 145.88 170.92 145.91 176.44 150.52 C 177.97 151.55 178.18 153.38 178.37 155.06 C 171.50 157.77 164.01 155.52 156.91 156.92 C 156.61 157.82 156.42 158.74 156.35 159.68 C 159.71 164.27 165.24 166.82 168.25 171.72 C 169.17 173.34 169.86 175.76 167.98 177.01 C 166.60 178.55 164.55 177.32 162.90 177.04 C 157.83 175.30 153.86 171.48 149.09 169.13 C 143.95 173.23 148.37 179.69 147.02 184.96 C 144.82 185.11 142.18 185.26 140.84 183.13 C 136.31 177.26 137.11 168.91 132.26 163.15 C 136.02 155.47 137.86 146.72 136.19 138.24 Z" />
<path fill="#ffffff" opacity="1.00" d=" M 488.53 132.99 C 491.21 132.29 494.05 132.22 496.65 133.33 C 506.50 137.32 514.65 144.39 524.14 149.06 C 523.19 157.07 524.85 165.03 525.64 172.97 C 518.16 177.45 517.89 187.42 511.71 192.98 C 506.46 194.55 504.57 187.99 505.64 184.04 C 505.72 181.99 507.66 177.73 504.09 177.87 C 500.73 180.70 496.65 183.25 492.07 182.82 C 488.66 182.64 486.56 178.27 488.48 175.44 C 490.62 170.25 497.32 167.90 498.20 162.24 C 491.89 162.06 484.27 163.12 479.65 157.79 C 480.26 156.17 480.93 154.41 482.65 153.67 C 487.55 150.55 493.53 150.99 499.00 149.81 C 499.00 149.15 499.00 147.83 499.00 147.17 C 494.59 143.40 488.46 139.52 488.53 132.99 Z" />
<path fill="#ffffff" opacity="1.00" d=" M 576.02 133.90 C 583.60 130.95 593.57 131.19 599.16 137.84 C 605.42 145.15 604.90 155.93 601.27 164.30 C 597.38 171.42 589.35 174.39 583.52 179.54 C 581.43 181.22 579.95 184.09 576.96 184.20 C 574.67 184.54 572.74 183.08 570.82 182.10 C 565.72 185.62 558.86 185.78 553.59 182.52 C 549.46 180.51 547.53 176.00 546.46 171.82 C 545.92 163.88 545.66 155.90 543.64 148.15 C 548.94 147.59 554.72 147.58 559.33 150.64 C 562.18 152.35 562.20 156.25 564.84 158.16 C 566.57 159.75 570.14 161.01 571.65 158.56 C 571.85 155.10 568.23 153.28 566.90 150.43 C 571.12 149.75 574.67 152.19 578.18 154.09 C 576.24 147.92 568.39 147.89 563.15 148.74 C 565.32 142.39 569.87 136.74 576.02 133.90 Z" />
<path fill="#ffffff" opacity="1.00" d=" M 117.46 134.71 C 121.90 131.92 128.67 132.73 131.54 137.40 C 133.67 139.79 132.96 143.15 133.01 146.06 C 132.66 153.53 130.68 161.68 124.48 166.49 C 120.92 168.60 116.44 167.72 112.99 165.81 C 117.05 156.03 119.80 145.29 117.46 134.71 Z" />
<path fill="#ffffff" opacity="1.00" d=" M 545.93 141.72 C 550.91 140.86 555.57 138.93 560.31 137.25 C 557.90 142.55 550.89 145.11 545.93 141.72 Z" />
<path fill="#ffffff" opacity="1.00" d=" M 91.44 141.29 C 93.27 141.80 91.90 145.91 90.16 145.58 C 89.44 144.21 90.33 142.20 91.44 141.29 Z" />
<path fill="#ffffff" opacity="1.00" d=" M 46.84 164.98 C 47.23 156.30 49.32 146.09 57.88 141.86 C 59.70 147.59 60.47 153.88 64.19 158.79 C 67.13 162.27 71.19 164.57 75.34 166.29 C 75.56 170.08 78.60 172.51 81.31 174.71 C 76.56 178.45 70.84 180.50 65.42 183.03 C 66.61 185.86 68.17 188.51 70.01 190.95 C 72.01 190.44 74.07 189.98 75.83 188.83 C 81.99 184.78 87.57 179.86 92.35 174.25 C 96.96 173.12 102.44 175.36 107.01 172.97 C 109.45 172.02 110.29 168.38 113.26 168.86 C 110.74 172.82 106.65 175.81 105.55 180.60 C 104.34 186.23 99.98 190.21 95.73 193.71 C 94.06 194.79 93.99 196.86 93.51 198.59 C 92.69 202.19 90.19 205.01 88.24 208.04 C 88.68 209.63 89.05 211.25 89.36 212.87 C 86.88 214.00 84.10 214.39 81.70 215.68 C 79.04 218.71 78.20 222.84 76.29 226.32 C 74.26 230.69 70.56 233.86 67.61 237.57 C 65.93 239.65 64.00 241.51 62.03 243.32 C 46.21 237.01 33.46 224.77 23.52 211.21 C 30.71 206.12 39.95 205.86 47.48 201.53 C 50.86 199.59 53.48 196.44 54.79 192.78 C 54.27 182.95 46.10 175.05 46.84 164.98 Z" />
<path fill="#ffffff" opacity="1.00" d=" M 527.58 148.44 C 530.13 143.72 536.82 144.34 540.33 147.62 C 543.47 157.44 542.30 167.94 544.45 177.95 C 539.94 180.21 534.12 180.18 530.16 176.83 C 528.27 175.11 528.61 172.35 528.22 170.06 C 527.47 162.92 525.33 155.50 527.58 148.44 Z" />
<path fill="#ffffff" opacity="1.00" d=" M 564.00 152.28 C 566.44 153.19 568.24 155.07 569.26 157.44 C 566.36 157.22 564.59 154.94 564.00 152.28 Z" />
<path fill="#ffffff" opacity="1.00" d=" M 176.23 159.05 C 177.76 158.73 179.24 158.04 180.83 158.07 C 188.68 161.07 196.02 165.16 203.29 169.33 C 196.61 176.24 188.83 182.07 182.90 189.71 C 178.77 186.59 174.66 183.45 170.62 180.22 C 171.91 177.78 173.03 174.93 171.93 172.19 C 170.34 166.62 164.56 164.10 161.33 159.66 C 166.29 159.45 171.35 160.32 176.23 159.05 Z" />
<path fill="#ffffff" opacity="1.00" d=" M 604.68 163.06 C 606.73 170.05 608.31 177.28 607.90 184.62 C 604.89 186.29 603.53 189.59 603.31 192.89 C 603.77 195.99 607.97 196.86 608.20 200.05 C 609.58 207.04 607.33 214.36 602.72 219.70 C 599.27 224.16 594.30 226.96 589.89 230.32 C 591.81 236.08 597.87 239.97 598.03 246.44 C 581.85 252.36 562.96 256.04 546.90 247.79 C 548.72 242.46 552.10 237.92 554.98 233.16 C 553.96 231.47 553.06 229.71 552.14 227.98 C 554.08 224.53 557.83 226.04 560.90 226.63 C 561.70 221.69 563.75 217.02 564.88 212.25 C 562.20 209.16 559.18 206.22 558.00 202.16 C 560.25 200.38 562.65 198.49 563.72 195.73 C 564.45 192.64 562.18 189.89 559.98 188.02 C 563.51 188.08 567.08 187.56 570.12 185.63 C 572.72 186.60 575.46 188.47 578.33 187.34 C 582.44 186.17 583.94 181.52 587.57 179.58 C 594.47 175.60 601.55 170.69 604.68 163.06 M 590.29 189.15 C 587.41 189.89 584.32 191.86 583.94 195.06 C 583.20 197.93 586.27 200.45 588.94 200.42 C 592.78 200.08 597.11 199.83 600.08 197.05 C 601.34 195.40 602.62 192.79 601.15 190.90 C 599.03 187.14 593.77 188.71 590.29 189.15 M 570.38 190.17 C 568.17 191.71 566.04 194.16 566.31 197.02 C 566.25 199.43 568.76 201.18 571.02 201.07 C 574.70 201.23 578.96 200.20 580.90 196.73 C 581.49 194.73 581.60 191.62 579.28 190.72 C 576.56 189.52 573.10 188.85 570.38 190.17 Z" />
<path fill="#ffffff" opacity="1.00" d=" M 339.02 165.83 C 361.69 165.46 384.35 165.38 407.02 164.97 C 435.02 163.98 463.03 165.59 491.03 166.05 C 487.86 169.69 484.22 173.84 484.61 179.01 C 484.45 182.30 487.16 185.05 490.11 186.03 C 494.08 187.09 497.89 185.21 501.52 183.84 C 501.81 186.87 502.33 189.87 502.97 192.85 C 477.97 192.23 452.98 190.44 427.97 191.35 C 400.64 192.08 373.29 191.77 345.98 193.13 C 309.99 193.70 274.01 194.37 238.02 194.90 C 228.31 195.02 218.64 195.73 208.96 196.43 C 208.15 188.37 207.55 180.30 207.04 172.22 C 250.87 167.40 295.01 167.52 339.02 165.83 Z" />
<path fill="#ffffff" opacity="1.00" d=" M 70.27 184.51 C 74.35 182.86 78.28 180.91 82.21 178.94 C 79.19 182.45 75.27 185.07 71.07 186.97 C 70.80 186.15 70.53 185.33 70.27 184.51 Z" />
<path fill="#ffffff" opacity="1.00" d=" M 546.77 181.52 C 549.26 183.14 551.70 184.85 554.11 186.58 C 551.84 186.75 549.56 186.90 547.29 186.77 C 547.06 185.02 546.89 183.27 546.77 181.52 Z" />
<path fill="#ffffff" opacity="1.00" d=" M 97.50 196.61 C 100.84 193.58 103.84 190.24 106.77 186.82 C 108.04 191.06 108.76 195.43 109.48 199.79 C 112.19 200.69 114.92 201.61 117.29 203.26 C 115.78 204.95 114.05 206.42 112.40 207.98 C 116.66 217.55 119.52 228.36 116.86 238.77 C 114.30 241.98 109.64 242.06 105.95 243.06 C 96.78 244.70 87.49 245.88 78.17 245.70 C 74.66 245.12 72.56 241.69 72.41 238.35 C 74.81 234.11 78.33 230.52 80.10 225.93 C 81.14 223.45 81.78 220.70 83.62 218.66 C 85.57 216.32 89.44 217.75 91.23 215.15 C 93.19 213.25 92.47 210.51 92.03 208.17 C 94.83 204.80 96.32 200.74 97.50 196.61 Z" />
<path fill="#ffffff" opacity="1.00" d=" M 608.47 188.44 C 609.93 187.96 611.49 187.88 613.02 187.68 C 613.12 189.14 613.22 190.60 613.32 192.06 C 611.27 193.29 608.92 193.21 606.64 192.90 C 607.16 191.40 607.25 189.59 608.47 188.44 Z" />
<path fill="#ffffff" opacity="1.00" d=" M 550.27 190.24 C 553.68 189.68 558.04 189.65 560.36 192.69 C 561.13 193.65 560.69 195.06 559.93 195.89 C 557.87 198.87 553.69 199.08 550.50 198.25 C 548.50 197.86 546.82 196.09 546.89 194.00 C 547.08 192.16 548.68 190.92 550.27 190.24 M 548.56 194.94 C 551.39 197.67 557.38 197.79 558.27 193.15 C 555.40 190.32 549.42 190.16 548.56 194.94 Z" />
<path fill="#ffffff" opacity="1.00" d=" M 518.24 191.08 C 519.55 191.75 519.52 192.41 518.13 193.05 C 516.83 192.42 516.87 191.76 518.24 191.08 Z" />
<path fill="#ffffff" opacity="1.00" d=" M 586.58 196.03 C 588.51 191.11 594.58 192.10 598.80 191.21 C 598.53 192.60 598.65 194.39 597.16 195.12 C 593.93 196.70 589.99 197.58 586.58 196.03 Z" />
<path fill="#ffffff" opacity="1.00" d=" M 568.84 196.90 C 570.10 192.74 575.54 190.83 578.91 193.84 C 577.17 197.80 572.44 197.90 568.84 196.90 Z" />
<path fill="#ffffff" opacity="1.00" d=" M 553.13 201.98 C 555.70 203.04 556.37 205.92 557.53 208.17 C 555.56 206.51 553.79 204.54 553.13 201.98 Z" />
<path fill="#ffffff" opacity="1.00" d=" M 550.30 204.84 C 553.62 207.96 557.01 211.10 561.24 212.97 C 560.15 215.88 559.19 218.85 558.59 221.91 C 555.69 222.48 551.72 222.04 550.17 225.16 C 548.39 227.71 549.96 230.65 551.13 233.07 C 548.69 236.84 546.58 240.80 544.31 244.66 C 540.82 243.15 537.47 241.34 534.46 239.01 C 536.73 235.48 540.25 232.85 541.85 228.88 C 540.01 227.41 536.39 226.43 537.26 223.39 C 538.64 220.51 542.08 221.02 544.72 220.77 C 544.52 214.89 547.42 209.74 550.30 204.84 Z" />
<path fill="#ffffff" opacity="1.00" d=" M 15.69 227.26 C 13.74 222.07 17.24 216.93 20.87 213.50 C 25.11 217.84 28.30 223.10 32.72 227.28 C 40.19 235.01 48.68 241.98 58.73 246.04 C 54.46 248.70 50.11 251.70 44.98 252.34 C 42.36 253.11 40.13 251.20 37.87 250.20 C 28.26 245.39 19.10 237.79 15.69 227.26 Z" />
<path fill="#ffffff" opacity="1.00" d=" M 3.35 242.88 C 2.88 236.95 8.59 233.49 12.77 230.48 C 18.79 241.40 28.81 249.89 40.19 254.84 C 45.60 256.27 50.78 253.25 55.82 251.72 C 61.27 255.30 66.41 259.95 68.79 266.17 C 69.62 268.93 66.20 270.48 64.01 270.92 C 52.13 273.41 39.64 270.46 28.98 265.02 C 23.86 261.38 26.65 253.15 21.38 249.63 C 17.57 247.44 13.15 250.13 9.16 248.63 C 6.49 247.84 3.05 246.21 3.35 242.88 Z" />
<path fill="#ffffff" opacity="1.00" d=" M 59.01 249.76 C 62.54 246.87 65.96 243.86 69.19 240.65 C 70.87 243.18 72.53 245.76 74.72 247.89 C 73.67 252.38 74.33 256.95 75.09 261.42 C 73.39 261.45 71.70 261.45 70.00 261.44 C 66.72 257.21 63.40 252.92 59.01 249.76 Z" />
<path fill="#ffffff" opacity="1.00" d=" M 533.00 241.17 C 536.24 243.49 539.56 245.79 543.37 247.09 C 542.74 250.21 542.30 253.36 542.13 256.54 C 538.54 255.28 534.26 254.51 531.93 251.19 C 529.97 247.96 531.41 244.20 533.00 241.17 Z" />
<path fill="#ffffff" opacity="1.00" d=" M 113.88 244.02 C 116.02 243.48 118.31 242.11 120.49 243.29 C 129.80 246.83 140.23 250.23 146.05 258.93 C 147.87 261.04 146.87 263.96 146.36 266.37 C 143.71 267.55 140.96 268.70 138.00 268.55 C 129.73 268.34 121.49 267.21 113.43 265.38 C 111.16 264.60 108.25 264.31 107.10 261.88 C 105.19 258.86 103.67 253.76 99.21 254.25 C 94.00 255.02 91.51 260.05 90.60 264.71 C 86.59 266.31 82.44 264.12 79.32 261.65 C 75.84 258.35 76.73 253.14 77.33 248.90 C 89.64 248.80 102.12 247.95 113.88 244.02 Z" />
<path fill="#ffffff" opacity="1.00" d=" M 567.04 255.53 C 577.85 255.57 588.51 253.34 598.69 249.82 C 599.23 254.09 598.77 259.23 594.98 261.95 C 584.87 267.50 572.80 266.96 561.73 265.42 C 556.89 264.37 551.37 264.14 547.72 260.33 C 545.11 258.14 545.49 254.48 545.67 251.45 C 552.68 253.35 559.76 255.05 567.04 255.53 Z" />
<path fill="#ffffff" opacity="1.00" d=" M 508.26 257.28 C 514.07 253.06 521.54 251.28 528.62 252.20 C 530.27 254.22 532.17 256.01 534.17 257.69 C 523.57 258.96 512.75 264.90 508.76 275.27 C 504.99 275.21 500.17 274.83 498.25 271.03 C 498.68 264.93 503.39 260.37 508.26 257.28 Z" />
<path fill="#ffffff" opacity="1.00" d=" M 535.53 260.34 C 538.80 260.01 542.84 258.80 545.30 261.75 C 550.53 266.75 557.91 268.44 564.93 268.87 C 571.89 269.47 578.91 270.04 585.87 269.04 C 586.31 274.25 588.75 280.42 585.04 284.99 C 581.81 286.48 577.99 286.90 574.47 286.51 C 571.05 285.97 572.20 281.65 570.43 279.54 C 568.54 277.06 563.74 275.75 561.95 279.02 C 560.01 281.66 559.36 286.94 555.06 286.38 C 543.41 285.37 531.68 285.76 520.03 284.65 C 516.90 284.25 513.35 282.90 512.16 279.70 C 510.97 277.28 512.14 274.58 513.63 272.60 C 518.52 265.40 527.17 261.63 535.53 260.34 Z" />
</g>
</svg>
