<?xml version="1.0" encoding="utf-8"?>
<!-- Generator: Adobe Illustrator 17.0.0, SVG Export Plug-In . SVG Version: 6.00 Build 0)  -->
<!DOCTYPE svg PUBLIC "-//W3C//DTD SVG 1.1//EN" "http://www.w3.org/Graphics/SVG/1.1/DTD/svg11.dtd">
<svg version="1.1" id="Layer_1" xmlns="http://www.w3.org/2000/svg" xmlns:xlink="http://www.w3.org/1999/xlink" x="0px" y="0px"
	 width="800px" height="600px" viewBox="0 0 800 600" enable-background="new 0 0 800 600" xml:space="preserve">
<g>
	<path d="M528.021,233.456c-3.632-8.932-9.543-17.882-17.779-23.263c-0.423-12.515-9.815-22.603-21.696-27.042
		c-7.312-2.729-15.767-2.889-22.641-6.564c-4.668-2.498-8.399-6.274-12.975-8.553c6.759-3.763,14.277-6.257,21.787-7.643
		c6.053-1.118,12.24-1.209,18.348-0.586c4.942,0.503,9.872,2.469,14.866,1.967c3.478-0.35,7.269-3.776,8.673-6.589
		c3.303-6.6,7.163-11.247,10.008-17.442c3.574-7.799,2.261-15.691-6.338-18.808c-10.295-3.733-27.313-1.339-37.835,1.014
		c-18.679,4.184-33.559,11.818-48.111,23.931c-3.319,2.761-6.592,5.554-9.795,8.406c-8.054-2.501-32.882-0.247-43.112,2.276
		c-11.395,2.813-20.634,10.817-27.232,18.135c-7.436-4.868-16.801-6.892-23.347-6.834c-13.478,0.123-26.6,4.528-37.269,12.827
		c-24.387,18.967-33.287,49.152-33.827,78.995c-0.307,16.831,1.94,33.629,4.476,50.229c2.592,16.97,5.044,33.984,8.091,50.882
		c2.973,16.465,6.691,34.248,12.661,49.898c5.646,14.795,12.495,29.517,23.159,41.356c8.607,9.55,17.92,15.163,27.57,19.301
		c7.715,9.828,18.108,20.459,27.847,28.396c11.879,9.679,26.611,13.782,41.907,14.716c29.773,1.823,66.442-8.929,75.265-41.463
		c21.432-16.159,34.607-35.803,38.874-62.584c2.749-17.255,1.069-37.262,3.309-54.587c2.18-16.896,9.721-32.21,11.856-49.214
		C537.703,281.173,537.017,255.575,528.021,233.456z"/>
	<path fill="#5E7C41" d="M506.051,157.56c-5.632,0.001-11.331-2.116-17.008-2.448c-14.506-0.843-33.588,4.826-42.322,11.62
		c1.941-4.757,14.804-14.525,25.819-17.373c12.223-3.163,27.16-0.813,37.569,6.246C508.922,156.776,507.587,157.559,506.051,157.56z
		"/>
	<path fill="#5E7C41" d="M511.335,154.211c-7.057-5.63-21.163-8.424-32.781-7.086c-12.278,1.414-21.811,7.334-30.838,15.326
		c-4.567,4.046-9.781,10.258-11.86,13.348c-7.096,10.54-11.899,21.397-11.852,28.498c-3.893,9.537-8.664,19.39-7.481,29.364
		c-3.111,0.213-6.27,0.08-8.909,0.075c-0.343,0-0.685-0.004-1.026-0.006c-3.372-8.359,1.99-15.215,6.592-21.82
		c4.082-5.85,7.475-12.273,10.482-18.73c6.428-13.812,12.697-26.572,24.73-36.404c17.401-14.221,50.938-26.638,67.591-10.179
		C516.804,147.41,512.397,155.06,511.335,154.211z"/>
	<path fill="#446F28" d="M440.892,222.934c2.216,0.87,7.669,0.292,7.919,2.91c0.175,1.847-3.403,4.151-4.421,5.265
		c-0.814,0.887-1.286,1.853-1.559,2.916c-6.773-0.362-13.644,0.616-20.862,2.91c-14.163,4.498-37.46,16.553-50.205,3.534
		c-4.242-4.334-5.956-11.104-8.619-16.428c-1.948-3.896-4.513-7.191-7.776-9.81c3.549-4.335,4.567-8.654,3.81-14.025
		c3.379,1.497,7.509,2.769,10.955,1.375c3.456-1.397,3.481-6.941,5.919-7.57c3.011-0.777,3.211,1.534,5.923,1.649
		c2.712,0.117,5.242-2.427,6.941-0.817c-3.154,5.573-7.33,9.649-10.45,11.148c0.985-5.575-1.135-9.943-1.053-8.487
		c0.192,3.495-1.059,9.244-2.719,11.163c-1.659,1.919-3.645,4.05-5.002,6.912c-0.917-1.864-2.171-3.726-3.141-5.455
		c-1.156-2.057-2.582-4.58-4.814-5.58c-0.2-0.089-0.516,0.172-0.321,0.346c2.698,2.418,3.434,5.82,3.763,7.33
		c0.469,2.161,1.133,4.758,2.772,6.346c-1.602,9.997,6.645,17.085,17.943,18.726c-0.716,1.56-2.663,3.52-7.645,3.63
		c-0.364,0.009-0.372,0.571-0.024,0.626c1.755,0.272,3.288,0.313,5.041,0.029c2.36-0.382,4.264-2.201,6.519-2.941
		c2.16-0.711,4.738-1.587,6.667-1.218c1.926,0.369,3.345,2.167,1.94,3.716c-0.383,0.42,0.113,1.024,0.585,0.676
		c1.178-0.871,1.806-1.842,1.845-3.34c0.013-0.602-0.147-1.147-0.408-1.625c0.963-0.046,1.922-0.08,2.873-0.072
		c7.63,0.079,15.246,0.856,22.571-1.743c4.084-1.448,6.028-3.905,6.714-6.825c0.727,0.671,1.585,1.209,2.581,1.512
		c3.266,0.986,6.414-0.165,9.008-2.2c0.425-0.332-0.092-1.081-0.541-0.778c-2.42,1.625-5.317,2.281-7.846,0.454
		c-1.528-1.103-4.006-3.966-4.155-8.896c0.664,0.052,1.365-0.014,2.082-0.218c1.556-0.442,2.874-1.813,3.408-3.294
		c0.461-1.269,1.358-2.817,2.62-3.593c0.421-0.26-0.938-0.353-1.36-0.096c-1.165,0.708-1.478,1.517-2.25,2.585
		c-1.923,2.655-4.729,1.746-5.997,0.26c-1.265-1.489-1.461-4.892-1.676-7.22c3.995,3.438,9.178,2.598,13.641-0.255
		c0.403,3.209-0.989,8.301-2.585,10.087C437.655,218.623,439.108,222.233,440.892,222.934z"/>
	<path fill="#5E7C41" d="M426.736,230.396c-2.232,1.865-5.251,2.714-8.426,3.094c-1.243-8.801,2.789-18.639,6.08-26.668
		C426.127,213.421,432.981,225.183,426.736,230.396z"/>
	<path fill="#6D883D" d="M517.128,144.969c-20.263-16.406-49.813-3.976-68.082,9.547c-13.16,9.741-19.955,23.618-26.625,38.128
		c-4.185,9.108-9.932,16.809-15.266,25.181c-3.212,5.035-4.325,10.448-2.369,15.894c-4.259-0.039-8.494-0.088-12.745,0.434
		c-1.511,0.185-3.093,0.209-4.683,0.096c-4.837-7.495,11.786-23.465,15.979-27.993c10.861-11.728,19.905-24.881,29.938-37.31
		c12.791-15.851,27.877-29.249,47.726-35.2c7.017-2.103,15.527-2.67,22.794-2.346c5.871,0.264,16.597,1.846,17.561,7.484
		C521.699,140.894,518.546,144.892,517.128,144.969z"/>
	<path fill="#6D883D" d="M522.608,136.626c-0.012,0.033-0.005,0.059-0.012,0.092c-0.019,0.036-0.039,0.073-0.059,0.11
		c-4.653-9.275-23.98-7.735-32.199-6.795c-21.773,2.488-40.192,17.281-54.032,33.254c-12.575,14.514-23.219,30.464-36.12,44.714
		c-3.945,4.357-18.084,18.496-14.125,26.129c-2.436,0.257-6.583-0.657-8.357-2.946c-4.737-6.113,0.096-14.754,6.503-19.219
		c6.048-4.215,11.938-8.048,16.891-13.598c5.327-5.968,9.581-12.872,14.132-19.422c5.077-7.307,10.778-14.19,16.78-20.749
		c12.09-13.215,25.865-22.621,42.956-28.35c8.566-2.871,20.095-4.539,29.118-4.367C508.868,125.571,525.625,128.17,522.608,136.626z
		"/>
	<path fill="#5E7C41" d="M435.05,148.357c13.153-11.051,25.743-19.384,42.535-23.459c10.041-2.435,21.492-4.764,31.837-3.98
		c6.408,0.484,11.439,1.479,13.998,5.383c1.207,1.842,1.331,3.949,0.832,6.127c-1.022-2.113-3.266-3.769-5.481-5.093
		c-7.763-4.646-17.498-3.688-26.141-2.728c-20.671,2.298-39.931,11.072-54.811,25.629c-7.73,7.562-14.745,15.813-21.201,24.481
		c-6.818,9.152-12.52,19.032-20.665,27.131c-6.201,6.164-15.761,9.431-19.959,17.476c-1.572,3.013-1.821,7.159-0.613,10.57
		c-2.969-2.479-5.216-5.786-4.26-11.08c0.956-5.295,8.33-9.3,13.606-13.164c5.319-3.9,9.268-9.825,12.938-15.178
		c4.614-6.728,8.941-13.676,14.087-20.02C418.483,162.148,426.895,155.211,435.05,148.357z"/>
	<path fill="#FFAB19" d="M312.601,446.254c-11.821-12.392-19.649-30.47-25.325-46.395c-11.445-32.101-15.229-67.231-20.095-100.81
		c-4.935-34.04-7.065-72.692,14.25-101.972c8.497-11.67,20.692-20.005,34.475-24.122c7.102-2.121,14.532-2.233,21.853-1.661
		c6.231,0.49,12.033,4.193,17.523,6.855c3.333,1.618,6.32,2.245,9.957,2.669c1.224,0.145,1.723-1.865,0.484-2.151
		c-2.771-0.638-5.249-1.931-7.637-3.418c4.26-6.31,14.688-13.183,25.738-16.096c11.048-2.912,25.529-2.912,35.862-2.443
		c-8.26,7.741-15.914,16.035-22.405,25.504c-2.151,3.139-4.181,6.434-6.32,9.649c-1.608-0.747-3.182-0.774-5.016,0.005
		c-2.638,1.12-3.93,3.226-6.978,0.491c-2.701-2.423-6.552,0.737-7.689,2.46c-3.649,5.535-7.828,3.899-13.162,2.517
		c-0.769-0.2-1.677,0.341-1.484,1.24c0.19,0.893,0.29,1.769,0.346,2.633c-5.772-3.219-8.2-13.994-15.535-16.312
		c-0.313-0.098-0.498,0.274-0.229,0.451c4.777,3.164,7.338,7.502,9.459,12.683c1.221,2.977,3.037,5.903,6.13,6.894
		c-0.465,2.779-1.655,5.37-3.592,7.73c-0.66-0.431-1.341-0.841-2.049-1.219c-14.958-8.009-33.635,2.397-44.241,12.92
		c-12.227,12.128-17.601,29.443-19.976,46.068c-2.345,16.421-1.444,33.315,0.535,49.722c2.336,19.354,5.14,41.118,11.281,66.49
		c6.341,26.191,16.319,49.562,33.2,73.248C325.237,455.771,318.136,452.055,312.601,446.254z"/>
	<path fill="#FFAB19" d="M448.86,497.697c-13.801,7.678-29.8,9.438-45.327,9.082c-30.372-0.695-52.114-28.53-68.686-51.014
		c-18.064-24.504-30.848-57.55-35.811-85.397c-4.962-27.845-8.149-50.093-8.436-75.305c-0.293-25.906,4.735-55.785,26.851-72.234
		c13.649-10.154,32.491-12.037,41.675,4.591c5.871,10.623,9.325,20.216,22.335,23.122c16.886,3.776,33.752-6.669,49.737-10.064
		c15.789-3.356,31.014,3.594,43.23,13.2c19.315,15.186,22.893,39.096,20.03,62.11c-3.05,24.548-11.5,48.026-17.312,71.969
		c-2.624,10.817-4.599,21.724-5.135,32.856c-0.632,13.145,3.8,25.531,3.868,38.553C475.968,476.061,462.708,489.984,448.86,497.697z
		"/>
	<path fill="#FFAB19" d="M529.502,304.189c-1.755,16.062-9.563,30.463-12.086,46.353c-2.53,15.897-0.612,31.994-1.863,47.963
		c-2.095,26.77-15.568,49.022-35.771,65.832c0.899-9.452-1.24-18.881-2.685-29.001c-1.66-11.63,0.352-23.668,2.597-35.078
		c4.885-24.856,13.918-48.693,18.925-73.521c4.295-21.295,5.114-44.975-7.267-63.84c-6.556-9.989-16.347-17.946-27.056-23.109
		c-6.029-2.908-11.935-4.706-17.885-5.449c1.559-2.527,5.087-3.835,5.491-6.702c0.336-2.393-0.757-6.043-3.781-5.692
		c-1.062,0.121-3.706,0.119-5.186-0.758c-1.352-0.799-2.138-3.204-0.391-4.854c2.539-2.394,2.573-9.515,1.265-12.715
		c-0.29-0.707-1.198-0.307-1.75,0.116c-4.268,3.249-9.539,4.409-13.734,0.41c0.006-9.884,5.208-19.437,12.145-26.651
		c2.588-2.689,5.483-5.041,8.581-7.1c4.899,1.863,8.658,5.991,12.838,9.112c4.974,3.71,10.767,4.746,16.625,6.333
		c6.468,1.754,13.033,3.836,18.429,7.938c4.727,3.592,7.16,8.601,8.93,14.009c-10.519-4.862-23.917-5.385-34.172,0.178
		c-2.011,1.093-3.504,2.31-5.109,3.928c-0.423,0.428,0.239,1.022,0.694,0.729c11.476-7.313,27.044-5.023,38.459,1.37
		c9.263,5.186,14.793,15.952,18.28,25.5C531.397,259.674,531.81,283.04,529.502,304.189z"/>
	<path fill="#E69000" d="M287.479,320.145c-1.98-16.407-2.88-33.301-0.535-49.722c2.375-16.625,7.749-33.94,19.976-46.068
		c3.563-3.535,8.038-7.053,12.975-9.869c-13.211-9.302-31.514-11.922-45.618-5.558c-13.554,27.392-11.389,60.503-7.096,90.121
		c4.866,33.579,8.651,68.709,20.095,100.81c5.676,15.925,13.504,34.003,25.325,46.395c5.535,5.801,12.636,9.517,19.359,13.63
		c-16.881-23.686-26.859-47.058-33.2-73.248C292.618,361.262,289.815,339.499,287.479,320.145z"/>
	<path fill="#E69000" d="M350.672,198.03c-0.139-0.343-0.287-0.672-0.433-1.007c-2.865,3.532-4.883,7.559-5.6,12.084
		c2.224,0.448,4.409,1.197,6.522,2.327c0.708,0.378,1.389,0.788,2.049,1.219c1.937-2.36,3.128-4.951,3.592-7.73
		C353.709,203.933,351.893,201.007,350.672,198.03z"/>
	<path fill="#E69000" d="M370.766,182.896c-7.086,2.894-14.131,7.074-19.169,12.551c1.617,2.407,3.274,4.587,5.379,5.762
		c-0.057-0.864-0.156-1.74-0.346-2.633c-0.194-0.899,0.715-1.44,1.484-1.24c5.334,1.382,9.514,3.018,13.162-2.517
		c1.138-1.724,4.988-4.884,7.689-2.46c3.048,2.735,4.34,0.629,6.978-0.491c1.834-0.779,3.408-0.752,5.016-0.005
		c2.139-3.216,4.169-6.51,6.32-9.649c1.147-1.669,2.339-3.29,3.551-4.888C390.615,177.212,380.442,178.942,370.766,182.896z"/>
	<path fill="#E69000" d="M469.451,479.286c-1.434-11.864-6.619-23.795-8.722-35.763c-3.786-21.52,1.655-43.958,4.902-65.237
		c2.081-13.655,5.367-32.105-2.619-44.509c-9.719-15.1-26.171-7.729-37.342,1.154c-10.13,8.053-18.989,15.83-32.499,17.123
		c-13.701,1.311-27.783-0.218-40.068,7.307c-7.987,4.898-13.358,12.439-15.418,21.59c-4.49,19.942,1.747,41.479,7.002,60.673
		c3.451,12.587,8.105,25.743,10.228,38.979c13.276,14.162,29.175,25.734,48.618,26.177c15.527,0.357,31.526-1.404,45.327-9.082
		C456.674,493.344,464.302,487.012,469.451,479.286z"/>
	<path fill="#E69000" d="M466.76,219.295c-3.298-16.045-17.06-28.034-31.955-34.75c-3.917,5.91-6.477,12.671-6.482,19.6
		c4.195,3.999,9.466,2.839,13.734-0.41c0.553-0.423,1.461-0.822,1.75-0.116c1.308,3.201,1.274,10.321-1.265,12.715
		c-1.747,1.65-0.96,4.054,0.391,4.854c1.48,0.877,4.124,0.879,5.186,0.758c3.024-0.351,4.117,3.299,3.781,5.692
		c-0.404,2.867-3.931,4.176-5.491,6.702c4.564,0.57,9.102,1.766,13.692,3.604C465.329,233.138,468.343,226.991,466.76,219.295z"/>
	<path fill="#E69000" d="M496.942,193.777c-1.315-1.002-2.707-1.881-4.147-2.665c-5.678,3.544-11.454,8.263-14.394,14.187
		c8.963-2.481,19.12-1.37,27.471,2.488C504.102,202.378,501.67,197.37,496.942,193.777z"/>
	<path fill="#E69000" d="M518.467,345.186c-1.637,0.607-3.331,0.989-5.071,1.075c-7.831,0.392-13.065-5.574-16.371-12.244
		c-5.157,22.234-12.925,43.828-17.332,66.242c-2.245,11.41-4.257,23.448-2.597,35.078c1.445,10.119,3.584,19.548,2.685,29.001
		c20.203-16.81,33.676-39.062,35.771-65.832c1.251-15.969-0.667-32.066,1.863-47.963C517.7,348.738,518.063,346.959,518.467,345.186
		z"/>
	<path fill="#305610" d="M383.266,241.576c-1.754,0.284-3.286,0.243-5.041-0.029c-0.348-0.055-0.339-0.616,0.024-0.626
		c4.982-0.11,6.929-2.07,7.645-3.63c-11.298-1.641-19.545-8.729-17.943-18.726c-1.639-1.587-2.303-4.184-2.772-6.346
		c-0.075-0.348-0.177-0.806-0.317-1.321c-2.585,2.221-4.39,4.92-4.833,8.153c1.169,1.536,2.218,3.189,3.115,4.988
		c2.416,4.83,4.074,10.834,7.525,15.145c2.913,2.516,6.207,4.666,9.639,6.28c12.966,3.588,30.266-4.912,41.661-8.53
		c1.557-0.494,3.09-0.915,4.618-1.286c0.65-0.597,1.268-1.212,1.864-1.841c-0.747,0.461-1.604,0.872-2.591,1.222
		c-7.324,2.599-14.94,1.822-22.571,1.743c-0.951-0.008-1.91,0.025-2.873,0.072c0.261,0.478,0.421,1.023,0.408,1.625
		c-0.039,1.498-0.667,2.468-1.845,3.34c-0.472,0.348-0.968-0.256-0.585-0.676c1.405-1.549-0.014-3.347-1.94-3.716
		c-1.93-0.368-4.507,0.507-6.667,1.218C387.53,239.375,385.626,241.194,383.266,241.576z"/>
	<path fill="#305610" d="M433.701,218.078c-0.717,0.204-1.418,0.27-2.082,0.218c0.102,3.348,1.278,5.724,2.501,7.261
		c1.607-3.399,2.619-7.013,2.924-10.624C436.478,216.356,435.203,217.65,433.701,218.078z"/>
	<path fill="#305610" d="M436.12,213.679c0.409-0.564,0.69-1.055,1.033-1.498c-0.016-1.169-0.14-2.327-0.313-3.473
		c-2.95,0.632-5.901,0.153-8.394-1.99c0.216,2.328,0.411,5.732,1.676,7.22C431.391,215.425,434.197,216.334,436.12,213.679z"/>
	<path fill="#305610" d="M374.694,208.666c0.655-0.756,1.244-2.113,1.706-3.688c-3.669,1.142-7.206,2.715-10.065,4.764
		c0.072,0.127,0.146,0.256,0.215,0.381c0.971,1.728,2.224,3.591,3.141,5.455C371.049,212.716,373.035,210.585,374.694,208.666z"/>
	<path fill="#537926" d="M416.799,202.983c-1.94-1.842-3.754-3.856-5.406-6.013c-2.599,3.163-5.265,6.274-8.056,9.286
		c-4.192,4.528-20.816,20.498-15.979,27.993c1.59,0.112,3.173,0.089,4.683-0.096c4.251-0.522,8.486-0.474,12.745-0.434
		c-1.956-5.445-0.843-10.859,2.369-15.894C410.366,212.785,413.72,207.987,416.799,202.983z"/>
	<path fill="#537926" d="M410.512,195.772c-1.197-1.658-2.302-3.377-3.305-5.144c-1.919,2.676-3.919,5.288-6.109,7.74
		c-4.953,5.55-10.843,9.383-16.891,13.598c-6.407,4.465-11.24,13.106-6.503,19.219c1.775,2.289,5.922,3.203,8.357,2.946
		c-3.959-7.634,10.18-21.773,14.125-26.129C403.774,204.035,407.184,199.931,410.512,195.772z"/>
	<path fill="#446827" d="M500.409,151.052c-4.474,0.811-8.697,2.203-12.715,4.018c0.449,0.014,0.908,0.017,1.348,0.042
		c5.677,0.331,11.376,2.449,17.008,2.448c1.536-0.001,2.871-0.784,4.058-1.955c-2.787-1.891-5.905-3.431-9.203-4.631
		C500.738,151.001,500.574,151.024,500.409,151.052z"/>
	<path fill="#446827" d="M504.816,150.521c2.521,1.037,4.743,2.274,6.519,3.69c0.529,0.424,1.891-1.264,3.019-3.163
		C511.231,150.511,508.047,150.313,504.816,150.521z"/>
	<path fill="#446827" d="M422.509,207.906c-1.652-0.913-3.255-1.976-4.793-3.228c-1.425,2.474-2.913,4.908-4.536,7.233
		c-4.602,6.605-9.964,13.461-6.592,21.82c0.342,0.002,0.683,0.006,1.026,0.006c2.639,0.005,5.798,0.138,8.909-0.075
		C415.488,224.941,419.007,216.313,422.509,207.906z"/>
	<path fill="#446827" d="M423.689,208.545c-3.13,7.687-6.533,16.764-5.378,24.945c3.175-0.38,6.194-1.229,8.426-3.094
		c5.547-4.631,0.757-14.429-1.596-21.185C424.653,208.996,424.169,208.784,423.689,208.545z"/>
	<path fill="#446827" d="M403.987,181.086c-2.12,3.121-4.191,6.276-6.323,9.385c-3.67,5.353-7.619,11.278-12.938,15.178
		c-5.277,3.863-12.651,7.869-13.606,13.164c-0.956,5.294,1.292,8.601,4.26,11.08c-1.208-3.411-0.959-7.557,0.613-10.57
		c4.198-8.045,13.758-11.312,19.959-17.476c3.944-3.922,7.312-8.265,10.517-12.738C405.414,186.54,404.597,183.849,403.987,181.086z
		"/>
	<path fill="#FFC749" d="M297.512,292.666c-1.851,19.129,3.575,73.897,11.918,103.69c8.343,29.796,10.037-34.169,8.343-59.591
		C315.389,301.011,301.087,255.72,297.512,292.666z"/>
	<path fill="#FFC749" d="M359.487,301.011c19.748,8.463,69.128,0,87.003-15.497c17.878-15.492,12.99-38.695-7.271-35.12
		c-20.261,3.576-53.014,16.343-66.622,6.518c-15.728-11.36-30.987-36.946-44.096-23.837
		C315.389,246.187,317.773,283.133,359.487,301.011z"/>
	<path fill="#FFC749" d="M503.699,267.64c-4.073-11.203-14.303-45.291-1.192-41.716c13.11,3.578,22.645,32.182,20.259,53.635
		C520.384,301.011,508.465,280.749,503.699,267.64z"/>
	<path fill="#FFC749" d="M288.543,196.883c4.148-10.027,23.346-21.616,40.926-22.77c17.583-1.153,4.901,11.529-2.016,17.582
		C320.535,197.749,285.085,205.241,288.543,196.883z"/>
	<path fill="#FFE686" d="M336.569,221.606c9.085-3.634,13.909,13.882,23.725,27.992c12.755,18.336,24.606,13.796,27.512,19.246
		c3.02,5.663-16.121,10.769-31.614-4.723C340.699,248.628,325.504,226.032,336.569,221.606z"/>
	<path fill="#FFE686" d="M448.08,254.132c7.909-5.439,25.427,1.588,29.398,17.482C481.45,287.507,435.367,262.871,448.08,254.132z"
		/>
	<path fill="#FFE686" d="M490.189,219.172c8.544-2.441,21.455,7.151,23.046,17.481C514.821,246.981,479.065,222.35,490.189,219.172z
		"/>
	<path fill="#FFE686" d="M320.95,181.035c3.725-6.054,23.042-7.945,23.837-3.178C345.728,183.507,314.594,191.364,320.95,181.035z"
		/>
</g>
</svg>
